<svg xmlns="http://www.w3.org/2000/svg" width="1022.9" height="356.9"><path fill="#223d33" d="M109.5 124.9c3.4-1 7.5-2.7 10.8-4 16.7-7 29.2-19 29.8-32.8 1.6-35-44.2-56.5-114.8-41.7-7 1.4-1 15.6 8.8 22.2 47.7-13.3 77.8-3.2 82.4 13.9 3.5 13-7.1 23.4-38.1 34.3-5.4 2-8.8 4.5-9 9-.3 4 2.2 7.1 7.7 9.5 40.2 17.9 81.4 43.9 81.4 90.4 0 40.8-44 76.6-109.2 88.2 2-43 5.5-138.5.7-191-.8-9.8-6-16.2-26.7-18 4 36.3 5.2 150.3 5.6 211.7a277.6 277.6 0 0 1-38.6.8c-3 9.3 17.8 17 35.7 16l3-.2.1 23.5c10.5-1.2 17.8-9.5 19-20.8l.3-4.8c74-11 137-54 137-110.8 0-43-42-76.3-86-95.4m772 78c-6 10.4-14 20.8-20 22.2-6 1.4-10.7-2.4-9-13.8 2.4-17.4 18.6-44.2 31.3-47.5 1.9-.5 3.4-.3 4.5.4 4 2.7 4.6 19-6.8 38.7m-136.6-2.7c-12.7 20.8-23.7 18.3-23.7 7.3 0-16.4 5.9-29.4 11.8-35 2.4-2.2 4.7-3.4 6.9-3.2 1.3 0 2.5.7 3.4 2 2.2 2.8 3.1 8.4 3.1 14.5 0 4.8-.5 10-1.5 14.4m-19.2 40.6c-3.5 1.1-5.5-3.3-5.8-16.6 4.5 5.5 10 6.3 17.1 2.6-4 8.5-8.5 13.2-11.3 14m-301.6-37c-8.8 22.4-33.6 33.2-42.6 24.7a7.6 7.6 0 0 1-2.3-5.8c.1-15.8 29-39 49.8-43.3a76.9 76.9 0 0 0-4.9 24.3m-93.5-44.2c.9-32.7 3.8-57 10-82.6 7.4-30.8 21.5-60.4 30.6-60.4 2.6 0 3.8 3.5 4 10.8 0 26.8-15.6 78-44.6 132.2m-96.7 18c4.4-11 15.7-27.8 24-29.6 1.8-.4 3.3 0 4.6 1.2.8.8 1.2 2 1.2 3.7a19 19 0 0 1-1.1 6c-5 14.2-23.2 35.9-34.4 38.9 1.2-6.1 3.3-14.1 5.7-20.1m787 28.7-.6-1.2-.5 1.2c-8.2 17.8-26.2 36-52.2 36-35.4 0-56.6-25.5-58.5-73.6l-.1-7c-.1-5-7.4-11.6-12-14.6a13 13 0 0 0-7.3-2c-23.5 0-55 35.8-57.5 69-12.4 16.5-21.8 15.2-21.8 8.7 0-17.9 8.5-38.2 9.1-49.1.8-11.8-10.4-22.6-14-26.9-2-2.4 0-5-.6-11.6-.8-7.5-10.8-7.9-14.7-3.6-3.7 4-4 9.9-1.9 14.8-9.5 15.4-19 27.7-27.3 37.4 0-13.5-3.2-26.3-17-30.1a20 20 0 0 0-16.6 3.4 401.2 401.2 0 0 1 23.5-89A4.9 4.9 0 0 1 755 65c4.4.1 7.4-3.5 8.2-7.9.6-3.5-.2-12.4-4.4-16.2-2.1-2-4.3-3.3-7.1-2.7-3 .7-6.5 2.6-11 11.7-19.4 40.1-31.2 103.8-34.4 122.4a186.4 186.4 0 0 0-3 53.2c-4.5 5.1-10 8.6-14.3 8.5-7.1-.3-10-8-14.8-32.3l-2.3-12.5c-2.8-14.7-4.9-25.3-12-30.5a13.2 13.2 0 0 0-11.2-2.2c-11.6 2.8-19.5 18.3-31.4 43.3-3.4 7.1-8.2 17.2-12.3 24-.4-3.5 1-24.8 1-38.9 0-22.7-5.8-28.6-16.6-27.9-13 1-28.4 23-47 58l-.3-7.5.7-30.6c0-11.7-1.2-19.5-6.7-24a13.2 13.2 0 0 0-11.5-2.8c-9 1.9-15.4 12-26.8 31.1l-.5.8c-16.8 28.4-30.1 50.8-45.2 44.5-6-2.5-9.4-10.5-10-19.7 13.9-18.6 23.8-53 6-53-5 0-9.2 2.6-13.2 7.8-29.4 3.2-72.4 30-72.4 60.4v2l.1.4c-3.2 3-6.5 5-9.5 5-5 0-8.5-3.1-10.9-7.1a81.3 81.3 0 0 1-10-36C367.5 140.7 391 71.8 391 31.8 391 7.3 383 0 374 0c-31.3 0-61 78.8-61 162.8 0 6.4.2 12.9.5 19.3C295.6 211 266.1 245 246 245c-13.4 0-18.1-7-19.2-27.3 37.2-19.2 52.3-47 52.3-62.4 0-15.2-9.7-21-19.6-21-26.5 0-54 44.4-54 81.8 0 30.4 17 44.8 37.2 44.8 26.3 0 57-26.4 74.4-56.5l.4 1.9c4.3 17 11 37.2 27.6 39.2 8.6 1 16-3.3 21.5-8.3a22 22 0 0 0 5 5.7c6 4.8 14.6 6.5 24 5a49.1 49.1 0 0 0 32.5-23.4c4 8.1 9.5 13 14.8 15.8 9.8 5.2 25.2 7.7 43.1-10.5a209.2 209.2 0 0 0 27.5-39.3 330 330 0 0 1 9.8-15.7c1.1-1.7 1.4-.3 1.4 2.4-.4 43.8.3 58.4 6 69a9 9 0 0 0 8 4.8c4 0 7.2-3.1 8.4-5.6l9-19c7.3-15.6 25.1-50 30.5-50 3.1 0 .3 34 .2 44 0 12.3 1.4 19.8 6 24.4 2.5 2.5 5.9 3.8 9.5 3.7 11.8-.6 19.3-15.2 31.5-40.8 3.9-8.2 10.5-22 15.5-29.2 1.2-1.6 2-1.2 2.2-.2 1.7 5.4 4.5 22.5 6.5 35.7 2 13.2 5.3 32.1 21.7 35.4 10.8 2.2 20.8-4.2 26.9-10.3 1.1 3.3 2.6 6.5 4.4 9.4 5.5 9 14.9 9 19 7.9 14.2-4.1 22.4-23.6 25.3-31.8 1.9-5.3 3.5-11.3 4.7-17.2 15.9-17.6 34.2-42.6 38.5-48.4 3.4 2.6 4.8 5.9 5 9.7 0 10-11.2 37.3-11.2 54 0 13.4 7.8 19.2 19 19.2 8.8 0 16.7-5.2 23.4-12 4 7.4 11.7 12.3 21 12.3 18 0 35-14.2 42.1-35.3 10.3 33.8 36.8 49.8 68.6 49.8A62 62 0 0 0 1008 242c17.1-16 16.4-28.2 12.8-35.7M226 318.7c3.5-.3 7 .5 9.9 1.6l2.3-9c-3-1.3-6.4-2-12.2-1.9-4.8.2-20.6 1.7-20.6 23.5 0 17.3 10.6 23.5 20.6 23.5 1.7 0 4.2.4 11.4-.8v-10a51 51 0 0 1-11.4.5c-3.2-.3-6-1.3-7.8-3.7-1.8-2.3-2.5-4.9-2.5-10 0-5.3.7-7.7 2.5-10 1.8-2.4 4.6-3.4 7.8-3.7m30.9 23.7v-53c0-3.9-1.8-5.4-6.6-5.4h-3.6v59c0 6.3 3.3 13 12.8 13h6.2v-9h-4.6c-3 0-4.2-1.2-4.2-4.5m425.8-.1v-53c0-3.9-1.8-5.4-6.6-5.4h-3.7v59c0 6.3 3.4 13 12.9 13h6.2v-9h-4.6c-3 0-4.2-1.2-4.2-4.5m-383.1-4.7c0 5.8-3.2 9.3-8.6 9.3-5.3 0-8.3-3.4-8.3-9.3V310h-10.3v29c0 5.9 1.5 9.9 4.7 13a16 16 0 0 0 11.5 4.3c4.3 0 8.2-1.6 11.2-4.3v3.7h10V310h-10.2v27.8m46.5 7.7c-2.7 2.3-8.8 2.3-11 1-2.3-1.5-3.3-2.8-3.3-11v-16.3h8.2c3.3 0 5.7 1.3 7 3.3 1.6 2.3 1.9 5.5 1.9 8 0 7.3.3 12.4-2.8 15zm6.7-32.2a21 21 0 0 0-13.1-3.9h-8v-19c0-5.3-3.6-6.4-6.7-6.4h-3.5v51.5c0 10.9 2.4 15.4 7.1 18.6 4.3 3 17.1 4.9 24.5-1.7 5.8-5 6.2-11.5 6.2-21 0-9-1.6-14.2-6.5-18m35.9 15-7-.7c-5-.4-5.6-2.6-5.6-4.4 0-3.2 2.8-4.8 7.4-5.1a28 28 0 0 1 12.3 1.7l2-8.2c-4.9-1.7-9-2.3-14.2-2.3-10.4 0-17.4 5.8-17.4 14.3 0 7.8 4.6 12.2 13.7 13l7.2.6c4.8.4 5.4 2.8 5.4 4.6 0 5.2-7 5.6-9.1 5.6-5.6 0-10.1-1.2-14.1-2.7l-2.3 8.7a43 43 0 0 0 16.4 2.9c11.8 0 19.1-6 19.1-15.1 0-8-4.7-12.2-13.8-13m332.2.1-7-.7c-5-.4-5.6-2.6-5.6-4.4 0-3.2 2.8-4.8 7.4-5.1a28 28 0 0 1 12.3 1.7l2-8.2c-4.9-1.7-9-2.3-14.2-2.3-10.4 0-17.4 5.8-17.4 14.3 0 7.8 4.6 12.2 13.7 13l7.2.6c4.8.4 5.4 2.8 5.4 4.6 0 5.2-7 5.6-9.1 5.6-5.6 0-10.1-1.2-14.1-2.7l-2.3 8.7a43 43 0 0 0 16.4 2.9c11.8 0 19.1-6 19.1-15.1 0-8-4.7-12.2-13.8-13m-273.1 18.5c-1.5.8-3 1.2-4.6 1.2a8 8 0 0 1-6-2.2 7.9 7.9 0 0 1-2.1-5.8c0-1.6.5-3.3 1.5-5 1-1.8 3-3.7 5.8-6l10.5 13.5a23 23 0 0 1-5.1 4.3zm-6.4-42c1-1 2.4-1.6 4.1-1.6 1.6 0 3 .5 4 1.5a5 5 0 0 1 1.5 3.7c0 .7 0 1.3-.2 1.9-.2.6-.5 1.2-1 1.8-.5.6-1.1 1.4-2 2.2l-3.3 2.8a84.7 84.7 0 0 1-3.8-5.5c-.3-.6-.6-1.1-.7-1.6a6 6 0 0 1-.1-1.5 5 5 0 0 1 1.5-3.8zm29.7 42h-1.3a5 5 0 0 1-2-.5c-.5-.3-1-.8-1.6-1.5l-2-2.6 7-8.4c.3-.5.2-1-.3-1.3l-4.8-4c-.4-.4-.8-.4-1.2 0l-6 7-9.2-11.8a50.8 50.8 0 0 0 8-7.8 12.7 12.7 0 0 0 1.3-12.4 13.2 13.2 0 0 0-7.6-7.2c-1.8-.8-3.8-1.1-6-1.1-2 0-3.9.3-5.7 1a13.2 13.2 0 0 0-7.5 18.7l2 3.4 3.1 4.1a34.5 34.5 0 0 0-8.8 9.2 18.6 18.6 0 0 0-1.4 15.3 13.8 13.8 0 0 0 8.3 8.4c2 .8 4.5 1.2 7.2 1.2 3 0 5.7-.6 8.1-1.8 2.4-1.2 4.9-3 7.4-5.7l1.5 1.9a16 16 0 0 0 2 2.2c.6.6 1.3 1 2 1.4a6 6 0 0 0 2 .8l2.6.2h3c.5 0 .8-.3.8-.9v-7c0-.5-.3-.8-.9-.8m58.6-32.8a14.6 14.6 0 0 0-11.4-4.8c-3 0-5.5.5-7.5 1.5s-3.4 2.3-4.4 3.7h-.1v-21c0-5.4-4.3-9.6-9.6-9.6a1 1 0 0 0-1 .9v70.7h10.6v-27c0-3 .7-5.3 2.2-7.1a7.8 7.8 0 0 1 6.4-2.8c2.8 0 5 1 6.4 2.8 1.4 1.8 2.2 4.2 2.2 7v27.1H534V326a20 20 0 0 0-1.1-6.8 15 15 0 0 0-3.2-5.3m44.4 23.6c0 1.3-.3 2.5-.7 3.7a9.1 9.1 0 0 1-3.2 4.3 8.7 8.7 0 0 1-5.3 1.6 9 9 0 0 1-5.3-1.6 9 9 0 0 1-3.2-4.3 18 18 0 0 1-.7-3.7 47.8 47.8 0 0 1 .7-13 9 9 0 0 1 3.2-4.4 9 9 0 0 1 5.3-1.6 8.6 8.6 0 0 1 8.5 6 47.2 47.2 0 0 1 .8 13zm9.4-15.9c-1.2-4-3.5-7-6.8-9.2a20.7 20.7 0 0 0-11.8-3.2 21 21 0 0 0-11.8 3.2 16.8 16.8 0 0 0-6.8 9.2 33.8 33.8 0 0 0-1.5 11.2 43 43 0 0 0 1.5 11.2c1.2 4 3.5 7 6.8 9.2 3.3 2.2 7.2 3.3 11.8 3.3 4.6 0 8.5-1.1 11.8-3.3 3.3-2.2 5.6-5.3 6.8-9.2a34.1 34.1 0 0 0 1.5-11.2 43.1 43.1 0 0 0-1.5-11.2m69.4 6.7H635c-.4 0-.6-.2-.6-.6 0-1.4.2-2.7.6-3.8a8.2 8.2 0 0 1 3.3-4.3 10 10 0 0 1 5.6-1.5c2.2 0 4 .5 5.6 1.5 1.6 1 2.7 2.5 3.3 4.3.4 1.1.6 2.4.6 3.8 0 .4-.2.6-.6.6zm11.2 5.1v-1a85.2 85.2 0 0 0-.8-8.3 37 37 0 0 0-.7-2.5 17.1 17.1 0 0 0-6.7-9.1 20.5 20.5 0 0 0-11.9-3.3c-4.5 0-8.4 1-11.7 3.2a16.8 16.8 0 0 0-6.8 9.2 46.5 46.5 0 0 0 0 22.2c1.3 4 3.6 7.1 6.8 9.3a21 21 0 0 0 12.1 3.4 26 26 0 0 0 11-2.2 23 23 0 0 0 7.4-5.3l.8-.9-.6-.6-4.5-4-.6-.5-.5-.4-.7-.7-.8 1a13.5 13.5 0 0 1-4.2 3 15 15 0 0 1-6.4 1.2c-5.2 0-8.6-2.3-10.1-6.9l-.5-1.6-.2-1.9c0-.3.2-.5.6-.5h29v-2.8m-51.4 13.2h-1c-1.5 0-2.5-.3-3.2-.9-.7-.6-1-1.7-1-3.3v-23.5c0-.4.1-.6.5-.6h6c.7 0 1-.3 1-.9v-6.3c0-.6-.3-1-1-1h-6c-.4 0-.5-.1-.5-.5v-12.4c0-.6-.4-1-1-1H598c-.6 0-1 .4-1 1v12.4c0 .4-.1.6-.5.6h-3c-.6 0-1 .3-1 1v6.2c0 .6.4 1 1 1h3c.4 0 .5.1.5.5v23.9c0 4.4 1 7.7 3 9.9 1.8 2.2 5 3.3 9.6 3.3h5.5v-9.4h-2.3m-47.4-47.3 4.9 6.5h8.8l-8-11.4a3.1 3.1 0 0 0-2.6-1.4h-6.2c-1 0-2 .5-2.5 1.4l-8 11.4h8.7l5-6.5"/></svg>