<?xml version="1.0" encoding="utf-8"?>
<!-- Generator: Adobe Illustrator 24.1.0, SVG Export Plug-In . SVG Version: 6.00 Build 0)  -->
<svg version="1.1" id="Calque_1" xmlns="http://www.w3.org/2000/svg" xmlns:xlink="http://www.w3.org/1999/xlink" x="0px" y="0px"
	 viewBox="0 0 229.6 52.5" style="enable-background:new 0 0 229.6 52.5;" xml:space="preserve">
<style type="text/css">
	.st0{fill:#1D1D1B;}
	.st1{fill:#FFFFFF;}
	.st2{fill:#1B97D9;}
	.st3{fill:#33BC56;}
	.st4{fill:#0080C5;}
	.st5{fill:#00A66D;}
</style>
<g>
	<g>
		<g>
			<path class="st0" d="M145.8,199.3l-2.1,9.8c-0.2,1-0.3,1.4-0.3,1.7c0,0.4,0.2,0.7,0.6,0.7c0.1,0,0.3,0,0.4-0.1l0.1,1.6
				c-0.6,0.2-1.2,0.3-1.8,0.3c-1.4,0-2.1-0.7-2.1-1.9c0-0.4,0.1-1,0.2-1.7l2.1-10.1c0.3-1.6,0.4-2.8,0.2-3.6l2.8-0.9
				C146.2,196,146.2,197.8,145.8,199.3z"/>
			<path class="st0" d="M157.2,206.4c-1,1-2.7,1.5-5.2,1.5c-0.7,0-1.3-0.1-1.5-0.1c0,0.2-0.1,0.9-0.1,1.3c0,1.5,0.9,2.2,2.2,2.2
				c1.3,0,2.3-0.4,3.5-1.3l0.8,1.6c-1.5,1.2-2.9,1.7-5,1.7c-2.6,0-4.3-1.6-4.3-4.5c0-2.4,1.1-5.1,2.7-6.7c1.2-1.2,2.6-1.7,4.1-1.7
				c2.4,0,3.9,1.1,3.9,3.3C158.3,204.9,157.9,205.7,157.2,206.4z M154.1,202.6c-1.4,0-2.6,1.1-3.1,3.4c0.1,0,0.6,0.1,1.1,0.1
				c1.5,0,2.5-0.2,3.1-0.8c0.3-0.3,0.5-0.7,0.5-1.2C155.6,203.2,155.2,202.6,154.1,202.6z"/>
			<path class="st0" d="M176.4,210.8c-1.7,1.7-3.4,2.3-6.5,2.3h-4.2l3.6-16.7h3.7c2.6,0,4.1,0.3,5.2,1.5c0.9,1,1.4,2.3,1.4,4.4
				C179.7,205.1,178.4,208.9,176.4,210.8z M176.1,199.9c-0.6-0.9-1.4-1.2-2.8-1.2h-1.7l-2.6,12.2h1.7c1.8,0,3.1-0.7,3.8-1.7
				c1.6-2.2,2.1-5.4,2.1-6.7C176.7,201.3,176.6,200.5,176.1,199.9z"/>
			<path class="st0" d="M190.8,206.4c-1,1-2.7,1.5-5.2,1.5c-0.7,0-1.3-0.1-1.5-0.1c-0.1,0.2-0.1,0.9-0.1,1.3c0,1.5,0.9,2.2,2.2,2.2
				s2.3-0.4,3.4-1.3l0.8,1.6c-1.5,1.2-2.9,1.7-5,1.7c-2.6,0-4.3-1.6-4.3-4.5c0-2.4,1.1-5.1,2.7-6.7c1.2-1.2,2.6-1.7,4.1-1.7
				c2.4,0,3.9,1.1,3.9,3.3C191.9,204.9,191.5,205.7,190.8,206.4z M187.7,202.6c-1.4,0-2.6,1.1-3.1,3.4c0.1,0,0.6,0.1,1.1,0.1
				c1.5,0,2.5-0.2,3.1-0.8c0.3-0.3,0.5-0.7,0.5-1.2C189.2,203.2,188.8,202.6,187.7,202.6z M192.5,197.2l-5.6,2.4l-0.8-1.5l5.3-3.2
				L192.5,197.2z"/>
			<path class="st0" d="M203,211.4c-1.1,1.3-2.7,2-4.3,2c-1.1,0-2-0.2-2.7-0.5c0,0.1-0.1,0.7-0.2,1.1l-0.8,3.8l-2.7,0.6l2.9-13.8
				c0.3-1.5,0.2-2.2,0-3l2.5-1c0.2,0.5,0.4,1.4,0.3,2.2c1.1-1.3,2.7-2.1,4.1-2.1c2.1,0,3.2,1.5,3.2,4
				C205.4,206.8,204.4,209.9,203,211.4z M201.1,202.9c-1,0-2.2,0.7-3.3,2.3l-1.2,5.5c0.4,0.4,1.2,0.6,2,0.6c1.1,0,1.9-0.6,2.4-1.3
				c0.9-1.3,1.5-3.8,1.5-5.3C202.5,203.5,202.1,202.9,201.1,202.9z"/>
			<path class="st0" d="M217.5,204.3l-1,4.8c-0.3,1.5-0.2,2.1,0.4,2.8l-2.2,1.6c-0.7-0.5-0.9-1.2-0.9-2c-0.9,1.2-2.1,1.9-3.7,1.9
				c-1.9,0-3.2-1.3-3.2-3.9c0-2.7,1-5.3,2.6-6.9c1.3-1.3,2.9-2,4.9-2c1.4,0,2.8,0.3,3.8,0.9C218,202.2,217.6,203.5,217.5,204.3z
				 M214.1,202.7c-1.1,0-1.9,0.2-2.8,1.4c-1.1,1.3-1.6,3.7-1.6,5.4c0,1.3,0.4,1.8,1.3,1.8c1.1,0,2.3-1.1,2.9-2.3l1.3-6
				C215,202.8,214.5,202.7,214.1,202.7z"/>
			<path class="st0" d="M227.5,203.3c-0.2-0.1-0.5-0.2-0.8-0.2c-0.8,0-1.8,0.7-2.8,2.1l-1.7,7.9h-2.6l1.7-8.2
				c0.4-1.7,0.3-2.6,0.1-3.4l2.5-1c0.3,0.6,0.4,1.5,0.2,2.4c1.1-1.4,2.5-2.3,3.6-2.3c0.4,0,0.7,0,1,0.2L227.5,203.3z"/>
			<path class="st0" d="M235.1,202.8h-2.3l-1.4,6.6c-0.1,0.5-0.1,0.9-0.1,1.2c0,0.8,0.4,1,1.1,1c0.4,0,0.8-0.1,1.2-0.2v1.6
				c-0.8,0.3-1.7,0.5-2.5,0.5c-1.6,0-2.6-0.8-2.6-2c0-0.4,0.1-1.1,0.2-1.7l1.5-7h-1.4l0.4-1.9h1.4c0.2-1.1,0.5-2.1,0.8-3l2.8-0.7
				c-0.3,1-0.7,2.5-1,3.6h2.9L235.1,202.8z"/>
			<path class="st0" d="M246.1,206.4c-1,1-2.7,1.5-5.2,1.5c-0.7,0-1.3-0.1-1.5-0.1c0,0.2-0.1,0.9-0.1,1.3c0,1.5,0.9,2.2,2.2,2.2
				c1.3,0,2.3-0.4,3.5-1.3l0.8,1.6c-1.5,1.2-2.9,1.7-5,1.7c-2.6,0-4.3-1.6-4.3-4.5c0-2.4,1.1-5.1,2.7-6.7c1.2-1.2,2.6-1.7,4.1-1.7
				c2.4,0,3.9,1.1,3.9,3.3C247.2,204.9,246.8,205.7,246.1,206.4z M243,202.6c-1.4,0-2.6,1.1-3.1,3.4c0.1,0,0.7,0.1,1.1,0.1
				c1.5,0,2.5-0.2,3.1-0.8c0.3-0.3,0.5-0.7,0.5-1.2C244.5,203.2,244.1,202.6,243,202.6z"/>
			<path class="st0" d="M265.9,204.6l-1.8,8.5h-2.6l1.8-8.3c0.1-0.4,0.1-0.8,0.1-1.1c0-0.6-0.3-0.9-1-0.9c-0.9,0-2.1,0.9-3.1,2.2
				l-1.7,8H255l1.7-8.1c0.1-0.5,0.2-1,0.2-1.3c0-0.5-0.2-0.8-0.9-0.8c-0.9,0-2.1,0.8-3.2,2.3l-1.7,8h-2.6l1.8-8.5
				c0.3-1.3,0.2-2.3,0-3.1l2.5-1c0.2,0.6,0.3,1.5,0.2,2.3c1.4-1.5,2.9-2.1,4.2-2.1c1.3,0,2.1,0.7,2.2,2.1c1.5-1.6,2.9-2.2,4.2-2.2
				c1.4,0,2.4,0.9,2.4,2.5C266.1,203.5,266,204.1,265.9,204.6z"/>
			<path class="st0" d="M277.9,206.4c-1,1-2.7,1.5-5.2,1.5c-0.7,0-1.3-0.1-1.5-0.1c0,0.2-0.1,0.9-0.1,1.3c0,1.5,0.9,2.2,2.2,2.2
				s2.3-0.4,3.5-1.3l0.8,1.6c-1.5,1.2-2.9,1.7-5,1.7c-2.6,0-4.3-1.6-4.3-4.5c0-2.4,1.1-5.1,2.7-6.7c1.2-1.2,2.6-1.7,4.1-1.7
				c2.4,0,3.9,1.1,3.9,3.3C279,204.9,278.6,205.7,277.9,206.4z M274.8,202.6c-1.4,0-2.6,1.1-3.1,3.4c0.1,0,0.7,0.1,1.1,0.1
				c1.5,0,2.5-0.2,3.1-0.8c0.3-0.3,0.5-0.7,0.5-1.2C276.3,203.2,275.9,202.6,274.8,202.6z"/>
			<path class="st0" d="M291.7,204.4l-1.9,8.7h-2.6l1.7-8.1c0.1-0.5,0.2-0.9,0.2-1.2c0-0.7-0.3-1-1-1c-0.9,0-2.1,0.6-3.4,2.3l-1.7,8
				h-2.6l1.8-8.4c0.3-1.4,0.3-2.2,0-3.1l2.5-1c0.2,0.6,0.4,1.4,0.2,2.3c1.2-1.4,2.7-2.2,4.4-2.2c1.5,0,2.4,0.9,2.4,2.4
				C291.8,203.5,291.8,204,291.7,204.4z"/>
			<path class="st0" d="M300.9,202.8h-2.3l-1.4,6.6c-0.1,0.5-0.1,0.9-0.1,1.2c0,0.8,0.4,1,1.1,1c0.4,0,0.8-0.1,1.2-0.2v1.6
				c-0.8,0.3-1.7,0.5-2.5,0.5c-1.6,0-2.6-0.8-2.6-2c0-0.4,0-1.1,0.2-1.7l1.5-7h-1.4l0.4-1.9h1.4c0.2-1.1,0.5-2.1,0.8-3l2.8-0.7
				c-0.3,1-0.7,2.5-1,3.6h2.9L300.9,202.8z"/>
		</g>
	</g>
	<g>
		<g>
			<g>
				<path class="st0" d="M154.1,173.4c-0.8-0.7-1.9-1-3-1c-1.3,0-2.8,0.7-3.7,1.8c-1.7,1.9-2.7,6.5-2.7,8.8c0,2.6,1.3,3.8,3.5,3.8
					c1.2,0,2.3-0.4,3.6-1.4l1.4,2.6c-1.9,1.2-3.7,1.8-6,1.8c-4.4,0-7-2.5-7-7c0-3.1,1.2-6.8,3-9.2c2.1-2.9,5.3-4.4,8.5-4.4
					c2,0,3.8,0.6,4.7,1.6L154.1,173.4z"/>
				<path class="st0" d="M168.5,179.5c0,5.1-2.7,10.2-8.5,10.2c-3.3,0-5.2-1.8-5.2-5.2c0-5.5,3.4-10,8.4-10
					C166.5,174.5,168.5,176.3,168.5,179.5z M164.7,167.8l4.4,3.8l-1.5,2.1l-3.5-2.2l-4.3,2.2l-1-2.1L164.7,167.8z M158.8,184.9
					c0,1.4,0.7,2,1.8,2c2.5,0,3.8-4.6,3.8-7.4c0-1.7-0.6-2.2-1.8-2.2C160.1,177.4,158.8,182.7,158.8,184.9z"/>
				<path class="st0" d="M177.7,177.4h-2.5l-1.5,7.4c-0.1,0.5-0.1,0.9-0.1,1.3c0,0.8,0.4,1.1,1.3,1.1c0.3,0,1-0.1,1.4-0.3v2.3
					c-1.1,0.4-2.2,0.6-3.3,0.6c-2.2,0-3.4-1.1-3.4-2.5c0-0.5,0.1-1.2,0.2-1.9l1.7-7.9H170l0.5-2.7h1.4c0.3-1.4,0.5-2.4,0.9-3.5l4-1
					c-0.4,1.3-0.9,2.9-1.2,4.4h3.4L177.7,177.4z"/>
				<path class="st0" d="M189.9,187.8c-2,1.4-3.9,2-5.9,2c-3.5,0-5.5-1.8-5.5-5.4c0-3,1.3-6.1,3.3-8c1.4-1.4,3.1-1.9,5-1.9
					c2.9,0,5,1.1,5,4c0,2.8-2.5,5-7.4,5c-1,0-1.7-0.2-1.7-0.2s-0.1,0.9-0.1,1.3c0,1.7,0.9,2.3,2.5,2.3c1.3,0,2.7-0.6,4.1-1.5
					L189.9,187.8z M184.3,180.8c1.7,0,3.6-0.6,3.6-2c0-0.9-0.4-1.5-1.5-1.5c-1.4,0-2.5,0.9-3.1,3.4
					C183.2,180.7,183.8,180.8,184.3,180.8z"/>
				<path class="st0" d="M203.4,178.3c-1.3-0.7-2.5-1-3.6-1c-1.3,0-2.2,0.5-2.2,1.5c0,0.7,0.5,1.1,1.5,1.5l1.7,0.6
					c1.4,0.5,2.9,1.5,2.9,3.3c0,2.9-2.3,5.8-7,5.8c-2.1,0-4-0.7-5.7-1.6l1.5-2.8c1.1,0.8,3.1,1.5,4.7,1.5c1.3,0,2.3-0.9,2.3-1.8
					c0-0.7-0.6-1.1-1.9-1.5l-1.6-0.5c-1.5-0.5-2.7-1.5-2.7-3.4c0-2.5,1.9-5.3,6.7-5.3c1.9,0,3.6,0.6,4.8,1.3L203.4,178.3z"/>
				<path class="st0" d="M223.5,184.1c-0.8,3.6-0.7,4.8-0.6,5.3h-3.3c-0.1-0.2-0.2-0.9-0.1-1.3c-0.9,1-2.3,1.7-3.7,1.7
					c-3,0-4.5-1.7-4.5-5.1c0-2.9,1.1-6.1,3.2-8c1.3-1.3,3-2,4.7-2c1.1,0,2.2,0.3,2.5,0.4c0-0.2,0.1-0.8,0.3-1.7l1.1-5l3.7,0.6
					L223.5,184.1z M219.1,177.7c-0.7,0-1.5,0.4-2,1.1c-1.1,1.4-1.8,4-1.8,5.8c0,1.4,0.5,2.1,1.5,2.1c0.9,0,2.3-1.1,2.7-1.9l1.5-6.6
					C220.6,177.9,219.9,177.7,219.1,177.7z"/>
				<path class="st0" d="M228.1,176.2c1.3-0.5,2.3-1.1,2.3-1.7c0-0.3-0.1-0.6-0.4-0.8c-0.8-0.5-1-1.2-1-2.1c0-1.4,1.1-2.5,2.5-2.5
					c1.7,0,2.8,1.1,2.8,3.1c0,2.5-2.8,5-5.2,5.6L228.1,176.2z"/>
			</g>
		</g>
		<g>
			<g>
				<path class="st0" d="M243.3,169.5l2,19.9h-4.1l-0.4-4.7H235l-2.4,4.7h-4.4l10.8-19.9H243.3z M240.5,181.4l-0.3-4.1
					c-0.1-1.7-0.1-3.4-0.1-3.4s-1,2.4-1.7,3.8l-1.8,3.7H240.5z"/>
				<path class="st0" d="M252.4,174.3c0.2,0.5,0.5,1.5,0.3,2.4c1.3-1.3,2.7-2.2,4.1-2.2c0.5,0,0.8,0.1,1.3,0.3l-1.6,3.4
					c-0.3-0.2-0.7-0.3-1.1-0.3c-0.7,0-1.6,0.4-2.8,2l-2,9.5h-3.8l2.1-9.6c0.4-1.8,0.3-3.1,0.1-4L252.4,174.3z"/>
				<path class="st0" d="M262.3,174.3c0.2,0.5,0.4,1.6,0.3,2.3c1.4-1.5,3.1-2.2,4.7-2.2c1.5,0,2.5,0.7,2.7,2.2
					c1.6-1.6,3.2-2.2,4.7-2.2c1.6,0,2.9,0.9,2.9,3c0,0.6-0.1,1.2-0.2,1.9l-2.1,10h-3.7l2.1-9.6c0.1-0.5,0.2-0.9,0.2-1.3
					c0-0.6-0.3-0.8-0.9-0.8c-1,0-2.2,0.9-3,2.2l-2,9.5h-3.8l2-9.5c0.1-0.6,0.2-1.1,0.2-1.4c0-0.6-0.3-0.8-0.9-0.8
					c-1,0-2.1,0.8-3.1,2.2l-2,9.5h-3.7l2.1-10c0.3-1.3,0.2-3-0.1-3.7L262.3,174.3z"/>
				<path class="st0" d="M292.6,179.5c0,5.1-2.7,10.2-8.5,10.2c-3.3,0-5.2-1.8-5.2-5.2c0-5.5,3.4-10,8.4-10
					C290.6,174.5,292.6,176.3,292.6,179.5z M282.9,184.9c0,1.4,0.7,2,1.8,2c2.5,0,3.8-4.6,3.8-7.4c0-1.7-0.6-2.2-1.8-2.2
					C284.2,177.4,282.9,182.7,282.9,184.9z"/>
				<path class="st0" d="M298.7,174.3c0.2,0.5,0.5,1.5,0.3,2.4c1.3-1.3,2.7-2.2,4.1-2.2c0.5,0,0.8,0.1,1.3,0.3l-1.7,3.4
					c-0.3-0.2-0.7-0.3-1.1-0.3c-0.7,0-1.6,0.4-2.8,2l-2,9.5H293l2.1-9.6c0.4-1.8,0.3-3.1,0.1-4L298.7,174.3z"/>
			</g>
		</g>
	</g>
	<g>
		<path class="st1" d="M349.1,185.1c-5.6,0.6-5.6,1.8-5.5,6.2c-4.3-12.1-15.9-14.8-33.1-13v7c5.6-1.4,13.3-1.8,19.1,0.6
			c5.5,2.3,11.6,6.8,13.4,13.9l0,0h5.8c-1.9-4.6-3.4-8.4,4.8-9.7c5-0.8,12,0.1,16.1,0.9v-4.3C360.3,184.9,354.3,184.5,349.1,185.1z"
			/>
		<path class="st2" d="M310.5,178.3c17.3-1.8,28.8,0.8,33.1,13c-0.1-4.3-0.1-5.6,5.5-6.2c5.2-0.5,11.2-0.2,20.7,1.5v-20.8h-59.3
			V178.3L310.5,178.3z"/>
		<path class="st3" d="M353.6,190c-8.2,1.4-6.7,5.1-4.8,9.7H343l0,0c-1.8-7.1-7.9-11.7-13.4-13.9c-5.9-2.4-13.5-2-19.1-0.6v32.4
			h59.3v-26.7C365.6,190.1,358.6,189.2,353.6,190z"/>
	</g>
</g>
<g>
	<rect x="142.9" y="0.1" class="st1" width="60.1" height="52.5"/>
</g>
<path class="st4" d="M176.4,25.8c-0.1-4.4-0.1-5.6,5.6-6.2c5.3-0.6,11.3-0.2,20.9,1.5V0h-60.1v12.6C160.2,10.8,172,13.5,176.4,25.8"
	/>
<path class="st5" d="M186.5,24.5c-8.3,1.4-6.8,5.2-4.9,9.9h-5.9c-1.8-7.2-8-11.8-13.6-14.1c-5.9-2.4-13.7-2-19.4-0.6v32.9h60.1V25.4
	C198.7,24.7,191.6,23.7,186.5,24.5"/>
<rect x="0.7" y="49.3" class="st5" width="133.6" height="3.3"/>
<path class="st0" d="M5.4,28.8l-1.7,8.1c-0.2,0.8-0.2,1.2-0.2,1.4c0,0.4,0.2,0.5,0.5,0.5l0.3,0l0.1,1.3c-0.5,0.2-1,0.3-1.5,0.3
	c-1.2,0-1.8-0.6-1.8-1.6c0-0.3,0.1-0.9,0.2-1.4l1.8-8.3c0.3-1.3,0.4-2.3,0.2-3l2.3-0.8C5.8,26,5.7,27.5,5.4,28.8"/>
<path class="st0" d="M14.8,34.7C14,35.5,12.6,36,10.5,36c-0.6,0-1-0.1-1.2-0.1c0,0.2-0.1,0.7-0.1,1.1c0,1.3,0.7,1.9,1.8,1.9
	c1.1,0,1.9-0.4,2.9-1.1l0.7,1.4c-1.2,1-2.4,1.4-4.1,1.4c-2.2,0-3.6-1.3-3.6-3.7c0-2,0.9-4.2,2.3-5.5c1-1,2.1-1.4,3.4-1.4
	c2,0,3.2,0.9,3.2,2.7C15.7,33.4,15.4,34.1,14.8,34.7 M12.3,31.5c-1.1,0-2.1,0.9-2.6,2.8c0.1,0,0.5,0.1,0.9,0.1
	c1.2,0,2.1-0.2,2.5-0.7c0.3-0.3,0.4-0.6,0.4-1C13.5,32,13.2,31.5,12.3,31.5"/>
<path class="st0" d="M30.7,38.3c-1.4,1.4-2.8,1.9-5.4,1.9h-3.5l3-13.8h3.1c2.2,0,3.4,0.2,4.3,1.2c0.8,0.8,1.2,1.9,1.2,3.7
	C33.4,33.6,32.4,36.7,30.7,38.3 M30.5,29.2c-0.5-0.7-1.2-1-2.3-1h-1.4l-2.1,10.1H26c1.5,0,2.5-0.6,3.2-1.4c1.3-1.8,1.7-4.5,1.7-5.6
	C30.9,30.5,30.8,29.8,30.5,29.2"/>
<path class="st0" d="M42.7,34.7c-0.8,0.8-2.2,1.3-4.3,1.3c-0.6,0-1-0.1-1.2-0.1c0,0.2-0.1,0.7-0.1,1.1c0,1.3,0.7,1.9,1.8,1.9
	c1.1,0,1.9-0.4,2.9-1.1l0.7,1.4c-1.2,1-2.4,1.4-4.1,1.4c-2.2,0-3.6-1.3-3.6-3.7c0-2,0.9-4.2,2.3-5.5c1-1,2.1-1.4,3.4-1.4
	c2,0,3.2,0.9,3.2,2.7C43.6,33.4,43.2,34.1,42.7,34.7 M40.1,31.5c-1.1,0-2.1,0.9-2.6,2.8c0.1,0,0.5,0.1,0.9,0.1
	c1.2,0,2.1-0.2,2.5-0.7c0.3-0.3,0.4-0.6,0.4-1C41.3,32,41,31.5,40.1,31.5 M44.1,27.1l-4.6,2l-0.7-1.3l4.4-2.6L44.1,27.1z"/>
<path class="st0" d="M52.8,38.8c-0.9,1-2.3,1.6-3.6,1.6c-0.9,0-1.7-0.1-2.2-0.4c0,0.1-0.1,0.6-0.2,0.9L46.2,44l-2.2,0.5l2.4-11.4
	c0.3-1.2,0.2-1.9,0-2.5l2-0.8c0.2,0.4,0.3,1.1,0.2,1.8c0.9-1.1,2.2-1.7,3.4-1.7c1.7,0,2.7,1.3,2.7,3.3C54.7,35,53.9,37.5,52.8,38.8
	 M51.1,31.8c-0.8,0-1.8,0.6-2.7,1.9l-1,4.6c0.3,0.3,1,0.5,1.7,0.5c0.9,0,1.6-0.5,2-1.1c0.8-1.1,1.2-3.1,1.2-4.4
	C52.3,32.2,51.9,31.8,51.1,31.8"/>
<path class="st0" d="M64.7,33l-0.8,4c-0.3,1.2-0.1,1.7,0.4,2.3l-1.8,1.3c-0.5-0.4-0.8-1-0.8-1.7c-0.7,1-1.7,1.6-3,1.6
	c-1.6,0-2.6-1.1-2.6-3.2c0-2.2,0.8-4.4,2.1-5.7c1.1-1.1,2.4-1.6,4-1.6c1.2,0,2.3,0.2,3.1,0.8C65.1,31.2,64.8,32.2,64.7,33
	 M61.9,31.6c-0.9,0-1.5,0.2-2.3,1.1c-0.9,1.1-1.3,3-1.3,4.5c0,1.1,0.4,1.5,1.1,1.5c0.9,0,1.9-0.9,2.4-1.9l1.1-5
	C62.6,31.7,62.2,31.6,61.9,31.6"/>
<path class="st0" d="M73,32.1C72.8,32,72.6,32,72.3,32c-0.7,0-1.5,0.5-2.4,1.8l-1.4,6.5h-2.2l1.4-6.8c0.3-1.4,0.3-2.1,0.1-2.8l2-0.8
	c0.2,0.5,0.3,1.3,0.2,2c0.9-1.2,2-1.9,3-1.9c0.4,0,0.5,0,0.8,0.2"/>
<path class="st0" d="M79.3,31.7h-1.9l-1.1,5.4c-0.1,0.4-0.1,0.7-0.1,1c0,0.6,0.3,0.8,0.9,0.8c0.3,0,0.7-0.1,1-0.2v1.4
	c-0.7,0.3-1.4,0.4-2.1,0.4c-1.4,0-2.1-0.7-2.1-1.7c0-0.4,0-0.9,0.1-1.4l1.2-5.8h-1.1l0.3-1.6h1.1c0.2-0.9,0.4-1.7,0.7-2.5l2.3-0.5
	c-0.3,0.9-0.6,2-0.8,3h2.4"/>
<path class="st0" d="M88.4,34.7c-0.8,0.8-2.2,1.3-4.3,1.3c-0.6,0-1-0.1-1.2-0.1c0,0.2-0.1,0.7-0.1,1.1c0,1.3,0.7,1.9,1.8,1.9
	c1.1,0,1.9-0.4,2.9-1.1l0.7,1.4c-1.2,1-2.4,1.4-4.1,1.4c-2.2,0-3.6-1.3-3.6-3.7c0-2,0.9-4.2,2.3-5.5c1-1,2.1-1.4,3.4-1.4
	c2,0,3.2,0.9,3.2,2.7C89.3,33.4,89,34.1,88.4,34.7 M85.8,31.5c-1.1,0-2.1,0.9-2.6,2.8c0.1,0,0.5,0.1,0.9,0.1c1.2,0,2.1-0.2,2.5-0.7
	c0.3-0.3,0.4-0.6,0.4-1C87.1,32,86.7,31.5,85.8,31.5"/>
<path class="st0" d="M104.8,33.2l-1.5,7h-2.2l1.5-6.8c0.1-0.4,0.1-0.7,0.1-0.9c0-0.5-0.2-0.7-0.8-0.7c-0.7,0-1.8,0.8-2.6,1.9
	l-1.4,6.6h-2.1l1.4-6.7c0.1-0.4,0.2-0.9,0.2-1.1c0-0.4-0.2-0.7-0.7-0.7c-0.7,0-1.7,0.7-2.7,1.9l-1.4,6.6h-2.1l1.5-7
	c0.2-1.1,0.2-1.9,0-2.5l2-0.8c0.2,0.5,0.3,1.2,0.2,1.9c1.2-1.3,2.4-1.8,3.5-1.8c1.1,0,1.7,0.6,1.8,1.8c1.2-1.3,2.4-1.8,3.5-1.8
	c1.2,0,2,0.8,2,2C104.9,32.3,104.9,32.8,104.8,33.2"/>
<path class="st0" d="M114.7,34.7c-0.8,0.8-2.2,1.3-4.3,1.3c-0.6,0-1-0.1-1.2-0.1c0,0.2-0.1,0.7-0.1,1.1c0,1.3,0.7,1.9,1.8,1.9
	c1.1,0,1.9-0.4,2.9-1.1l0.7,1.4c-1.2,1-2.4,1.4-4.1,1.4c-2.2,0-3.6-1.3-3.6-3.7c0-2,0.9-4.2,2.3-5.5c1-1,2.1-1.4,3.4-1.4
	c2,0,3.2,0.9,3.2,2.7C115.6,33.4,115.3,34.1,114.7,34.7 M112.1,31.5c-1.1,0-2.1,0.9-2.6,2.8c0.1,0,0.5,0.1,0.9,0.1
	c1.2,0,2.1-0.2,2.5-0.7c0.3-0.3,0.4-0.6,0.4-1C113.4,32,113,31.5,112.1,31.5"/>
<path class="st0" d="M126.1,33l-1.5,7.2h-2.2l1.4-6.7c0.1-0.4,0.1-0.8,0.1-1c0-0.6-0.3-0.8-0.8-0.8c-0.7,0-1.7,0.5-2.8,1.9l-1.4,6.6
	h-2.2l1.5-7c0.2-1.2,0.3-1.9,0-2.6l2-0.8c0.2,0.5,0.3,1.2,0.2,1.9c1-1.2,2.2-1.8,3.6-1.8c1.3,0,2,0.8,2,2
	C126.2,32.2,126.2,32.7,126.1,33"/>
<path class="st0" d="M133.7,31.7h-1.9l-1.1,5.4c-0.1,0.4-0.1,0.7-0.1,1c0,0.6,0.3,0.8,0.9,0.8c0.3,0,0.7-0.1,1-0.2v1.4
	c-0.7,0.3-1.4,0.4-2.1,0.4c-1.4,0-2.1-0.7-2.1-1.7c0-0.4,0-0.9,0.1-1.4l1.2-5.8h-1.1l0.3-1.6h1.1c0.2-0.9,0.4-1.7,0.7-2.5l2.3-0.5
	c-0.3,0.9-0.6,2-0.8,3h2.4"/>
<path class="st0" d="M12.2,7.3c-0.7-0.6-1.6-0.8-2.5-0.8c-1.1,0-2.3,0.6-3.1,1.5c-1.4,1.6-2.3,5.4-2.3,7.3c0,2.2,1.1,3.1,2.9,3.1
	c1,0,1.9-0.4,3-1.1l1.1,2.1c-1.5,1.1-3.1,1.5-4.9,1.5c-3.7,0-5.8-2.1-5.8-5.8c0-2.5,1-5.6,2.5-7.6C5,5.1,7.6,3.9,10.3,3.9
	c1.6,0,3.1,0.5,3.9,1.3"/>
<path class="st0" d="M24.2,12.4c0,4.2-2.3,8.4-7.1,8.4c-2.7,0-4.3-1.5-4.3-4.3c0-4.6,2.8-8.3,7-8.3C22.5,8.3,24.2,9.8,24.2,12.4
	 M21,2.7l3.7,3.2l-1.3,1.7l-2.9-1.8l-3.6,1.8l-0.8-1.7L21,2.7z M16.2,16.9c0,1.1,0.6,1.7,1.5,1.7c2,0,3.1-3.8,3.1-6.2
	c0-1.4-0.5-1.8-1.5-1.8C17.2,10.6,16.2,15.1,16.2,16.9"/>
<path class="st0" d="M31.8,10.7h-2.1l-1.3,6.1c-0.1,0.4-0.1,0.8-0.1,1.1c0,0.7,0.3,0.9,1.1,0.9c0.3,0,0.8-0.1,1.2-0.2v1.9
	c-0.9,0.4-1.9,0.5-2.7,0.5c-1.8,0-2.9-0.9-2.9-2.1c0-0.4,0-1,0.2-1.6l1.4-6.6h-1.2l0.5-2.2h1.2c0.2-1.2,0.4-2,0.7-2.9l3.3-0.8
	c-0.4,1.1-0.7,2.4-1,3.7H33"/>
<path class="st0" d="M41.9,19.3c-1.6,1.1-3.2,1.7-4.9,1.7c-2.9,0-4.6-1.5-4.6-4.4c0-2.5,1.1-5.1,2.7-6.6c1.2-1.2,2.5-1.6,4.2-1.6
	c2.4,0,4.1,0.9,4.1,3.3c0,2.3-2.1,4.2-6.1,4.2c-0.8,0-1.4-0.2-1.4-0.2s-0.1,0.8-0.1,1.1c0,1.4,0.7,1.9,2,1.9c1.1,0,2.2-0.5,3.4-1.3
	 M37.2,13.5c1.4,0,2.9-0.5,2.9-1.7c0-0.7-0.3-1.3-1.3-1.3c-1.2,0-2.1,0.7-2.6,2.8C36.3,13.4,36.8,13.5,37.2,13.5"/>
<path class="st0" d="M53.1,11.4c-1.1-0.6-2.1-0.8-2.9-0.8c-1,0-1.8,0.4-1.8,1.3c0,0.5,0.4,0.9,1.3,1.2l1.4,0.5
	c1.2,0.4,2.4,1.2,2.4,2.7c0,2.4-1.9,4.8-5.8,4.8c-1.8,0-3.3-0.5-4.7-1.3l1.3-2.3c0.9,0.7,2.5,1.2,3.9,1.2c1,0,1.9-0.7,1.9-1.5
	c0-0.6-0.5-0.9-1.5-1.2L47,15.4c-1.2-0.4-2.2-1.3-2.2-2.8c0-2.1,1.6-4.4,5.5-4.4c1.6,0,3,0.5,4,1.1"/>
<path class="st0" d="M69.7,16.2c-0.6,3-0.6,3.9-0.5,4.4h-2.7c0-0.2-0.1-0.8-0.1-1.1c-0.8,0.9-1.9,1.4-3,1.4c-2.5,0-3.7-1.4-3.7-4.2
	c0-2.4,0.9-5,2.6-6.6c1.1-1,2.5-1.7,3.9-1.7c0.9,0,1.8,0.2,2.1,0.3c0-0.2,0.1-0.7,0.2-1.4l0.9-4.2l3,0.5 M66,10.9
	c-0.6,0-1.2,0.3-1.7,0.9c-0.9,1.2-1.5,3.3-1.5,4.8c0,1.2,0.4,1.7,1.2,1.7c0.7,0,1.9-0.9,2.2-1.6l1.2-5.4
	C67.3,11.1,66.7,10.9,66,10.9"/>
<path class="st0" d="M73.5,9.6c1-0.4,1.9-0.9,1.9-1.4c0-0.3-0.1-0.5-0.3-0.6c-0.6-0.4-0.8-1-0.8-1.8c0-1.1,0.9-2,2.1-2
	c1.4,0,2.3,0.9,2.3,2.5c0,2.1-2.3,4.1-4.3,4.6"/>
<path class="st0" d="M86,4.2l1.7,16.4h-3.4L84,16.7h-4.8l-2,3.9h-3.6l8.9-16.4 M83.7,14l-0.2-3.4c-0.1-1.4-0.1-2.8-0.1-2.8
	s-0.8,2-1.4,3.2l-1.5,3L83.7,14L83.7,14z"/>
<path class="st0" d="M93.6,8.1c0.2,0.4,0.4,1.3,0.3,2C95,9,96.1,8.3,97.3,8.3c0.4,0,0.7,0,1.1,0.3L97,11.3c-0.3-0.2-0.6-0.2-0.9-0.2
	c-0.6,0-1.3,0.4-2.3,1.7l-1.7,7.9h-3.2l1.7-8c0.3-1.5,0.3-2.6,0-3.3"/>
<path class="st0" d="M101.8,8.1c0.2,0.4,0.3,1.3,0.3,1.9c1.2-1.2,2.5-1.8,3.9-1.8c1.2,0,2.1,0.5,2.2,1.8c1.3-1.3,2.6-1.8,3.9-1.8
	c1.3,0,2.4,0.7,2.4,2.5c0,0.5-0.1,1-0.2,1.6l-1.7,8.3h-3.1l1.7-8c0.1-0.4,0.1-0.8,0.1-1c0-0.5-0.2-0.7-0.8-0.7
	c-0.8,0-1.8,0.7-2.5,1.8l-1.7,7.9h-3l1.7-7.9c0.1-0.5,0.2-0.9,0.2-1.2c0-0.5-0.2-0.7-0.8-0.7c-0.8,0-1.7,0.7-2.5,1.8l-1.7,7.9h-3.1
	l1.8-8.3c0.2-1.1,0.1-2.5,0-3.1"/>
<path class="st0" d="M126.9,12.4c0,4.2-2.3,8.4-7.1,8.4c-2.7,0-4.3-1.5-4.3-4.3c0-4.6,2.8-8.3,7-8.3C125.2,8.3,126.9,9.8,126.9,12.4
	 M118.9,16.9c0,1.1,0.6,1.7,1.5,1.7c2,0,3.1-3.8,3.1-6.2c0-1.4-0.5-1.8-1.5-1.8C119.9,10.6,118.9,15.1,118.9,16.9"/>
<path class="st0" d="M131.9,8.1c0.2,0.4,0.4,1.3,0.3,2c1.1-1.1,2.2-1.8,3.4-1.8c0.4,0,0.7,0,1.1,0.3l-1.4,2.8
	c-0.3-0.2-0.6-0.2-0.9-0.2c-0.6,0-1.3,0.4-2.3,1.7l-1.7,7.9h-3.2l1.7-8c0.3-1.5,0.3-2.6,0-3.3"/>
</svg>
