<?xml version="1.0" encoding="UTF-8"?><svg id="Layer_1" xmlns="http://www.w3.org/2000/svg" xmlns:xlink="http://www.w3.org/1999/xlink" viewBox="0 0 620 205"><defs><style>.cls-1{fill:url(#linear-gradient-3);}.cls-2{fill:url(#linear-gradient-2);}.cls-3{fill:url(#linear-gradient);}.cls-4{fill:#fff;}</style><linearGradient id="linear-gradient" x1="6.26" y1="32.42" x2="110.36" y2="90.31" gradientUnits="userSpaceOnUse"><stop offset="0" stop-color="#64b6f7"/><stop offset=".8" stop-color="#86c6f8"/><stop offset="1" stop-color="#90cbf9"/></linearGradient><linearGradient id="linear-gradient-2" x1="4.2" y1="111.98" x2="142.04" y2="134.67" gradientUnits="userSpaceOnUse"><stop offset="0" stop-color="#37a1f5"/><stop offset=".28" stop-color="#45a7f5"/><stop offset=".82" stop-color="#6bb9f7"/><stop offset="1" stop-color="#7ac0f8"/></linearGradient><linearGradient id="linear-gradient-3" x1="-11.32" y1="190.04" x2="150" y2="155.6" gradientUnits="userSpaceOnUse"><stop offset="0" stop-color="#3c82f6"/><stop offset=".32" stop-color="#3d8af7"/><stop offset=".83" stop-color="#3fa1fc"/><stop offset="1" stop-color="#41abff"/></linearGradient></defs><path class="cls-3" d="M154.95,118.37L51.41,3.38c-1.41-1.57-4.02-.47-3.87,1.64l7.35,107.56c.08,1.13,1,2.03,2.14,2.07l97.93,3.71Z"/><path class="cls-2" d="M154.95,118.37L7.79,70.56c-2.01-.65-3.71,1.6-2.53,3.36l60.14,89.47c.63.94,1.88,1.26,2.88.73l86.66-45.75Z"/><path class="cls-1" d="M154.95,118.37L3.6,150.54c-2.07.44-2.41,3.24-.52,4.17l96.82,47.42c1.02.5,2.26.15,2.86-.81l52.18-82.95Z"/><path class="cls-4" d="M209.95,58.47h41.42c34.73,0,58.29,23.01,58.29,55.69s-23.55,55.52-58.29,55.52h-41.42V58.47ZM251.37,152.51c24.22,0,38.24-17.34,38.24-38.35s-13.35-38.51-38.24-38.51h-21.88v76.86h21.88Z"/><path class="cls-4" d="M333.93,186.85c5.51,0,9.18-1.67,11.52-7l4.01-9.16-33.07-81.53h18.71l23.55,60.36,23.54-60.36h18.88l-38.91,95.03c-5.52,13.68-15.2,18.01-27.73,18.18-2.5,0-7.36-.5-9.86-1.17l2.68-15.67c1.84.83,4.68,1.33,6.68,1.33Z"/><path class="cls-4" d="M511.02,117.16c0-8.66-3.85-14.5-13.21-14.5-7.85,0-15.19,5.5-18.7,10.67v56.35h-17.54v-52.52c0-8.66-3.84-14.5-13.35-14.5-7.68,0-14.86,5.5-18.54,10.83v56.19h-17.54v-80.53h17.54v11.01c3.33-5.01,14.02-13.01,26.22-13.01s19.37,6,22.04,14.84c4.68-7.34,15.37-14.84,27.39-14.84,14.86,0,23.21,8,23.21,24.34v58.18h-17.53v-52.52Z"/><path class="cls-4" d="M600.62,161.01c-6.01,6.84-15.37,10.67-26.06,10.67-13.19,0-28.06-8.84-28.06-26.68s14.86-26.17,28.06-26.17c10.85,0,20.21,3.5,26.06,10.34v-12.01c0-9.33-7.68-15-18.88-15-9.02,0-16.86,3.34-23.88,10.17l-7.18-12.16c9.36-8.84,21.04-13.01,33.9-13.01,17.87,0,33.58,7.49,33.58,29.17v53.35h-17.54v-8.67ZM600.62,139.18c-4.01-5.51-11.52-8.35-19.2-8.35-9.86,0-17.2,5.67-17.2,14.51s7.34,14.34,17.2,14.34c7.68,0,15.19-2.84,19.2-8.34v-12.16Z"/></svg>