<svg width="1152" height="371" viewBox="0 0 1152 371" fill="none" xmlns="http://www.w3.org/2000/svg">
<path d="M67.1209 155.516C73.5889 129.787 87.5306 106.359 106.935 88.9682C129.07 69.1321 156.092 58.6393 185.124 58.6393C214.157 58.6393 240.173 69.1321 261.876 88.2482C281.857 105.785 296.23 129.502 302.554 155.66H67.1233L67.1209 155.516ZM185.268 0C83.0762 0 0 83.0762 0 185.268C0 287.461 83.0762 370.539 185.268 370.539C250.522 370.539 308.734 336.617 344.667 277.688L347.11 273.663L292.635 241.611L290.336 245.636C266.765 287.031 227.381 311.897 185.268 311.897C156.236 311.897 129.214 301.405 107.079 281.713C87.6746 264.32 73.7329 241.179 67.2649 215.741H368.814V211.284C369.387 203.667 369.819 198.492 369.963 194.612C370.251 190.587 370.395 188 370.395 185.268C370.395 83.0762 287.319 0 185.268 0Z" fill="white"/>
<path d="M703.996 245.924C692.209 266.622 677.118 282.719 659.152 293.932C641.185 305.142 621.064 310.748 599.646 310.748C534.392 310.748 483.368 255.844 483.368 185.559C483.368 115.275 534.392 60.3704 599.646 60.3704C603.527 60.3704 607.552 60.5144 611.288 60.9464V0.723066C607.696 0.579065 603.959 0.435059 600.366 0.435059C498.318 0.435059 415.098 83.5112 415.098 185.706C415.098 287.898 498.174 370.833 600.366 370.833C665.62 370.833 723.832 336.913 759.909 277.981L762.352 273.956L706.297 242.044L703.998 246.068V245.924H703.996Z" fill="white"/>
<path d="M703.848 136.685C736.332 136.685 762.49 110.381 762.49 78.0436C762.49 45.7035 736.188 19.4019 703.848 19.4019C671.508 19.4019 645.062 45.7035 645.062 78.0436C645.062 110.381 671.364 136.685 703.848 136.685Z" fill="#A98EFF"/>
<path d="M1079.27 14.8081L970.326 287.036L861.52 14.8081H788.648L934.108 355.738H1006.54L1152 14.8081H1079.27Z" fill="white"/>
</svg>
