<?xml version="1.0" encoding="UTF-8"?>
<svg id="Calque_1" data-name="Calque 1" xmlns="http://www.w3.org/2000/svg" viewBox="0 0 512 563.2">
  <defs>
    <style>
      .cls-1 {
        fill: #252525;
      }

      .cls-2 {
        fill: #232323;
      }
    </style>
  </defs>
  <path class="cls-2" d="M232.43,0V4.94c0,13.5-.23,27,.13,40.49,.12,4.58-1.23,7.37-5.42,8.91-3.59,1.32-4.79,3.66-4.78,7.7,.16,61,.14,122.01,.04,183.01,0,3.26,.94,5.05,3.84,6.7,19.95,11.34,39.8,22.86,59.63,34.41,2.6,1.51,3.72,1.83,3.72-1.91-.06-74.63-.06-149.26,0-223.9,0-2.58-.74-4.34-3.16-5.1-5.98-1.88-7.2-5.99-6.99-11.9,.46-12.83,.13-25.69,.17-38.54,0-1.38-.34-2.82,.56-4.6,6.2,3.54,12.36,7.03,18.49,10.57,10.56,6.09,21.02,12.34,31.69,18.22,2.87,1.58,3.57,3.4,3.57,6.44-.11,96.44-.13,192.88-.17,289.31-.03,67.49-.08,134.99,0,202.48,0,3.79-.94,5.92-4.47,7.88-15.3,8.5-30.35,17.44-45.51,26.21-1.11,.64-2.27,1.19-3.56,1.87-1.03-1.37-.6-2.83-.61-4.15-.04-14.28,.08-28.56-.11-42.83-.04-3.05,.79-5.09,3.6-6,5.71-1.84,6.57-5.85,6.55-11.38-.22-51.14-.19-102.28-.07-153.42,0-4.3-1.36-6.67-5.18-8.82-19.56-10.98-38.92-22.31-58.36-33.5-3.52-2.03-3.56-1.99-3.56,2.22,0,65.81,.02,131.61-.08,197.42,0,3.11,1.02,5.07,3.82,5.88,5.49,1.59,6.53,5.19,6.35,10.56-.42,13.36-.14,26.73-.14,40.1,0,4.39-.04,4.43-3.74,2.29-16.06-9.27-32.06-18.62-48.18-27.77-2.33-1.33-2.38-3.01-2.38-5.14,.03-24.4,.01-48.8,.01-73.2,0-140.18,.01-280.36-.06-420.54,0-2.85,.88-4.37,3.35-5.77,15.45-8.78,30.79-17.74,46.17-26.62,1.33-.77,2.71-1.43,4.83-2.54Z"/>
  <path class="cls-1" d="M356.12,281.87c0-77.62,0-155.24,0-232.85,0-4.94,.05-5.02,4.42-2.5,15.73,9.07,31.41,18.21,47.14,27.26,1.69,.98,2.8,1.92,2.79,4.14-.1,14.79-.14,29.59-.02,44.39,.03,3.45-1.01,3.6-3.81,2.34-5.91-2.66-5.94-2.55-5.94,4.3,.01,33.62,.01,67.23,.02,100.85,0,.52-.01,1.04,0,1.56,.07,4.81,.49,5.09,4.74,2.64,19.65-11.33,39.28-22.71,58.93-34.05,1.62-.94,2.98-1.77,2.99-4.05,.03-9.73,.03-19.47,.45-29.19,.21-4.91-1.87-7.95-6.1-9.63-3.38-1.35-4.09-3.68-4.06-7.03,.14-14.41,.13-28.81,0-43.22-.03-3.46,.92-3.77,3.71-2.15,16.14,9.4,32.31,18.74,48.51,28.02,1.59,.91,2.09,1.97,2.09,3.7-.04,28.3-.04,56.59,.01,84.89,0,2.23-.82,3.47-2.76,4.58-31.17,17.84-62.3,35.76-93.43,53.68-1.07,.62-2.89,.83-2.84,2.27,.05,1.39,1.86,1.59,2.94,2.22,31.21,18.04,62.42,36.09,93.66,54.07,1.82,1.05,2.44,2.3,2.43,4.35-.06,28.17-.05,56.33,0,84.5,0,1.89-.56,3.01-2.28,3.99-16.1,9.2-32.13,18.52-48.19,27.79-3.43,1.98-3.78,1.79-3.79-2.24-.02-14.28,.11-28.56-.09-42.83-.04-3.35,.93-5.49,4.03-6.59,4.5-1.6,6.03-4.52,5.79-9.46-.46-9.45-.18-18.94-.03-28.41,.04-2.8-.91-4.45-3.38-5.86-19.7-11.27-39.3-22.69-58.96-34.02-4.27-2.46-4.37-2.35-4.37,2.8-.02,34.78-.04,69.57-.04,104.35,0,1.52-.55,3.59,.84,4.37,1.59,.89,3-.9,4.45-1.65,1.23-.64,2.45-2.1,3.81-1.35,1.45,.79,.65,2.61,.66,3.95,.04,14.28-.05,28.55,.04,42.83,.02,2.49-.67,3.97-2.93,5.26-15.66,8.92-31.21,18.03-46.83,27.03-4.54,2.62-4.59,2.54-4.59-2.58,0-77.49,0-154.98,0-232.46Z"/>
  <path class="cls-1" d="M.1,281.83C.1,233.94,.13,186.04,.03,138.15c0-3.31,1.11-4.92,3.99-6.57,36.57-20.96,73.02-42.1,109.52-63.18,12.91-7.46,25.87-14.84,38.75-22.35,2.63-1.54,3.67-1.69,3.64,1.98-.14,18.56-.11,37.12-.04,55.68,0,2.24-.73,3.47-2.69,4.59-12.96,7.38-25.87,14.85-38.73,22.39-2.61,1.53-3.27,.99-3.25-1.93,.04-7.26-.09-7.33-6.44-3.69-19.11,10.95-38.18,21.98-57.31,32.9-2.04,1.17-2.86,2.54-2.85,4.94,.07,40.37,.04,80.73,.06,121.1,0,3.84,.27,3.93,3.6,2.01,34.47-19.92,68.94-39.83,103.43-59.72,4.11-2.37,4.15-2.32,4.15,2.36,0,18.17-.02,36.34,.01,54.52,0,2.03-.14,3.6-2.26,4.82-13.03,7.47-26,15.06-38.92,22.73-2.91,1.73-3.44,.84-3.44-2.11-.01-7.43-.1-7.44-6.57-3.71-18.98,10.95-37.94,21.95-56.97,32.82-2.19,1.25-3.11,2.61-3.1,5.17,.1,19.21,.08,38.42,.02,57.63,0,2.11,.4,3.61,2.43,4.77,20.02,11.47,39.97,23.06,59.99,34.55,4.12,2.36,4.21,2.23,4.22-2.64,.01-6.03,.04-6.08,5.47-2.96,12.26,7.04,24.46,14.17,36.76,21.14,1.9,1.07,2.39,2.36,2.39,4.37-.05,18.56-.08,37.12,.05,55.68,.02,3.41-.73,3.75-3.58,2.09-19.84-11.53-39.76-22.94-59.63-34.42-29.76-17.19-59.47-34.45-89.3-51.52C.71,430.06,0,428.41,0,425.52c.08-47.9,.06-95.79,.06-143.69h.05Z"/>
</svg>