<svg width="1229" height="1229" viewBox="0 0 1229 1229" fill="none" xmlns="http://www.w3.org/2000/svg">
<path d="M152.207 153.152L0 305.359V614.5V922.695L147.48 1075.85L295.905 1229H415.024C549.268 1229 570.067 1222.38 596.538 1172.28C610.718 1145.81 614.5 1118.39 614.5 1033.31V926.477H458.511H302.523V614.5V302.523H458.511H614.5V195.695C614.5 110.61 610.718 83.194 596.538 56.7232C571.012 7.56322 548.323 0.000146866 419.751 0.000146866H305.359L152.207 153.152Z" fill="white"/>
<path d="M926.479 151.263V302.524H1035.2C1211.04 302.524 1229 284.562 1229 108.721V0.00137329H1077.74H926.479V151.263Z" fill="white"/>
<path d="M499.165 422.588C371.538 552.106 359.248 569.123 359.248 614.501C359.248 659.88 371.538 676.897 499.165 805.469L619.229 926.478H769.545H920.806L772.381 776.162C691.078 693.913 623.956 621.119 623.956 614.501C623.956 607.883 675.952 551.16 740.238 487.82C804.524 425.424 870.701 357.357 887.718 337.504L918.916 302.524H768.6H619.229L499.165 422.588Z" fill="white"/>
<path d="M926.479 1077.74V1229H1077.74H1229V1121.23C1229 995.49 1222.38 970.91 1179.84 945.385C1153.37 929.313 1131.63 926.477 1038.03 926.477H926.479V1077.74Z" fill="white"/>
</svg>
