<svg width="812" height="153" viewBox="0 0 812 153" fill="none" xmlns="http://www.w3.org/2000/svg">
<g clip-path="url(#clip0_663_3639)">
<path d="M334.9 110.8L357.7 152.1H790.8L795.9 110.8H334.9Z" fill="url(#paint0_radial_663_3639)"/>
<path d="M76.7004 100.4L84.4004 45.9C85.0004 41.3 83.4004 37.5 76.7004 37.5C73.8004 37.5 71.7004 37.9 69.9004 38.5L61.2004 100.5H34.9004L44.8004 30.2C53.0004 26.7 65.0004 24.5 78.8004 24.5C104 24.5 112.3 33.9 110.2 48.9L102.9 100.5L76.7004 100.4Z" fill="white"/>
<path d="M762.4 7.19995L761 17H790.7C794.6 17 797.8 13.1 798.6 7.19995H762.4ZM779.4 24.2999C765.6 24.2999 753.6 26.5 745.4 30L741.4 58.5999H741.3L739 75.7C736.9 90.3 744.9 99.6 768.6 100H797.4L797.9 96.5C798.4 93 797.2 90.3 793 90.3H772C765.4 90.3 763.7 86.4 764.3 81.8L765.2 75.5H773.4V75.4C797.5 75.1 808.2 65.9 810.3 51.2999L810.7 48.5999C813 33.6999 804.6 24.2999 779.4 24.2999ZM777.3 37.2999C783.9 37.2999 785.6 41.1999 785 45.7999L784.6 48.5999H784.5L783.7 54.2C783 58.7 780.2 62.5999 773.6 62.5999H767.2L767.5 60L770.6 38.4C772.3 37.7 774.4 37.2999 777.3 37.2999Z" fill="#EE1D23"/>
<path d="M28.9996 58.7L29.1996 56.9L37.4996 0H11.1996L2.09956 62.3L2.19956 62.5L0.299562 76.7C-1.50044 89.7 4.59956 98.5 22.8996 100.6L28.9996 58.7Z" fill="white"/>
<path d="M700.5 24.5C698.1 24.5 695.7 24.6 693.3 24.7L696.8 0C677.9 2 669.2 10.8 667.4 23.9L665 41L656.6 100.5H682.9L691.6 38.5C693.3 37.9 695.5 37.5 698.4 37.5C705 37.5 706.7 41.4 706.1 45.9L698.4 100.4H724.7L732 48.8C734.1 33.9 725.7 24.5 700.5 24.5ZM562 45.8L561.6 48.6H561.5L560.7 54.2C560 58.7 557.3 62.6 550.6 62.6H544.1L544.5 60L547.6 38.4C549.3 37.8 551.5 37.4 554.4 37.4C561 37.3 562.7 41.2 562 45.8ZM587.5 51.3L587.9 48.6H587.8L588 48.5C590.1 33.6 581.7 24.2 556.5 24.2C542.7 24.2 530.7 26.4 522.5 29.9V30.1H522.4L512.5 100.4H538.8L542.3 75.4H549L563.8 100.4H590L572.7 71.3C581.6 67.2 586.2 60.3 587.5 51.3Z" fill="#EE1D23"/>
<path d="M212.7 45.8L212.3 48.6H212.2L211.4 54.2C210.7 58.7 207.9 62.6 201.3 62.6H194.8L195.2 60L198.3 38.4C200 37.8 202.2 37.4 205.1 37.4C211.7 37.3 213.4 41.2 212.7 45.8ZM207.1 24.3C193.3 24.3 181.3 26.5 173.1 30L169.1 58.6H169L166.7 75.7C164.7 90.3 172.6 99.5 196.3 100V100.1H225.1L225.6 96.6C226.1 93.1 224.9 90.3 220.8 90.3H199.8C193.2 90.3 191.5 86.4 192.1 81.9L193 75.6H201.2V75.5C225.3 75.2 236 66 238.1 51.4L238.5 48.7H238.4L238.5 48.6C240.7 33.7 232.3 24.3 207.1 24.3ZM159.3 96.6C159.8 93.1 158.6 90.7 154.4 90.7H151.3C144.7 90.7 143 86.8 143.6 82.3L149.2 42.5L149.3 42L149.7 39.4H156.7C156.9 39.3 157.1 39.3 157.4 39.3C161.3 39.3 164.4 35.4 165.3 29.5H151.1L155.2 0C136.3 2 127.6 10.8 125.8 23.8L123.6 38.5L123.4 39.9L123.3 40.9L118.4 76C116.4 90.6 124.3 99.9 148 100.3H158.9L159.3 96.6Z" fill="white"/>
<path d="M402.3 24.5C393.6 24.5 385.6 25.4 378.8 26.9C374.1 25.3 368.1 24.5 360.6 24.5C346.8 24.5 334.8 26.7 326.6 30.2L319.3 81.9L330 100.5H343L351.7 38.5C353.4 37.9 355.6 37.5 358.5 37.5C364.2 37.5 366.2 40.3 366.3 44L358.3 100.5H384.8L392.1 48.9C392.2 47.8 392.3 46.8 392.4 45.8L393.4 38.6C395.1 38 397.3 37.6 400.2 37.6C406.8 37.6 408.5 41.5 407.9 46L400.2 100.5H426.5L433.8 48.9C435.9 33.9 427.5 24.5 402.3 24.5Z" fill="#EE1D23"/>
<path d="M289.3 45.7999L288.9 48.5999H288.8L288 54.2C287.3 58.7 284.6 62.5999 277.9 62.5999H271.4L271.8 60H271.9L275 38.4C276.7 37.8 278.9 37.4 281.8 37.4C288.3 37.3 289.9 41.1999 289.3 45.7999ZM300 71.3C308.9 67.2 313.5 60.2999 314.8 51.2999L315.2 48.5999H315L315.2 48.5V48.5999C317.3 33.6999 308.9 24.2 283.8 24.2C270 24.2 258 26.4 249.8 29.9V30.1H249.7L239.8 100.4H266L269.5 75.4H276.3L326 142.9C329.3 147.3 333.4 150.6 338.7 150.6H345.7L300 71.3Z" fill="white"/>
<path d="M650.2 90.7L650.8 86.1999C644.5 87.6999 637.1 88.5 628.9 88.7C628.2 88.7 627.5 88.8 626.9 88.8C620.3 88.8 618.6 84.9 619.2 80.4L621.4 64.3L622 59.7L624.3 43.5999C624.9 38.9999 627.7 35.2 634.3 35.2C635 35.2 635.7 35.1999 636.3 35.2999C645 35.3999 651.7 36.0999 657.4 37.5999L658 33C658.5 29.1 658.9 26 653.7 25C648.6 24.1 642.6 23.7 635.6 23.7C610.5 23.7 599.5 33.1 597.4 48L593.6 76C591.5 90.9 599.9 100.3 625 100.3C632.1 100.3 638.7 99.7 644.6 98.7C647.5 98 649.4 96.7 650.2 90.7ZM480.7 66.9L477.6 88.5C475.9 89.1 473.7 89.5 470.8 89.5C464.2 89.5 462.5 85.5999 463.1 81.0999L463.5 78.3H463.6L464.4 72.6999C465.1 68.1999 467.8 64.3 474.5 64.3H481L480.7 66.9ZM479.8 24.6H457.4C453.5 24.6 450.4 28.5 449.5 34.4H476.3C483 34.4 484.6 38.4999 484 43.0999L482.8 51.5H474.1C450.3 51.9 439.8 61.0999 437.7 75.5999L437.3 78.3C437.3 78.3 437.3 78.3 437.3 78.4C435.2 93.3 443.6 102.7 468.7 102.7C482.5 102.7 494.5 100.5 502.7 97L506.7 68.4H506.8L509.4 49.2999C511.5 34.5999 503.5 25 479.8 24.6Z" fill="#EE1D23"/>
</g>
<defs>
<radialGradient id="paint0_radial_663_3639" cx="0" cy="0" r="1" gradientUnits="userSpaceOnUse" gradientTransform="translate(741.142 131.475) scale(362.115 19.0058)">
<stop stop-color="#6B6B6D"/>
<stop offset="1" stop-color="white"/>
</radialGradient>
<clipPath id="clip0_663_3639">
<rect width="811.2" height="152.1" fill="white"/>
</clipPath>
</defs>
</svg>
