<?xml version="1.0" encoding="UTF-8" standalone="no"?>
<!DOCTYPE svg PUBLIC "-//W3C//DTD SVG 1.1//EN" "http://www.w3.org/Graphics/SVG/1.1/DTD/svg11.dtd">
<svg width="100%" height="100%" viewBox="0 0 547 101" version="1.1" xmlns="http://www.w3.org/2000/svg" xmlns:xlink="http://www.w3.org/1999/xlink" xml:space="preserve" xmlns:serif="http://www.serif.com/" style="fill-rule:evenodd;clip-rule:evenodd;stroke-linejoin:round;stroke-miterlimit:2;">
    <g transform="matrix(1,0,0,1,-331.623601,-590.510261)">
        <g transform="matrix(0.521053,0,0,0.521053,829.053405,641.192864)">
            <g transform="matrix(1,0,0,1,-95,-95)">
                <clipPath id="_clip1">
                    <rect x="0" y="0" width="190" height="190"/>
                </clipPath>
                <g clip-path="url(#_clip1)">
                    <rect x="25" y="47" width="135" height="96" style="fill:white;"/>
                    <path d="M159.881,132.519C159.881,137.908 155.501,142.277 150.098,142.277L112.479,142.277C107.072,142.277 102.693,137.908 102.693,132.519C102.693,127.129 107.072,122.762 112.479,122.762L140.313,122.762L140.313,95C140.313,89.613 144.694,85.243 150.098,85.243C155.501,85.243 159.881,89.613 159.881,95L159.881,132.519ZM92.708,104.757C87.303,104.757 82.923,100.387 82.923,95C82.923,89.613 87.303,85.243 92.708,85.243C98.111,85.243 102.488,89.613 102.488,95C102.488,100.387 98.111,104.757 92.708,104.757ZM72.936,67.237L45.099,67.237L45.099,95C45.099,100.387 40.719,104.757 35.317,104.757C29.912,104.757 25.533,100.387 25.533,95L25.533,57.48C25.533,52.092 29.912,47.726 35.317,47.726L72.936,47.726C78.338,47.726 82.72,52.092 82.72,57.48C82.72,62.868 78.338,67.237 72.936,67.237ZM64.923,104.757C59.52,104.757 55.141,100.387 55.141,95C55.141,89.613 59.52,85.243 64.923,85.243C70.325,85.243 74.706,89.613 74.706,95C74.706,100.387 70.325,104.757 64.923,104.757ZM120.491,85.243C125.893,85.243 130.274,89.613 130.274,95C130.274,100.387 125.893,104.757 120.491,104.757C115.086,104.757 110.706,100.387 110.706,95C110.706,89.613 115.086,85.243 120.491,85.243ZM168.37,40.358L102.818,2.614C96.964,-0.748 89.522,-0.995 83.251,2.614L17.701,40.358C11.851,43.731 7.917,50.034 7.917,57.257L7.917,132.743L7.92,132.741C7.926,139.478 11.429,146.03 17.701,149.64L83.251,187.384C89.106,190.748 96.544,190.994 102.818,187.384L168.366,149.64C174.215,146.265 178.151,139.967 178.151,132.743L178.151,57.258C178.145,50.519 174.642,43.97 168.37,40.358Z" style="fill:rgb(168,39,134);fill-rule:nonzero;"/>
                </g>
            </g>
        </g>
        <g transform="matrix(1,0,0,1,538.123601,640.510261)">
            <g transform="matrix(1,0,0,1,-206.5,-50)">
                <path d="M190.187,57.536L186.354,61.369L209.357,84.371L213.189,80.539L190.187,57.536Z" style="fill:rgb(1,1,1);fill-rule:nonzero;"/>
                <path d="M197.857,49.869L194.024,53.702L217.027,76.704L220.859,72.872L197.857,49.869Z" style="fill:rgb(1,1,1);fill-rule:nonzero;"/>
                <path d="M155.672,23.026L151.84,26.859L174.842,49.861L178.675,46.029L155.672,23.026Z" style="fill:rgb(1,1,1);fill-rule:nonzero;"/>
                <path d="M163.342,15.359L159.51,19.192L182.512,42.194L186.344,38.362L163.342,15.359Z" style="fill:rgb(1,1,1);fill-rule:nonzero;"/>
                <path d="M209.351,15.368L186.349,38.37L190.181,42.202L213.183,19.2L209.351,15.368Z" style="fill:rgb(1,1,1);fill-rule:nonzero;"/>
                <path d="M217.018,23.038L194.016,46.04L197.848,49.872L220.85,26.87L217.018,23.038Z" style="fill:rgb(1,1,1);fill-rule:nonzero;"/>
                <path d="M174.848,49.875L151.846,72.877L155.678,76.71L178.68,53.708L174.848,49.875Z" style="fill:rgb(1,1,1);fill-rule:nonzero;"/>
                <path d="M182.511,57.535L159.509,80.537L163.341,84.37L186.343,61.368L182.511,57.535Z" style="fill:rgb(1,1,1);fill-rule:nonzero;"/>
                <rect x="178.22" y="9.2" width="5.42" height="16.27" style="fill:rgb(1,1,1);fill-rule:nonzero;"/>
                <rect x="189.06" y="9.2" width="5.42" height="16.27" style="fill:rgb(1,1,1);fill-rule:nonzero;"/>
                <rect x="178.22" y="74.27" width="5.42" height="16.27" style="fill:rgb(1,1,1);fill-rule:nonzero;"/>
                <rect x="189.06" y="74.27" width="5.42" height="16.27" style="fill:rgb(1,1,1);fill-rule:nonzero;"/>
                <rect x="210.75" y="41.73" width="16.27" height="5.42" style="fill:rgb(1,1,1);fill-rule:nonzero;"/>
                <rect x="210.75" y="52.58" width="16.27" height="5.42" style="fill:rgb(1,1,1);fill-rule:nonzero;"/>
                <rect x="145.68" y="41.73" width="16.27" height="5.42" style="fill:rgb(1,1,1);fill-rule:nonzero;"/>
                <rect x="145.68" y="52.58" width="16.27" height="5.42" style="fill:rgb(1,1,1);fill-rule:nonzero;"/>
                <path d="M294.3,79.57L299.16,79.57L299.16,70.55L301.41,70.55L305.65,79.57L310.73,79.57L306.01,69.7C308.74,68.3 310.17,65.46 310.17,62.74L310.17,62.7C310.17,58.06 306.23,54.96 302.25,54.96L294.29,54.96L294.29,79.56L294.3,79.57ZM299.16,65.94L299.16,59.57L301.48,59.57C303.8,59.57 305.35,60.82 305.38,62.74C305.34,64.91 303.83,65.94 301.48,65.94L299.16,65.94ZM330.81,69.88C330.81,64.69 327.38,60.74 321.89,60.74C316.4,60.74 312.72,65.09 312.72,70.28C312.72,75.47 316.18,79.97 321.89,79.97C325.98,79.97 328.3,78.42 330.36,75.84L326.79,73.26C325.54,74.81 324.18,75.62 322.19,75.62C319.83,75.62 318.14,74.22 317.62,71.9L330.7,71.9C330.81,71.2 330.81,70.5 330.81,69.87M317.69,68.56C318.21,66.43 319.75,65.21 322.04,65.21C323.92,65.21 325.54,66.35 325.98,68.56L317.69,68.56ZM334.38,79.57L339.24,79.57L339.24,67.38C339.65,66.68 340.75,65.28 343.07,65.28C345.39,65.28 346.86,66.97 346.86,69.15L346.86,79.57L351.65,79.57L351.65,69.15C351.65,64.36 348.78,60.79 343.25,60.79C341.78,60.79 340.38,61.12 339.24,61.86L339.24,61.16L334.38,61.16L334.38,79.58L334.38,79.57ZM355.89,79.57L360.75,79.57L360.75,67.38C361.16,66.68 362.26,65.28 364.58,65.28C366.9,65.28 368.37,66.97 368.37,69.15L368.37,79.57L373.16,79.57L373.16,69.15C373.16,64.36 370.29,60.79 364.76,60.79C363.29,60.79 361.89,61.12 360.75,61.86L360.75,61.16L355.89,61.16L355.89,79.58L355.89,79.57ZM394.64,69.88C394.64,64.69 391.21,60.74 385.73,60.74C380.25,60.74 376.56,65.09 376.56,70.28C376.56,75.47 380.02,79.97 385.73,79.97C389.82,79.97 392.14,78.42 394.2,75.84L390.63,73.26C389.38,74.81 388.01,75.62 386.03,75.62C383.67,75.62 381.98,74.22 381.46,71.9L394.54,71.9C394.65,71.2 394.65,70.5 394.65,69.87M381.53,68.56C382.05,66.43 383.59,65.21 385.87,65.21C387.75,65.21 389.37,66.35 389.81,68.56L381.52,68.56L381.53,68.56ZM399.28,74.38L397.11,75.27C398.55,78.03 401.2,79.98 405.47,79.98C409.97,79.98 412.69,77.36 412.69,74.23C412.69,71.1 410.89,69.37 406.06,68.3L405.73,68.23C403,67.64 402.3,67.24 402.3,66.24C402.3,65.47 403.26,64.69 404.95,64.69C406.83,64.69 408.19,65.76 408.63,67.16L410.77,66.39L412.87,65.54C411.91,62.37 409.15,60.75 405.02,60.75C400.2,60.75 397.69,63.51 397.69,66.5C397.69,69.81 399.97,71.4 404.21,72.39L404.69,72.5C407.53,73.16 407.97,73.5 407.97,74.38C407.97,75.41 406.94,75.97 405.35,75.97C403.43,75.97 402.03,74.9 401.33,73.5L399.27,74.38L399.28,74.38ZM403.92,66.24C403.92,66.31 403.88,66.31 403.99,66.31C403.92,66.31 403.92,66.27 403.92,66.24Z" style="fill:rgb(1,1,1);fill-rule:nonzero;"/>
                <path d="M243.28,17.01L243.28,31.86C243.28,37.9 247.11,41.99 253.26,41.99C259.41,41.99 263.28,37.9 263.28,31.86L263.28,17.01L258.42,17.01L258.42,31.86C258.42,35.17 256.5,37.2 253.26,37.2C250.02,37.2 248.14,35.17 248.14,31.86L248.14,17.01L243.28,17.01ZM267.89,41.62L272.75,41.62L272.75,29.43C273.15,28.73 274.26,27.33 276.58,27.33C278.9,27.33 280.38,29.02 280.38,31.2L280.38,41.63L285.17,41.63L285.17,31.2C285.17,26.41 282.3,22.84 276.77,22.84C275.3,22.84 273.9,23.17 272.76,23.91L272.76,23.21L267.9,23.21L267.9,41.63L267.89,41.62ZM289.55,41.62L294.26,41.62L294.26,23.2L289.55,23.2L289.55,41.62ZM289.47,19.7L294.33,19.7L294.33,14.69L289.47,14.69L289.47,19.7ZM309.66,41.62L316.58,23.2L311.54,23.2L307.01,35.25L302.19,23.2L297.14,23.2L304.62,41.62L309.67,41.62L309.66,41.62ZM336.18,31.93C336.18,26.74 332.75,22.8 327.26,22.8C321.77,22.8 318.09,27.15 318.09,32.34C318.09,37.53 321.55,42.03 327.26,42.03C331.35,42.03 333.67,40.48 335.73,37.9L332.16,35.32C330.91,36.87 329.54,37.68 327.56,37.68C325.2,37.68 323.51,36.28 322.99,33.96L336.07,33.96C336.18,33.26 336.18,32.56 336.18,31.93ZM323.07,30.6C323.59,28.46 325.13,27.25 327.42,27.25C329.3,27.25 330.92,28.39 331.36,30.6L323.07,30.6ZM339.83,41.62L344.77,41.62L344.77,29.39L350.44,27.18L350.44,22.39L344.77,24.56L344.77,23.2L339.83,23.2L339.83,41.62ZM354.6,36.42L352.43,37.31C353.87,40.07 356.52,42.02 360.79,42.02C365.28,42.02 368.01,39.41 368.01,36.27C368.01,33.13 366.2,31.41 361.38,30.34L361.05,30.27C358.32,29.68 357.62,29.28 357.62,28.28C357.62,27.51 358.58,26.73 360.27,26.73C362.15,26.73 363.51,27.8 363.95,29.2L366.09,28.43L368.19,27.58C367.23,24.41 364.47,22.79 360.34,22.79C355.52,22.79 353.01,25.55 353.01,28.54C353.01,31.86 355.3,33.44 359.53,34.43L360.01,34.54C362.84,35.2 363.29,35.53 363.29,36.42C363.29,37.45 362.26,38.01 360.68,38.01C358.76,38.01 357.36,36.94 356.66,35.54L354.6,36.42ZM359.24,28.28C359.24,28.35 359.2,28.35 359.31,28.35C359.24,28.35 359.24,28.31 359.24,28.28ZM371.95,41.62L376.66,41.62L376.66,23.2L371.95,23.2L371.95,41.62ZM371.87,19.7L376.73,19.7L376.73,14.69L371.87,14.69L371.87,19.7ZM383.44,41.62L388.16,41.62L388.16,27.66L393.28,27.66L393.28,23.2L388.16,23.2L388.16,17.6L383.44,17.6L383.44,23.2L379.76,23.2L379.76,27.66L383.44,27.66L383.44,41.62ZM412.87,31.93C412.87,26.74 409.44,22.8 403.95,22.8C398.46,22.8 394.78,27.15 394.78,32.34C394.78,37.53 398.24,42.03 403.95,42.03C408.04,42.03 410.36,40.48 412.42,37.9L408.85,35.32C407.6,36.87 406.24,37.68 404.25,37.68C401.89,37.68 400.2,36.28 399.68,33.96L412.76,33.96C412.87,33.26 412.87,32.56 412.87,31.93ZM399.76,30.6C400.28,28.46 401.82,27.25 404.11,27.25C405.99,27.25 407.61,28.39 408.05,30.6L399.76,30.6ZM401.42,20.66L406.28,20.66L409.96,14.55L404.73,14.55L401.42,20.66Z" style="fill:rgb(1,1,1);fill-rule:nonzero;"/>
                <path d="M256.99,79.57L261.93,79.57L261.93,52.5L256.99,52.5L256.99,61.67C255.59,61.08 254.19,60.75 252.72,60.75C247.42,60.75 243.29,64.69 243.29,70.37C243.29,76.05 247.05,79.98 252.72,79.98C254.05,79.98 255.48,79.72 256.99,78.8L256.99,79.57ZM248.14,70.36C248.14,67.08 250.46,65.24 253.26,65.24C254.55,65.24 255.88,65.72 256.98,66.42L256.98,74.01C256.02,74.9 254.92,75.48 253.18,75.48C250.49,75.48 248.13,73.64 248.13,70.36M282.96,69.88C282.96,64.69 279.53,60.75 274.04,60.75C268.55,60.75 264.87,65.1 264.87,70.29C264.87,75.48 268.33,79.98 274.04,79.98C278.13,79.98 280.45,78.43 282.51,75.85L278.94,73.27C277.69,74.82 276.32,75.63 274.34,75.63C271.98,75.63 270.29,74.23 269.77,71.91L282.85,71.91C282.96,71.21 282.96,70.51 282.96,69.88ZM269.84,68.56C270.36,66.42 271.9,65.21 274.19,65.21C276.07,65.21 277.69,66.35 278.13,68.56L269.84,68.56Z" style="fill:rgb(1,1,1);fill-rule:nonzero;"/>
                <rect x="111.87" y="25.47" width="1.28" height="48.8" style="fill:rgb(1,1,1);fill-rule:nonzero;"/>
                <path d="M75.76,3.55L76.14,3.17C74.54,1.57 72.33,0.58 69.89,0.58L9.44,0.58C7,0.58 4.79,1.57 3.19,3.17C1.59,4.77 0.6,6.98 0.6,9.42L0.6,69.87C0.6,72.31 1.59,74.52 3.19,76.12C4.79,77.72 7,78.71 9.44,78.71L69.89,78.71C72.33,78.71 74.54,77.72 76.14,76.12C77.74,74.52 78.73,72.31 78.73,69.87L78.73,9.42C78.73,6.98 77.74,4.77 76.14,3.17L75.76,3.55L75.38,3.93C76.79,5.34 77.65,7.27 77.65,9.42L77.65,69.87C77.65,72.01 76.78,73.95 75.38,75.36C73.97,76.77 72.04,77.63 69.89,77.63L9.44,77.63C7.3,77.63 5.36,76.76 3.96,75.36C2.55,73.95 1.69,72.02 1.69,69.87L1.69,9.42C1.69,7.28 2.56,5.34 3.96,3.93C5.36,2.53 7.3,1.66 9.44,1.66L69.89,1.66C72.03,1.66 73.97,2.53 75.38,3.93L75.76,3.55Z" style="fill:rgb(1,1,1);fill-rule:nonzero;"/>
                <path d="M9.44,2.26C7.53,2.26 5.73,3.01 4.38,4.36C3.03,5.71 2.28,7.51 2.28,9.42L2.28,69.87C2.28,71.78 3.02,73.58 4.38,74.94C5.73,76.29 7.53,77.04 9.44,77.04L69.89,77.04C71.8,77.04 73.6,76.3 74.95,74.94C76.3,73.59 77.05,71.79 77.05,69.88L77.05,9.43C77.05,7.55 76.33,5.78 75.02,4.43L74.96,4.37C73.61,3.02 71.81,2.27 69.9,2.27L9.45,2.27L9.44,2.26ZM69.9,79.31L9.44,79.31C6.92,79.31 4.55,78.33 2.77,76.55C0.99,74.77 0,72.4 0,69.88L0,9.43C0,6.91 0.98,4.54 2.77,2.76C4.55,0.98 6.92,0 9.44,0L69.89,0C72.21,0 74.4,0.83 76.12,2.35L76.13,2.35L76.55,2.76L76.96,3.18L76.95,3.18C78.47,4.92 79.31,7.11 79.31,9.43L79.31,69.88C79.31,72.4 78.33,74.77 76.55,76.55C74.77,78.33 72.4,79.31 69.88,79.31" style="fill:rgb(1,1,1);fill-rule:nonzero;"/>
                <path d="M16.89,32.86L16.89,52.72C16.89,53.85 16.43,54.87 15.69,55.61C14.95,56.35 13.93,56.81 12.8,56.81C11.67,56.81 10.65,56.35 9.91,55.61C9.17,54.87 8.71,53.85 8.71,52.72L8.71,32.86C8.71,31.73 9.17,30.71 9.91,29.97C10.65,29.23 11.67,28.77 12.8,28.77C13.93,28.77 14.95,29.23 15.69,29.97C16.43,30.71 16.89,31.73 16.89,32.86Z" style="fill:rgb(1,1,1);fill-rule:nonzero;"/>
                <path d="M12.79,29.37C11.86,29.37 10.98,29.73 10.32,30.39C9.66,31.05 9.3,31.93 9.3,32.86L9.3,52.71C9.3,53.64 9.66,54.52 10.32,55.18C10.98,55.84 11.86,56.2 12.79,56.2C13.72,56.2 14.6,55.84 15.26,55.17C15.92,54.51 16.28,53.63 16.28,52.7L16.28,32.85C16.28,31.92 15.92,31.04 15.26,30.38C14.6,29.72 13.72,29.36 12.79,29.36M12.79,57.41C11.54,57.41 10.36,56.92 9.47,56.04C8.58,55.15 8.1,53.98 8.1,52.72L8.1,32.87C8.1,31.62 8.59,30.44 9.47,29.56C10.35,28.67 11.53,28.19 12.79,28.19C14.05,28.19 15.22,28.68 16.11,29.56C17,30.45 17.48,31.62 17.48,32.87L17.48,52.72C17.48,53.97 16.99,55.15 16.11,56.04C15.22,56.93 14.05,57.41 12.79,57.41Z" style="fill:rgb(1,1,1);fill-rule:nonzero;"/>
                <path d="M15.69,23.01C14.95,23.75 13.93,24.21 12.8,24.21C11.67,24.21 10.64,23.75 9.91,23.01C9.17,22.27 8.71,21.25 8.71,20.12C8.71,18.99 9.17,17.97 9.91,17.23C10.65,16.49 11.67,16.03 12.8,16.03C13.93,16.03 14.95,16.49 15.69,17.23C16.43,17.97 16.89,18.99 16.89,20.12C16.89,21.25 16.43,22.27 15.69,23.01Z" style="fill:rgb(1,1,1);fill-rule:nonzero;"/>
                <path d="M12.79,16.63C11.86,16.63 10.98,16.99 10.32,17.65C9.66,18.31 9.3,19.19 9.3,20.12C9.3,21.05 9.66,21.93 10.32,22.59C10.98,23.25 11.86,23.61 12.79,23.61C13.72,23.61 14.6,23.25 15.26,22.59C15.92,21.93 16.28,21.05 16.28,20.12C16.28,19.19 15.92,18.31 15.26,17.65C14.6,16.99 13.72,16.63 12.79,16.63ZM12.79,24.81C11.53,24.81 10.36,24.32 9.47,23.44C8.58,22.55 8.1,21.38 8.1,20.12C8.1,18.86 8.59,17.69 9.47,16.81C10.35,15.92 11.53,15.44 12.79,15.44C14.05,15.44 15.22,15.93 16.11,16.81C17,17.7 17.48,18.87 17.48,20.12C17.48,21.37 16.99,22.55 16.11,23.44C15.22,24.33 14.05,24.81 12.79,24.81Z" style="fill:rgb(1,1,1);fill-rule:nonzero;"/>
                <path d="M22.22,32.86C22.22,30.6 24.05,28.77 26.31,28.77C28.57,28.77 30.4,30.6 30.4,32.86L30.4,48.32L36.43,48.32L36.43,32.84C36.43,30.58 38.26,28.75 40.52,28.75C42.78,28.75 44.61,30.58 44.61,32.84L44.61,52.4C44.61,54.66 42.78,56.49 40.52,56.49L26.31,56.51C24.05,56.51 22.22,54.68 22.22,52.42L22.22,32.86Z" style="fill:rgb(1,1,1);fill-rule:nonzero;"/>
                <path d="M26.31,29.37C24.38,29.37 22.82,30.94 22.82,32.86L22.82,52.42C22.82,54.35 24.39,55.91 26.31,55.91L40.52,55.89C42.45,55.89 44.01,54.32 44.01,52.4L44.01,32.85C44.01,30.92 42.45,29.36 40.52,29.36C38.59,29.36 37.03,30.93 37.03,32.85L37.03,48.92L29.8,48.92L29.8,32.86C29.8,30.94 28.23,29.37 26.31,29.37ZM26.31,57.11C23.72,57.11 21.62,55.01 21.62,52.42L21.62,32.86C21.62,30.28 23.72,28.17 26.31,28.17C28.9,28.17 31,30.27 31,32.86L31,47.72L35.84,47.72L35.84,32.84C35.84,30.25 37.94,28.15 40.53,28.15C43.12,28.15 45.22,30.25 45.22,32.84L45.22,52.39C45.22,54.98 43.12,57.08 40.53,57.08L26.32,57.1L26.31,57.11Z" style="fill:rgb(1,1,1);fill-rule:nonzero;"/>
                <path d="M29.42,69.24C28.68,69.98 27.66,70.44 26.53,70.44C25.4,70.44 24.38,69.98 23.64,69.24C22.9,68.5 22.44,67.48 22.44,66.35C22.44,65.22 22.9,64.2 23.64,63.46C24.38,62.72 25.4,62.26 26.53,62.26C27.66,62.26 28.68,62.72 29.42,63.46C30.16,64.2 30.62,65.22 30.62,66.35C30.62,67.48 30.16,68.51 29.42,69.24Z" style="fill:rgb(200,213,33);fill-rule:nonzero;"/>
                <path d="M43.16,69.24C42.42,69.98 41.4,70.44 40.27,70.44C39.14,70.44 38.12,69.98 37.38,69.24C36.64,68.5 36.18,67.48 36.18,66.35C36.18,65.22 36.64,64.2 37.38,63.46C38.12,62.72 39.14,62.26 40.27,62.26C41.4,62.26 42.42,62.72 43.16,63.46C43.9,64.2 44.36,65.22 44.36,66.35C44.36,67.48 43.9,68.51 43.16,69.24Z" style="fill:rgb(244,153,10);fill-rule:nonzero;"/>
                <path d="M56.9,69.24C56.16,69.98 55.14,70.44 54.01,70.44C52.88,70.44 51.86,69.98 51.12,69.24C50.38,68.5 49.92,67.48 49.92,66.35C49.92,65.22 50.38,64.2 51.12,63.46C51.86,62.72 52.88,62.26 54.01,62.26C55.14,62.26 56.16,62.72 56.9,63.46C57.64,64.2 58.1,65.22 58.1,66.35C58.1,67.48 57.64,68.51 56.9,69.24Z" style="fill:rgb(17,151,213);fill-rule:nonzero;"/>
                <path d="M70.63,69.24C69.89,69.98 68.87,70.44 67.74,70.44C66.61,70.44 65.58,69.98 64.85,69.24C64.11,68.5 63.65,67.48 63.65,66.35C63.65,65.23 64.11,64.2 64.85,63.46C65.59,62.72 66.61,62.26 67.74,62.26C68.86,62.26 69.89,62.72 70.63,63.46C71.37,64.2 71.83,65.22 71.83,66.35C71.83,67.48 71.37,68.51 70.63,69.24Z" style="fill:rgb(167,43,135);fill-rule:nonzero;"/>
                <path d="M70.63,29.97C69.89,29.23 68.87,28.77 67.74,28.77L58.29,28.73L58.31,20.12C58.31,18.99 57.86,17.97 57.12,17.23C56.38,16.49 55.36,16.03 54.23,16.03C53.1,16.03 52.08,16.49 51.34,17.23C50.6,17.97 50.14,18.99 50.14,20.12L50.11,26.52L50.09,30.9L50.08,30.9L50.08,52.59C50.08,54.85 51.91,56.68 54.17,56.68C56.43,56.68 58.26,54.85 58.26,52.59L58.2,37L60.96,37L67.75,36.96C68.87,36.96 69.9,36.5 70.64,35.76C71.38,35.02 71.84,34 71.84,32.87C71.84,31.74 71.38,30.72 70.64,29.98" style="fill:rgb(1,1,1);fill-rule:nonzero;"/>
                <path d="M50.681,31.95L50.681,52.59C50.681,54.52 52.251,56.08 54.17,56.08C56.09,56.08 57.66,54.51 57.66,52.59L57.6,36.41L67.74,36.36C68.671,36.36 69.55,36 70.21,35.34C70.871,34.68 71.231,33.81 71.231,32.87C71.231,31.93 70.871,31.06 70.21,30.4C69.55,29.74 68.671,29.38 67.74,29.38L57.691,29.33L57.721,20.12C57.721,19.19 57.361,18.31 56.7,17.65C56.041,16.99 55.16,16.62 54.23,16.62C53.3,16.62 52.42,16.98 51.761,17.64C51.1,18.3 50.73,19.18 50.73,20.11L50.681,31.95ZM54.17,57.27C51.59,57.27 49.48,55.17 49.48,52.58L49.48,29.83L49.49,29.84L49.531,20.11C49.531,18.86 50.02,17.68 50.91,16.8C51.791,15.91 52.971,15.43 54.221,15.43C55.471,15.43 56.651,15.92 57.541,16.8C58.431,17.68 58.91,18.86 58.91,20.11L58.891,28.13L67.74,28.17C68.981,28.17 70.16,28.66 71.05,29.54C71.941,30.43 72.421,31.6 72.421,32.86C72.421,34.12 71.93,35.29 71.05,36.18C70.16,37.07 68.981,37.55 67.74,37.55L58.8,37.59L58.861,52.58C58.861,55.17 56.761,57.27 54.17,57.27Z" style="fill:rgb(1,1,1);fill-rule:nonzero;"/>
                <path d="M15.69,69.24C14.95,69.98 13.93,70.44 12.8,70.44C11.67,70.44 10.65,69.98 9.91,69.24C9.17,68.5 8.71,67.48 8.71,66.35C8.71,65.22 9.17,64.2 9.91,63.46C10.65,62.72 11.67,62.26 12.8,62.26C13.93,62.26 14.95,62.72 15.69,63.46C16.43,64.2 16.89,65.22 16.89,66.35C16.89,67.48 16.43,68.51 15.69,69.24Z" style="fill:rgb(255,223,12);fill-rule:nonzero;"/>
                <path d="M0.84,99.75L0.84,98.16L2.65,98.16L2.65,82.28L0.84,82.28L0.84,80.69L6.41,80.69L6.41,82.28L4.6,82.28L4.6,98.16L10.05,98.16L10.05,95.03L11.81,95.03L11.81,99.75L0.84,99.75Z" style="fill:rgb(1,1,1);fill-rule:nonzero;"/>
                <path d="M20.59,94.35L16.94,94.35C15.4,94.35 15.35,94.4 15.35,95.81L15.35,96.97C15.32,98.21 15.49,98.21 16.81,98.21L20.59,98.21L20.59,94.35ZM23.91,98.21L23.91,99.75L15.35,99.75C13.59,99.75 13.59,99 13.59,97.35L13.59,95.22C13.56,93.17 13.97,92.98 16.32,92.98L20.59,92.98L20.59,90.41C20.59,89.03 20.48,89.01 18.81,89.01L17.08,89.01C15.65,89.01 15.51,89.01 15.54,90.41L15.54,90.98L13.89,90.98L13.89,90.2C13.89,88.82 13.89,88.39 14.32,87.96C14.75,87.5 15.13,87.5 16.86,87.47L19.05,87.47C20.51,87.47 21.29,87.5 21.83,88.01C22.34,88.5 22.34,89.17 22.34,90.47L22.34,98.22L23.91,98.22L23.91,98.21Z" style="fill:rgb(1,1,1);fill-rule:nonzero;"/>
                <path d="M24.591,99.75L24.591,98.21L26.181,98.21L26.181,89L24.591,89L24.591,87.46L31.831,87.46C34.661,87.43 34.721,88.13 34.721,90.24L34.721,98.21L36.311,98.21L36.311,99.75L31.341,99.75L31.341,98.21L32.911,98.21L32.911,90.73C32.911,89.21 32.911,89 31.231,89L27.941,89L27.941,98.21L29.501,98.21L29.501,99.75L24.591,99.75Z" style="fill:rgb(1,1,1);fill-rule:nonzero;"/>
                <path d="M36.96,99.75L36.96,98.21L38.55,98.21L38.55,89L36.96,89L36.96,87.46L44.2,87.46C47.04,87.43 47.09,88.13 47.09,90.24L47.09,98.21L48.68,98.21L48.68,99.75L43.71,99.75L43.71,98.21L45.28,98.21L45.28,90.73C45.28,89.21 45.28,89 43.6,89L40.31,89L40.31,98.21L41.88,98.21L41.88,99.75L36.96,99.75Z" style="fill:rgb(1,1,1);fill-rule:nonzero;"/>
                <path d="M51.68,83.33C52.35,83.33 52.9,83.87 52.9,84.54C52.9,85.21 52.36,85.76 51.68,85.76C51,85.76 50.46,85.22 50.46,84.54C50.46,83.86 51,83.33 51.68,83.33ZM49.33,99.75L49.33,98.21L50.92,98.21L50.92,89L49.33,89L49.33,87.46L52.71,87.46L52.71,98.21L54.3,98.21L54.3,99.75L49.33,99.75Z" style="fill:rgb(1,1,1);fill-rule:nonzero;"/>
                <path d="M63.261,90.84C63.261,89.06 63.071,89.06 61.481,89L59.431,89C57.761,89 57.681,89 57.651,90.84L57.651,96.35C57.651,97.57 57.701,97.75 57.921,98C58.081,98.19 58.111,98.19 59.301,98.22L61.571,98.22C63.001,98.22 63.321,98.22 63.271,96.52L63.271,90.85L63.261,90.84ZM64.991,96.51C64.941,98.43 64.941,98.67 64.531,99.18C64.021,99.75 63.401,99.75 62.101,99.75L58.701,99.75C57.511,99.75 56.951,99.72 56.461,99.26C55.921,98.7 55.891,97.88 55.891,96.53L55.891,90.83C55.921,89.02 55.921,88.48 56.381,87.97C56.891,87.43 57.461,87.46 59.051,87.46L61.881,87.46C63.691,87.51 64.151,87.51 64.581,88.03C64.991,88.49 64.991,89.14 64.991,90.68L64.991,96.51Z" style="fill:rgb(1,1,1);fill-rule:nonzero;"/>
                <path d="M66.77,99.75L66.77,98.21L68.361,98.21L68.361,89L66.77,89L66.77,87.46L74.01,87.46C76.841,87.43 76.9,88.13 76.9,90.24L76.9,98.21L78.49,98.21L78.49,99.75L73.52,99.75L73.52,98.21L75.091,98.21L75.091,90.73C75.091,89.21 75.091,89 73.421,89L70.121,89L70.121,98.21L71.68,98.21L71.68,99.75L66.77,99.75Z" style="fill:rgb(1,1,1);fill-rule:nonzero;"/>
            </g>
        </g>
    </g>
</svg>
