<svg width="4394" height="811" viewBox="0 0 4394 811" fill="none" xmlns="http://www.w3.org/2000/svg">
<mask id="mask0_666_3627" style="mask-type:luminance" maskUnits="userSpaceOnUse" x="3598" y="9" width="796" height="796">
<path d="M4393.44 9.49561H3598.18V804.437H4393.44V9.49561Z" fill="white"/>
</mask>
<g mask="url(#mask0_666_3627)">
<path d="M4267.87 206.139H3702.82V607.794H4267.87V206.139Z" fill="white"/>
<path d="M4267.37 563.942C4267.37 586.489 4249.04 604.768 4226.42 604.768H4068.97C4046.33 604.768 4028.01 586.489 4028.01 563.942C4028.01 541.391 4046.33 523.12 4068.97 523.12H4185.47V406.966C4185.47 384.428 4203.8 366.144 4226.42 366.144C4249.04 366.144 4267.37 384.428 4267.37 406.966V563.942ZM3986.21 447.789C3963.59 447.789 3945.26 429.505 3945.26 406.966C3945.26 384.428 3963.59 366.144 3986.21 366.144C4008.83 366.144 4027.15 384.428 4027.15 406.966C4027.15 429.505 4008.83 447.789 3986.21 447.789ZM3903.46 290.809H3786.94V406.966C3786.94 429.505 3768.61 447.789 3746 447.789C3723.38 447.789 3705.05 429.505 3705.05 406.966V249.986C3705.05 227.443 3723.38 209.177 3746 209.177H3903.46C3926.07 209.177 3944.41 227.443 3944.41 249.986C3944.41 272.529 3926.07 290.809 3903.46 290.809ZM3869.92 447.789C3847.3 447.789 3828.97 429.505 3828.97 406.966C3828.97 384.428 3847.3 366.144 3869.92 366.144C3892.53 366.144 3910.86 384.428 3910.86 406.966C3910.86 429.505 3892.53 447.789 3869.92 447.789ZM4102.5 366.144C4125.11 366.144 4143.45 384.428 4143.45 406.966C4143.45 429.505 4125.11 447.789 4102.5 447.789C4079.88 447.789 4061.55 429.505 4061.55 406.966C4061.55 384.428 4079.88 366.144 4102.5 366.144ZM4302.9 178.35L4028.53 20.4324C4004.03 6.36609 3972.88 5.33267 3946.63 20.4324L3672.27 178.35C3647.78 192.462 3631.31 218.833 3631.31 249.053V564.879L3631.33 564.871C3631.35 593.058 3646.01 620.471 3672.27 635.575L3946.63 793.492C3971.14 807.566 4002.27 808.596 4028.53 793.492L4302.89 635.575C4327.37 621.454 4343.84 595.104 4343.84 564.879V249.057C4343.82 220.862 4329.15 193.462 4302.9 178.35Z" fill="#A82786"/>
</g>
<path d="M1527.75 461.997L1496.96 492.775L1681.75 677.474L1712.53 646.704L1527.75 461.997Z" fill="white"/>
<path d="M1589.37 400.433L1558.58 431.211L1743.36 615.91L1774.14 585.14L1589.37 400.433Z" fill="white"/>
<path d="M1250.5 184.892L1219.72 215.67L1404.49 400.369L1435.28 369.599L1250.5 184.892Z" fill="white"/>
<path d="M1312.11 123.328L1281.33 154.106L1466.1 338.805L1496.88 308.035L1312.11 123.328Z" fill="white"/>
<path d="M1681.7 123.4L1496.92 308.1L1527.71 338.869L1712.48 154.17L1681.7 123.4Z" fill="white"/>
<path d="M1743.28 184.988L1558.51 369.688L1589.29 400.457L1774.07 215.758L1743.28 184.988Z" fill="white"/>
<path d="M1404.54 400.481L1219.77 585.181L1250.55 615.959L1435.32 431.259L1404.54 400.481Z" fill="white"/>
<path d="M1466.09 461.989L1281.32 646.688L1312.1 677.466L1496.88 492.767L1466.09 461.989Z" fill="white"/>
<path d="M1475.16 73.873H1431.62V204.516H1475.16V73.873Z" fill="white"/>
<path d="M1562.24 73.873H1518.7V204.516H1562.24V73.873Z" fill="white"/>
<path d="M1475.16 596.366H1431.62V727.01H1475.16V596.366Z" fill="white"/>
<path d="M1562.24 596.366H1518.7V727.01H1562.24V596.366Z" fill="white"/>
<path d="M1823.63 335.08H1692.94V378.601H1823.63V335.08Z" fill="white"/>
<path d="M1823.63 422.202H1692.94V465.723H1823.63V422.202Z" fill="white"/>
<path d="M1300.93 335.08H1170.23V378.601H1300.93V335.08Z" fill="white"/>
<path d="M1300.93 422.202H1170.23V465.723H1300.93V422.202Z" fill="white"/>
<path d="M2364.08 638.923H2403.12V566.496H2421.2L2455.26 638.923H2496.06L2458.15 559.67C2480.08 548.429 2491.57 525.624 2491.57 503.784V503.462C2491.57 466.205 2459.92 441.312 2427.95 441.312H2364V638.843L2364.08 638.923ZM2403.12 529.479V478.329H2421.76C2440.4 478.329 2452.85 488.367 2453.09 503.784C2452.77 521.208 2440.64 529.479 2421.76 529.479H2403.12ZM2657.37 561.116C2657.37 519.441 2629.81 487.724 2585.71 487.724C2541.61 487.724 2512.05 522.653 2512.05 564.328C2512.05 606.002 2539.84 642.135 2585.71 642.135C2618.57 642.135 2637.2 629.689 2653.75 608.973L2625.07 588.256C2615.03 600.702 2604.11 607.206 2588.12 607.206C2569.16 607.206 2555.59 595.965 2551.41 577.336H2656.48C2657.37 571.715 2657.37 566.094 2657.37 561.035M2551.97 550.516C2556.15 533.413 2568.52 523.617 2586.92 523.617C2602.02 523.617 2615.03 532.771 2618.57 550.516H2551.97ZM2686.04 638.923H2725.08V541.041C2728.38 535.421 2737.21 524.179 2755.85 524.179C2774.49 524.179 2786.29 537.749 2786.29 555.254V638.923H2824.77V555.254C2824.77 516.792 2801.72 488.126 2757.29 488.126C2745.49 488.126 2734.24 490.775 2725.08 496.717V491.097H2686.04V639.004V638.923ZM2858.83 638.923H2897.87V541.041C2901.16 535.421 2910 524.179 2928.64 524.179C2947.27 524.179 2959.08 537.749 2959.08 555.254V638.923H2997.56V555.254C2997.56 516.792 2974.5 488.126 2930.08 488.126C2918.27 488.126 2907.03 490.775 2897.87 496.717V491.097H2858.83V639.004V638.923ZM3170.11 561.116C3170.11 519.441 3142.55 487.724 3098.53 487.724C3054.51 487.724 3024.87 522.653 3024.87 564.328C3024.87 606.002 3052.67 642.135 3098.53 642.135C3131.39 642.135 3150.02 629.689 3166.57 608.973L3137.89 588.256C3127.85 600.702 3116.85 607.206 3100.94 607.206C3081.99 607.206 3068.41 595.965 3064.23 577.336H3169.3C3170.19 571.715 3170.19 566.094 3170.19 561.035M3064.79 550.516C3068.97 533.413 3081.34 523.617 3099.66 523.617C3114.76 523.617 3127.77 532.771 3131.31 550.516H3064.71H3064.79ZM3207.38 597.249L3189.95 604.396C3201.51 626.558 3222.8 642.216 3257.1 642.216C3293.25 642.216 3315.1 621.178 3315.1 596.045C3315.1 570.912 3300.64 557.021 3261.84 548.429L3259.19 547.867C3237.26 543.129 3231.64 539.917 3231.64 531.888C3231.64 525.705 3239.35 519.442 3252.93 519.442C3268.03 519.442 3278.95 528.033 3282.49 539.275L3299.68 533.092L3316.55 526.267C3308.83 500.813 3286.66 487.804 3253.49 487.804C3214.77 487.804 3194.61 509.966 3194.61 533.975C3194.61 560.554 3212.92 573.321 3246.98 581.27L3250.84 582.154C3273.65 587.453 3277.18 590.183 3277.18 597.249C3277.18 605.52 3268.91 610.017 3256.14 610.017C3240.72 610.017 3229.47 601.425 3223.85 590.183L3207.3 597.249H3207.38ZM3244.65 531.888C3244.65 532.45 3244.33 532.45 3245.21 532.45C3244.65 532.45 3244.65 532.128 3244.65 531.888Z" fill="white"/>
<path d="M1954.25 136.585V255.826C1954.25 304.326 1985.01 337.167 2034.41 337.167C2083.82 337.167 2114.9 304.326 2114.9 255.826V136.585H2075.86V255.826C2075.86 282.405 2060.44 298.705 2034.41 298.705C2008.39 298.705 1993.29 282.405 1993.29 255.826V136.585H1954.25ZM2151.94 334.196H2190.98V236.314C2194.19 230.693 2203.11 219.452 2221.74 219.452C2240.38 219.452 2252.27 233.022 2252.27 250.527V334.276H2290.74V250.527C2290.74 212.064 2267.69 183.398 2223.27 183.398C2211.46 183.398 2200.21 186.048 2191.06 191.99V186.369H2152.02V334.276L2151.94 334.196ZM2325.93 334.196H2363.76V186.289H2325.93V334.196ZM2325.29 158.185H2364.33V117.956H2325.29V158.185ZM2487.47 334.196L2543.06 186.289H2502.57L2466.18 283.047L2427.46 186.289H2386.9L2446.98 334.196H2487.55H2487.47ZM2700.5 256.388C2700.5 214.714 2672.95 183.077 2628.85 183.077C2584.75 183.077 2555.19 218.006 2555.19 259.68C2555.19 301.355 2582.98 337.488 2628.85 337.488C2661.7 337.488 2680.34 325.042 2696.89 304.326L2668.21 283.609C2658.17 296.055 2647.16 302.559 2631.26 302.559C2612.3 302.559 2598.73 291.317 2594.55 272.689H2699.62C2700.5 267.068 2700.5 261.447 2700.5 256.388ZM2595.19 245.709C2599.37 228.525 2611.74 218.809 2630.13 218.809C2645.24 218.809 2658.25 227.963 2661.78 245.709H2595.19ZM2729.82 334.196H2769.51V235.993L2815.05 218.247V179.785L2769.51 197.209V186.289H2729.82V334.196ZM2848.47 292.442L2831.04 299.588C2842.61 321.75 2863.89 337.408 2898.19 337.408C2934.26 337.408 2956.19 316.45 2956.19 291.237C2956.19 266.024 2941.65 252.213 2902.93 243.621L2900.28 243.059C2878.35 238.321 2872.73 235.11 2872.73 227.08C2872.73 220.897 2880.44 214.634 2894.02 214.634C2909.12 214.634 2920.04 223.226 2923.58 234.467L2940.77 228.284L2957.64 221.459C2949.92 196.005 2927.75 182.997 2894.58 182.997C2855.86 182.997 2835.7 205.159 2835.7 229.168C2835.7 255.826 2854.09 268.513 2888.07 276.463L2891.93 277.346C2914.66 282.645 2918.28 285.295 2918.28 292.442C2918.28 300.712 2910 305.209 2897.31 305.209C2881.89 305.209 2870.64 296.617 2865.02 285.376L2848.47 292.442ZM2885.74 227.08C2885.74 227.642 2885.42 227.642 2886.3 227.642C2885.74 227.642 2885.74 227.321 2885.74 227.08ZM2987.84 334.196H3025.68V186.289H2987.84V334.196ZM2987.2 158.185H3026.24V117.956H2987.2V158.185ZM3080.14 334.196H3118.05V222.101H3159.18V186.289H3118.05V141.323H3080.14V186.289H3050.58V222.101H3080.14V334.196ZM3316.55 256.388C3316.55 214.714 3288.99 183.077 3244.89 183.077C3200.79 183.077 3171.23 218.006 3171.23 259.68C3171.23 301.355 3199.03 337.488 3244.89 337.488C3277.75 337.488 3296.38 325.042 3312.93 304.326L3284.25 283.609C3274.21 296.055 3263.29 302.559 3247.3 302.559C3228.35 302.559 3214.77 291.317 3210.59 272.689H3315.66C3316.55 267.068 3316.55 261.447 3316.55 256.388ZM3211.24 245.709C3215.41 228.525 3227.78 218.809 3246.18 218.809C3261.28 218.809 3274.29 227.963 3277.83 245.709H3211.24ZM3224.57 165.894H3263.61L3293.17 116.832H3251.16L3224.57 165.894Z" fill="white"/>
<path d="M2064.38 638.924H2104.06V421.56H2064.38V495.192C2053.13 490.454 2041.88 487.805 2030.08 487.805C1987.5 487.805 1954.33 519.442 1954.33 565.05C1954.33 610.659 1984.53 642.216 2030.08 642.216C2040.76 642.216 2052.25 640.128 2064.38 632.741V638.924ZM1993.29 564.97C1993.29 538.633 2011.92 523.858 2034.41 523.858C2044.78 523.858 2055.46 527.712 2064.3 533.333V594.279C2056.59 601.425 2047.75 606.082 2033.77 606.082C2012.16 606.082 1993.21 591.307 1993.21 564.97M2272.99 561.116C2272.99 519.442 2245.44 487.805 2201.34 487.805C2157.24 487.805 2127.68 522.734 2127.68 564.408C2127.68 606.082 2155.47 642.216 2201.34 642.216C2234.19 642.216 2252.83 629.77 2269.38 609.053L2240.7 588.336C2230.66 600.783 2219.65 607.287 2203.75 607.287C2184.79 607.287 2171.21 596.045 2167.04 577.416H2272.11C2272.99 571.795 2272.99 566.175 2272.99 561.116ZM2167.6 550.517C2171.78 533.333 2184.15 523.617 2202.54 523.617C2217.64 523.617 2230.66 532.771 2234.19 550.517H2167.6Z" fill="white"/>
<path d="M908.923 204.517H898.641V596.366H908.923V204.517Z" fill="#010101"/>
<path d="M608.574 28.5054L611.626 25.4542C598.773 12.6066 581.021 4.65723 561.42 4.65723H75.8312C56.2309 4.65723 38.4782 12.6066 25.6255 25.4542C12.7729 38.3017 4.82031 56.0473 4.82031 75.6398V561.035C4.82031 580.628 12.7729 598.373 25.6255 611.221C38.4782 624.069 56.2309 632.018 75.8312 632.018H561.42C581.021 632.018 598.773 624.069 611.626 611.221C624.479 598.373 632.431 580.628 632.431 561.035V75.6398C632.431 56.0473 624.479 38.3017 611.626 25.4542L608.574 28.5054L605.521 31.5567C616.847 42.8786 623.756 58.3759 623.756 75.6398V561.035C623.756 578.219 616.767 593.797 605.521 605.118C594.195 616.44 578.691 623.346 561.42 623.346H75.8312C58.6408 623.346 43.0569 616.36 31.8109 605.118C20.4845 593.797 13.5762 578.299 13.5762 561.035V75.6398C13.5762 58.4562 20.5648 42.8786 31.8109 31.5567C43.0569 20.3151 58.6408 13.3293 75.8312 13.3293H561.42C578.611 13.3293 594.195 20.3151 605.521 31.5567L608.574 28.5054Z" fill="#010101"/>
<path d="M75.8306 18.1471C60.4878 18.1471 46.0286 24.1694 35.1841 35.0095C24.3397 45.8496 18.315 60.3031 18.315 75.6398V561.035C18.315 576.372 24.2594 590.826 35.1841 601.746C46.0286 612.586 60.4878 618.608 75.8306 618.608H561.42C576.763 618.608 591.222 612.666 602.066 601.746C612.911 590.906 618.935 576.452 618.935 561.116V75.7201C618.935 60.6243 613.152 46.4117 602.629 35.5716L602.147 35.0898C591.302 24.2497 576.843 18.2274 561.5 18.2274H75.911L75.8306 18.1471ZM561.5 636.836H75.8306C55.5877 636.836 36.5497 628.967 22.2512 614.674C7.95258 600.381 0 581.35 0 561.116V75.7201C0 55.4853 7.87225 36.4549 22.2512 22.162C36.5497 7.86911 55.5877 0 75.8306 0H561.42C580.056 0 597.648 6.66465 611.465 18.8698H611.545L614.919 22.162L618.212 25.5345H618.132C630.342 39.5061 637.09 57.0912 637.09 75.7201V561.116C637.09 581.35 629.218 600.381 614.919 614.674C600.62 628.967 581.582 636.836 561.339 636.836" fill="white"/>
<path d="M135.676 263.856V423.326C135.676 432.4 131.981 440.59 126.036 446.532C120.092 452.474 111.899 456.168 102.821 456.168C93.7442 456.168 85.5506 452.474 79.6063 446.532C73.6619 440.59 69.9668 432.4 69.9668 423.326V263.856C69.9668 254.783 73.6619 246.592 79.6063 240.65C85.5506 234.708 93.7442 231.015 102.821 231.015C111.899 231.015 120.092 234.708 126.036 240.65C131.981 246.592 135.676 254.783 135.676 263.856Z" fill="white"/>
<path d="M102.741 235.832C95.2701 235.832 88.2012 238.723 82.8995 244.023C77.5977 249.322 74.7059 256.389 74.7059 263.856V423.246C74.7059 430.713 77.5977 437.78 82.8995 443.079C88.2012 448.379 95.2701 451.269 102.741 451.269C110.211 451.269 117.28 448.379 122.582 442.999C127.884 437.699 130.776 430.633 130.776 423.165V263.776C130.776 256.308 127.884 249.242 122.582 243.942C117.28 238.643 110.211 235.752 102.741 235.752M102.741 460.985C92.6996 460.985 83.2208 457.051 76.0715 449.985C68.9222 442.838 65.0664 433.443 65.0664 423.326V263.936C65.0664 253.899 69.0025 244.424 76.0715 237.358C83.1404 230.212 92.6193 226.357 102.741 226.357C112.862 226.357 122.261 230.292 129.41 237.358C136.559 244.505 140.415 253.899 140.415 263.936V423.326C140.415 433.363 136.479 442.838 129.41 449.985C122.261 457.131 112.862 460.985 102.741 460.985Z" fill="white"/>
<path d="M126.036 184.764C120.092 190.706 111.899 194.399 102.821 194.399C93.7442 194.399 85.4703 190.706 79.6063 184.764C73.6619 178.822 69.9668 170.631 69.9668 161.558C69.9668 152.484 73.6619 144.294 79.6063 138.352C85.5506 132.41 93.7442 128.716 102.821 128.716C111.899 128.716 120.092 132.41 126.036 138.352C131.981 144.294 135.676 152.484 135.676 161.558C135.676 170.631 131.981 178.822 126.036 184.764Z" fill="white"/>
<path d="M102.741 133.534C95.2701 133.534 88.2012 136.425 82.8995 141.724C77.5977 147.024 74.7059 154.09 74.7059 161.558C74.7059 169.025 77.5977 176.091 82.8995 181.391C88.2012 186.69 95.2701 189.581 102.741 189.581C110.211 189.581 117.28 186.69 122.582 181.391C127.884 176.091 130.776 169.025 130.776 161.558C130.776 154.09 127.884 147.024 122.582 141.724C117.28 136.425 110.211 133.534 102.741 133.534ZM102.741 199.217C92.6193 199.217 83.2208 195.282 76.0715 188.216C68.9222 181.07 65.0664 171.675 65.0664 161.558C65.0664 151.44 69.0025 142.045 76.0715 134.979C83.1404 127.833 92.6193 123.979 102.741 123.979C112.862 123.979 122.261 127.913 129.41 134.979C136.559 142.126 140.415 151.52 140.415 161.558C140.415 171.595 136.479 181.07 129.41 188.216C122.261 195.363 112.862 199.217 102.741 199.217Z" fill="white"/>
<path d="M178.49 263.856C178.49 245.709 193.19 231.015 211.345 231.015C229.499 231.015 244.199 245.709 244.199 263.856V387.995H292.638V263.695C292.638 245.548 307.338 230.854 325.492 230.854C343.647 230.854 358.347 245.548 358.347 263.695V420.756C358.347 438.904 343.647 453.598 325.492 453.598L211.345 453.759C193.19 453.759 178.49 439.064 178.49 420.917V263.856Z" fill="white"/>
<path d="M211.346 235.832C195.843 235.832 183.311 248.439 183.311 263.856V420.917C183.311 436.414 195.923 448.941 211.346 448.941L325.494 448.78C340.997 448.78 353.529 436.173 353.529 420.756V263.776C353.529 248.278 340.997 235.752 325.494 235.752C309.99 235.752 297.459 248.359 297.459 263.776V392.813H239.381V263.856C239.381 248.439 226.769 235.832 211.346 235.832ZM211.346 458.576C190.541 458.576 173.672 441.714 173.672 420.917V263.856C173.672 243.139 190.541 226.197 211.346 226.197C232.151 226.197 249.021 243.059 249.021 263.856V383.177H287.9V263.695C287.9 242.899 304.769 226.036 325.574 226.036C346.379 226.036 363.248 242.899 363.248 263.695V420.676C363.248 441.473 346.379 458.335 325.574 458.335L211.427 458.496L211.346 458.576Z" fill="white"/>
<path d="M236.328 555.977C230.383 561.918 222.19 565.612 213.112 565.612C204.035 565.612 195.842 561.918 189.897 555.977C183.953 550.035 180.258 541.844 180.258 532.771C180.258 523.697 183.953 515.507 189.897 509.565C195.842 503.623 204.035 499.929 213.112 499.929C222.19 499.929 230.383 503.623 236.328 509.565C242.272 515.507 245.967 523.697 245.967 532.771C245.967 541.844 242.272 550.115 236.328 555.977Z" fill="#C8D521"/>
<path d="M346.701 555.977C340.756 561.918 332.563 565.612 323.485 565.612C314.408 565.612 306.215 561.918 300.27 555.977C294.326 550.035 290.631 541.844 290.631 532.771C290.631 523.697 294.326 515.507 300.27 509.565C306.215 503.623 314.408 499.929 323.485 499.929C332.563 499.929 340.756 503.623 346.701 509.565C352.645 515.507 356.34 523.697 356.34 532.771C356.34 541.844 352.645 550.115 346.701 555.977Z" fill="#F4990A"/>
<path d="M457.072 555.977C451.127 561.918 442.934 565.612 433.857 565.612C424.779 565.612 416.586 561.918 410.641 555.977C404.697 550.035 401.002 541.844 401.002 532.771C401.002 523.697 404.697 515.507 410.641 509.565C416.586 503.623 424.779 499.929 433.857 499.929C442.934 499.929 451.127 503.623 457.072 509.565C463.016 515.507 466.711 523.697 466.711 532.771C466.711 541.844 463.016 550.115 457.072 555.977Z" fill="#1197D5"/>
<path d="M567.365 555.977C561.42 561.918 553.227 565.612 544.149 565.612C535.072 565.612 526.798 561.918 520.934 555.977C514.99 550.035 511.295 541.844 511.295 532.771C511.295 523.777 514.99 515.507 520.934 509.565C526.879 503.623 535.072 499.929 544.149 499.929C553.146 499.929 561.42 503.623 567.365 509.565C573.309 515.507 577.004 523.697 577.004 532.771C577.004 541.844 573.309 550.115 567.365 555.977Z" fill="#A72B87"/>
<path d="M567.363 240.65C561.419 234.708 553.225 231.015 544.148 231.015L468.237 230.694L468.398 161.558C468.398 152.484 464.783 144.294 458.839 138.352C452.894 132.41 444.701 128.716 435.624 128.716C426.546 128.716 418.353 132.41 412.409 138.352C406.464 144.294 402.769 152.484 402.769 161.558L402.528 212.948L402.367 248.118H402.287V422.282C402.287 440.429 416.987 455.124 435.142 455.124C453.296 455.124 467.996 440.429 467.996 422.282L467.514 297.099H489.685L544.229 296.778C553.225 296.778 561.499 293.084 567.444 287.142C573.388 281.2 577.083 273.01 577.083 263.936C577.083 254.863 573.388 246.673 567.444 240.731" fill="white"/>
<path d="M407.116 256.549V422.282C407.116 437.78 419.728 450.306 435.143 450.306C450.566 450.306 463.178 437.699 463.178 422.282L462.696 292.362L544.15 291.96C551.628 291.96 558.689 289.069 563.991 283.77C569.301 278.47 572.193 271.484 572.193 263.936C572.193 256.389 569.301 249.403 563.991 244.103C558.689 238.803 551.628 235.913 544.15 235.913L463.427 235.511L463.668 161.558C463.668 154.09 460.776 147.024 455.466 141.724C450.173 136.425 443.096 133.454 435.625 133.454C428.154 133.454 421.086 136.344 415.792 141.644C410.482 146.944 407.51 154.01 407.51 161.477L407.116 256.549ZM435.143 459.861C414.418 459.861 397.469 442.999 397.469 422.202V239.526L397.549 239.606L397.878 161.477C397.878 151.44 401.807 141.965 408.956 134.899C416.033 127.753 425.512 123.898 435.553 123.898C445.594 123.898 455.073 127.833 462.222 134.899C469.371 141.965 473.219 151.44 473.219 161.477L473.066 225.876L544.15 226.197C554.118 226.197 563.589 230.131 570.739 237.198C577.896 244.344 581.752 253.739 581.752 263.856C581.752 273.974 577.808 283.368 570.739 290.515C563.589 297.661 554.118 301.515 544.15 301.515L472.335 301.837L472.825 422.202C472.825 442.999 455.956 459.861 435.143 459.861Z" fill="white"/>
<path d="M126.036 555.977C120.092 561.918 111.899 565.612 102.821 565.612C93.7442 565.612 85.5506 561.918 79.6063 555.977C73.6619 550.035 69.9668 541.844 69.9668 532.771C69.9668 523.697 73.6619 515.507 79.6063 509.565C85.5506 503.623 93.7442 499.929 102.821 499.929C111.899 499.929 120.092 503.623 126.036 509.565C131.981 515.507 135.676 523.697 135.676 532.771C135.676 541.844 131.981 550.115 126.036 555.977Z" fill="#FFDF0C"/>
<path d="M6.74805 800.963V788.196H21.2876V660.684H6.74805V647.917H51.4913V660.684H36.9518V788.196H80.7311V763.063H94.869V800.963H6.74805Z" fill="white"/>
<path d="M165.398 757.602H136.078C123.708 757.602 123.306 758.004 123.306 769.326V778.64C123.065 788.597 124.431 788.597 135.034 788.597H165.398V757.602ZM192.068 788.597V800.963H123.306C109.168 800.963 109.168 794.94 109.168 781.691V764.588C108.927 748.127 112.221 746.602 131.098 746.602H165.398V725.965C165.398 714.884 164.515 714.724 151.1 714.724H137.203C125.716 714.724 124.591 714.724 124.832 725.965V730.542H111.578V724.279C111.578 713.198 111.578 709.745 115.032 706.292C118.486 702.599 121.539 702.599 135.436 702.358H153.028C164.756 702.358 171.022 702.599 175.359 706.694C179.456 710.629 179.456 716.008 179.456 726.447V788.677H192.068V788.597Z" fill="white"/>
<path d="M197.537 800.963V788.597H210.309V714.644H197.537V702.278H255.695C278.428 702.037 278.91 707.658 278.91 724.6V788.597H291.683V800.963H251.759V788.597H264.371V728.535C264.371 716.33 264.371 714.644 250.876 714.644H224.447V788.597H236.979V800.963H197.537Z" fill="white"/>
<path d="M296.896 800.963V788.597H309.669V714.644H296.896V702.278H355.055C377.868 702.037 378.27 707.658 378.27 724.6V788.597H391.042V800.963H351.119V788.597H363.73V728.535C363.73 716.33 363.73 714.644 350.235 714.644H323.807V788.597H336.418V800.963H296.896Z" fill="white"/>
<path d="M415.141 669.115C420.523 669.115 424.941 673.451 424.941 678.831C424.941 684.211 420.603 688.627 415.141 688.627C409.679 688.627 405.341 684.291 405.341 678.831C405.341 673.371 409.679 669.115 415.141 669.115ZM396.264 800.963V788.597H409.036V714.644H396.264V702.278H423.415V788.597H436.187V800.963H396.264Z" fill="white"/>
<path d="M508.169 729.418C508.169 715.125 506.643 715.125 493.871 714.644H477.403C463.988 714.644 463.346 714.644 463.105 729.418V773.662C463.105 783.458 463.506 784.903 465.274 786.911C466.559 788.437 466.8 788.437 476.359 788.677H494.594C506.081 788.677 508.651 788.677 508.25 775.027V729.498L508.169 729.418ZM522.066 774.947C521.665 790.364 521.665 792.291 518.371 796.386C514.274 800.963 509.294 800.963 498.851 800.963H471.539C461.98 800.963 457.482 800.722 453.546 797.028C449.208 792.532 448.967 785.947 448.967 775.107V729.338C449.208 714.804 449.208 710.468 452.903 706.373C457 702.037 461.578 702.278 474.351 702.278H497.084C511.623 702.679 515.319 702.679 518.773 706.855C522.066 710.548 522.066 715.768 522.066 728.133V774.947Z" fill="white"/>
<path d="M536.357 800.963V788.597H549.138V714.644H536.357V702.278H594.516C617.257 702.037 617.731 707.658 617.731 724.6V788.597H630.503V800.963H590.58V788.597H603.199V728.535C603.199 716.33 603.199 714.644 589.784 714.644H563.276V788.597H575.799V800.963H536.357Z" fill="white"/>
</svg>
