<svg width="190" height="190" viewBox="0 0 190 190" fill="none" xmlns="http://www.w3.org/2000/svg">
<rect x="25" y="47" width="135" height="96" fill="white"/>
<path d="M159.881 132.519C159.881 137.908 155.501 142.277 150.098 142.277H112.479C107.072 142.277 102.693 137.908 102.693 132.519C102.693 127.129 107.072 122.762 112.479 122.762H140.313V94.9996C140.313 89.6127 144.694 85.2427 150.098 85.2427C155.501 85.2427 159.881 89.6127 159.881 94.9996V132.519ZM92.708 104.757C87.3029 104.757 82.9226 100.387 82.9226 94.9996C82.9226 89.6127 87.3029 85.2427 92.708 85.2427C98.1111 85.2427 102.488 89.6127 102.488 94.9996C102.488 100.387 98.1111 104.757 92.708 104.757ZM72.9361 67.2374H45.0991V94.9996C45.0991 100.387 40.7188 104.757 35.3168 104.757C29.9117 104.757 25.5329 100.387 25.5329 94.9996V57.4805C25.5329 52.0921 29.9117 47.726 35.3168 47.726H72.9361C78.3384 47.726 82.7199 52.0921 82.7199 57.4805C82.7199 62.8678 78.3384 67.2374 72.9361 67.2374ZM64.9228 104.757C59.5201 104.757 55.1414 100.387 55.1414 94.9996C55.1414 89.6127 59.5201 85.2427 64.9228 85.2427C70.3248 85.2427 74.7063 89.6127 74.7063 94.9996C74.7063 100.387 70.3248 104.757 64.9228 104.757ZM120.491 85.2427C125.893 85.2427 130.274 89.6127 130.274 94.9996C130.274 100.387 125.893 104.757 120.491 104.757C115.086 104.757 110.706 100.387 110.706 94.9996C110.706 89.6127 115.086 85.2427 120.491 85.2427ZM168.37 40.358L102.818 2.61388C96.9644 -0.74759 89.5223 -0.994776 83.2507 2.61388L17.7011 40.358C11.8515 43.7313 7.9165 50.0341 7.9165 57.2565V132.743L7.91955 132.741C7.92561 139.478 11.4294 146.03 17.7011 149.64L83.2507 187.384C89.1055 190.748 96.544 190.994 102.818 187.384L168.366 149.64C174.215 146.265 178.151 139.967 178.151 132.743V57.2577C178.145 50.5186 174.642 43.9704 168.37 40.358Z" fill="#A82786"/>
</svg>
