<svg width="2695" height="567" viewBox="0 0 2695 567" fill="none" xmlns="http://www.w3.org/2000/svg">
<g clip-path="url(#clip0_663_3619)">
<path d="M899.7 113.4C915.9 113.4 930.6 114.8 944 117.7C957.3 120.6 968.8 125.2 978.3 131.7C987.8 138.2 995.2 146.9 1000.4 157.7C1005.6 168.5 1008.3 181.8 1008.3 197.7C1008.3 214.8 1004.4 229.1 996.6 240.6C988.8 252.1 977.3 261.4 962.1 268.7C983 274.7 998.7 285.3 1009 300.4C1019.3 315.5 1024.5 333.7 1024.5 354.9C1024.5 372 1021.2 386.9 1014.5 399.4C1007.8 411.9 998.9 422.2 987.6 430.1C976.3 438 963.5 443.9 949 447.7C934.6 451.5 919.7 453.4 904.5 453.4H739.7V113.4H899.7ZM890.2 251.1C903.5 251.1 914.5 247.9 923.1 241.6C931.7 235.3 936 224.9 936 210.6C936 202.7 934.6 196.2 931.7 191.1C928.8 186 925 182.1 920.3 179.2C915.5 176.3 910.1 174.4 903.9 173.2C897.7 172.1 891.3 171.5 884.6 171.5H814.6V251L890.2 251.1ZM894.5 395.4C901.8 395.4 908.8 394.7 915.4 393.3C922 391.9 927.9 389.5 933 386.2C938.1 382.9 942.1 378.3 945.1 372.6C948.1 366.9 949.6 359.6 949.6 350.7C949.6 333.2 944.7 320.8 934.8 313.3C925 305.8 911.9 302.1 895.7 302.1H814.3V395.4H894.5Z" fill="white"/>
<path d="M1224.6 453.5V419.2H1223.2C1214.6 433.5 1203.5 443.8 1189.9 450.2C1176.2 456.5 1162.3 459.7 1148 459.7C1129.9 459.7 1115.1 457.3 1103.5 452.6C1091.9 447.8 1082.8 441.1 1076.1 432.4C1069.4 423.7 1064.8 413 1062 400.5C1059.3 388 1057.9 374.1 1057.9 358.8V207.3H1125.5V346.3C1125.5 366.6 1128.7 381.8 1135 391.8C1141.3 401.8 1152.6 406.8 1168.8 406.8C1187.2 406.8 1200.5 401.3 1208.8 390.4C1217 379.4 1221.2 361.4 1221.2 336.4V207.4H1288.8V453.6L1224.6 453.5Z" fill="white"/>
<path d="M1389.5 392.3C1392.5 397.5 1396.4 401.8 1401.2 405.2C1406 408.6 1411.4 411 1417.6 412.6C1423.8 414.2 1430.2 415 1436.9 415C1441.7 415 1446.7 414.5 1451.9 413.3C1457.1 412.2 1461.9 410.4 1466.2 408.1C1470.5 405.8 1474.1 402.6 1476.9 398.6C1479.8 394.6 1481.2 389.6 1481.2 383.6C1481.2 373.4 1474.4 365.8 1461 360.7C1447.5 355.6 1428.7 350.5 1404.6 345.5C1394.8 343.3 1385.2 340.7 1375.8 337.6C1366.4 334.6 1358.1 330.6 1350.8 325.7C1343.5 320.8 1337.6 314.6 1333.2 307.1C1328.8 299.6 1326.5 290.5 1326.5 279.7C1326.5 263.8 1329.6 250.8 1335.8 240.7C1342 230.5 1350.2 222.5 1360.3 216.7C1370.5 210.8 1381.9 206.7 1394.6 204.3C1407.3 201.9 1420.3 200.7 1433.7 200.7C1447.1 200.7 1460 202 1472.5 204.5C1485 207 1496.2 211.3 1506.1 217.4C1516 223.5 1524.1 231.4 1530.6 241.4C1537.1 251.4 1541 264 1542.3 279.3H1478C1477.1 266.3 1472.1 257.5 1463.2 252.9C1454.3 248.3 1443.8 246 1431.8 246C1428 246 1423.9 246.2 1419.4 246.7C1415 247.2 1410.9 248.2 1407.3 249.8C1403.6 251.4 1400.5 253.7 1398 256.7C1395.5 259.7 1394.2 263.8 1394.2 268.8C1394.2 274.8 1396.4 279.8 1400.9 283.6C1405.3 287.4 1411.1 290.5 1418.3 292.9C1425.4 295.3 1433.6 297.4 1442.8 299.3C1452 301.2 1461.4 303.3 1470.9 305.5C1480.7 307.7 1490.3 310.4 1499.7 313.6C1509.1 316.8 1517.4 321 1524.7 326.2C1532 331.4 1537.9 338 1542.3 345.7C1546.7 353.5 1549 363.1 1549 374.5C1549 390.7 1545.7 404.3 1539.2 415.2C1532.7 426.2 1524.2 435 1513.7 441.6C1503.2 448.2 1491.2 452.9 1477.8 455.6C1464.3 458.3 1450.6 459.6 1436.6 459.6C1422.6 459.6 1408.3 458.2 1394.7 455.3C1381.1 452.4 1368.9 447.7 1358.3 441C1347.7 434.3 1338.9 425.5 1332.1 414.6C1325.3 403.6 1321.5 389.9 1320.9 373.4H1385.2C1385 380.8 1386.5 387 1389.5 392.3Z" fill="white"/>
<path d="M1582.1 169.2V113.5H1649.7V169.2H1582.1ZM1649.7 207.3V453.5H1582.1V207.3H1649.7Z" fill="white"/>
<path d="M1758.5 207.3V241.6H1759.9C1768.5 227.3 1779.6 216.9 1793.2 210.4C1806.8 203.9 1820.8 200.6 1835.1 200.6C1853.2 200.6 1868 203.1 1879.6 208C1891.2 212.9 1900.3 219.8 1907 228.5C1913.7 237.2 1918.4 247.9 1921.1 260.4C1923.8 272.9 1925.2 286.8 1925.2 302.1V453.5H1857.6V314.5C1857.6 294.2 1854.4 279 1848.1 269C1841.7 259 1830.5 254 1814.3 254C1795.9 254 1782.5 259.5 1774.3 270.4C1766 281.4 1761.9 299.4 1761.9 324.4V453.4H1694.3V207.3H1758.5Z" fill="white"/>
<path d="M2040.5 394.4C2050.7 404.2 2065.3 409.2 2084.3 409.2C2097.9 409.2 2109.7 405.8 2119.5 399C2129.3 392.2 2135.4 385 2137.6 377.3H2197.1C2187.6 406.8 2173 427.9 2153.3 440.6C2133.6 453.3 2109.8 459.6 2081.9 459.6C2062.5 459.6 2045.1 456.5 2029.5 450.3C2013.9 444.1 2000.8 435.3 1990 423.9C1979.2 412.5 1970.9 398.8 1965 382.9C1959.1 367 1956.2 349.6 1956.2 330.5C1956.2 311.4 1959.2 295 1965.3 279.1C1971.3 263.2 1979.9 249.5 1991 237.9C2002.1 226.3 2015.4 217.2 2030.8 210.5C2046.2 203.8 2063.3 200.5 2082 200.5C2102.9 200.5 2121.2 204.5 2136.8 212.6C2152.4 220.7 2165.1 231.6 2175.1 245.2C2185.1 258.8 2192.3 274.4 2196.8 291.9C2201.2 309.4 2202.8 327.6 2201.6 346.7H2024C2024.7 368.7 2030.3 384.6 2040.5 394.4ZM2116.9 264.9C2108.8 256 2096.5 251.6 2080 251.6C2069.2 251.6 2060.2 253.4 2053.1 257.1C2046 260.8 2040.2 265.3 2036 270.7C2031.7 276.1 2028.7 281.8 2026.9 287.8C2025.1 293.8 2024.1 299.2 2023.8 304H2133.8C2130.6 286.8 2125 273.8 2116.9 264.9Z" fill="white"/>
<path d="M2287.8 392.3C2290.8 397.5 2294.7 401.8 2299.5 405.2C2304.3 408.6 2309.7 411 2315.9 412.6C2322.1 414.2 2328.5 415 2335.2 415C2340 415 2345 414.5 2350.2 413.3C2355.4 412.2 2360.2 410.4 2364.5 408.1C2368.8 405.8 2372.4 402.6 2375.2 398.6C2378.1 394.6 2379.5 389.6 2379.5 383.6C2379.5 373.4 2372.7 365.8 2359.3 360.7C2345.8 355.6 2327 350.5 2302.9 345.5C2293.1 343.3 2283.5 340.7 2274.1 337.6C2264.7 334.6 2256.4 330.6 2249.1 325.7C2241.8 320.8 2235.9 314.6 2231.5 307.1C2227.1 299.6 2224.8 290.5 2224.8 279.7C2224.8 263.8 2227.9 250.8 2234.1 240.7C2240.3 230.5 2248.5 222.5 2258.6 216.7C2268.8 210.8 2280.2 206.7 2292.9 204.3C2305.6 201.9 2318.6 200.7 2332 200.7C2345.4 200.7 2358.3 202 2370.8 204.5C2383.3 207 2394.5 211.3 2404.4 217.4C2414.3 223.5 2422.4 231.4 2428.9 241.4C2435.4 251.4 2439.3 264 2440.6 279.3H2376.3C2375.4 266.3 2370.4 257.5 2361.5 252.9C2352.6 248.3 2342.1 246 2330.1 246C2326.3 246 2322.2 246.2 2317.7 246.7C2313.3 247.2 2309.2 248.2 2305.6 249.8C2302 251.4 2298.8 253.7 2296.3 256.7C2293.8 259.7 2292.5 263.8 2292.5 268.8C2292.5 274.8 2294.7 279.8 2299.2 283.6C2303.6 287.4 2309.4 290.5 2316.6 292.9C2323.7 295.3 2331.9 297.4 2341.1 299.3C2350.3 301.2 2359.7 303.3 2369.2 305.5C2379 307.7 2388.6 310.4 2398 313.6C2407.4 316.8 2415.7 321 2423 326.2C2430.3 331.4 2436.2 338 2440.6 345.7C2445 353.5 2447.3 363.1 2447.3 374.5C2447.3 390.7 2444 404.3 2437.5 415.2C2431 426.2 2422.5 435 2412 441.6C2401.5 448.2 2389.5 452.9 2376.1 455.6C2362.6 458.3 2348.9 459.6 2334.9 459.6C2320.9 459.6 2306.6 458.2 2293 455.3C2279.4 452.4 2267.2 447.7 2256.6 441C2246 434.3 2237.2 425.5 2230.4 414.6C2223.6 403.6 2219.8 389.9 2219.2 373.4H2283.5C2283.3 380.8 2284.8 387 2287.8 392.3Z" fill="white"/>
<path d="M2535.3 392.3C2538.3 397.5 2542.2 401.8 2547 405.2C2551.8 408.6 2557.2 411 2563.4 412.6C2569.6 414.2 2576 415 2582.7 415C2587.5 415 2592.5 414.5 2597.7 413.3C2602.9 412.2 2607.7 410.4 2612 408.1C2616.3 405.8 2619.9 402.6 2622.7 398.6C2625.6 394.6 2627 389.6 2627 383.6C2627 373.4 2620.2 365.8 2606.8 360.7C2593.3 355.6 2574.5 350.5 2550.4 345.5C2540.6 343.3 2531 340.7 2521.6 337.6C2512.2 334.6 2503.9 330.6 2496.6 325.7C2489.3 320.8 2483.4 314.6 2479 307.1C2474.6 299.6 2472.3 290.5 2472.3 279.7C2472.3 263.8 2475.4 250.8 2481.6 240.7C2487.8 230.5 2496 222.5 2506.1 216.7C2516.3 210.8 2527.7 206.7 2540.4 204.3C2553.1 201.9 2566.1 200.7 2579.5 200.7C2592.9 200.7 2605.8 202 2618.3 204.5C2630.8 207 2642 211.3 2651.9 217.4C2661.8 223.5 2669.9 231.4 2676.4 241.4C2682.9 251.4 2686.8 264 2688.1 279.3H2623.8C2622.9 266.3 2617.9 257.5 2609 252.9C2600.1 248.3 2589.6 246 2577.6 246C2573.8 246 2569.7 246.2 2565.2 246.7C2560.8 247.2 2556.7 248.2 2553.1 249.8C2549.5 251.4 2546.3 253.7 2543.8 256.7C2541.3 259.7 2540 263.8 2540 268.8C2540 274.8 2542.2 279.8 2546.7 283.6C2551.1 287.4 2556.9 290.5 2564.1 292.9C2571.2 295.3 2579.4 297.4 2588.6 299.3C2597.8 301.2 2607.2 303.3 2616.7 305.5C2626.5 307.7 2636.1 310.4 2645.5 313.6C2654.9 316.8 2663.2 321 2670.5 326.2C2677.8 331.4 2683.7 338 2688.1 345.7C2692.5 353.5 2694.8 363.1 2694.8 374.5C2694.8 390.7 2691.5 404.3 2685 415.2C2678.5 426.2 2670 435 2659.5 441.6C2649 448.2 2637 452.9 2623.6 455.6C2610.1 458.3 2596.4 459.6 2582.4 459.6C2568.4 459.6 2554.1 458.2 2540.5 455.3C2526.9 452.4 2514.7 447.7 2504.1 441C2493.5 434.3 2484.7 425.5 2477.9 414.6C2471.1 403.6 2467.3 389.9 2466.7 373.4H2531C2530.8 380.8 2532.3 387 2535.3 392.3Z" fill="white"/>
<path d="M566.9 0H0V566.9H566.9V0Z" fill="#FF7900"/>
<path d="M222.4 512C214.4 517.3 205.7 519.8 196.3 519.8C181.6 519.8 172.9 510 172.9 496.9C172.9 479.2 189.1 469.9 222.6 466.1V461.7C222.6 456 218.2 452.6 210.2 452.6C202.2 452.6 195.7 455.8 191 461.7L177 453.7C184.4 443.4 195.6 438.3 210.6 438.3C231.2 438.3 242.7 447.2 242.7 461.7C242.7 461.7 242.7 518.8 242.7 518.9H224.3L222.4 512ZM193.3 495.4C193.3 500.7 196.7 505.6 202.7 505.6C209.2 505.6 215.6 502.9 221.9 497.3V478.6C202.5 481.1 193.3 486.1 193.3 495.4Z" fill="white"/>
<path d="M259.1 442.1L276.3 439.7L278.2 449.1C287.9 442 295.6 438.2 305.3 438.2C321.5 438.2 329.9 446.8 329.9 463.9V518.8H309.1V467.5C309.1 457.8 306.6 453.5 299.1 453.5C292.9 453.5 286.7 456.4 279.7 462.3V518.9H259L259.1 442.1Z" fill="white"/>
<path d="M467.4 520.3C444.2 520.3 430.3 505.4 430.3 479.4C430.3 453.4 444.3 438.2 467.1 438.2C489.9 438.2 503.4 452.7 503.4 478.4C503.4 479.8 503.2 481.1 503.2 482.5H450.7C450.9 497.5 457.1 505 469.3 505C477.2 505 482.3 501.8 487.2 494.9L502.4 503.4C495.6 514.5 483.6 520.4 467.4 520.3ZM482.9 469C482.9 458.4 476.9 452.2 467 452.2C457.6 452.2 451.8 458.2 450.9 469H482.9Z" fill="white"/>
<path d="M69.7998 521.2C49.2998 521.2 30.7998 508.1 30.7998 479.6C30.7998 451.1 49.2998 438 69.7998 438C90.2998 438 108.8 451.1 108.8 479.6C108.8 508.1 90.2998 521.2 69.7998 521.2ZM69.7998 455.5C54.2998 455.5 51.3998 469.5 51.3998 479.6C51.3998 489.7 54.2998 503.7 69.7998 503.7C85.2998 503.7 88.1998 489.7 88.1998 479.6C88.1998 469.5 85.2998 455.5 69.7998 455.5Z" fill="white"/>
<path d="M123 440H142.7V449.3C146.5 444.3 155.7 438.4 164.5 438.4C165.3 438.4 166.3 438.4 167.2 438.6V458H166.2C157.2 458 147.3 459.4 144.1 466.4V518.9H123V440Z" fill="white"/>
<path d="M380.7 502C396.5 501.9 397.8 485.9 397.8 475.4C397.8 463.1 391.8 453 380.6 453C373.1 453 364.8 458.5 364.8 476.2C364.8 486 365.4 502.1 380.7 502ZM417.7 439.7V514.4C417.7 527.6 416.7 549.3 379.1 549.5C363.6 549.6 349.2 543.4 346.3 529.8L366.8 526.5C367.7 530.4 370 534.3 381.6 534.3C392.4 534.3 397.5 529.1 397.5 516.8V507.6L397.2 507.3C393.9 513.2 388.9 518.8 376.8 518.8C358.4 518.8 343.9 506 343.9 479.4C343.9 452.8 358.8 438.3 375.6 438.2C391.3 438.2 397.2 445.4 398.5 449.1H398.3L400 439.7H417.7Z" fill="white"/>
<path d="M511.5 413.6H503.3V436.2H499V413.6H490.8V410.1H511.4L511.5 413.6ZM545.5 436.2H541.2V414.4H541L532.5 436.2H529.8L521.3 414.4H521.2V436.2H516.9V410.1H523.5L531.3 429.9L539 410.1H545.6L545.5 436.2Z" fill="white"/>
</g>
<defs>
<clipPath id="clip0_663_3619">
<rect width="2694.6" height="566.9" fill="white"/>
</clipPath>
</defs>
</svg>
