<svg fill="none" xmlns="http://www.w3.org/2000/svg" viewBox="0 0 45 21">
  <path d="M22.7 20.9c12.25 0 22.18-4.58 22.18-10.23S34.95.43 22.7.43C10.46.43.54 5.02.54 10.67S10.46 20.9 22.7 20.9z" fill="url(#paint0_linear)"/>
  <path opacity=".85" d="M14.55 8.72c.24-.25.53-.37.9-.37.38 0 .69.12.92.37.23.24.37.6.4 1.1h-2.64c.05-.48.2-.85.43-1.1zm2.86 2.81c-.52.33-.96.65-1.8.65-1.13 0-1.47-1.04-1.47-1.52H17c.38 0 .68-.06.9-.16.2-.1.31-.35.31-.71a2.47 2.47 0 00-1.2-2.1 2.9 2.9 0 00-1.47-.35c-.43 0-.83.07-1.19.21-.36.15-.66.35-.9.6-.25.28-.44.59-.57.96a3.6 3.6 0 00-.19 1.2c0 .92.26 1.65.78 2.18.52.53 1.25.8 2.2.8 1.13 0 2.1-.63 2.41-.98l-.6-.76-.06-.02zm1.93 1.6V5.67c0-.29.07-.51.2-.66a.67.67 0 01.53-.22c.22 0 .4.07.54.22.14.14.21.37.21.66v7.46h-1.48zm2.92 0V5.67c0-.29.07-.51.2-.66A.67.67 0 0123 4.8c.22 0 .4.07.54.22.13.14.2.37.2.66v7.46h-1.46zm9.52 0V5.67c0-.3.07-.52.19-.66.13-.15.3-.22.53-.22.23 0 .42.07.54.22.13.15.19.37.19.66v2.56c.19-.2.37-.38.55-.5a2.14 2.14 0 011.28-.37c.37 0 .7.08.99.23.29.16.52.4.68.68.1.18.17.37.21.6.03.21.05.46.05.73v2.8c0 .3-.06.52-.2.66a.68.68 0 01-.53.23c-.48 0-.73-.29-.73-.88V9.94c0-.46-.06-.82-.21-1.07-.14-.25-.4-.38-.79-.38-.26 0-.49.08-.7.23-.2.15-.36.36-.46.6-.08.23-.12.61-.12 1.17v2.68H31.8l-.02-.04zm7-9.44v6.17h1.89v-5.2c-.58-.35-1.22-.67-1.89-.97zm.93 9.59c-.27 0-.52-.1-.73-.27a.94.94 0 01-.3-.76c0-.27.1-.52.3-.71.2-.2.43-.3.72-.3.3 0 .53.1.73.3.21.2.31.44.31.72 0 .32-.1.57-.3.75a1 1 0 01-.72.28v-.01zm-10.9-1.6c-.26.34-.6.5-1.05.5-.29 0-.54-.07-.75-.22a1.39 1.39 0 01-.49-.65 2.75 2.75 0 01-.17-1c0-.38.06-.72.18-1 .12-.3.3-.51.5-.66.22-.14.47-.22.75-.22.44 0 .8.17 1.05.5.27.32.4.79.4 1.38 0 .59-.13 1.05-.39 1.38h-.03zm1.66-2.57a2.5 2.5 0 00-1.5-1.55 3.18 3.18 0 00-1.2-.21 3 3 0 00-1.18.21 2.53 2.53 0 00-1.5 1.54c-.14.36-.2.77-.2 1.21 0 .44.06.84.2 1.2a2.66 2.66 0 001.51 1.55c.35.14.75.2 1.2.2.43 0 .83-.06 1.2-.2.34-.15.65-.35.91-.61.25-.27.45-.58.58-.94a3.53 3.53 0 00.01-2.42l-.03.02zM11.51 7.5v7.57c0 .3-.06.52-.19.67a.67.67 0 01-.53.22.66.66 0 01-.54-.23c-.13-.14-.19-.37-.19-.66v-2.66c-.18.22-.36.39-.54.51-.18.13-.37.22-.58.28-.2.06-.44.1-.69.1-.37 0-.56-.09-.85-.24a1.6 1.6 0 01-.67-.68 1.9 1.9 0 01-.2-.59 4.2 4.2 0 01-.07-.74V8.2c0-.3.06-.52.2-.67a.69.69 0 01.53-.22c.48 0 .72.3.72.89v2.54c0 .47.06.83.21 1.08.17.28.57.38.76.37.27-.02.44-.06.65-.19.21-.14.32-.38.42-.64.08-.22.12-.61.12-1.17V7.5h1.46l-.02.02zm5.66 7.16l.78 2.3.8-2.32.08-.25a.3.3 0 01.3-.2.5.5 0 01.17.05c.05.03.1.06.12.12.03.05.04.1.04.14v.1l-.04.11-.04.1-.83 2.25a6.94 6.94 0 01-.19.45.44.44 0 01-.16.14.43.43 0 01-.24.06.41.41 0 01-.23-.06.57.57 0 01-.16-.15 5.78 5.78 0 01-.19-.46l-.8-2.23-.05-.12c0-.04-.03-.08-.04-.13v-.11a.3.3 0 01.1-.22.3.3 0 01.23-.11c.12 0 .2.03.25.1.05.1.1.2.16.36l-.06.08zm3.05 3.04v-3.08c0-.14.03-.24.1-.31a.34.34 0 01.25-.11c.11 0 .2.03.26.1.06.06.1.17.1.31v3.07h-.69l-.02.02zm6.17 0H24.9c-.15 0-.26-.04-.32-.1-.06-.07-.1-.18-.1-.33v-2.64c0-.14.02-.24.1-.31.06-.07.14-.1.24-.1.1 0 .19.04.25.1.07.07.1.19.1.32v2.51h1.22l-.01.57.01-.02zm-2.33 0H22.4c-.15 0-.26-.04-.32-.1-.07-.07-.1-.18-.1-.33v-2.64c0-.14.03-.24.09-.31s.14-.1.25-.1c.1 0 .18.04.25.1.06.07.09.19.09.32v2.51h1.38v.57l.02-.02zm4.2-2.77l.51 1.42h-1.03l.51-1.42zm.94 2.56c.03.07.06.12.1.16.02.04.05.06.1.08.03.02.08.03.14.03.1 0 .17-.03.23-.1.06-.06.1-.14.1-.22 0-.07-.04-.19-.1-.36l-.9-2.22-.1-.27a.9.9 0 00-.1-.19.45.45 0 00-.39-.2.41.41 0 00-.24.06.56.56 0 00-.15.15c-.04.06-.08.14-.1.23l-.1.23-.88 2.23-.08.2-.02.16c0 .08.03.15.11.22.06.07.15.1.23.1.1 0 .18-.03.22-.1.05-.05.11-.16.17-.33l.17-.44H29l.16.43c0 .07.04.13.06.2l-.02-.05zm3.87-2.18c-.13-.04-.17-.18-.3-.3a1.05 1.05 0 00-.74-.26c-.16 0-.31.03-.44.08a.92.92 0 00-.33.25c-.09.11-.16.23-.2.4-.05.15-.07.32-.07.51 0 .41.1.72.28.94a1 1 0 00.78.32 1.72 1.72 0 00.9-.24v-.56H32v-.52h1.1c.11 0 .2 0 .25.02.07.02.13.06.17.12a.5.5 0 01.06.27V17c0 .09 0 .16-.02.2a.37.37 0 01-.1.16.63.63 0 01-.18.13c-.2.1-.4.19-.6.25-.2.06-.4.08-.63.08-.27 0-.51-.04-.72-.12-.22-.08-.41-.2-.57-.35a1.69 1.69 0 01-.36-.56 1.96 1.96 0 01-.13-.74c0-.27.04-.51.12-.73.08-.22.19-.41.35-.56.15-.15.34-.27.56-.35a2.23 2.23 0 011.36-.02 1.18 1.18 0 01.67.5c.05.1.08.2.08.28 0 .09-.02.16-.1.2-.06.07-.18.07-.27.04l.03-.1zm3.5.87h-1.52v.98h1.63c.11 0 .19.02.25.07.05.06.08.12.08.21 0 .08-.03.15-.08.2-.05.06-.14.08-.25.08H34.8c-.15 0-.26-.03-.32-.1a.5.5 0 01-.1-.33v-2.6c0-.1.02-.17.05-.23a.32.32 0 01.14-.14.62.62 0 01.24-.04h1.84c.11 0 .2.03.25.08.06.05.08.1.08.19 0 .08-.02.15-.08.19-.05.05-.13.08-.24.08h-1.57v.86h1.52v.55l-.03-.05z" fill="#721C1B"/>
  <path d="M6.73 6.07c-.06.04-.1.06-.14.06-.17 0-.23-.19-.23-.58 0-.37.05-.58.22-.58.06 0 .14.04.2.1v-.2a.37.37 0 00-.21-.07c-.3 0-.41.34-.41.77 0 .48.14.74.4.74a.4.4 0 00.13-.02l.04-.22zm.7.21h.19l-.3-1.48h-.2l-.3 1.48H7l.07-.32h.3l.06.33v-.01zm-.33-.5l.12-.61.1.61H7.1zm8.27.5h.19l-.3-1.48h-.2l-.3 1.48h.18l.06-.32h.3l.06.33.01-.01zm-.33-.5l.12-.61h.01l.12.61h-.24zm-6.67-.97h.17V6.3h-.19l.01-1.07-.18.47h-.04l-.19-.48v.01l.01 1.07h-.19V4.8h.17l.22.54.23-.54h-.02zm.63.65V5c.18-.01.27.07.27.22 0 .17-.08.25-.23.25l-.03.01zm-.19.82H9v-.64h.04c.26 0 .42-.16.42-.42 0-.27-.19-.4-.45-.4h-.2v1.46zm.81-1.47h.2V6.3h-.19V4.8zm.45 0h.16l.34.9v-.9h.18v1.47h-.16l-.33-.92v.9h-.18V4.8v.01zm1.64 1.4a.44.44 0 01-.26.1c-.29 0-.49-.27-.49-.76 0-.46.18-.76.47-.76a.5.5 0 01.3.1v.21c-.13-.1-.2-.14-.29-.14-.19 0-.28.21-.28.6 0 .36.1.57.31.57h.07v-.45h-.15V5.5h.35v.73l-.03-.02zm.61-1.4h.21l.15 1h.01l.16-1h.2l-.29 1.5h-.13l-.29-1.5h-.02zm.88 0h.2V6.3h-.2V4.8zm.46 0h.2v1.3h.32v.18h-.5V4.8h-.02z" fill="#fff"/>
  <path d="M14.26 4.81h.2v1.3h.34v.18h-.54V4.8zm2.12 1.4c-.1.07-.18.1-.27.1-.29 0-.49-.27-.49-.76 0-.46.18-.76.47-.76a.5.5 0 01.3.1v.21c-.13-.1-.2-.14-.29-.14-.2 0-.28.21-.28.6 0 .36.1.57.31.57h.07v-.45h-.15V5.5h.34v.73l-.01-.02zm.23-1.4h.53V5h-.34v.44h.31v.17h-.31v.5h.36v.18h-.55V4.8v.01zm.7 1.24c.05.05.1.08.16.08.08 0 .14-.06.14-.14 0-.23-.32-.56-.32-.86 0-.2.13-.34.3-.34.06 0 .1.02.17.04v.19c-.06-.03-.1-.05-.14-.05-.1 0-.15.05-.15.14 0 .23.32.56.32.86 0 .2-.13.34-.31.34a.33.33 0 01-.2-.06v-.2h.02z" fill="#fff"/>
  <path d="M14.27 8.44c.23-.25.53-.38.9-.38s.68.13.91.37c.24.24.37.62.4 1.11h-2.64c.05-.48.2-.85.43-1.1zm2.86 2.8c-.52.34-.96.65-1.82.65-1.12 0-1.46-1.03-1.46-1.52h2.85c.38 0 .68-.06.9-.16.2-.11.31-.35.31-.72a2.45 2.45 0 00-1.2-2.1 2.8 2.8 0 00-1.47-.36c-.43 0-.83.07-1.19.2-.36.15-.66.35-.9.6-.24.27-.43.59-.56.95-.12.37-.19.77-.19 1.2 0 .9.26 1.64.78 2.17s1.25.8 2.2.8a3.6 3.6 0 002.4-.98l-.6-.76-.05.04zm1.92 1.6V5.38c0-.29.06-.51.2-.66.12-.14.3-.22.52-.22.22 0 .4.07.53.22s.2.37.2.66v7.46h-1.45zm2.91 0V5.38c0-.29.06-.51.2-.66.13-.14.3-.22.52-.22.22 0 .4.07.53.22.14.15.2.37.2.66v7.46h-1.45zm9.52 0V5.38c0-.3.06-.51.19-.66.12-.14.3-.22.53-.22.22 0 .4.07.54.22.13.15.2.37.2.66v2.56c.18-.22.35-.38.53-.51a2.18 2.18 0 011.28-.38c.37 0 .7.07.98.23.29.15.52.38.68.68.1.17.17.36.21.58.03.2.05.46.05.74v2.8c0 .29-.06.5-.2.66a.71.71 0 01-.53.22c-.48 0-.72-.3-.72-.9V9.6c0-.47-.07-.83-.21-1.08-.14-.26-.41-.38-.8-.38-.26 0-.5.07-.7.22-.21.14-.37.35-.47.6-.08.22-.12.6-.12 1.16v2.67h-1.45l.01.05zM28.5 11.4c-.26.33-.6.5-1.05.5-.29 0-.54-.07-.75-.23a1.37 1.37 0 01-.5-.65 2.6 2.6 0 01-.17-.99c0-.38.05-.72.17-1 .12-.29.28-.5.5-.66.2-.14.46-.22.75-.22.44 0 .79.17 1.05.5.26.33.39.8.39 1.4 0 .58-.13 1.04-.4 1.37l.01-.02zm1.66-2.58a2.61 2.61 0 00-1.52-1.54 3.16 3.16 0 00-1.2-.22c-.43 0-.82.07-1.18.22a2.55 2.55 0 00-1.51 1.54c-.14.36-.2.77-.2 1.2 0 .45.06.85.2 1.21.13.36.32.67.59.94.25.27.56.47.9.6.36.15.75.22 1.19.22.44 0 .84-.07 1.2-.22a2.61 2.61 0 001.5-1.55 3.64 3.64 0 000-2.42l.03.02zM11.21 7.23v7.56c0 .3-.07.53-.19.67a.67.67 0 01-.53.23.67.67 0 01-.54-.23c-.13-.15-.2-.37-.2-.66v-2.66a3.1 3.1 0 01-.54.51 2.23 2.23 0 01-1.28.38c-.37 0-.56-.08-.85-.23a1.62 1.62 0 01-.67-.68c-.1-.18-.18-.37-.21-.58a4.77 4.77 0 01-.06-.74V7.92c0-.29.07-.5.2-.66a.7.7 0 01.54-.22c.48 0 .72.3.72.9v2.53c0 .47.06.83.2 1.08.18.28.58.38.76.37.28 0 .44-.05.65-.18.22-.14.32-.38.43-.63.08-.2.12-.6.12-1.16V7.28h1.46l-.01-.05z" fill="#FFCE00"/>
  <path d="M16.42 8.72a1.1 1.1 0 00-.26-.2c.2.24.3.58.34 1.02h-2.27l-.04.29h2.64c-.03-.5-.17-.87-.4-1.11h-.01zm-.77 3.47c.81 0 1.25-.3 1.74-.61l-.26-.33c-.52.33-.96.64-1.81.64-.3 0-.56-.08-.76-.2.23.27.58.48 1.09.48v.02z" fill="#FFED00"/>
  <path d="M12.69 10.3c0-.44.06-.84.19-1.2.13-.37.32-.69.56-.95.25-.27.55-.47.91-.61.36-.15.76-.21 1.2-.21.56 0 1.05.12 1.46.36l.23.15a2.42 2.42 0 00-.56-.44c-.41-.24-.9-.36-1.47-.36-.44 0-.84.07-1.2.21a2.5 2.5 0 00-1.47 1.54c-.13.37-.2.77-.2 1.2 0 .91.26 1.64.78 2.18.09.1.2.18.3.27a3.01 3.01 0 01-.75-2.16l.02.02zM19.38 5.67c0-.3.07-.51.2-.66.13-.15.3-.23.52-.23.1 0 .2.02.3.05a.69.69 0 00-.62-.34c-.22 0-.4.08-.53.23-.13.15-.2.37-.2.67v7.45h.33V5.67zm2.92 0c0-.3.06-.51.19-.66.13-.15.3-.23.52-.23.1 0 .2.02.29.05-.03-.04-.05-.08-.1-.1a.71.71 0 00-.53-.23c-.22 0-.4.07-.53.22s-.2.37-.2.67v7.45h.32V5.67h.04zm10.97 2.55c.19-.22.36-.38.54-.5.18-.13.38-.22.6-.28a2.45 2.45 0 011.67.13l.13.08a1.7 1.7 0 00-.45-.36 2.35 2.35 0 00-1.67-.14c-.2.07-.4.16-.58.28-.06.05-.14.11-.2.18v.62l-.04-.01zm2.29 4.16V9.93c0-.47-.07-.83-.21-1.08a.7.7 0 00-.34-.3h.01c.15.26.21.61.21 1.08v2.47c0 .46.15.73.44.84a1.26 1.26 0 01-.11-.56v.02zM31.8 5.67c0-.3.07-.52.2-.66.12-.15.3-.23.52-.23.11 0 .21.02.3.05a.69.69 0 00-.62-.34c-.23 0-.4.08-.53.24-.12.14-.19.36-.19.66v7.45h.33V5.67zM25.1 11.5c-.14-.35-.2-.76-.2-1.19 0-.44.07-.85.2-1.21.13-.37.33-.69.58-.94.25-.26.57-.46.92-.6.36-.15.76-.21 1.19-.21.44 0 .84.06 1.2.21.22.09.42.2.6.33v-.01a2.53 2.53 0 00-.93-.6 3.17 3.17 0 00-1.2-.22c-.43 0-.83.07-1.19.21a2.61 2.61 0 00-1.5 1.54 3.48 3.48 0 00.01 2.42 2.77 2.77 0 00.91 1.21 2.73 2.73 0 01-.58-.93h-.01z" fill="#FFED00"/>
  <path d="M27.03 11.96c.22.15.47.23.76.23.44 0 .79-.17 1.05-.5.26-.33.4-.8.4-1.38 0-.6-.14-1.06-.4-1.39a1.4 1.4 0 00-.36-.31l.02.02c.26.32.39.79.39 1.38 0 .58-.13 1.04-.4 1.38-.27.33-.6.49-1.05.49-.26 0-.48-.07-.69-.18.08.09.17.17.26.24l.02.02zM6.74 12.39a1.7 1.7 0 01-.2-.59 4.69 4.69 0 01-.06-.74V8.19c0-.3.06-.52.2-.67a.68.68 0 01.53-.23c.1 0 .2.03.28.05-.12-.22-.32-.33-.61-.33a.7.7 0 00-.54.23c-.14.15-.2.37-.2.66v2.87c0 .27 0 .52.05.74a1.85 1.85 0 00.75 1.18c-.1-.1-.16-.2-.22-.32l.02.02zm1.4-.59c.17.28.57.38.76.37.27-.01.43-.04.65-.18.2-.14.32-.38.42-.63.07-.22.1-.6.1-1.16V7.53h1.14v-.28H9.76v2.68c0 .56-.04.95-.12 1.16-.1.26-.21.5-.43.64a1.1 1.1 0 01-.65.19.88.88 0 01-.44-.1v.02l.02-.04zm1.95 3.28v-2.66c-.11.13-.22.24-.33.33v2.05c0 .29.06.52.19.66.07.08.15.14.25.17a1.1 1.1 0 01-.12-.55z" fill="#FFED00"/>
  <path d="M16.95 14.52l.78 2.31.8-2.32.08-.26a.44.44 0 01.1-.13.34.34 0 01.2-.06c.06 0 .12.02.17.05.05.02.1.06.12.1.03.06.04.1.04.15v.1a1.6 1.6 0 01-.04.12l-.04.1-.83 2.25-.09.24-.1.2a.48.48 0 01-.15.14.53.53 0 01-.24.06.41.41 0 01-.23-.06.57.57 0 01-.16-.15 1.29 1.29 0 01-.1-.2l-.09-.25-.82-2.23c0-.04-.03-.08-.04-.12 0-.04-.03-.08-.04-.13v-.12a.3.3 0 01.1-.22c.06-.06.14-.1.23-.1.12 0 .21.03.26.1.05.09.1.2.15.36l-.06.07z" fill="url(#paint1_linear)"/>
  <path d="M20 17.56V14.5c0-.14.03-.25.1-.32.06-.06.14-.1.24-.1.1 0 .19.04.25.11.07.07.1.18.1.32v3.08h-.7v-.02z" fill="url(#paint2_linear)"/>
  <path d="M26.17 17.56h-1.49c-.14 0-.26-.03-.32-.1a.47.47 0 01-.1-.32v-2.66c0-.14.03-.25.1-.32a.32.32 0 01.24-.11c.1 0 .19.03.25.1.07.07.1.18.1.31v2.51h1.23l-.01.56v.03z" fill="url(#paint3_linear)"/>
  <path d="M23.83 17.56h-1.65c-.15 0-.26-.03-.32-.1-.07-.07-.1-.18-.1-.32v-2.66c0-.14.03-.25.09-.32a.31.31 0 01.25-.11c.1 0 .18.03.25.1.06.06.09.18.09.31v2.51h1.38v.56l.01.03z" fill="url(#paint4_linear)"/>
  <path d="M28.02 14.8l.52 1.43h-1.03l.51-1.43zm.95 2.55l.08.15c.03.04.06.07.1.08a.3.3 0 00.15.03c.1 0 .17-.03.24-.1.06-.07.1-.15.1-.23 0-.07-.04-.19-.11-.36l-.9-2.22-.1-.27a1.47 1.47 0 00-.12-.19.57.57 0 00-.16-.14.47.47 0 00-.24-.06.45.45 0 00-.24.06.38.38 0 00-.16.14l-.12.23-.09.23-.88 2.23-.08.2c-.02.05-.02.1-.02.15 0 .09.03.16.1.22.06.07.14.1.23.1.1 0 .18-.03.22-.09.04-.06.1-.17.16-.34l.16-.44h1.4l.15.44c0 .08.03.14.06.2l.07-.02z" fill="url(#paint5_linear)"/>
  <path d="M32.83 15.17c-.13-.05-.16-.18-.31-.31-.2-.2-.47-.26-.73-.26a.98.98 0 00-.76.32c-.1.1-.16.23-.21.4-.05.14-.07.31-.07.5 0 .41.1.72.28.94.19.22.45.33.78.33.16 0 .31-.02.46-.07.14-.04.27-.1.43-.18v-.56h-.95v-.53h1.11c.1 0 .18 0 .25.02s.13.06.17.1c.04.07.07.15.07.28v.66c0 .09 0 .15-.02.21a.44.44 0 01-.09.14 2.48 2.48 0 01-2.14.31c-.22-.1-.39-.2-.56-.36a1.52 1.52 0 01-.35-.56 2.2 2.2 0 01-.12-.74c0-.27.04-.52.12-.74.08-.22.2-.41.36-.57.16-.15.35-.27.57-.35.23-.09.48-.13.76-.13a1.7 1.7 0 011.06.33c.1.09.19.18.24.28.05.1.08.18.08.26 0 .09-.02.16-.1.21-.06.05-.17.05-.27.02l-.06.05z" fill="url(#paint6_linear)"/>
  <path d="M36.33 16.03h-1.51v.98h1.63c.1 0 .18.02.24.07.06.06.1.12.1.2 0 .08-.03.15-.09.2-.05.06-.13.08-.24.08h-1.9c-.14 0-.26-.03-.32-.1-.06-.06-.1-.18-.1-.32v-2.59c0-.1.02-.18.05-.24.03-.06.08-.1.15-.14a.86.86 0 01.24-.04h1.84c.11 0 .2.02.25.07.05.05.07.1.07.19 0 .08-.02.15-.07.19a.36.36 0 01-.24.08h-1.57v.86h1.52v.54l-.05-.03z" fill="url(#paint7_linear)"/>
  <path d="M38.4 9.54V3c0-.38.1-.67.26-.86.17-.19.4-.3.7-.3.28 0 .51.11.68.29.18.19.27.48.27.86v6.55h-1.9v.01z" fill="#2FAEE0"/>
  <path d="M39.4 13.02c-.28 0-.52-.1-.73-.27a.94.94 0 01-.31-.76 1 1 0 01.3-.71 1 1 0 01.72-.3c.29 0 .53.1.73.29.2.2.31.44.31.72 0 .3-.1.56-.31.75-.2.18-.44.27-.71.27v.01z" fill="#8DC640"/>
  <path d="M38.7 3.28c0-.38.1-.67.26-.86.17-.2.4-.3.69-.3.19 0 .35.05.5.14a.91.91 0 00-.79-.42c-.29 0-.51.1-.69.3-.16.19-.25.47-.25.85v6.55h.3V3.28h-.01z" fill="#8AD7F3"/>
  <path d="M38.65 12.27a1 1 0 011.02-1.03c.22 0 .42.07.6.18l-.15-.16a1.06 1.06 0 00-1.47 0c-.2.2-.3.43-.3.72 0 .32.1.58.3.75l.13.1a1 1 0 01-.15-.56h.02z" fill="#C0E096"/>
  <defs>
    <linearGradient id="paint0_linear" x1=".54" y1="10.67" x2="44.88" y2="10.67" gradientUnits="userSpaceOnUse">
      <stop stop-color="#E43428"/>
      <stop offset="1" stop-color="#B2071B"/>
    </linearGradient>
    <linearGradient id="paint1_linear" x1="17.75" y1="13.54" x2="17.75" y2="16.12" gradientUnits="userSpaceOnUse">
      <stop stop-color="#FFED00"/>
      <stop offset="1" stop-color="#FFCE00"/>
    </linearGradient>
    <linearGradient id="paint2_linear" x1="20.34" y1="13.54" x2="20.34" y2="16.12" gradientUnits="userSpaceOnUse">
      <stop stop-color="#FFED00"/>
      <stop offset="1" stop-color="#FFCE00"/>
    </linearGradient>
    <linearGradient id="paint3_linear" x1="25.21" y1="13.54" x2="25.21" y2="16.12" gradientUnits="userSpaceOnUse">
      <stop stop-color="#FFED00"/>
      <stop offset="1" stop-color="#FFCE00"/>
    </linearGradient>
    <linearGradient id="paint4_linear" x1="22.79" y1="13.54" x2="22.79" y2="16.12" gradientUnits="userSpaceOnUse">
      <stop stop-color="#FFED00"/>
      <stop offset="1" stop-color="#FFCE00"/>
    </linearGradient>
    <linearGradient id="paint5_linear" x1="28.03" y1="13.54" x2="28.03" y2="16.12" gradientUnits="userSpaceOnUse">
      <stop stop-color="#FFED00"/>
      <stop offset="1" stop-color="#FFCE00"/>
    </linearGradient>
    <linearGradient id="paint6_linear" x1="31.71" y1="13.54" x2="31.71" y2="16.12" gradientUnits="userSpaceOnUse">
      <stop stop-color="#FFED00"/>
      <stop offset="1" stop-color="#FFCE00"/>
    </linearGradient>
    <linearGradient id="paint7_linear" x1="35.46" y1="13.54" x2="35.46" y2="16.12" gradientUnits="userSpaceOnUse">
      <stop stop-color="#FFED00"/>
      <stop offset="1" stop-color="#FFCE00"/>
    </linearGradient>
  </defs>
</svg>

