<?xml version="1.0" encoding="UTF-8"?>
<svg id="Calque_1" data-name="Calque 1" xmlns="http://www.w3.org/2000/svg" viewBox="0 0 159.78 157.75">
  <defs>
    <style>
      .cls-1 {
        fill: #010101;
      }
    </style>
  </defs>
  <path class="cls-1" d="M144.39,93.59c-9.07.56-20.99,9.62-32.5,14.83-14.09,6.38-36.04,1.25-36.04,1.25,3.38-1.58,17.14-4.86,19.91-6.09,14.73-6.47,13.49-19.98,6.47-19.87-9.27.16-14.71,2.43-33.2,4.95-14.02,1.91-30.59,1.21-38.55,4.24C19.26,97.2,1.18,126.04,1.18,126.04l27.95,27.08s17.3-17.04,25.72-17.04c19.18,0,19.96-.26,37.78-1.23,7.57-.4,9.16-.72,13.49-2.18,23.09-7.8,47.89-28.59,48.34-31.09,1.06-5.79-5.28-8.29-10.07-7.99Z"/>
  <path class="cls-1" d="M115.29,87.29c-.41,2.47-1.61,5.08-3.38,6.78,2.48-1.73,5.23-3.16,7.62-4.98,10.04-7.64,18.05-17.85,26.72-26.95,3.19-3.34,6.55-6.45,8.8-10.53,3.69-6.72,4.66-14.77,2.65-22.17-1.32-4.86-3.88-9.34-7.37-12.98-5.6-5.14-12.61-8.4-20.08-8.4s-14.94,3.27-20.55,8.87l-2.33,2.33-2.33-2.33c-5.6-5.6-12.61-8.87-20.55-8.87-7.47,0-14.48,3.27-20.08,8.87-11.21,11.67-11.21,29.88,0,41.56,0,0,14.41,14.88,14.41,14.88l.02.02s.04.04.05.04c1.08.94,2.16,1.88,3.24,2.82,1.4,1.22,2.71,3.12,4.65,3.36,1.19.15,2.39-.12,3.56-.39,3.38-.78,6.75-1.56,10.13-2.35,2.9-.67,6.46-1.94,9.4-1.04,4.2,1.28,5.79,6,5.57,10.07-.03.46-.08.92-.15,1.38ZM133.06,53.83c-2.33,1.4-5.14.93-6.54-1.4l-4.2-6.54-6.07,14.94c-.47,1.87-2.33,3.27-4.2,3.27s-3.27-.93-4.2-2.8l-6.54-13.07-4.67,4.67c-.93,1.4-1.87,1.87-3.27,1.87h-9.34c-2.8,0-4.67-1.87-4.67-4.67s1.87-4.67,4.67-4.67h7.47l7.94-7.94c.93-.93,2.33-1.4,4.2-1.4,1.4.47,2.8,1.4,3.27,2.33l4.67,9.34,5.6-13.54c.47-1.4,1.87-2.8,3.74-2.8s3.27.47,4.2,1.87l9.34,14.01c1.4,2.33.93,5.14-1.4,6.54Z"/>
</svg>