<?xml version="1.0" encoding="UTF-8"?>
<svg id="Calque_1" data-name="Calque 1" xmlns="http://www.w3.org/2000/svg" viewBox="0 0 159.78 157.75">
  <defs>
    <style>
      .cls-1 {
        fill: #010101;
      }
    </style>
  </defs>
  <path class="cls-1" d="M143.21,98.22c-9.07.56-20.99,9.62-32.5,14.83-14.09,6.38-36.04,1.25-36.04,1.25,3.38-1.58,17.14-4.86,19.91-6.09,14.73-6.47,13.49-19.98,6.47-19.87-9.27.16-14.71,2.43-33.2,4.95-14.02,1.91-30.59,1.21-38.55,4.24C18.08,101.83,0,130.67,0,130.67l27.95,27.08s17.3-17.04,25.72-17.04c19.18,0,19.96-.26,37.78-1.23,7.57-.4,9.16-.72,13.49-2.18,23.09-7.8,47.89-28.59,48.34-31.09,1.06-5.79-5.28-8.29-10.07-7.99Z"/>
  <g>
    <path class="cls-1" d="M111.17,90.4c-.81-3.41-3.15-6.06-7.33-6.22-1.01-.04-2.01-.04-3.01-.01v-28.19h-20.43v31.54c-1.7.4-3.4.81-5.1,1.19-3.59.81-7.43,1.44-11.19,1.64-.7.04-9.82.01-9.82-.03V29.19L90.53,4.02l14.13,9.71v-6.77h12.08v15.08l10.4,7.15v61.13s-5.58,0-13.65.02"/>
    <path class="cls-1" d="M107.6,101.79c-.15.03-.3.07-.45.09.16-.02.31-.05.45-.09Z"/>
  </g>
</svg>