<?xml version="1.0" encoding="UTF-8"?>
<svg id="Calque_1" data-name="Calque 1" xmlns="http://www.w3.org/2000/svg" viewBox="0 0 159.78 157.75">
  <defs>
    <style>
      .cls-1 {
        fill: #010101;
      }
    </style>
  </defs>
  <path class="cls-1" d="M143.21,98.22c-9.07.56-20.99,9.62-32.5,14.83-14.09,6.38-36.04,1.25-36.04,1.25,3.38-1.58,17.14-4.86,19.91-6.09,14.73-6.47,13.49-19.98,6.47-19.87-9.27.16-14.71,2.43-33.2,4.95-14.02,1.91-30.59,1.21-38.55,4.24C18.08,101.83,0,130.67,0,130.67l27.95,27.08s17.3-17.04,25.72-17.04c19.18,0,19.96-.26,37.78-1.23,7.57-.4,9.16-.72,13.49-2.18,23.09-7.8,47.89-28.59,48.34-31.09,1.06-5.79-5.28-8.29-10.07-7.99Z"/>
  <path class="cls-1" d="M104.64,56.31c.48.1.97-.11,1.23-.53,6.42-10.35,16.12-22.87,28.76-31.38-11.79,11.32-20.11,23.23-25.15,34.45-.15.34-.13.72.04,1.05.18.32.5.54.87.59.82.11,1.68.17,2.54.17,8.08,0,16.12-4.92,21.45-9.05,6.08-4.71,11.92-10.94,15.62-16.67,5.55-8.58,9.03-19.16,9.78-29.79.02-.34-.1-.67-.34-.91-.24-.24-.57-.37-.91-.34-8.05.57-28.01,3.15-39.69,14.81-.41.37-4.71,4.32-8.7,10.65-5.48,8.67-7.7,17.65-6.42,25.98.07.49.44.87.92.97Z"/>
  <path class="cls-1" d="M72.7,68.72c5.08,3.93,12.74,8.62,20.44,8.62.82,0,1.64-.05,2.42-.16.35-.05.65-.26.83-.56.17-.31.19-.68.04-1-4.81-10.69-12.74-22.04-23.97-32.83,12.05,8.11,21.29,20.04,27.41,29.9.25.4.72.6,1.17.5.46-.09.81-.46.88-.92,1.22-7.94-.9-16.5-6.12-24.76-3.81-6.03-7.91-9.79-8.3-10.15-11.13-11.1-30.15-13.57-37.82-14.11-.32-.03-.64.09-.87.32-.23.23-.35.55-.32.87.72,10.13,4.03,20.21,9.32,28.39,3.53,5.45,9.1,11.39,14.89,15.88Z"/>
  <path class="cls-1" d="M83.67,30.28c3.38,2.62,8.49,5.74,13.61,5.74.55,0,1.09-.04,1.61-.11.23-.03.44-.17.55-.37.11-.21.12-.45.03-.67-3.2-7.12-8.48-14.68-15.97-21.87,8.03,5.4,14.18,13.35,18.26,19.92.16.26.48.4.78.34.3-.06.54-.31.59-.62.81-5.29-.6-10.99-4.08-16.49-2.54-4.01-5.27-6.52-5.53-6.76C86.13,2,73.45.36,68.34,0c-.22-.02-.43.06-.58.22-.15.15-.23.36-.22.58.48,6.75,2.68,13.46,6.21,18.91,2.35,3.63,6.06,7.59,9.92,10.58Z"/>
</svg>