<svg version="1.1" id="Layer_1" xmlns="http://www.w3.org/2000/svg" xmlns:xlink="http://www.w3.org/1999/xlink" x="0px" y="0px"
	 width="100%" viewBox="0 0 1181 531" enable-background="new 0 0 1181 531" xml:space="preserve">
<path fill="#FFFFFF" opacity="1.000000" stroke="none" 
	d="
M919.000000,532.000000 
	C612.666748,532.000000 306.833527,532.000000 1.000205,532.000000 
	C1.000137,355.000153 1.000137,178.000290 1.000068,1.000324 
	C394.666412,1.000216 788.332825,1.000216 1181.999512,1.000108 
	C1181.999634,177.999695 1181.999634,354.999390 1181.999756,531.999512 
	C1094.500000,532.000000 1007.000000,532.000000 919.000000,532.000000 
M178.582031,327.569885 
	C181.332367,322.706512 184.082703,317.843170 187.320740,312.502869 
	C196.232742,303.047485 205.144745,293.592133 214.722153,283.951294 
	C217.865952,281.774658 221.009735,279.598022 224.842743,277.197571 
	C228.558716,275.091370 232.274673,272.985138 236.731171,270.993195 
	C240.535233,269.518219 244.339294,268.043243 248.930313,266.397034 
	C252.953568,265.269897 256.976807,264.142792 261.843750,263.059540 
	C266.562531,262.360474 271.281311,261.661407 276.923950,261.103607 
	C281.616486,261.051270 286.309021,260.998901 291.812164,261.158539 
	C296.541962,261.748566 301.271729,262.338593 306.692261,263.246857 
	C310.598877,264.203949 314.505524,265.161041 318.880035,266.232758 
	C314.395874,243.436111 310.086029,221.525772 305.617065,198.806396 
	C297.011444,199.957214 289.006683,201.027664 280.197784,202.013443 
	C275.404633,203.155334 270.611481,204.297211 265.041290,205.596756 
	C260.316345,207.269882 255.591415,208.943024 250.126556,210.771576 
	C245.092651,213.200119 240.058746,215.628662 234.326828,218.124283 
	C230.838577,220.267868 227.350342,222.411453 223.199448,224.816971 
	C219.104843,227.867126 215.010239,230.917282 210.287247,234.187195 
	C207.125107,237.098907 203.962967,240.010620 200.205811,243.192749 
	C197.777893,245.785263 195.349976,248.377777 192.297485,251.217972 
	C188.790405,255.766876 185.283325,260.315796 181.031326,264.913788 
	C179.451004,264.460663 177.829941,264.115540 176.296738,263.537445 
	C163.418945,258.682068 150.503815,253.917831 137.723770,248.815887 
	C133.961700,247.314026 132.165070,248.039093 130.427795,251.652176 
	C119.081894,275.248840 116.153114,299.685394 122.704865,325.908997 
	C123.192505,327.612152 123.680145,329.315308 124.161545,331.734802 
	C125.048721,333.911346 125.935890,336.087921 126.907066,338.971130 
	C127.965515,341.315918 129.023956,343.660675 130.028488,346.723358 
	C132.023132,350.488464 134.017761,354.253540 135.327744,358.248962 
	C133.188171,355.841431 131.048584,353.433868 128.740112,350.364777 
	C125.203705,344.721832 121.667297,339.078888 118.226036,332.723633 
	C114.987167,322.082489 111.748291,311.441315 108.369690,299.918518 
	C106.135132,282.869385 107.697548,266.057068 112.654457,248.468933 
	C108.567825,249.410645 105.741486,250.061935 102.074219,250.795090 
	C96.709473,251.877274 91.344734,252.959457 85.151718,254.026611 
	C73.132904,256.344940 61.132919,258.769897 49.080631,260.898712 
	C46.420170,261.368652 45.749073,262.540955 45.994209,264.848541 
	C46.604324,270.591797 47.221581,276.334259 47.768433,282.931213 
	C49.137001,288.966736 50.505566,295.002289 51.899818,301.829132 
	C54.557968,308.901978 57.216122,315.974823 59.976261,323.767975 
	C65.903664,333.543945 71.831070,343.319916 78.070656,353.709229 
	C82.822380,358.895599 87.574104,364.081970 92.583649,369.918732 
	C99.794479,375.896332 107.005310,381.873901 114.097214,388.629883 
	C111.600464,395.398773 109.103706,402.167694 106.125191,409.453308 
	C103.085449,417.747711 100.045700,426.042114 96.945107,434.502563 
	C98.042213,435.103271 98.873215,435.604767 99.744873,436.021179 
	C100.473198,436.369141 101.249100,436.617462 102.562866,437.353363 
	C109.375809,439.816803 116.188759,442.280273 123.762726,445.012238 
	C130.509445,445.953766 137.256180,446.895325 144.926483,447.973572 
	C150.281265,447.702209 155.636032,447.430847 161.861191,447.262695 
	C165.907959,446.490234 169.954727,445.717804 174.785995,445.007812 
	C179.543503,443.376801 184.301025,441.745819 189.799728,440.048401 
	C234.398300,422.229248 258.659454,376.919495 255.788345,337.556763 
	C247.865402,371.244263 230.787659,390.649384 202.579865,396.921204 
	C195.724075,390.939270 188.868286,384.957336 181.761810,378.345001 
	C176.079269,370.291382 171.438965,361.764587 169.970352,351.164185 
	C172.674454,343.453552 175.378571,335.742889 178.582031,327.569885 
M541.843445,218.511215 
	C541.843445,214.503677 541.843445,210.496155 541.843445,205.610153 
	C561.563782,228.184052 586.283142,235.481430 613.876526,235.044495 
	C641.354126,234.609406 665.915955,227.027191 684.287537,202.960159 
	C684.287537,213.134460 684.287537,221.990387 684.287537,230.637283 
	C701.464783,230.637283 718.038513,230.637283 735.062744,230.637283 
	C735.062744,183.877670 735.062744,137.482605 735.062744,90.710716 
	C749.450073,90.710716 763.383179,90.710716 777.575500,90.710716 
	C777.575500,77.257935 777.575500,64.185440 777.575500,50.470097 
	C775.446533,50.470097 773.493408,50.470097 771.540344,50.470097 
	C729.716064,50.470097 687.891785,50.477966 646.067505,50.448986 
	C643.749207,50.447380 641.425537,50.196171 639.113892,49.965878 
	C629.376404,48.995808 619.621399,46.983028 609.911377,47.187023 
	C581.820496,47.777164 557.252991,55.961948 541.730103,83.562012 
	C541.730103,71.824287 541.730103,61.333817 541.730103,50.707451 
	C525.847717,50.707451 510.577576,50.707451 495.077606,50.707451 
	C495.077606,110.832809 495.077606,170.719650 495.077606,230.699280 
	C510.717072,230.699280 526.107605,230.699280 541.843384,230.699280 
	C541.843384,226.767578 541.843384,223.131104 541.843445,218.511215 
M876.486267,137.499725 
	C876.486267,168.596710 876.486267,199.693680 876.486267,230.822845 
	C902.229614,230.822845 927.361755,230.822845 952.594299,230.822845 
	C956.916748,217.129532 961.197083,203.569839 965.530884,189.840729 
	C981.671265,189.840729 997.485901,189.954422 1013.296326,189.748154 
	C1016.597412,189.705063 1017.874268,190.819656 1018.792053,193.820175 
	C1022.569031,206.167877 1026.589844,218.440979 1030.522705,230.747101 
	C1048.009766,230.747101 1065.229004,230.747101 1082.805176,230.747101 
	C1062.388184,170.590988 1042.086548,110.774368 1021.845886,51.137737 
	C1003.964844,51.137737 986.652954,51.137737 969.265137,51.137737 
	C954.410767,95.069008 939.591187,138.897339 924.771606,182.725662 
	C924.437683,182.638824 924.103821,182.551987 923.769958,182.465149 
	C923.769958,138.671295 923.769958,94.877457 923.769958,50.803825 
	C907.975769,50.803825 892.426880,50.803825 876.486328,50.803825 
	C876.486328,79.579620 876.486328,108.039665 876.486267,137.499725 
M760.161560,142.494537 
	C760.161560,147.633286 760.161560,152.772034 760.161560,158.600677 
	C775.492737,158.600677 790.516296,158.600677 805.846619,158.600677 
	C805.846619,183.043365 805.846619,206.795700 805.846619,230.716125 
	C821.708313,230.716125 837.244263,230.716125 852.728577,230.716125 
	C852.728577,170.566132 852.728577,110.702194 852.728577,50.735916 
	C837.028564,50.735916 821.602722,50.735916 805.616821,50.735916 
	C805.616821,73.856133 805.616821,96.734825 805.616821,120.088982 
	C790.168640,120.088982 775.277283,120.088982 760.161560,120.088982 
	C760.161560,127.547127 760.161560,134.521988 760.161560,142.494537 
M1001.282410,444.882446 
	C1006.080688,442.147614 1010.878967,439.412781 1016.470703,436.225739 
	C1013.261353,434.079590 1011.376953,432.819427 1009.573486,431.613434 
	C997.204834,442.171722 978.502441,442.913055 967.693237,436.778046 
	C961.283936,433.140320 956.612976,428.110870 955.705994,419.772095 
	C977.288269,419.772095 998.364807,419.772095 1019.364014,419.772095 
	C1021.360229,406.671967 1016.404419,395.562653 1005.252197,390.176117 
	C991.320435,383.447144 976.875183,383.149231 963.053772,390.472687 
	C951.419250,396.637360 945.657654,406.737885 947.045959,420.102631 
	C948.348877,432.645111 955.841248,440.621887 967.282776,444.937195 
	C978.265930,449.079620 989.419922,448.681946 1001.282410,444.882446 
M370.562866,420.020416 
	C388.963348,420.020416 407.363800,420.020416 425.754059,420.020416 
	C426.993256,406.987366 423.560089,396.557251 412.131348,390.668060 
	C397.640594,383.201080 382.629395,383.001526 368.228790,391.023529 
	C357.434082,397.036835 352.095459,406.708038 353.061707,419.180603 
	C353.996674,431.249725 360.675690,439.525848 371.660431,444.155518 
	C384.953949,449.758270 398.291534,449.036224 411.260010,443.046082 
	C414.965271,441.334595 418.173737,438.547607 422.135468,435.903046 
	C419.257294,433.979401 417.474854,432.788086 415.832611,431.690491 
	C403.212097,441.057495 389.729614,443.484985 375.344147,437.495544 
	C367.936829,434.411469 363.091919,428.698822 361.734100,420.020447 
	C364.633606,420.020447 367.111084,420.020447 370.562866,420.020416 
M786.127808,389.243958 
	C776.616272,385.068176 766.747375,384.723236 756.816162,387.042145 
	C732.767822,392.657288 723.471252,419.095337 739.345398,436.390350 
	C752.482788,450.703705 779.437500,451.882721 793.867310,438.784210 
	C794.739136,437.992767 795.677612,437.274719 797.172485,436.035522 
	C797.172485,440.174377 797.172485,443.451355 797.172485,446.651794 
	C800.024597,446.651794 802.567932,446.651794 804.885437,446.651794 
	C804.885437,426.355316 804.885437,406.419830 804.885437,386.393188 
	C802.172729,386.393188 799.763184,386.393188 796.835205,386.393188 
	C796.835205,389.977905 796.835205,393.333405 796.835205,396.543732 
	C793.269897,394.104401 790.016235,391.878296 786.127808,389.243958 
M441.495941,398.035248 
	C432.923859,409.463043 432.176788,423.186127 440.147980,433.545044 
	C449.339691,445.490143 462.165222,448.885010 476.559113,447.587646 
	C485.527557,446.779266 493.234161,442.976654 500.086426,435.731323 
	C500.086426,440.098175 500.086426,443.366608 500.086426,446.698090 
	C502.934662,446.698090 505.481110,446.698090 507.761871,446.698090 
	C507.761871,426.338928 507.761871,406.295319 507.761871,386.334869 
	C505.050537,386.334869 502.763641,386.334869 499.965515,386.334869 
	C499.965515,389.858856 499.965515,393.223419 499.965515,397.084625 
	C483.176483,379.936768 453.217041,383.908600 441.495941,398.035248 
M709.984863,393.500000 
	C709.984375,400.492218 710.085205,407.486267 709.960449,414.476288 
	C709.754700,426.002197 703.804382,434.384186 692.969604,438.370880 
	C684.452515,441.504761 675.753052,441.862885 667.019409,439.312988 
	C654.413757,435.632629 647.066406,427.409241 646.007141,414.314789 
	C643.045105,414.314789 640.468933,414.314789 637.834473,414.314789 
	C637.751160,424.002930 641.081055,431.945740 648.183594,437.989258 
	C661.434082,449.264038 676.948547,450.205475 692.880188,446.230225 
	C710.470642,441.841125 718.905334,430.247864 718.905762,412.242065 
	C718.906067,396.925781 718.911682,381.609467 718.895752,366.293182 
	C718.894287,364.858978 718.754578,363.424896 718.683594,362.076385 
	C702.638306,362.076385 687.044617,362.076385 671.329102,362.076385 
	C671.329102,364.250244 671.329102,366.156891 671.329102,368.577606 
	C684.268066,368.577606 696.981689,368.577606 709.984863,368.577606 
	C709.984863,376.893280 709.984863,384.696655 709.984863,393.500000 
M333.987823,394.500000 
	C333.987671,401.491638 334.117981,408.486328 333.954651,415.474152 
	C333.744720,424.455292 329.829407,431.523285 321.993073,436.001373 
	C312.426880,441.468048 302.116089,442.325439 291.619690,439.435059 
	C278.841492,435.916321 271.079834,427.800323 270.252289,414.288055 
	C267.284821,414.288055 264.694855,414.288055 261.893921,414.288055 
	C262.000214,425.729950 266.535889,434.591919 275.741608,440.726776 
	C288.476868,449.213715 302.583740,449.907898 316.905670,446.281952 
	C334.443970,441.841705 343.011322,430.304657 343.012085,412.337952 
	C343.012512,402.516357 343.012177,392.694733 343.012177,382.873138 
	C343.012177,375.933899 343.012177,368.994629 343.012177,362.114929 
	C326.921021,362.114929 311.364197,362.114929 295.781555,362.114929 
	C295.781555,364.331451 295.781555,366.231964 295.781555,368.607330 
	C308.626343,368.607330 321.164551,368.607330 333.987823,368.607330 
	C333.987823,377.227844 333.987823,385.363922 333.987823,394.500000 
M535.052368,409.223572 
	C539.203918,396.203033 550.083252,390.511688 566.097717,392.982727 
	C578.083252,394.832062 583.800598,402.253571 583.802856,415.969574 
	C583.804565,426.238373 583.803162,436.507202 583.803162,446.851929 
	C586.708740,446.851929 589.150940,446.851929 592.020386,446.851929 
	C592.020386,435.247681 592.035217,423.806396 592.016174,412.365173 
	C591.997253,401.033752 586.627930,391.936371 575.972778,388.468262 
	C569.223816,386.271545 561.713135,385.818176 554.528687,385.721100 
	C547.103638,385.620819 540.630493,389.206390 534.751831,394.586090 
	C534.584534,391.381775 534.456604,388.932190 534.330444,386.515228 
	C531.429260,386.515228 528.886719,386.515228 526.325317,386.515228 
	C526.325317,406.803955 526.325317,426.712524 526.325317,446.734619 
	C529.122070,446.734619 531.672180,446.734619 534.964600,446.734619 
	C534.964600,434.334198 534.964600,422.215698 535.052368,409.223572 
M1036.254517,406.014801 
	C1033.703247,400.652985 1034.960205,397.122681 1041.084473,394.823395 
	C1051.966187,390.738037 1063.121704,390.597076 1073.382080,396.189148 
	C1078.315674,398.878052 1080.324829,397.208954 1082.880371,393.714478 
	C1076.134033,388.176392 1068.355591,385.977081 1060.103149,385.565125 
	C1050.754028,385.098419 1041.378052,385.275116 1033.174683,390.796936 
	C1023.623352,397.226013 1024.373169,409.590698 1034.781372,414.438477 
	C1038.627075,416.229706 1042.963501,417.080841 1047.156738,417.988556 
	C1055.244995,419.739441 1063.428833,421.058868 1071.494751,422.899719 
	C1074.935181,423.684998 1078.033813,426.185242 1077.219360,429.913635 
	C1076.594727,432.772858 1074.278687,435.571808 1072.030273,437.660187 
	C1070.488403,439.092224 1067.821777,439.536224 1065.571289,439.945496 
	C1052.355347,442.348938 1040.109131,440.658386 1029.796631,430.698700 
	C1027.749146,432.225739 1025.792969,433.684631 1023.846863,435.136078 
	C1034.497314,450.499329 1067.828125,451.100342 1080.032104,441.763672 
	C1088.932129,434.954742 1087.926147,422.367096 1077.607422,417.917419 
	C1071.625122,415.337708 1064.893433,414.435486 1058.449097,413.003326 
	C1051.074585,411.364410 1043.093994,411.838470 1036.254517,406.014801 
M885.183716,405.500519 
	C885.183716,399.086548 885.183716,392.672577 885.183716,386.426361 
	C882.021606,386.426361 879.617188,386.426361 876.987610,386.426361 
	C876.987610,397.556213 877.004639,408.360474 876.982239,419.164673 
	C876.964172,427.852020 872.866211,434.111755 865.179749,437.849274 
	C856.625610,442.008728 847.803101,441.832703 839.127319,438.205750 
	C831.784973,435.136169 828.118286,429.330811 828.038147,421.418091 
	C827.933655,411.098145 828.022583,400.776306 828.000610,390.455383 
	C827.997559,389.026642 827.835876,387.598206 827.758179,386.340729 
	C824.825256,386.340729 822.381287,386.340729 819.743347,386.340729 
	C819.743347,398.860107 819.705505,411.140472 819.785156,423.420074 
	C819.796753,425.208069 820.190308,427.046722 820.711792,428.769714 
	C824.205933,440.314667 835.029114,447.412933 849.783875,447.898224 
	C859.825806,448.228516 869.038147,445.954773 877.274170,437.968903 
	C877.274170,441.705902 877.274170,444.251831 877.274170,446.707520 
	C880.183472,446.707520 882.594727,446.707520 885.183716,446.707520 
	C885.183716,433.102600 885.183716,419.801422 885.183716,405.500519 
M902.827942,439.453796 
	C902.827942,441.888092 902.827942,444.322388 902.827942,446.800049 
	C905.795776,446.800049 908.211365,446.800049 911.003479,446.800049 
	C911.003479,435.331299 911.019958,424.061920 910.997314,412.792603 
	C910.983887,406.134338 913.734131,400.931122 919.192505,397.190857 
	C927.775879,391.309296 936.876770,391.552612 946.336182,395.333832 
	C947.058655,394.268555 947.727539,393.355957 948.315430,392.393890 
	C948.878357,391.472717 949.357239,390.500214 950.040405,389.241882 
	C935.955505,383.732147 923.005798,384.139709 911.162292,394.088348 
	C910.889587,391.276764 910.654785,388.856140 910.418396,386.418671 
	C907.705811,386.418671 905.461487,386.418671 902.827820,386.418671 
	C902.827820,403.939270 902.827820,421.203461 902.827942,439.453796 
M478.803833,301.739929 
	C478.803833,313.388885 478.803833,325.037811 478.803833,336.758057 
	C480.652252,336.758057 482.219208,336.758057 484.140320,336.758057 
	C484.140320,331.735931 484.140320,326.964233 484.140320,322.434601 
	C492.256073,320.440979 498.767426,322.249695 503.939667,328.572052 
	C505.609558,330.613251 507.614075,332.537903 509.832153,333.932953 
	C512.493835,335.606995 515.547485,336.657959 518.431335,337.978729 
	C518.722473,337.434814 519.013672,336.890930 519.304810,336.347015 
	C514.160461,331.621490 509.016083,326.895966 503.789398,322.094818 
	C504.560852,321.535675 504.778046,321.259674 505.041565,321.204376 
	C513.694641,319.388153 517.690674,315.262177 517.546204,308.262939 
	C517.406677,301.503723 512.987854,296.435974 504.619263,295.637268 
	C496.227478,294.836334 487.699615,295.461273 478.803802,295.461273 
	C478.803802,297.189392 478.803802,298.996460 478.803833,301.739929 
M928.628052,297.813965 
	C920.492004,293.610748 911.981445,293.588135 903.505554,296.188690 
	C894.977478,298.805267 889.506287,306.101318 889.000549,314.527313 
	C888.453308,323.642517 893.083862,331.329742 901.644470,335.178009 
	C907.547424,337.831573 913.685181,338.353455 920.104797,337.197083 
	C929.674377,335.473267 937.070435,329.564026 938.928955,321.679718 
	C941.208984,312.007294 938.036682,304.208435 928.628052,297.813965 
M754.199707,298.568939 
	C742.085449,307.752136 741.282654,323.789062 752.897888,332.554077 
	C761.222351,338.835907 770.796936,339.159393 780.445740,335.983490 
	C790.196838,332.773834 795.461914,325.148682 795.200195,315.288696 
	C794.950378,305.880280 789.202026,298.611328 779.466614,295.868683 
	C771.014587,293.487640 762.718811,293.975098 754.199707,298.568939 
M1082.182129,333.225525 
	C1072.232666,333.225525 1062.283325,333.225525 1052.164795,333.225525 
	C1052.164795,327.813751 1052.164795,323.073303 1052.164795,318.059143 
	C1061.517578,318.059143 1070.623413,318.059143 1079.909424,318.059143 
	C1079.909424,316.548706 1079.909424,315.322235 1079.909424,313.829590 
	C1070.519775,313.829590 1061.406982,313.829590 1052.162842,313.829590 
	C1052.162842,308.989532 1052.162842,304.419647 1052.162842,299.547180 
	C1061.038940,299.547180 1069.668335,299.588013 1078.297119,299.528564 
	C1082.132324,299.502136 1082.131714,299.410309 1081.069824,295.231171 
	C1069.797974,295.231171 1058.502686,295.231171 1047.005615,295.231171 
	C1047.005615,309.155945 1047.005615,322.938171 1047.005615,337.019623 
	C1058.095947,337.019623 1069.070190,337.085754 1080.039673,336.888367 
	C1080.876831,336.873291 1081.680420,334.993469 1082.182129,333.225525 
M655.380005,299.561340 
	C658.170166,299.561340 660.960388,299.561340 664.177734,299.561340 
	C664.053589,297.784607 663.960083,296.446014 663.883240,295.345612 
	C652.085693,295.345612 640.822083,295.345612 629.364624,295.345612 
	C629.364624,309.314148 629.364624,323.013794 629.364624,336.799683 
	C641.403748,336.799683 653.155579,336.799683 665.136292,336.799683 
	C664.969177,335.326019 664.831421,334.111572 664.650269,332.514709 
	C654.384705,332.514709 644.475647,332.514709 634.399048,332.514709 
	C634.399048,327.496307 634.399048,322.910614 634.399048,317.993652 
	C643.868103,317.993652 653.149048,317.993652 662.422424,317.993652 
	C663.530518,314.979675 662.819031,313.873199 659.743042,313.924377 
	C651.304443,314.064728 642.862000,313.972778 634.392273,313.972778 
	C634.392273,309.057678 634.392273,304.606567 634.392273,299.561554 
	C641.181152,299.561554 647.796326,299.561554 655.380005,299.561340 
M551.026245,319.088776 
	C554.577271,320.439240 558.958130,321.342133 558.267700,326.433197 
	C557.610596,331.278717 553.387085,332.325928 549.362183,332.948425 
	C540.922607,334.253693 533.136658,333.122589 526.967407,325.996643 
	C525.575745,326.679626 524.193359,327.358093 522.785461,328.049042 
	C529.626648,340.146454 553.001343,339.316040 560.067749,333.344879 
	C565.585693,328.682159 564.592041,320.044983 557.826111,316.889221 
	C554.729065,315.444672 551.228882,314.806641 547.862305,314.011566 
	C543.028687,312.870026 538.010986,312.335327 533.329529,310.770508 
	C528.614441,309.194397 528.359253,304.503662 532.437683,301.609222 
	C538.015991,297.650330 550.484070,298.164886 556.126831,302.226959 
	C557.562866,303.260651 559.835205,303.132507 561.723328,303.538239 
	C561.804443,301.643555 561.616028,301.175751 561.289246,300.844299 
	C553.270020,292.709320 543.471497,293.940216 533.782898,296.073914 
	C527.364197,297.487488 524.263733,301.600647 524.448608,306.699982 
	C524.614868,311.286713 527.623840,314.337860 534.106079,315.861725 
	C539.423706,317.111755 544.835876,317.959412 551.026245,319.088776 
M999.033203,310.162598 
	C1002.395630,315.400299 1008.049072,315.853119 1013.359375,317.010681 
	C1018.211609,318.068390 1023.208984,318.704224 1027.855957,320.339752 
	C1029.706543,320.991089 1031.883057,323.810791 1031.914062,325.676575 
	C1031.945679,327.582031 1029.947266,330.234894 1028.105713,331.329681 
	C1021.438171,335.293579 1008.879517,333.866058 1003.320374,328.461121 
	C1000.841797,326.051331 999.180847,325.959229 996.946960,328.163391 
	C1002.402832,340.001831 1027.693848,339.692902 1034.543091,332.750610 
	C1039.049927,328.182587 1038.402100,320.406586 1032.669067,317.453766 
	C1029.212036,315.673187 1025.179199,314.939209 1021.343018,313.984436 
	C1016.688416,312.825958 1011.885742,312.196259 1007.321960,310.775726 
	C1005.745605,310.285034 1003.682007,308.125885 1003.659729,306.700470 
	C1003.632446,304.948975 1005.107056,302.619324 1006.635620,301.498322 
	C1012.038635,297.536011 1024.331543,298.248352 1029.876587,302.117767 
	C1031.375000,303.163330 1033.616333,303.144226 1035.516602,303.613800 
	C1035.961060,302.820160 1036.405396,302.026520 1036.849854,301.232880 
	C1035.597046,300.429565 1034.269043,299.722046 1033.103760,298.807220 
	C1026.014038,293.241302 1008.969482,293.146118 1001.976013,298.797028 
	C998.570312,301.548981 997.237610,305.094849 999.033203,310.162598 
M447.503387,295.079071 
	C442.409485,295.079071 437.315613,295.079071 432.293396,295.079071 
	C432.293396,309.429413 432.293396,323.151123 432.293396,336.748077 
	C444.210938,336.748077 455.805603,336.748077 467.202850,336.748077 
	C468.293304,333.473724 467.024689,332.694580 464.123474,332.741364 
	C455.176819,332.885651 446.226379,332.793976 437.242554,332.793976 
	C437.242554,327.663635 437.242554,322.939636 437.242554,318.027283 
	C445.871216,318.027283 454.180847,317.946289 462.487549,318.067932 
	C465.719208,318.115265 466.106689,316.781982 464.977600,313.846741 
	C455.695496,313.846741 446.441467,313.846741 437.218445,313.846741 
	C437.218445,308.873413 437.218445,304.293488 437.218445,299.435791 
	C447.144928,299.435791 456.775665,299.435791 466.652924,299.435791 
	C466.652924,297.930511 466.652924,296.713776 466.652924,295.079071 
	C460.432404,295.079071 454.466827,295.079071 447.503387,295.079071 
M337.017792,319.482422 
	C343.307495,325.504395 348.785187,332.455536 356.603394,338.279480 
	C356.603394,322.911499 356.603394,309.170319 356.603394,295.386841 
	C354.902100,295.386841 353.513397,295.386841 351.762177,295.386841 
	C351.762177,305.901337 351.762177,316.127289 351.762177,327.164764 
	C339.728516,316.461975 330.255920,304.178253 317.317383,293.749115 
	C317.317383,309.158264 317.317383,322.878113 317.317383,336.652832 
	C319.058350,336.652832 320.574371,336.652832 322.381531,336.652832 
	C322.381531,326.061951 322.381531,315.834106 322.381531,305.528473 
	C327.220947,310.134155 331.869446,314.558167 337.017792,319.482422 
M1065.497314,254.358826 
	C1070.797119,254.358826 1076.096802,254.358826 1081.396606,254.358826 
	C1081.383789,254.040375 1081.370850,253.721924 1081.358032,253.403473 
	C884.870911,253.403473 688.383789,253.403473 491.896667,253.403473 
	C491.896637,253.722076 491.896606,254.040695 491.896576,254.359299 
	C682.763794,254.359299 873.631042,254.359299 1065.497314,254.358826 
M986.886536,328.136047 
	C987.704651,317.278320 988.522766,306.420593 989.361267,295.292114 
	C986.706360,295.292114 985.282471,295.292114 983.401001,295.292114 
	C983.401001,303.817505 983.584229,312.127960 983.349060,320.426544 
	C983.117432,328.598358 977.379150,333.527924 968.833252,333.376007 
	C960.198120,333.222534 954.984619,328.196533 954.947815,319.910522 
	C954.911743,311.781677 954.940002,303.652557 954.940002,295.297974 
	C953.043518,295.297974 951.612793,295.297974 949.963013,295.297974 
	C949.963013,304.870026 949.479431,314.366760 950.222900,323.766449 
	C950.486267,327.096985 953.112549,330.885345 955.745911,333.261353 
	C963.269653,340.050018 981.072266,339.395294 986.886536,328.136047 
M299.060303,305.537964 
	C299.059082,310.696716 299.510406,315.911011 298.886841,320.993439 
	C298.512573,324.044189 297.184814,327.679657 295.016022,329.666687 
	C290.066193,334.201660 283.828705,334.374634 277.760437,331.829346 
	C272.117981,329.462646 270.415161,324.709869 270.548737,318.862488 
	C270.726746,311.070343 270.592682,303.271057 270.592682,295.293640 
	C268.703644,295.293640 267.280426,295.293640 265.690643,295.293640 
	C265.585114,296.651642 265.418854,297.794617 265.420013,298.937378 
	C265.427826,306.756592 265.060913,314.604523 265.605988,322.387756 
	C266.290009,332.155304 274.559143,338.029877 285.968170,337.591034 
	C296.851990,337.172455 303.853638,330.993378 304.128357,321.116760 
	C304.359528,312.805542 304.150574,304.481964 304.111969,296.164001 
	C304.110657,295.890045 303.841614,295.617371 303.560394,295.084564 
	C302.256348,295.158112 300.845276,295.237671 299.060303,295.338348 
	C299.060303,298.616119 299.060303,301.586395 299.060303,305.537964 
M844.042847,314.467834 
	C844.042847,308.029175 844.042847,301.590485 844.042847,294.838898 
	C841.950012,295.129089 840.560547,295.321777 839.059387,295.529968 
	C839.059387,303.789520 839.113464,311.615479 839.044861,319.440338 
	C838.968323,328.181396 833.795166,333.268738 825.018799,333.379700 
	C816.021973,333.493439 810.641724,328.297333 810.600342,319.378876 
	C810.563354,311.406403 810.592590,303.433685 810.592590,295.303375 
	C808.691223,295.303375 807.267761,295.303375 805.629883,295.303375 
	C805.629883,304.840485 805.428467,314.147949 805.708496,323.440887 
	C805.866333,328.676453 809.027954,332.496948 813.547607,334.853394 
	C820.413452,338.433075 827.612732,338.726898 834.698547,335.554291 
	C843.512695,331.607819 844.691406,323.906158 844.042847,314.467834 
M413.082916,323.627136 
	C417.713440,314.283142 422.343933,304.939148 427.000122,295.543335 
	C423.275482,294.372620 421.276398,295.271301 419.715729,298.745850 
	C415.572968,307.969238 410.978210,316.990051 406.534363,326.077332 
	C405.798187,327.582764 404.916382,329.016968 403.838043,330.959320 
	C398.434570,319.862427 393.310150,309.633331 388.487427,299.263947 
	C386.936707,295.929779 385.181671,294.046600 380.934601,295.581818 
	C387.494354,308.817780 393.981049,322.039734 400.615479,335.187103 
	C402.049072,338.028015 405.964081,337.869049 407.507324,335.007172 
	C409.393585,331.509155 411.070312,327.898132 413.082916,323.627136 
M586.816406,295.087952 
	C584.085388,294.911377 582.036072,295.317932 583.770508,299.280640 
	C589.189392,299.280640 594.777039,299.280640 600.869751,299.280640 
	C600.869751,312.099213 600.869751,324.477783 600.869751,337.088226 
	C602.820496,336.966492 604.229126,336.878571 606.167480,336.757599 
	C606.167480,324.061462 606.167480,311.699158 606.167480,299.069641 
	C612.168152,299.069641 617.615784,299.069641 623.065491,299.069641 
	C624.384338,295.325562 622.432678,295.035919 619.702332,295.056030 
	C609.052795,295.134460 598.402222,295.087921 586.816406,295.087952 
M732.491943,295.097931 
	C724.997192,295.098053 717.500732,295.191498 710.008484,295.054291 
	C706.821899,294.995972 705.703064,295.941925 707.112000,299.300537 
	C712.638794,299.300537 718.087891,299.300537 724.005737,299.300537 
	C724.005737,311.994293 724.005737,324.393372 724.005737,336.775574 
	C725.894104,336.775574 727.299622,336.775574 729.199707,336.775574 
	C729.199707,324.161224 729.199707,311.774078 729.199707,299.062805 
	C735.307007,299.062805 740.919861,299.062805 746.532654,299.062805 
	C746.803772,298.611450 747.074890,298.160126 747.346008,297.708771 
	C746.223694,296.838806 745.163330,295.335541 743.967468,295.218628 
	C740.502991,294.879974 736.984070,295.098236 732.491943,295.097931 
M881.452637,332.816467 
	C874.697937,332.816467 867.943237,332.816467 860.792725,332.816467 
	C860.792725,320.008636 860.792725,307.777954 860.792725,295.342224 
	C858.995667,295.342224 857.610840,295.342224 856.053101,295.342224 
	C856.053101,309.274597 856.053101,322.967773 856.053101,336.763947 
	C866.841064,336.763947 877.390930,336.763947 887.942627,336.763947 
	C889.142212,330.763123 884.664978,333.461609 881.452637,332.816467 
M370.407410,322.492279 
	C370.407410,327.251740 370.407410,332.011169 370.407410,336.792816 
	C372.402588,336.792816 373.826691,336.792816 375.303314,336.792816 
	C375.303314,322.827789 375.303314,309.112152 375.303314,295.080353 
	C373.592102,295.162506 372.185364,295.230042 370.407440,295.315369 
	C370.407440,304.262207 370.407440,312.878326 370.407410,322.492279 
M570.087708,313.500916 
	C570.087708,321.250427 570.087708,328.999939 570.087708,336.776154 
	C572.066650,336.776154 573.473083,336.776154 574.932739,336.776154 
	C574.932739,322.831696 574.932739,309.130981 574.932739,295.383545 
	C573.269775,295.383545 571.886536,295.383545 570.087769,295.383545 
	C570.087769,301.278137 570.087769,306.889984 570.087708,313.500916 
M973.565125,365.819733 
	C975.903442,368.383636 978.570312,370.723846 980.503479,373.563538 
	C983.449524,377.891174 987.181580,378.823090 992.779053,377.264282 
	C990.342712,373.849426 987.721252,370.925812 985.964294,367.552032 
	C982.577576,361.048431 977.307373,360.579559 970.640076,361.914185 
	C971.602295,363.247131 972.334290,364.261108 973.565125,365.819733 
M651.105774,288.782166 
	C652.405273,287.275055 653.704773,285.767944 655.326660,283.886932 
	C648.722473,283.137421 647.399414,284.130341 644.638855,292.697357 
	C646.622437,291.571350 648.606018,290.445312 651.105774,288.782166 
z"/>
<path fill="#E3021D" opacity="1.000000" stroke="none" 
	d="
M541.843384,219.002930 
	C541.843384,223.131104 541.843384,226.767578 541.843384,230.699280 
	C526.107605,230.699280 510.717072,230.699280 495.077606,230.699280 
	C495.077606,170.719650 495.077606,110.832809 495.077606,50.707451 
	C510.577576,50.707451 525.847717,50.707451 541.730103,50.707451 
	C541.730103,61.333817 541.730103,71.824287 541.730103,83.562012 
	C557.252991,55.961948 581.820496,47.777164 609.911377,47.187023 
	C619.621399,46.983028 629.376404,48.995808 639.113892,49.965878 
	C641.425537,50.196171 643.749207,50.447380 646.067505,50.448986 
	C687.891785,50.477966 729.716064,50.470097 771.540344,50.470097 
	C773.493408,50.470097 775.446533,50.470097 777.575500,50.470097 
	C777.575500,64.185440 777.575500,77.257935 777.575500,90.710716 
	C763.383179,90.710716 749.450073,90.710716 735.062744,90.710716 
	C735.062744,137.482605 735.062744,183.877670 735.062744,230.637283 
	C718.038513,230.637283 701.464783,230.637283 684.287537,230.637283 
	C684.287537,221.990387 684.287537,213.134460 684.287537,202.960159 
	C665.915955,227.027191 641.354126,234.609406 613.876526,235.044495 
	C586.283142,235.481430 561.563782,228.184052 541.843445,205.610153 
	C541.843445,210.496155 541.843445,214.503677 541.843384,219.002930 
M695.835693,88.638802 
	C679.241272,92.838181 662.625305,96.956024 646.072998,101.315376 
	C643.238037,102.062027 641.816895,101.905815 640.113953,99.148148 
	C631.535034,85.255676 611.468567,80.089783 596.917114,87.681526 
	C591.609436,90.450684 588.308655,94.490501 588.568787,100.707840 
	C588.819214,106.693817 593.088989,109.412888 598.017700,111.003548 
	C604.967102,113.246368 612.039490,115.125114 619.102783,116.995148 
	C642.544983,123.201523 667.296204,126.595657 684.162354,148.695694 
	C684.162354,135.211884 683.973328,122.928856 684.302856,110.659767 
	C684.379761,107.795425 685.759033,104.686684 687.342712,102.202744 
	C690.265686,97.618042 693.783508,93.412613 697.546814,88.957100 
	C697.565002,88.750793 697.583191,88.544495 697.601440,88.338196 
	C697.278320,88.448471 696.955261,88.558754 695.835693,88.638802 
M635.231506,189.733932 
	C643.212646,180.688416 641.301270,171.913452 630.265686,167.200104 
	C628.137390,166.291107 625.922241,165.530594 623.683594,164.944290 
	C613.246643,162.210861 602.796753,159.525360 592.334045,156.891846 
	C572.343567,151.860138 553.728882,144.644577 542.121948,124.873230 
	C542.121948,141.777451 542.121948,157.764496 542.121948,173.948868 
	C553.472595,171.898254 564.513428,169.903610 575.460205,167.925980 
	C584.142395,193.650162 614.010498,204.640182 635.231506,189.733932 
z"/>
<path fill="#020202" opacity="1.000000" stroke="none" 
	d="
M876.486328,136.999725 
	C876.486328,108.039665 876.486328,79.579620 876.486328,50.803825 
	C892.426880,50.803825 907.975769,50.803825 923.769958,50.803825 
	C923.769958,94.877457 923.769958,138.671295 923.769958,182.465149 
	C924.103821,182.551987 924.437683,182.638824 924.771606,182.725662 
	C939.591187,138.897339 954.410767,95.069008 969.265137,51.137737 
	C986.652954,51.137737 1003.964844,51.137737 1021.845886,51.137737 
	C1042.086548,110.774368 1062.388184,170.590988 1082.805176,230.747101 
	C1065.229004,230.747101 1048.009766,230.747101 1030.522705,230.747101 
	C1026.589844,218.440979 1022.569031,206.167877 1018.792053,193.820175 
	C1017.874268,190.819656 1016.597412,189.705063 1013.296326,189.748154 
	C997.485901,189.954422 981.671265,189.840729 965.530884,189.840729 
	C961.197083,203.569839 956.916748,217.129532 952.594299,230.822845 
	C927.361755,230.822845 902.229614,230.822845 876.486267,230.822845 
	C876.486267,199.693680 876.486267,168.596710 876.486328,136.999725 
M986.781494,120.248451 
	C983.371094,131.061172 979.960754,141.873901 976.453064,152.995285 
	C986.847412,152.995285 996.464111,152.995285 1006.658081,152.995285 
	C1001.613281,137.359818 996.671692,122.044434 991.405457,105.722847 
	C989.707520,110.990921 988.340454,115.232445 986.781494,120.248451 
z"/>
<path fill="#010101" opacity="1.000000" stroke="none" 
	d="
M760.161560,141.995697 
	C760.161560,134.521988 760.161560,127.547127 760.161560,120.088982 
	C775.277283,120.088982 790.168640,120.088982 805.616821,120.088982 
	C805.616821,96.734825 805.616821,73.856133 805.616821,50.735916 
	C821.602722,50.735916 837.028564,50.735916 852.728577,50.735916 
	C852.728577,110.702194 852.728577,170.566132 852.728577,230.716125 
	C837.244263,230.716125 821.708313,230.716125 805.846619,230.716125 
	C805.846619,206.795700 805.846619,183.043365 805.846619,158.600677 
	C790.516296,158.600677 775.492737,158.600677 760.161560,158.600677 
	C760.161560,152.772034 760.161560,147.633286 760.161560,141.995697 
z"/>
<path fill="#C379AC" opacity="1.000000" stroke="none" 
	d="
M122.554688,325.152710 
	C116.153114,299.685394 119.081894,275.248840 130.427795,251.652176 
	C132.165070,248.039093 133.961700,247.314026 137.723770,248.815887 
	C150.503815,253.917831 163.418945,258.682068 176.296738,263.537445 
	C177.829941,264.115540 179.451004,264.460663 181.598572,265.207153 
	C189.529510,268.439423 196.893219,271.378326 203.888229,274.170074 
	C198.398590,278.762634 192.314651,282.921967 187.433289,288.194580 
	C182.426743,293.602448 178.596344,300.099182 173.825256,306.041992 
	C171.794312,305.644196 170.151245,304.919952 168.590317,305.067108 
	C156.012833,306.252563 143.843002,308.717224 133.580872,316.866547 
	C129.981766,319.724670 126.234367,322.396057 122.554688,325.152710 
z"/>
<path fill="#0B0B0B" opacity="1.000000" stroke="none" 
	d="
M1000.895874,444.968964 
	C989.419922,448.681946 978.265930,449.079620 967.282776,444.937195 
	C955.841248,440.621887 948.348877,432.645111 947.045959,420.102631 
	C945.657654,406.737885 951.419250,396.637360 963.053772,390.472687 
	C976.875183,383.149231 991.320435,383.447144 1005.252197,390.176117 
	C1016.404419,395.562653 1021.360229,406.671967 1019.364014,419.772095 
	C998.364807,419.772095 977.288269,419.772095 955.705994,419.772095 
	C956.612976,428.110870 961.283936,433.140320 967.693237,436.778046 
	C978.502441,442.913055 997.204834,442.171722 1009.573486,431.613434 
	C1011.376953,432.819427 1013.261353,434.079590 1016.470703,436.225739 
	C1010.878967,439.412781 1006.080688,442.147614 1000.895874,444.968964 
M958.008789,405.814575 
	C957.189209,408.168335 956.369690,410.522064 955.467773,413.112305 
	C974.842773,413.112305 993.236206,413.112305 1011.771851,413.112305 
	C1011.415955,406.991730 1009.172302,402.166046 1004.755615,398.434998 
	C994.566895,389.827942 968.560181,387.968109 958.008789,405.814575 
z"/>
<path fill="#CD0B21" opacity="1.000000" stroke="none" 
	d="
M203.118988,397.403931 
	C230.787659,390.649384 247.865402,371.244263 255.788345,337.556763 
	C258.659454,376.919495 234.398300,422.229248 189.421890,439.657745 
	C189.378571,437.332275 189.664047,435.387482 190.055710,433.464294 
	C192.380844,422.047424 194.730591,410.635529 197.428589,399.151428 
	C199.563080,398.521881 201.341034,397.962921 203.118988,397.403931 
z"/>
<path fill="#0B0B0B" opacity="1.000000" stroke="none" 
	d="
M370.075714,420.020447 
	C367.111084,420.020447 364.633606,420.020447 361.734100,420.020447 
	C363.091919,428.698822 367.936829,434.411469 375.344147,437.495544 
	C389.729614,443.484985 403.212097,441.057495 415.832611,431.690491 
	C417.474854,432.788086 419.257294,433.979401 422.135468,435.903046 
	C418.173737,438.547607 414.965271,441.334595 411.260010,443.046082 
	C398.291534,449.036224 384.953949,449.758270 371.660431,444.155518 
	C360.675690,439.525848 353.996674,431.249725 353.061707,419.180603 
	C352.095459,406.708038 357.434082,397.036835 368.228790,391.023529 
	C382.629395,383.001526 397.640594,383.201080 412.131348,390.668060 
	C423.560089,396.557251 426.993256,406.987366 425.754059,420.020416 
	C407.363800,420.020416 388.963348,420.020416 370.075714,420.020447 
M401.477966,393.729309 
	C391.266296,390.855560 381.378296,391.321777 372.214661,397.076172 
	C366.379486,400.740326 362.830963,406.013214 361.906982,413.181824 
	C380.888977,413.181824 399.301666,413.181824 417.725769,413.181824 
	C417.249298,403.426514 412.549103,397.655090 401.477966,393.729309 
z"/>
<path fill="#070707" opacity="1.000000" stroke="none" 
	d="
M786.445190,389.448090 
	C790.016235,391.878296 793.269897,394.104401 796.835205,396.543732 
	C796.835205,393.333405 796.835205,389.977905 796.835205,386.393188 
	C799.763184,386.393188 802.172729,386.393188 804.885437,386.393188 
	C804.885437,406.419830 804.885437,426.355316 804.885437,446.651794 
	C802.567932,446.651794 800.024597,446.651794 797.172485,446.651794 
	C797.172485,443.451355 797.172485,440.174377 797.172485,436.035522 
	C795.677612,437.274719 794.739136,437.992767 793.867310,438.784210 
	C779.437500,451.882721 752.482788,450.703705 739.345398,436.390350 
	C723.471252,419.095337 732.767822,392.657288 756.816162,387.042145 
	C766.747375,384.723236 776.616272,385.068176 786.445190,389.448090 
M741.443298,424.682251 
	C744.191284,431.359680 749.079224,435.853363 755.744019,438.401672 
	C764.840393,441.879730 774.003052,441.781281 782.906311,437.914642 
	C792.100220,433.921814 797.264221,426.791473 797.427429,416.617889 
	C797.578125,407.218658 791.655212,398.682495 782.317322,395.213562 
	C778.345459,393.738068 773.960266,392.837097 769.727966,392.691681 
	C748.485901,391.961731 735.869202,407.495514 741.443298,424.682251 
z"/>
<path fill="#070707" opacity="1.000000" stroke="none" 
	d="
M441.740082,397.771301 
	C453.217041,383.908600 483.176483,379.936768 499.965515,397.084625 
	C499.965515,393.223419 499.965515,389.858856 499.965515,386.334869 
	C502.763641,386.334869 505.050537,386.334869 507.761871,386.334869 
	C507.761871,406.295319 507.761871,426.338928 507.761871,446.698090 
	C505.481110,446.698090 502.934662,446.698090 500.086426,446.698090 
	C500.086426,443.366608 500.086426,440.098175 500.086426,435.731323 
	C493.234161,442.976654 485.527557,446.779266 476.559113,447.587646 
	C462.165222,448.885010 449.339691,445.490143 440.147980,433.545044 
	C432.176788,423.186127 432.923859,409.463043 441.740082,397.771301 
M466.894989,392.957214 
	C464.008972,393.672699 460.968536,394.023926 458.265106,395.170135 
	C449.118042,399.048096 443.513397,405.796204 443.050995,416.001190 
	C442.628601,425.323059 448.380463,433.959412 457.498108,437.894562 
	C466.436676,441.752411 475.602844,441.847168 484.675781,438.485962 
	C494.666595,434.784668 500.525574,426.423615 500.474457,416.554535 
	C500.423187,406.654724 494.648285,398.241943 484.374908,395.011688 
	C479.149414,393.368622 473.352051,393.544220 466.894989,392.957214 
z"/>
<path fill="#080808" opacity="1.000000" stroke="none" 
	d="
M709.984863,393.000000 
	C709.984863,384.696655 709.984863,376.893280 709.984863,368.577606 
	C696.981689,368.577606 684.268066,368.577606 671.329102,368.577606 
	C671.329102,366.156891 671.329102,364.250244 671.329102,362.076385 
	C687.044617,362.076385 702.638306,362.076385 718.683594,362.076385 
	C718.754578,363.424896 718.894287,364.858978 718.895752,366.293182 
	C718.911682,381.609467 718.906067,396.925781 718.905762,412.242065 
	C718.905334,430.247864 710.470642,441.841125 692.880188,446.230225 
	C676.948547,450.205475 661.434082,449.264038 648.183594,437.989258 
	C641.081055,431.945740 637.751160,424.002930 637.834473,414.314789 
	C640.468933,414.314789 643.045105,414.314789 646.007141,414.314789 
	C647.066406,427.409241 654.413757,435.632629 667.019409,439.312988 
	C675.753052,441.862885 684.452515,441.504761 692.969604,438.370880 
	C703.804382,434.384186 709.754700,426.002197 709.960449,414.476288 
	C710.085205,407.486267 709.984375,400.492218 709.984863,393.000000 
z"/>
<path fill="#070707" opacity="1.000000" stroke="none" 
	d="
M333.987823,394.000000 
	C333.987823,385.363922 333.987823,377.227844 333.987823,368.607330 
	C321.164551,368.607330 308.626343,368.607330 295.781555,368.607330 
	C295.781555,366.231964 295.781555,364.331451 295.781555,362.114929 
	C311.364197,362.114929 326.921021,362.114929 343.012177,362.114929 
	C343.012177,368.994629 343.012177,375.933899 343.012177,382.873138 
	C343.012177,392.694733 343.012512,402.516357 343.012085,412.337952 
	C343.011322,430.304657 334.443970,441.841705 316.905670,446.281952 
	C302.583740,449.907898 288.476868,449.213715 275.741608,440.726776 
	C266.535889,434.591919 262.000214,425.729950 261.893921,414.288055 
	C264.694855,414.288055 267.284821,414.288055 270.252289,414.288055 
	C271.079834,427.800323 278.841492,435.916321 291.619690,439.435059 
	C302.116089,442.325439 312.426880,441.468048 321.993073,436.001373 
	C329.829407,431.523285 333.744720,424.455292 333.954651,415.474152 
	C334.117981,408.486328 333.987671,401.491638 333.987823,394.000000 
z"/>
<path fill="#78A2D1" opacity="1.000000" stroke="none" 
	d="
M77.758469,353.095886 
	C71.831070,343.319916 65.903664,333.543945 60.307816,323.245697 
	C61.425247,322.488892 62.196930,322.130280 62.999138,322.038452 
	C75.627121,320.593567 87.623398,317.510590 97.711693,309.170807 
	C101.219978,306.270569 104.905075,303.584198 108.509422,300.800171 
	C111.748291,311.441315 114.987167,322.082489 118.033005,333.429901 
	C110.891815,337.929169 104.086250,342.020966 96.952423,345.424835 
	C90.747101,348.385620 84.170822,350.568970 77.758469,353.095886 
z"/>
<path fill="#7EA9D5" opacity="1.000000" stroke="none" 
	d="
M108.439560,300.359344 
	C104.905075,303.584198 101.219978,306.270569 97.711693,309.170807 
	C87.623398,317.510590 75.627121,320.593567 62.999138,322.038452 
	C62.196930,322.130280 61.425247,322.488892 60.256821,322.885559 
	C57.216122,315.974823 54.557968,308.901978 52.363270,301.421204 
	C61.384132,301.535583 69.806473,300.781830 77.471207,296.714661 
	C95.873978,286.949493 104.460632,271.592957 102.915138,250.713226 
	C105.741486,250.061935 108.567825,249.410645 112.654457,248.468933 
	C107.697548,266.057068 106.135132,282.869385 108.439560,300.359344 
z"/>
<path fill="#0B0B0B" opacity="1.000000" stroke="none" 
	d="
M535.008484,409.660400 
	C534.964600,422.215698 534.964600,434.334198 534.964600,446.734619 
	C531.672180,446.734619 529.122070,446.734619 526.325317,446.734619 
	C526.325317,426.712524 526.325317,406.803955 526.325317,386.515228 
	C528.886719,386.515228 531.429260,386.515228 534.330444,386.515228 
	C534.456604,388.932190 534.584534,391.381775 534.751831,394.586090 
	C540.630493,389.206390 547.103638,385.620819 554.528687,385.721100 
	C561.713135,385.818176 569.223816,386.271545 575.972778,388.468262 
	C586.627930,391.936371 591.997253,401.033752 592.016174,412.365173 
	C592.035217,423.806396 592.020386,435.247681 592.020386,446.851929 
	C589.150940,446.851929 586.708740,446.851929 583.803162,446.851929 
	C583.803162,436.507202 583.804565,426.238373 583.802856,415.969574 
	C583.800598,402.253571 578.083252,394.832062 566.097717,392.982727 
	C550.083252,390.511688 539.203918,396.203033 535.008484,409.660400 
z"/>
<path fill="#080808" opacity="1.000000" stroke="none" 
	d="
M1036.528320,406.293030 
	C1043.093994,411.838470 1051.074585,411.364410 1058.449097,413.003326 
	C1064.893433,414.435486 1071.625122,415.337708 1077.607422,417.917419 
	C1087.926147,422.367096 1088.932129,434.954742 1080.032104,441.763672 
	C1067.828125,451.100342 1034.497314,450.499329 1023.846863,435.136078 
	C1025.792969,433.684631 1027.749146,432.225739 1029.796631,430.698700 
	C1040.109131,440.658386 1052.355347,442.348938 1065.571289,439.945496 
	C1067.821777,439.536224 1070.488403,439.092224 1072.030273,437.660187 
	C1074.278687,435.571808 1076.594727,432.772858 1077.219360,429.913635 
	C1078.033813,426.185242 1074.935181,423.684998 1071.494751,422.899719 
	C1063.428833,421.058868 1055.244995,419.739441 1047.156738,417.988556 
	C1042.963501,417.080841 1038.627075,416.229706 1034.781372,414.438477 
	C1024.373169,409.590698 1023.623352,397.226013 1033.174683,390.796936 
	C1041.378052,385.275116 1050.754028,385.098419 1060.103149,385.565125 
	C1068.355591,385.977081 1076.134033,388.176392 1082.880371,393.714478 
	C1080.324829,397.208954 1078.315674,398.878052 1073.382080,396.189148 
	C1063.121704,390.597076 1051.966187,390.738037 1041.084473,394.823395 
	C1034.960205,397.122681 1033.703247,400.652985 1036.528320,406.293030 
z"/>
<path fill="#070707" opacity="1.000000" stroke="none" 
	d="
M885.183716,406.000397 
	C885.183716,419.801422 885.183716,433.102600 885.183716,446.707520 
	C882.594727,446.707520 880.183472,446.707520 877.274170,446.707520 
	C877.274170,444.251831 877.274170,441.705902 877.274170,437.968903 
	C869.038147,445.954773 859.825806,448.228516 849.783875,447.898224 
	C835.029114,447.412933 824.205933,440.314667 820.711792,428.769714 
	C820.190308,427.046722 819.796753,425.208069 819.785156,423.420074 
	C819.705505,411.140472 819.743347,398.860107 819.743347,386.340729 
	C822.381287,386.340729 824.825256,386.340729 827.758179,386.340729 
	C827.835876,387.598206 827.997559,389.026642 828.000610,390.455383 
	C828.022583,400.776306 827.933655,411.098145 828.038147,421.418091 
	C828.118286,429.330811 831.784973,435.136169 839.127319,438.205750 
	C847.803101,441.832703 856.625610,442.008728 865.179749,437.849274 
	C872.866211,434.111755 876.964172,427.852020 876.982239,419.164673 
	C877.004639,408.360474 876.987610,397.556213 876.987610,386.426361 
	C879.617188,386.426361 882.021606,386.426361 885.183716,386.426361 
	C885.183716,392.672577 885.183716,399.086548 885.183716,406.000397 
z"/>
<path fill="#6CAAD8" opacity="1.000000" stroke="none" 
	d="
M102.494675,250.754150 
	C104.460632,271.592957 95.873978,286.949493 77.471207,296.714661 
	C69.806473,300.781830 61.384132,301.535583 52.350426,301.025543 
	C50.505566,295.002289 49.137001,288.966736 48.219276,282.484589 
	C55.254604,284.063080 61.962288,284.898651 68.326096,281.766174 
	C79.721855,276.156830 86.401276,267.296844 85.979988,254.041626 
	C91.344734,252.959457 96.709473,251.877274 102.494675,250.754150 
z"/>
<path fill="#673982" opacity="1.000000" stroke="none" 
	d="
M174.251190,306.119324 
	C178.596344,300.099182 182.426743,293.602448 187.433289,288.194580 
	C192.314651,282.921967 198.398590,278.762634 203.888229,274.170074 
	C196.893219,271.378326 189.529510,268.439423 181.971008,265.182617 
	C185.283325,260.315796 188.790405,255.766876 192.968231,251.141586 
	C198.137772,254.803070 203.125488,258.097229 207.017502,262.385742 
	C212.474472,268.398651 212.273697,276.684845 214.056763,284.136780 
	C205.144745,293.592133 196.232742,303.047485 186.626892,312.744385 
	C184.124908,312.991180 182.272568,313.249023 180.519135,312.941956 
	C177.961685,312.494080 175.475357,311.640106 172.997742,310.600403 
	C173.441574,308.867462 173.846375,307.493378 174.251190,306.119324 
z"/>
<path fill="#C44980" opacity="1.000000" stroke="none" 
	d="
M169.754028,351.896057 
	C171.438965,361.764587 176.079269,370.291382 181.842926,379.021240 
	C179.613892,384.183838 177.303772,388.670166 174.645676,393.075073 
	C169.471680,389.683380 164.645676,386.373169 160.188644,383.015198 
	C161.742462,381.890289 163.473267,381.040039 164.029648,379.701569 
	C171.472366,361.796997 158.579254,344.798340 142.680603,344.127441 
	C138.515045,343.951660 134.283600,345.337067 130.082397,346.005493 
	C129.023956,343.660675 127.965515,341.315918 127.040207,338.292419 
	C139.705048,328.243164 153.399567,327.320099 167.900696,332.477783 
	C168.540924,339.260895 169.147476,345.578461 169.754028,351.896057 
z"/>
<path fill="#90B043" opacity="1.000000" stroke="none" 
	d="
M281.001892,202.098129 
	C289.006683,201.027664 297.011444,199.957214 305.617065,198.806396 
	C310.086029,221.525772 314.395874,243.436111 318.880035,266.232758 
	C314.505524,265.161041 310.598877,264.203949 306.345154,262.679993 
	C302.650848,243.288315 296.395569,225.626297 285.328003,209.839783 
	C283.639801,207.431808 282.431915,204.687103 281.001892,202.098129 
z"/>
<path fill="#EC9602" opacity="1.000000" stroke="none" 
	d="
M123.001709,444.743744 
	C116.188759,442.280273 109.375809,439.816803 102.325134,436.787292 
	C102.565163,435.573212 102.902054,434.677460 103.541527,434.313782 
	C116.241013,427.091705 127.298157,417.872070 136.079544,406.233368 
	C140.293716,400.647949 143.395309,394.223083 147.344421,388.177094 
	C151.450241,390.217773 155.212418,392.259735 158.922165,394.650055 
	C153.989594,407.870300 146.338043,419.003265 137.259033,429.212311 
	C132.589462,434.463165 127.759300,439.571198 123.001709,444.743744 
z"/>
<path fill="#F3AA01" opacity="1.000000" stroke="none" 
	d="
M147.000763,388.178375 
	C143.395309,394.223083 140.293716,400.647949 136.079544,406.233368 
	C127.298157,417.872070 116.241013,427.091705 103.541527,434.313782 
	C102.902054,434.677460 102.565163,435.573212 102.045654,436.565582 
	C101.249100,436.617462 100.473198,436.369141 99.744873,436.021179 
	C98.873215,435.604767 98.042213,435.103271 96.945107,434.502563 
	C100.045700,426.042114 103.085449,417.747711 106.772858,409.213318 
	C111.354012,406.408539 115.789871,404.366119 119.115005,401.168671 
	C125.762444,394.776459 131.801331,387.751404 138.408539,381.086243 
	C141.483948,383.515961 144.242355,385.847168 147.000763,388.178375 
z"/>
<path fill="#8AA84D" opacity="1.000000" stroke="none" 
	d="
M280.599854,202.055786 
	C282.431915,204.687103 283.639801,207.431808 285.328003,209.839783 
	C296.395569,225.626297 302.650848,243.288315 305.999786,262.520874 
	C301.271729,262.338593 296.541962,261.748566 291.406281,260.634766 
	C288.607025,242.807510 280.994019,227.739670 271.139252,213.618820 
	C269.278717,210.952881 267.587616,208.168686 265.818329,205.439087 
	C270.611481,204.297211 275.404633,203.155334 280.599854,202.055786 
z"/>
<path fill="#859E59" opacity="1.000000" stroke="none" 
	d="
M265.429810,205.517914 
	C267.587616,208.168686 269.278717,210.952881 271.139252,213.618820 
	C280.994019,227.739670 288.607025,242.807510 291.000977,260.528809 
	C286.309021,260.998901 281.616486,261.051270 276.460999,260.625580 
	C273.222626,244.931992 266.278870,231.672684 257.012329,219.478287 
	C254.839355,216.618744 252.908646,213.575089 250.866470,210.616150 
	C255.591415,208.943024 260.316345,207.269882 265.429810,205.517914 
z"/>
<path fill="#6695C9" opacity="1.000000" stroke="none" 
	d="
M77.914566,353.402557 
	C84.170822,350.568970 90.747101,348.385620 96.952423,345.424835 
	C104.086250,342.020966 110.891815,337.929169 117.985428,333.786072 
	C121.667297,339.078888 125.203705,344.721832 128.481171,350.729797 
	C126.426819,352.259064 124.727867,353.620270 122.819885,354.554626 
	C112.684090,359.518219 102.495880,364.374725 92.325821,369.268341 
	C87.574104,364.081970 82.822380,358.895599 77.914566,353.402557 
z"/>
<path fill="#E48009" opacity="1.000000" stroke="none" 
	d="
M123.382217,444.877991 
	C127.759300,439.571198 132.589462,434.463165 137.259033,429.212311 
	C146.338043,419.003265 153.989594,407.870300 159.269470,394.711304 
	C163.104355,395.623413 166.539505,396.822662 169.975891,398.408142 
	C165.837265,413.480896 158.453506,426.514099 149.674805,438.857727 
	C147.626114,441.738373 145.885345,444.838013 144.002899,447.836884 
	C137.256180,446.895325 130.509445,445.953766 123.382217,444.877991 
z"/>
<path fill="#32ABDD" opacity="1.000000" stroke="none" 
	d="
M85.565857,254.034119 
	C86.401276,267.296844 79.721855,276.156830 68.326096,281.766174 
	C61.962288,284.898651 55.254604,284.063080 48.253044,282.057495 
	C47.221581,276.334259 46.604324,270.591797 45.994209,264.848541 
	C45.749073,262.540955 46.420170,261.368652 49.080631,260.898712 
	C61.132919,258.769897 73.132904,256.344940 85.565857,254.034119 
z"/>
<path fill="#809367" opacity="1.000000" stroke="none" 
	d="
M250.496521,210.693863 
	C252.908646,213.575089 254.839355,216.618744 257.012329,219.478287 
	C266.278870,231.672684 273.222626,244.931992 275.999084,260.554932 
	C271.281311,261.661407 266.562531,262.360474 261.421143,262.628357 
	C258.316223,248.741821 252.067642,237.061310 243.190552,226.731552 
	C240.605026,223.722916 237.754105,220.942337 235.024841,218.057220 
	C240.058746,215.628662 245.092651,213.200119 250.496521,210.693863 
z"/>
<path fill="#C43E79" opacity="1.000000" stroke="none" 
	d="
M130.055450,346.364441 
	C134.283600,345.337067 138.515045,343.951660 142.680603,344.127441 
	C158.579254,344.798340 171.472366,361.796997 164.029648,379.701569 
	C163.473267,381.040039 161.742462,381.890289 159.886932,382.888367 
	C154.512390,378.509094 149.808533,374.208954 144.958008,369.605530 
	C142.552872,366.826385 140.294403,364.350433 138.051880,361.547882 
	C137.708145,360.795471 137.348465,360.369690 136.984726,359.979004 
	C136.980652,360.014099 137.049530,360.029633 137.118347,359.705719 
	C136.786728,358.905060 136.386292,358.428284 135.977386,357.974518 
	C135.968887,357.997498 136.012390,358.018646 136.012390,358.018646 
	C134.017761,354.253540 132.023132,350.488464 130.055450,346.364441 
z"/>
<path fill="#5C8BC2" opacity="1.000000" stroke="none" 
	d="
M138.035950,361.874512 
	C140.294403,364.350433 142.552872,366.826385 144.784912,369.906982 
	C142.817978,372.011169 140.639969,373.295715 139.020157,375.085480 
	C137.935547,376.283905 137.643539,378.199646 136.668915,379.729248 
	C132.331772,374.225311 128.322586,368.786560 124.045731,362.984711 
	C120.728806,371.375824 117.472481,379.613678 114.216156,387.851501 
	C107.005310,381.873901 99.794479,375.896332 92.454742,369.593536 
	C102.495880,364.374725 112.684090,359.518219 122.819885,354.554626 
	C124.727867,353.620270 126.426819,352.259064 128.565628,351.060608 
	C131.048584,353.433868 133.188171,355.841431 135.670074,358.133789 
	C136.012390,358.018646 135.968887,357.997498 135.824768,358.294281 
	C136.136963,359.070587 136.593246,359.550110 137.049530,360.029633 
	C137.049530,360.029633 136.980652,360.014099 136.976257,360.297180 
	C137.326553,361.011658 137.681259,361.443085 138.035950,361.874512 
z"/>
<path fill="#020202" opacity="1.000000" stroke="none" 
	d="
M902.827881,438.960693 
	C902.827820,421.203461 902.827820,403.939270 902.827820,386.418671 
	C905.461487,386.418671 907.705811,386.418671 910.418396,386.418671 
	C910.654785,388.856140 910.889587,391.276764 911.162292,394.088348 
	C923.005798,384.139709 935.955505,383.732147 950.040405,389.241882 
	C949.357239,390.500214 948.878357,391.472717 948.315430,392.393890 
	C947.727539,393.355957 947.058655,394.268555 946.336182,395.333832 
	C936.876770,391.552612 927.775879,391.309296 919.192505,397.190857 
	C913.734131,400.931122 910.983887,406.134338 910.997314,412.792603 
	C911.019958,424.061920 911.003479,435.331299 911.003479,446.800049 
	C908.211365,446.800049 905.795776,446.800049 902.827942,446.800049 
	C902.827942,444.322388 902.827942,441.888092 902.827881,438.960693 
z"/>
<path fill="#0B0B0B" opacity="1.000000" stroke="none" 
	d="
M478.803833,301.271729 
	C478.803802,298.996460 478.803802,297.189392 478.803802,295.461273 
	C487.699615,295.461273 496.227478,294.836334 504.619263,295.637268 
	C512.987854,296.435974 517.406677,301.503723 517.546204,308.262939 
	C517.690674,315.262177 513.694641,319.388153 505.041565,321.204376 
	C504.778046,321.259674 504.560852,321.535675 503.789398,322.094818 
	C509.016083,326.895966 514.160461,331.621490 519.304810,336.347015 
	C519.013672,336.890930 518.722473,337.434814 518.431335,337.978729 
	C515.547485,336.657959 512.493835,335.606995 509.832153,333.932953 
	C507.614075,332.537903 505.609558,330.613251 503.939667,328.572052 
	C498.767426,322.249695 492.256073,320.440979 484.140320,322.434601 
	C484.140320,326.964233 484.140320,331.735931 484.140320,336.758057 
	C482.219208,336.758057 480.652252,336.758057 478.803833,336.758057 
	C478.803833,325.037811 478.803833,313.388885 478.803833,301.271729 
M512.001648,310.115234 
	C512.009521,303.768616 509.782288,300.432251 503.691071,299.857117 
	C497.316589,299.255249 490.841125,299.722595 484.348572,299.722595 
	C484.348572,305.563660 484.348572,311.443848 484.348572,317.113159 
	C490.834106,317.113159 496.989105,317.210236 503.139252,317.079529 
	C507.337524,316.990326 510.433899,315.038239 512.001648,310.115234 
z"/>
<path fill="#7A8571" opacity="1.000000" stroke="none" 
	d="
M234.675842,218.090744 
	C237.754105,220.942337 240.605026,223.722916 243.190552,226.731552 
	C252.067642,237.061310 258.316223,248.741821 260.999268,262.606415 
	C256.976807,264.142792 252.953568,265.269897 248.498169,266.045105 
	C244.368851,251.070938 237.848404,238.135925 226.000565,228.296570 
	C224.965698,227.437164 224.560028,225.820160 223.862106,224.555054 
	C227.350342,222.411453 230.838577,220.267868 234.675842,218.090744 
z"/>
<path fill="#0F0F0F" opacity="1.000000" stroke="none" 
	d="
M928.976135,297.940552 
	C938.036682,304.208435 941.208984,312.007294 938.928955,321.679718 
	C937.070435,329.564026 929.674377,335.473267 920.104797,337.197083 
	C913.685181,338.353455 907.547424,337.831573 901.644470,335.178009 
	C893.083862,331.329742 888.453308,323.642517 889.000549,314.527313 
	C889.506287,306.101318 894.977478,298.805267 903.505554,296.188690 
	C911.981445,293.588135 920.492004,293.610748 928.976135,297.940552 
M924.527222,331.380341 
	C932.224243,327.087219 935.367432,321.322510 934.272095,313.507782 
	C933.274780,306.393066 928.002808,300.647614 920.110535,299.442535 
	C915.794067,298.783447 911.093872,299.045746 906.823914,300.019836 
	C899.050232,301.793182 894.345642,307.898254 894.028076,315.232758 
	C893.708313,322.618042 898.362366,329.361969 905.759888,332.011078 
	C911.787109,334.169525 917.831970,333.828094 924.527222,331.380341 
z"/>
<path fill="#0F0F0F" opacity="1.000000" stroke="none" 
	d="
M754.510010,298.360962 
	C762.718811,293.975098 771.014587,293.487640 779.466614,295.868683 
	C789.202026,298.611328 794.950378,305.880280 795.200195,315.288696 
	C795.461914,325.148682 790.196838,332.773834 780.445740,335.983490 
	C770.796936,339.159393 761.222351,338.835907 752.897888,332.554077 
	C741.282654,323.789062 742.085449,307.752136 754.510010,298.360962 
M763.464233,299.478333 
	C753.903992,302.559937 749.692505,307.901367 749.919067,316.657623 
	C750.115295,324.239471 755.258728,330.937073 763.286377,332.523712 
	C767.705750,333.397186 772.622498,333.353943 777.021606,332.387878 
	C785.432556,330.540802 790.117310,324.034760 790.082703,315.872620 
	C790.048340,307.769623 785.265564,301.616943 776.637878,299.740204 
	C772.671814,298.877502 768.410889,299.370789 763.464233,299.478333 
z"/>
<path fill="#0B0B0B" opacity="1.000000" stroke="none" 
	d="
M1082.340820,333.602966 
	C1081.680420,334.993469 1080.876831,336.873291 1080.039673,336.888367 
	C1069.070190,337.085754 1058.095947,337.019623 1047.005615,337.019623 
	C1047.005615,322.938171 1047.005615,309.155945 1047.005615,295.231171 
	C1058.502686,295.231171 1069.797974,295.231171 1081.069824,295.231171 
	C1082.131714,299.410309 1082.132324,299.502136 1078.297119,299.528564 
	C1069.668335,299.588013 1061.038940,299.547180 1052.162842,299.547180 
	C1052.162842,304.419647 1052.162842,308.989532 1052.162842,313.829590 
	C1061.406982,313.829590 1070.519775,313.829590 1079.909424,313.829590 
	C1079.909424,315.322235 1079.909424,316.548706 1079.909424,318.059143 
	C1070.623413,318.059143 1061.517578,318.059143 1052.164795,318.059143 
	C1052.164795,323.073303 1052.164795,327.813751 1052.164795,333.225525 
	C1062.283325,333.225525 1072.232666,333.225525 1082.340820,333.602966 
z"/>
<path fill="#0F0F0F" opacity="1.000000" stroke="none" 
	d="
M654.895752,299.561462 
	C647.796326,299.561554 641.181152,299.561554 634.392273,299.561554 
	C634.392273,304.606567 634.392273,309.057678 634.392273,313.972778 
	C642.862000,313.972778 651.304443,314.064728 659.743042,313.924377 
	C662.819031,313.873199 663.530518,314.979675 662.422424,317.993652 
	C653.149048,317.993652 643.868103,317.993652 634.399048,317.993652 
	C634.399048,322.910614 634.399048,327.496307 634.399048,332.514709 
	C644.475647,332.514709 654.384705,332.514709 664.650269,332.514709 
	C664.831421,334.111572 664.969177,335.326019 665.136292,336.799683 
	C653.155579,336.799683 641.403748,336.799683 629.364624,336.799683 
	C629.364624,323.013794 629.364624,309.314148 629.364624,295.345612 
	C640.822083,295.345612 652.085693,295.345612 663.883240,295.345612 
	C663.960083,296.446014 664.053589,297.784607 664.177734,299.561340 
	C660.960388,299.561340 658.170166,299.561340 654.895752,299.561462 
z"/>
<path fill="#0F0F0F" opacity="1.000000" stroke="none" 
	d="
M550.616211,319.037109 
	C544.835876,317.959412 539.423706,317.111755 534.106079,315.861725 
	C527.623840,314.337860 524.614868,311.286713 524.448608,306.699982 
	C524.263733,301.600647 527.364197,297.487488 533.782898,296.073914 
	C543.471497,293.940216 553.270020,292.709320 561.289246,300.844299 
	C561.616028,301.175751 561.804443,301.643555 561.723328,303.538239 
	C559.835205,303.132507 557.562866,303.260651 556.126831,302.226959 
	C550.484070,298.164886 538.015991,297.650330 532.437683,301.609222 
	C528.359253,304.503662 528.614441,309.194397 533.329529,310.770508 
	C538.010986,312.335327 543.028687,312.870026 547.862305,314.011566 
	C551.228882,314.806641 554.729065,315.444672 557.826111,316.889221 
	C564.592041,320.044983 565.585693,328.682159 560.067749,333.344879 
	C553.001343,339.316040 529.626648,340.146454 522.785461,328.049042 
	C524.193359,327.358093 525.575745,326.679626 526.967407,325.996643 
	C533.136658,333.122589 540.922607,334.253693 549.362183,332.948425 
	C553.387085,332.325928 557.610596,331.278717 558.267700,326.433197 
	C558.958130,321.342133 554.577271,320.439240 550.616211,319.037109 
z"/>
<path fill="#0F0F0F" opacity="1.000000" stroke="none" 
	d="
M998.926514,309.789978 
	C997.237610,305.094849 998.570312,301.548981 1001.976013,298.797028 
	C1008.969482,293.146118 1026.014038,293.241302 1033.103760,298.807220 
	C1034.269043,299.722046 1035.597046,300.429565 1036.849854,301.232880 
	C1036.405396,302.026520 1035.961060,302.820160 1035.516602,303.613800 
	C1033.616333,303.144226 1031.375000,303.163330 1029.876587,302.117767 
	C1024.331543,298.248352 1012.038635,297.536011 1006.635620,301.498322 
	C1005.107056,302.619324 1003.632446,304.948975 1003.659729,306.700470 
	C1003.682007,308.125885 1005.745605,310.285034 1007.321960,310.775726 
	C1011.885742,312.196259 1016.688416,312.825958 1021.343018,313.984436 
	C1025.179199,314.939209 1029.212036,315.673187 1032.669067,317.453766 
	C1038.402100,320.406586 1039.049927,328.182587 1034.543091,332.750610 
	C1027.693848,339.692902 1002.402832,340.001831 996.946960,328.163391 
	C999.180847,325.959229 1000.841797,326.051331 1003.320374,328.461121 
	C1008.879517,333.866058 1021.438171,335.293579 1028.105713,331.329681 
	C1029.947266,330.234894 1031.945679,327.582031 1031.914062,325.676575 
	C1031.883057,323.810791 1029.706543,320.991089 1027.855957,320.339752 
	C1023.208984,318.704224 1018.211609,318.068390 1013.359375,317.010681 
	C1008.049072,315.853119 1002.395630,315.400299 998.926514,309.789978 
z"/>
<path fill="#757679" opacity="1.000000" stroke="none" 
	d="
M223.530777,224.686005 
	C224.560028,225.820160 224.965698,227.437164 226.000565,228.296570 
	C237.848404,238.135925 244.368851,251.070938 248.104675,266.130737 
	C244.339294,268.043243 240.535233,269.518219 236.313828,270.562073 
	C234.554398,266.076447 233.563034,261.862091 231.801865,257.998627 
	C227.232407,247.974640 221.102066,239.172134 210.915634,233.967438 
	C215.010239,230.917282 219.104843,227.867126 223.530777,224.686005 
z"/>
<path fill="#0F0F0F" opacity="1.000000" stroke="none" 
	d="
M448.002319,295.079071 
	C454.466827,295.079071 460.432404,295.079071 466.652924,295.079071 
	C466.652924,296.713776 466.652924,297.930511 466.652924,299.435791 
	C456.775665,299.435791 447.144928,299.435791 437.218445,299.435791 
	C437.218445,304.293488 437.218445,308.873413 437.218445,313.846741 
	C446.441467,313.846741 455.695496,313.846741 464.977600,313.846741 
	C466.106689,316.781982 465.719208,318.115265 462.487549,318.067932 
	C454.180847,317.946289 445.871216,318.027283 437.242554,318.027283 
	C437.242554,322.939636 437.242554,327.663635 437.242554,332.793976 
	C446.226379,332.793976 455.176819,332.885651 464.123474,332.741364 
	C467.024689,332.694580 468.293304,333.473724 467.202850,336.748077 
	C455.805603,336.748077 444.210938,336.748077 432.293396,336.748077 
	C432.293396,323.151123 432.293396,309.429413 432.293396,295.079071 
	C437.315613,295.079071 442.409485,295.079071 448.002319,295.079071 
z"/>
<path fill="#0B0B0B" opacity="1.000000" stroke="none" 
	d="
M336.767883,319.232300 
	C331.869446,314.558167 327.220947,310.134155 322.381531,305.528473 
	C322.381531,315.834106 322.381531,326.061951 322.381531,336.652832 
	C320.574371,336.652832 319.058350,336.652832 317.317383,336.652832 
	C317.317383,322.878113 317.317383,309.158264 317.317383,293.749115 
	C330.255920,304.178253 339.728516,316.461975 351.762177,327.164764 
	C351.762177,316.127289 351.762177,305.901337 351.762177,295.386841 
	C353.513397,295.386841 354.902100,295.386841 356.603394,295.386841 
	C356.603394,309.170319 356.603394,322.911499 356.603394,338.279480 
	C348.785187,332.455536 343.307495,325.504395 336.767883,319.232300 
z"/>
<path fill="#DE6C0E" opacity="1.000000" stroke="none" 
	d="
M144.464691,447.905212 
	C145.885345,444.838013 147.626114,441.738373 149.674805,438.857727 
	C158.453506,426.514099 165.837265,413.480896 170.380157,398.391876 
	C173.178741,398.418640 175.574341,398.847900 178.158493,399.587280 
	C178.374039,401.322083 178.854919,402.933228 178.358017,404.142670 
	C173.209244,416.674561 167.880127,429.132202 162.666107,441.637573 
	C161.929611,443.403961 161.540649,445.315277 160.990814,447.159515 
	C155.636032,447.430847 150.281265,447.702209 144.464691,447.905212 
z"/>
<path fill="#6F647E" opacity="1.000000" stroke="none" 
	d="
M210.601440,234.077316 
	C221.102066,239.172134 227.232407,247.974640 231.801865,257.998627 
	C233.563034,261.862091 234.554398,266.076447 235.943573,270.504944 
	C232.274673,272.985138 228.558716,275.091370 224.428894,276.898804 
	C223.294128,274.071930 222.675720,271.509125 221.834763,269.021576 
	C218.025757,257.754364 211.794647,248.411835 200.800827,242.922348 
	C203.962967,240.010620 207.125107,237.098907 210.601440,234.077316 
z"/>
<path fill="#7F7F7F" opacity="1.000000" stroke="none" 
	d="
M1064.997803,254.359070 
	C873.631042,254.359299 682.763794,254.359299 491.896576,254.359299 
	C491.896606,254.040695 491.896637,253.722076 491.896667,253.403473 
	C688.383789,253.403473 884.870911,253.403473 1081.358032,253.403473 
	C1081.370850,253.721924 1081.383789,254.040375 1081.396606,254.358826 
	C1076.096802,254.358826 1070.797119,254.358826 1064.997803,254.359070 
z"/>
<path fill="#161616" opacity="1.000000" stroke="none" 
	d="
M986.691223,328.461975 
	C981.072266,339.395294 963.269653,340.050018 955.745911,333.261353 
	C953.112549,330.885345 950.486267,327.096985 950.222900,323.766449 
	C949.479431,314.366760 949.963013,304.870026 949.963013,295.297974 
	C951.612793,295.297974 953.043518,295.297974 954.940002,295.297974 
	C954.940002,303.652557 954.911743,311.781677 954.947815,319.910522 
	C954.984619,328.196533 960.198120,333.222534 968.833252,333.376007 
	C977.379150,333.527924 983.117432,328.598358 983.349060,320.426544 
	C983.584229,312.127960 983.401001,303.817505 983.401001,295.292114 
	C985.282471,295.292114 986.706360,295.292114 989.361267,295.292114 
	C988.522766,306.420593 987.704651,317.278320 986.691223,328.461975 
z"/>
<path fill="#161616" opacity="1.000000" stroke="none" 
	d="
M299.060303,305.047302 
	C299.060303,301.586395 299.060303,298.616119 299.060303,295.338348 
	C300.845276,295.237671 302.256348,295.158112 303.560394,295.084564 
	C303.841614,295.617371 304.110657,295.890045 304.111969,296.164001 
	C304.150574,304.481964 304.359528,312.805542 304.128357,321.116760 
	C303.853638,330.993378 296.851990,337.172455 285.968170,337.591034 
	C274.559143,338.029877 266.290009,332.155304 265.605988,322.387756 
	C265.060913,314.604523 265.427826,306.756592 265.420013,298.937378 
	C265.418854,297.794617 265.585114,296.651642 265.690643,295.293640 
	C267.280426,295.293640 268.703644,295.293640 270.592682,295.293640 
	C270.592682,303.271057 270.726746,311.070343 270.548737,318.862488 
	C270.415161,324.709869 272.117981,329.462646 277.760437,331.829346 
	C283.828705,334.374634 290.066193,334.201660 295.016022,329.666687 
	C297.184814,327.679657 298.512573,324.044189 298.886841,320.993439 
	C299.510406,315.911011 299.059082,310.696716 299.060303,305.047302 
z"/>
<path fill="#F9BC06" opacity="1.000000" stroke="none" 
	d="
M114.156685,388.240692 
	C117.472481,379.613678 120.728806,371.375824 124.045731,362.984711 
	C128.322586,368.786560 132.331772,374.225311 136.912933,379.867737 
	C137.687103,380.376831 137.889328,380.682251 138.091522,380.987701 
	C131.801331,387.751404 125.762444,394.776459 119.115005,401.168671 
	C115.789871,404.366119 111.354012,406.408539 107.013733,408.954956 
	C109.103706,402.167694 111.600464,395.398773 114.156685,388.240692 
z"/>
<path fill="#161616" opacity="1.000000" stroke="none" 
	d="
M844.042847,314.960266 
	C844.691406,323.906158 843.512695,331.607819 834.698547,335.554291 
	C827.612732,338.726898 820.413452,338.433075 813.547607,334.853394 
	C809.027954,332.496948 805.866333,328.676453 805.708496,323.440887 
	C805.428467,314.147949 805.629883,304.840485 805.629883,295.303375 
	C807.267761,295.303375 808.691223,295.303375 810.592590,295.303375 
	C810.592590,303.433685 810.563354,311.406403 810.600342,319.378876 
	C810.641724,328.297333 816.021973,333.493439 825.018799,333.379700 
	C833.795166,333.268738 838.968323,328.181396 839.044861,319.440338 
	C839.113464,311.615479 839.059387,303.789520 839.059387,295.529968 
	C840.560547,295.321777 841.950012,295.129089 844.042847,294.838898 
	C844.042847,301.590485 844.042847,308.029175 844.042847,314.960266 
z"/>
<path fill="#C46B9F" opacity="1.000000" stroke="none" 
	d="
M173.825256,306.041992 
	C173.846375,307.493378 173.441574,308.867462 172.736908,310.838501 
	C171.576416,313.952423 170.715775,316.469391 169.429947,318.990112 
	C153.164337,315.964813 139.280838,320.131714 126.984085,330.315765 
	C126.312187,330.872223 125.118553,330.798737 124.167778,331.018463 
	C123.680145,329.315308 123.192505,327.612152 122.629776,325.530853 
	C126.234367,322.396057 129.981766,319.724670 133.580872,316.866547 
	C143.843002,308.717224 156.012833,306.252563 168.590317,305.067108 
	C170.151245,304.919952 171.794312,305.644196 173.825256,306.041992 
z"/>
<path fill="#D95A15" opacity="1.000000" stroke="none" 
	d="
M161.426010,447.211121 
	C161.540649,445.315277 161.929611,443.403961 162.666107,441.637573 
	C167.880127,429.132202 173.209244,416.674561 178.358017,404.142670 
	C178.854919,402.933228 178.374039,401.322083 178.556305,399.555298 
	C179.294739,399.253876 179.823898,399.294586 180.579895,399.525024 
	C181.804886,399.663635 182.803040,399.612457 184.158539,399.579407 
	C184.993591,399.575317 185.471329,399.553162 186.200897,399.659515 
	C186.624359,399.866028 186.795959,399.944031 186.978287,400.459351 
	C186.945358,402.557678 187.270752,404.332855 186.798111,405.861237 
	C183.768738,415.657135 180.583572,425.405121 177.406509,435.154816 
	C176.336151,438.439392 175.140091,441.683014 174.001495,444.945374 
	C169.954727,445.717804 165.907959,446.490234 161.426010,447.211121 
z"/>
<path fill="#0F0F0F" opacity="1.000000" stroke="none" 
	d="
M412.960266,323.981567 
	C411.070312,327.898132 409.393585,331.509155 407.507324,335.007172 
	C405.964081,337.869049 402.049072,338.028015 400.615479,335.187103 
	C393.981049,322.039734 387.494354,308.817780 380.934601,295.581818 
	C385.181671,294.046600 386.936707,295.929779 388.487427,299.263947 
	C393.310150,309.633331 398.434570,319.862427 403.838043,330.959320 
	C404.916382,329.016968 405.798187,327.582764 406.534363,326.077332 
	C410.978210,316.990051 415.572968,307.969238 419.715729,298.745850 
	C421.276398,295.271301 423.275482,294.372620 427.000122,295.543335 
	C422.343933,304.939148 417.713440,314.283142 412.960266,323.981567 
z"/>
<path fill="#D5441A" opacity="1.000000" stroke="none" 
	d="
M174.393738,444.976593 
	C175.140091,441.683014 176.336151,438.439392 177.406509,435.154816 
	C180.583572,425.405121 183.768738,415.657135 186.798111,405.861237 
	C187.270752,404.332855 186.945358,402.557678 187.417358,400.429016 
	C190.921173,399.714935 193.996628,399.468475 197.072067,399.221985 
	C194.730591,410.635529 192.380844,422.047424 190.055710,433.464294 
	C189.664047,435.387482 189.378571,437.332275 189.051300,439.690979 
	C184.301025,441.745819 179.543503,443.376801 174.393738,444.976593 
z"/>
<path fill="#6B5280" opacity="1.000000" stroke="none" 
	d="
M200.503326,243.057556 
	C211.794647,248.411835 218.025757,257.754364 221.834763,269.021576 
	C222.675720,271.509125 223.294128,274.071930 224.084290,277.010742 
	C221.009735,279.598022 217.865952,281.774658 214.389465,284.044037 
	C212.273697,276.684845 212.474472,268.398651 207.017502,262.385742 
	C203.125488,258.097229 198.137772,254.803070 193.280518,251.017746 
	C195.349976,248.377777 197.777893,245.785263 200.503326,243.057556 
z"/>
<path fill="#C45D91" opacity="1.000000" stroke="none" 
	d="
M124.164658,331.376648 
	C125.118553,330.798737 126.312187,330.872223 126.984085,330.315765 
	C139.280838,320.131714 153.164337,315.964813 169.424713,319.387299 
	C169.528915,322.179779 169.213135,324.578827 168.642960,327.246765 
	C168.214722,329.014496 168.040878,330.513367 167.867035,332.012238 
	C153.399567,327.320099 139.705048,328.243164 126.998199,337.939087 
	C125.935890,336.087921 125.048721,333.911346 124.164658,331.376648 
z"/>
<path fill="#0B0B0B" opacity="1.000000" stroke="none" 
	d="
M587.284241,295.087891 
	C598.402222,295.087921 609.052795,295.134460 619.702332,295.056030 
	C622.432678,295.035919 624.384338,295.325562 623.065491,299.069641 
	C617.615784,299.069641 612.168152,299.069641 606.167480,299.069641 
	C606.167480,311.699158 606.167480,324.061462 606.167480,336.757599 
	C604.229126,336.878571 602.820496,336.966492 600.869751,337.088226 
	C600.869751,324.477783 600.869751,312.099213 600.869751,299.280640 
	C594.777039,299.280640 589.189392,299.280640 583.770508,299.280640 
	C582.036072,295.317932 584.085388,294.911377 587.284241,295.087891 
z"/>
<path fill="#070707" opacity="1.000000" stroke="none" 
	d="
M732.989258,295.097931 
	C736.984070,295.098236 740.502991,294.879974 743.967468,295.218628 
	C745.163330,295.335541 746.223694,296.838806 747.346008,297.708771 
	C747.074890,298.160126 746.803772,298.611450 746.532654,299.062805 
	C740.919861,299.062805 735.307007,299.062805 729.199707,299.062805 
	C729.199707,311.774078 729.199707,324.161224 729.199707,336.775574 
	C727.299622,336.775574 725.894104,336.775574 724.005737,336.775574 
	C724.005737,324.393372 724.005737,311.994293 724.005737,299.300537 
	C718.087891,299.300537 712.638794,299.300537 707.112000,299.300537 
	C705.703064,295.941925 706.821899,294.995972 710.008484,295.054291 
	C717.500732,295.191498 724.997192,295.098053 732.989258,295.097931 
z"/>
<path fill="#070707" opacity="1.000000" stroke="none" 
	d="
M881.944031,332.816467 
	C884.664978,333.461609 889.142212,330.763123 887.942627,336.763947 
	C877.390930,336.763947 866.841064,336.763947 856.053101,336.763947 
	C856.053101,322.967773 856.053101,309.274597 856.053101,295.342224 
	C857.610840,295.342224 858.995667,295.342224 860.792725,295.342224 
	C860.792725,307.777954 860.792725,320.008636 860.792725,332.816467 
	C867.943237,332.816467 874.697937,332.816467 881.944031,332.816467 
z"/>
<path fill="#C45D91" opacity="1.000000" stroke="none" 
	d="
M197.428589,399.151428 
	C193.996628,399.468475 190.921173,399.714935 187.406647,399.991760 
	C186.795959,399.944031 186.624359,399.866028 186.073090,399.372131 
	C182.126816,397.023010 178.560226,395.089752 174.993652,393.156525 
	C177.303772,388.670166 179.613892,384.183838 181.968262,379.336426 
	C188.868286,384.957336 195.724075,390.939270 202.849426,397.162598 
	C201.341034,397.962921 199.563080,398.521881 197.428589,399.151428 
z"/>
<path fill="#161616" opacity="1.000000" stroke="none" 
	d="
M370.407410,321.993347 
	C370.407440,312.878326 370.407440,304.262207 370.407440,295.315369 
	C372.185364,295.230042 373.592102,295.162506 375.303314,295.080353 
	C375.303314,309.112152 375.303314,322.827789 375.303314,336.792816 
	C373.826691,336.792816 372.402588,336.792816 370.407410,336.792816 
	C370.407410,332.011169 370.407410,327.251740 370.407410,321.993347 
z"/>
<path fill="#0B0B0B" opacity="1.000000" stroke="none" 
	d="
M570.087769,313.001373 
	C570.087769,306.889984 570.087769,301.278137 570.087769,295.383545 
	C571.886536,295.383545 573.269775,295.383545 574.932739,295.383545 
	C574.932739,309.130981 574.932739,322.831696 574.932739,336.776154 
	C573.473083,336.776154 572.066650,336.776154 570.087708,336.776154 
	C570.087708,328.999939 570.087708,321.250427 570.087769,313.001373 
z"/>
<path fill="#6B5280" opacity="1.000000" stroke="none" 
	d="
M168.897339,326.977905 
	C169.213135,324.578827 169.528915,322.179779 169.849915,319.383545 
	C170.715775,316.469391 171.576416,313.952423 172.697876,311.197388 
	C175.475357,311.640106 177.961685,312.494080 180.519135,312.941956 
	C182.272568,313.249023 184.124908,312.991180 186.383041,312.982849 
	C184.082703,317.843170 181.332367,322.706512 177.906937,327.791321 
	C174.453674,327.667786 171.675522,327.322845 168.897339,326.977905 
z"/>
<path fill="#0F0F0F" opacity="1.000000" stroke="none" 
	d="
M973.315674,365.547424 
	C972.334290,364.261108 971.602295,363.247131 970.640076,361.914185 
	C977.307373,360.579559 982.577576,361.048431 985.964294,367.552032 
	C987.721252,370.925812 990.342712,373.849426 992.779053,377.264282 
	C987.181580,378.823090 983.449524,377.891174 980.503479,373.563538 
	C978.570312,370.723846 975.903442,368.383636 973.315674,365.547424 
z"/>
<path fill="#6F647E" opacity="1.000000" stroke="none" 
	d="
M168.642975,327.246765 
	C171.675522,327.322845 174.453674,327.667786 177.657257,328.022491 
	C175.378571,335.742889 172.674454,343.453552 169.862183,351.530121 
	C169.147476,345.578461 168.540924,339.260895 167.900711,332.477783 
	C168.040878,330.513367 168.214722,329.014496 168.642975,327.246765 
z"/>
<path fill="#161616" opacity="1.000000" stroke="none" 
	d="
M650.847656,289.050720 
	C648.606018,290.445312 646.622437,291.571350 644.638855,292.697357 
	C647.399414,284.130341 648.722473,283.137421 655.326660,283.886932 
	C653.704773,285.767944 652.405273,287.275055 650.847656,289.050720 
z"/>
<path fill="#FFFDFD" opacity="1.000000" stroke="none" 
	d="
M697.053467,89.049210 
	C693.783508,93.412613 690.265686,97.618042 687.342712,102.202744 
	C685.759033,104.686684 684.379761,107.795425 684.302856,110.659767 
	C683.973328,122.928856 684.162354,135.211884 684.162354,148.695694 
	C667.296204,126.595657 642.544983,123.201523 619.102783,116.995148 
	C612.039490,115.125114 604.967102,113.246368 598.017700,111.003548 
	C593.088989,109.412888 588.819214,106.693817 588.568787,100.707840 
	C588.308655,94.490501 591.609436,90.450684 596.917114,87.681526 
	C611.468567,80.089783 631.535034,85.255676 640.113953,99.148148 
	C641.816895,101.905815 643.238037,102.062027 646.072998,101.315376 
	C662.625305,96.956024 679.241272,92.838181 696.339722,88.748436 
	C696.843811,88.858070 697.053528,89.049225 697.053467,89.049210 
z"/>
<path fill="#FFFDFD" opacity="1.000000" stroke="none" 
	d="
M634.942993,189.963898 
	C614.010498,204.640182 584.142395,193.650162 575.460205,167.925980 
	C564.513428,169.903610 553.472595,171.898254 542.121948,173.948868 
	C542.121948,157.764496 542.121948,141.777451 542.121948,124.873230 
	C553.728882,144.644577 572.343567,151.860138 592.334045,156.891846 
	C602.796753,159.525360 613.246643,162.210861 623.683594,164.944290 
	C625.922241,165.530594 628.137390,166.291107 630.265686,167.200104 
	C641.301270,171.913452 643.212646,180.688416 634.942993,189.963898 
z"/>
<path fill="#FFFDFD" opacity="1.000000" stroke="none" 
	d="
M696.737976,88.763550 
	C696.955261,88.558754 697.278320,88.448471 697.601440,88.338196 
	C697.583191,88.544495 697.565002,88.750793 697.300171,89.003159 
	C697.053528,89.049225 696.843811,88.858070 696.737976,88.763550 
z"/>
<path fill="#FDFDFD" opacity="1.000000" stroke="none" 
	d="
M986.877441,119.861206 
	C988.340454,115.232445 989.707520,110.990921 991.405457,105.722847 
	C996.671692,122.044434 1001.613281,137.359818 1006.658081,152.995285 
	C996.464111,152.995285 986.847412,152.995285 976.453064,152.995285 
	C979.960754,141.873901 983.371094,131.061172 986.877441,119.861206 
z"/>
<path fill="#FDFDFD" opacity="1.000000" stroke="none" 
	d="
M958.169861,405.467041 
	C968.560181,387.968109 994.566895,389.827942 1004.755615,398.434998 
	C1009.172302,402.166046 1011.415955,406.991730 1011.771851,413.112305 
	C993.236206,413.112305 974.842773,413.112305 955.467773,413.112305 
	C956.369690,410.522064 957.189209,408.168335 958.169861,405.467041 
z"/>
<path fill="#FDFDFD" opacity="1.000000" stroke="none" 
	d="
M401.870117,393.831635 
	C412.549103,397.655090 417.249298,403.426514 417.725769,413.181824 
	C399.301666,413.181824 380.888977,413.181824 361.906982,413.181824 
	C362.830963,406.013214 366.379486,400.740326 372.214661,397.076172 
	C381.378296,391.321777 391.266296,390.855560 401.870117,393.831635 
z"/>
<path fill="#FDFDFD" opacity="1.000000" stroke="none" 
	d="
M741.285889,424.315125 
	C735.869202,407.495514 748.485901,391.961731 769.727966,392.691681 
	C773.960266,392.837097 778.345459,393.738068 782.317322,395.213562 
	C791.655212,398.682495 797.578125,407.218658 797.427429,416.617889 
	C797.264221,426.791473 792.100220,433.921814 782.906311,437.914642 
	C774.003052,441.781281 764.840393,441.879730 755.744019,438.401672 
	C749.079224,435.853363 744.191284,431.359680 741.285889,424.315125 
z"/>
<path fill="#FDFDFD" opacity="1.000000" stroke="none" 
	d="
M467.354095,392.927460 
	C473.352051,393.544220 479.149414,393.368622 484.374908,395.011688 
	C494.648285,398.241943 500.423187,406.654724 500.474457,416.554535 
	C500.525574,426.423615 494.666595,434.784668 484.675781,438.485962 
	C475.602844,441.847168 466.436676,441.752411 457.498108,437.894562 
	C448.380463,433.959412 442.628601,425.323059 443.050995,416.001190 
	C443.513397,405.796204 449.118042,399.048096 458.265106,395.170135 
	C460.968536,394.023926 464.008972,393.672699 467.354095,392.927460 
z"/>
<path fill="#3E5B9F" opacity="1.000000" stroke="none" 
	d="
M174.645660,393.075073 
	C178.560226,395.089752 182.126816,397.023010 185.821228,399.243622 
	C185.471329,399.553162 184.993591,399.575317 183.903168,399.450867 
	C182.311340,399.314575 181.332199,399.324921 180.353073,399.335266 
	C179.823898,399.294586 179.294739,399.253876 178.367752,399.245178 
	C175.574341,398.847900 173.178741,398.418640 170.378891,398.005646 
	C166.539505,396.822662 163.104355,395.623413 159.321899,394.362946 
	C155.212418,392.259735 151.450241,390.217773 147.344421,388.177094 
	C144.242355,385.847168 141.483948,383.515961 138.408539,381.086243 
	C137.889328,380.682251 137.687103,380.376831 137.240875,379.932922 
	C137.643539,378.199646 137.935547,376.283905 139.020157,375.085480 
	C140.639969,373.295715 142.817978,372.011169 144.931595,370.210236 
	C149.808533,374.208954 154.512390,378.509094 159.517944,382.936096 
	C164.645676,386.373169 169.471680,389.683380 174.645660,393.075073 
z"/>
<path fill="#FFFFFF" opacity="1.000000" stroke="none" 
	d="
M138.051880,361.547882 
	C137.681259,361.443085 137.326553,361.011658 136.980331,360.262085 
	C137.348465,360.369690 137.708145,360.795471 138.051880,361.547882 
z"/>
<path fill="#FFFFFF" opacity="1.000000" stroke="none" 
	d="
M137.118347,359.705719 
	C136.593246,359.550110 136.136963,359.070587 135.833267,358.271301 
	C136.386292,358.428284 136.786728,358.905060 137.118347,359.705719 
z"/>
<path fill="#FDFDFD" opacity="1.000000" stroke="none" 
	d="
M511.945801,310.512726 
	C510.433899,315.038239 507.337524,316.990326 503.139252,317.079529 
	C496.989105,317.210236 490.834106,317.113159 484.348572,317.113159 
	C484.348572,311.443848 484.348572,305.563660 484.348572,299.722595 
	C490.841125,299.722595 497.316589,299.255249 503.691071,299.857117 
	C509.782288,300.432251 512.009521,303.768616 511.945801,310.512726 
z"/>
<path fill="#FDFDFD" opacity="1.000000" stroke="none" 
	d="
M924.177979,331.574890 
	C917.831970,333.828094 911.787109,334.169525 905.759888,332.011078 
	C898.362366,329.361969 893.708313,322.618042 894.028076,315.232758 
	C894.345642,307.898254 899.050232,301.793182 906.823914,300.019836 
	C911.093872,299.045746 915.794067,298.783447 920.110535,299.442535 
	C928.002808,300.647614 933.274780,306.393066 934.272095,313.507782 
	C935.367432,321.322510 932.224243,327.087219 924.177979,331.574890 
z"/>
<path fill="#FDFDFD" opacity="1.000000" stroke="none" 
	d="
M763.873901,299.363770 
	C768.410889,299.370789 772.671814,298.877502 776.637878,299.740204 
	C785.265564,301.616943 790.048340,307.769623 790.082703,315.872620 
	C790.117310,324.034760 785.432556,330.540802 777.021606,332.387878 
	C772.622498,333.353943 767.705750,333.397186 763.286377,332.523712 
	C755.258728,330.937073 750.115295,324.239471 749.919067,316.657623 
	C749.692505,307.901367 753.903992,302.559937 763.873901,299.363770 
z"/>
<path fill="#C45D91" opacity="1.000000" stroke="none" 
	d="
M180.579895,399.525024 
	C181.332199,399.324921 182.311340,399.314575 183.545837,399.432770 
	C182.803040,399.612457 181.804886,399.663635 180.579895,399.525024 
z"/>
</svg>