<svg width="413" height="100" viewBox="0 0 413 100" fill="none" xmlns="http://www.w3.org/2000/svg">
<path d="M190.187 57.5364L186.354 61.3689L209.357 84.3711L213.189 80.5386L190.187 57.5364Z" fill="#010101"/>
<path d="M197.857 49.8694L194.024 53.7019L217.027 76.7041L220.859 72.8716L197.857 49.8694Z" fill="#010101"/>
<path d="M155.672 23.0264L151.84 26.8589L174.842 49.8611L178.675 46.0286L155.672 23.0264Z" fill="#010101"/>
<path d="M163.342 15.3594L159.51 19.1919L182.512 42.1941L186.344 38.3616L163.342 15.3594Z" fill="#010101"/>
<path d="M209.351 15.3677L186.349 38.3699L190.181 42.2024L213.183 19.2002L209.351 15.3677Z" fill="#010101"/>
<path d="M217.018 23.0377L194.016 46.0399L197.848 49.8724L220.85 26.8703L217.018 23.0377Z" fill="#010101"/>
<path d="M174.848 49.8752L151.846 72.8773L155.678 76.7099L178.68 53.7077L174.848 49.8752Z" fill="#010101"/>
<path d="M182.511 57.5352L159.509 80.5374L163.341 84.3699L186.343 61.3677L182.511 57.5352Z" fill="#010101"/>
<path d="M183.64 9.2H178.22V25.47H183.64V9.2Z" fill="#010101"/>
<path d="M194.48 9.2H189.06V25.47H194.48V9.2Z" fill="#010101"/>
<path d="M183.64 74.27H178.22V90.54H183.64V74.27Z" fill="#010101"/>
<path d="M194.48 74.27H189.06V90.54H194.48V74.27Z" fill="#010101"/>
<path d="M227.02 41.73H210.75V47.15H227.02V41.73Z" fill="#010101"/>
<path d="M227.02 52.58H210.75V58H227.02V52.58Z" fill="#010101"/>
<path d="M161.95 41.73H145.68V47.15H161.95V41.73Z" fill="#010101"/>
<path d="M161.95 52.58H145.68V58H161.95V52.58Z" fill="#010101"/>
<path d="M294.3 79.57H299.16V70.55H301.41L305.65 79.57H310.73L306.01 69.7C308.74 68.3 310.17 65.46 310.17 62.74V62.7C310.17 58.06 306.23 54.96 302.25 54.96H294.29V79.56L294.3 79.57ZM299.16 65.94V59.57H301.48C303.8 59.57 305.35 60.82 305.38 62.74C305.34 64.91 303.83 65.94 301.48 65.94H299.16ZM330.81 69.88C330.81 64.69 327.38 60.74 321.89 60.74C316.4 60.74 312.72 65.09 312.72 70.28C312.72 75.47 316.18 79.97 321.89 79.97C325.98 79.97 328.3 78.42 330.36 75.84L326.79 73.26C325.54 74.81 324.18 75.62 322.19 75.62C319.83 75.62 318.14 74.22 317.62 71.9H330.7C330.81 71.2 330.81 70.5 330.81 69.87M317.69 68.56C318.21 66.43 319.75 65.21 322.04 65.21C323.92 65.21 325.54 66.35 325.98 68.56H317.69ZM334.38 79.57H339.24V67.38C339.65 66.68 340.75 65.28 343.07 65.28C345.39 65.28 346.86 66.97 346.86 69.15V79.57H351.65V69.15C351.65 64.36 348.78 60.79 343.25 60.79C341.78 60.79 340.38 61.12 339.24 61.86V61.16H334.38V79.58V79.57ZM355.89 79.57H360.75V67.38C361.16 66.68 362.26 65.28 364.58 65.28C366.9 65.28 368.37 66.97 368.37 69.15V79.57H373.16V69.15C373.16 64.36 370.29 60.79 364.76 60.79C363.29 60.79 361.89 61.12 360.75 61.86V61.16H355.89V79.58V79.57ZM394.64 69.88C394.64 64.69 391.21 60.74 385.73 60.74C380.25 60.74 376.56 65.09 376.56 70.28C376.56 75.47 380.02 79.97 385.73 79.97C389.82 79.97 392.14 78.42 394.2 75.84L390.63 73.26C389.38 74.81 388.01 75.62 386.03 75.62C383.67 75.62 381.98 74.22 381.46 71.9H394.54C394.65 71.2 394.65 70.5 394.65 69.87M381.53 68.56C382.05 66.43 383.59 65.21 385.87 65.21C387.75 65.21 389.37 66.35 389.81 68.56H381.52H381.53ZM399.28 74.38L397.11 75.27C398.55 78.03 401.2 79.98 405.47 79.98C409.97 79.98 412.69 77.36 412.69 74.23C412.69 71.1 410.89 69.37 406.06 68.3L405.73 68.23C403 67.64 402.3 67.24 402.3 66.24C402.3 65.47 403.26 64.69 404.95 64.69C406.83 64.69 408.19 65.76 408.63 67.16L410.77 66.39L412.87 65.54C411.91 62.37 409.15 60.75 405.02 60.75C400.2 60.75 397.69 63.51 397.69 66.5C397.69 69.81 399.97 71.4 404.21 72.39L404.69 72.5C407.53 73.16 407.97 73.5 407.97 74.38C407.97 75.41 406.94 75.97 405.35 75.97C403.43 75.97 402.03 74.9 401.33 73.5L399.27 74.38H399.28ZM403.92 66.24C403.92 66.31 403.88 66.31 403.99 66.31C403.92 66.31 403.92 66.27 403.92 66.24Z" fill="#010101"/>
<path d="M243.28 17.01V31.86C243.28 37.9 247.11 41.99 253.26 41.99C259.41 41.99 263.28 37.9 263.28 31.86V17.01H258.42V31.86C258.42 35.17 256.5 37.2 253.26 37.2C250.02 37.2 248.14 35.17 248.14 31.86V17.01H243.28ZM267.89 41.62H272.75V29.43C273.15 28.73 274.26 27.33 276.58 27.33C278.9 27.33 280.38 29.02 280.38 31.2V41.63H285.17V31.2C285.17 26.41 282.3 22.84 276.77 22.84C275.3 22.84 273.9 23.17 272.76 23.91V23.21H267.9V41.63L267.89 41.62ZM289.55 41.62H294.26V23.2H289.55V41.62ZM289.47 19.7H294.33V14.69H289.47V19.7ZM309.66 41.62L316.58 23.2H311.54L307.01 35.25L302.19 23.2H297.14L304.62 41.62H309.67H309.66ZM336.18 31.93C336.18 26.74 332.75 22.8 327.26 22.8C321.77 22.8 318.09 27.15 318.09 32.34C318.09 37.53 321.55 42.03 327.26 42.03C331.35 42.03 333.67 40.48 335.73 37.9L332.16 35.32C330.91 36.87 329.54 37.68 327.56 37.68C325.2 37.68 323.51 36.28 322.99 33.96H336.07C336.18 33.26 336.18 32.56 336.18 31.93ZM323.07 30.6C323.59 28.46 325.13 27.25 327.42 27.25C329.3 27.25 330.92 28.39 331.36 30.6H323.07ZM339.83 41.62H344.77V29.39L350.44 27.18V22.39L344.77 24.56V23.2H339.83V41.62ZM354.6 36.42L352.43 37.31C353.87 40.07 356.52 42.02 360.79 42.02C365.28 42.02 368.01 39.41 368.01 36.27C368.01 33.13 366.2 31.41 361.38 30.34L361.05 30.27C358.32 29.68 357.62 29.28 357.62 28.28C357.62 27.51 358.58 26.73 360.27 26.73C362.15 26.73 363.51 27.8 363.95 29.2L366.09 28.43L368.19 27.58C367.23 24.41 364.47 22.79 360.34 22.79C355.52 22.79 353.01 25.55 353.01 28.54C353.01 31.86 355.3 33.44 359.53 34.43L360.01 34.54C362.84 35.2 363.29 35.53 363.29 36.42C363.29 37.45 362.26 38.01 360.68 38.01C358.76 38.01 357.36 36.94 356.66 35.54L354.6 36.42ZM359.24 28.28C359.24 28.35 359.2 28.35 359.31 28.35C359.24 28.35 359.24 28.31 359.24 28.28ZM371.95 41.62H376.66V23.2H371.95V41.62ZM371.87 19.7H376.73V14.69H371.87V19.7ZM383.44 41.62H388.16V27.66H393.28V23.2H388.16V17.6H383.44V23.2H379.76V27.66H383.44V41.62ZM412.87 31.93C412.87 26.74 409.44 22.8 403.95 22.8C398.46 22.8 394.78 27.15 394.78 32.34C394.78 37.53 398.24 42.03 403.95 42.03C408.04 42.03 410.36 40.48 412.42 37.9L408.85 35.32C407.6 36.87 406.24 37.68 404.25 37.68C401.89 37.68 400.2 36.28 399.68 33.96H412.76C412.87 33.26 412.87 32.56 412.87 31.93ZM399.76 30.6C400.28 28.46 401.82 27.25 404.11 27.25C405.99 27.25 407.61 28.39 408.05 30.6H399.76ZM401.42 20.66H406.28L409.96 14.55H404.73L401.42 20.66Z" fill="#010101"/>
<path d="M256.99 79.57H261.93V52.5H256.99V61.67C255.59 61.08 254.19 60.75 252.72 60.75C247.42 60.75 243.29 64.69 243.29 70.37C243.29 76.05 247.05 79.98 252.72 79.98C254.05 79.98 255.48 79.72 256.99 78.8V79.57ZM248.14 70.36C248.14 67.08 250.46 65.24 253.26 65.24C254.55 65.24 255.88 65.72 256.98 66.42V74.01C256.02 74.9 254.92 75.48 253.18 75.48C250.49 75.48 248.13 73.64 248.13 70.36M282.96 69.88C282.96 64.69 279.53 60.75 274.04 60.75C268.55 60.75 264.87 65.1 264.87 70.29C264.87 75.48 268.33 79.98 274.04 79.98C278.13 79.98 280.45 78.43 282.51 75.85L278.94 73.27C277.69 74.82 276.32 75.63 274.34 75.63C271.98 75.63 270.29 74.23 269.77 71.91H282.85C282.96 71.21 282.96 70.51 282.96 69.88ZM269.84 68.56C270.36 66.42 271.9 65.21 274.19 65.21C276.07 65.21 277.69 66.35 278.13 68.56H269.84Z" fill="#010101"/>
<path d="M113.15 25.47H111.87V74.27H113.15V25.47Z" fill="#010101"/>
<path d="M75.7596 3.55L76.1396 3.17C74.5396 1.57 72.3296 0.580002 69.8896 0.580002H9.43961C6.99961 0.580002 4.78961 1.57 3.18961 3.17C1.58961 4.77 0.599609 6.98001 0.599609 9.42001V69.87C0.599609 72.31 1.58961 74.52 3.18961 76.12C4.78961 77.72 6.99961 78.71 9.43961 78.71H69.8896C72.3296 78.71 74.5396 77.72 76.1396 76.12C77.7396 74.52 78.7296 72.31 78.7296 69.87V9.42001C78.7296 6.98001 77.7396 4.77 76.1396 3.17L75.7596 3.55L75.3796 3.93001C76.7896 5.34001 77.6496 7.27001 77.6496 9.42001V69.87C77.6496 72.01 76.7796 73.95 75.3796 75.36C73.9696 76.77 72.0396 77.63 69.8896 77.63H9.43961C7.29961 77.63 5.35961 76.76 3.95961 75.36C2.54961 73.95 1.68961 72.02 1.68961 69.87V9.42001C1.68961 7.28001 2.55961 5.34001 3.95961 3.93001C5.35961 2.53001 7.29961 1.66 9.43961 1.66H69.8896C72.0296 1.66 73.9696 2.53001 75.3796 3.93001L75.7596 3.55Z" fill="#010101"/>
<path d="M9.44 2.26001C7.53 2.26001 5.73 3.01 4.38 4.36C3.03 5.71 2.28 7.51001 2.28 9.42001V69.87C2.28 71.78 3.02 73.58 4.38 74.94C5.73 76.29 7.53 77.04 9.44 77.04H69.89C71.8 77.04 73.6 76.3 74.95 74.94C76.3 73.59 77.05 71.79 77.05 69.88V9.43C77.05 7.55 76.33 5.78001 75.02 4.43001L74.96 4.37C73.61 3.02 71.81 2.27 69.9 2.27H9.45L9.44 2.26001ZM69.9 79.31H9.44C6.92 79.31 4.55 78.33 2.77 76.55C0.990004 74.77 0 72.4 0 69.88V9.43C0 6.91 0.980004 4.54001 2.77 2.76001C4.55 0.98001 6.92 0 9.44 0H69.89C72.21 0 74.4 0.830006 76.12 2.35001H76.13L76.55 2.76001L76.96 3.18001H76.95C78.47 4.92001 79.31 7.11 79.31 9.43V69.88C79.31 72.4 78.33 74.77 76.55 76.55C74.77 78.33 72.4 79.31 69.88 79.31" fill="#010101"/>
<path d="M16.89 39.53V52.72C16.89 53.85 16.43 54.87 15.69 55.61C14.95 56.35 13.93 56.81 12.8 56.81C11.67 56.81 10.65 56.35 9.90997 55.61C9.16997 54.87 8.70996 53.85 8.70996 52.72V32.86C8.70996 31.73 9.16997 30.71 9.90997 29.97C10.65 29.23 11.67 28.77 12.8 28.77C13.93 28.77 14.95 29.23 15.69 29.97C16.43 30.71 16.89 31.73 16.89 32.86V39.53Z" fill="#010101"/>
<path d="M12.7896 29.37C11.8596 29.37 10.9796 29.73 10.3196 30.39C9.65961 31.05 9.29961 31.93 9.29961 32.86V52.71C9.29961 53.64 9.65961 54.52 10.3196 55.18C10.9796 55.84 11.8596 56.2 12.7896 56.2C13.7196 56.2 14.5996 55.84 15.2596 55.17C15.9196 54.51 16.2796 53.63 16.2796 52.7V32.85C16.2796 31.92 15.9196 31.04 15.2596 30.38C14.5996 29.72 13.7196 29.36 12.7896 29.36M12.7896 57.41C11.5396 57.41 10.3596 56.92 9.46961 56.04C8.57961 55.15 8.09961 53.98 8.09961 52.72V32.87C8.09961 31.62 8.58961 30.44 9.46961 29.56C10.3496 28.67 11.5296 28.19 12.7896 28.19C14.0496 28.19 15.2196 28.68 16.1096 29.56C16.9996 30.45 17.4796 31.62 17.4796 32.87V52.72C17.4796 53.97 16.9896 55.15 16.1096 56.04C15.2196 56.93 14.0496 57.41 12.7896 57.41Z" fill="#010101"/>
<path d="M15.69 23.01C14.95 23.75 13.93 24.21 12.8 24.21C11.67 24.21 10.64 23.75 9.90997 23.01C9.16997 22.27 8.70996 21.25 8.70996 20.12C8.70996 18.99 9.16997 17.97 9.90997 17.23C10.65 16.49 11.67 16.03 12.8 16.03C13.93 16.03 14.95 16.49 15.69 17.23C16.43 17.97 16.89 18.99 16.89 20.12C16.89 21.25 16.43 22.27 15.69 23.01Z" fill="#010101"/>
<path d="M12.7896 16.63C11.8596 16.63 10.9796 16.99 10.3196 17.65C9.65961 18.31 9.29961 19.19 9.29961 20.12C9.29961 21.05 9.65961 21.93 10.3196 22.59C10.9796 23.25 11.8596 23.61 12.7896 23.61C13.7196 23.61 14.5996 23.25 15.2596 22.59C15.9196 21.93 16.2796 21.05 16.2796 20.12C16.2796 19.19 15.9196 18.31 15.2596 17.65C14.5996 16.99 13.7196 16.63 12.7896 16.63ZM12.7896 24.81C11.5296 24.81 10.3596 24.32 9.46961 23.44C8.57961 22.55 8.09961 21.38 8.09961 20.12C8.09961 18.86 8.58961 17.69 9.46961 16.81C10.3496 15.92 11.5296 15.44 12.7896 15.44C14.0496 15.44 15.2196 15.93 16.1096 16.81C16.9996 17.7 17.4796 18.87 17.4796 20.12C17.4796 21.37 16.9896 22.55 16.1096 23.44C15.2196 24.33 14.0496 24.81 12.7896 24.81Z" fill="#010101"/>
<path d="M22.2197 32.86C22.2197 30.6 24.0497 28.77 26.3097 28.77C28.5697 28.77 30.3997 30.6 30.3997 32.86V48.32H36.4297V32.84C36.4297 30.58 38.2597 28.75 40.5197 28.75C42.7797 28.75 44.6097 30.58 44.6097 32.84V52.4C44.6097 54.66 42.7797 56.49 40.5197 56.49L26.3097 56.51C24.0497 56.51 22.2197 54.68 22.2197 52.42V32.86Z" fill="#010101"/>
<path d="M26.3101 29.37C24.3801 29.37 22.8201 30.94 22.8201 32.86V52.42C22.8201 54.35 24.3901 55.91 26.3101 55.91L40.5201 55.89C42.4501 55.89 44.0101 54.32 44.0101 52.4V32.85C44.0101 30.92 42.4501 29.36 40.5201 29.36C38.5901 29.36 37.0301 30.93 37.0301 32.85V48.92H29.8001V32.86C29.8001 30.94 28.2301 29.37 26.3101 29.37ZM26.3101 57.11C23.7201 57.11 21.6201 55.01 21.6201 52.42V32.86C21.6201 30.28 23.7201 28.17 26.3101 28.17C28.9001 28.17 31.0001 30.27 31.0001 32.86V47.72H35.8401V32.84C35.8401 30.25 37.9401 28.15 40.5301 28.15C43.1201 28.15 45.2201 30.25 45.2201 32.84V52.39C45.2201 54.98 43.1201 57.08 40.5301 57.08L26.3201 57.1L26.3101 57.11Z" fill="#010101"/>
<path d="M29.4204 69.24C28.6804 69.98 27.6604 70.44 26.5304 70.44C25.4004 70.44 24.3804 69.98 23.6404 69.24C22.9004 68.5 22.4404 67.48 22.4404 66.35C22.4404 65.22 22.9004 64.2 23.6404 63.46C24.3804 62.72 25.4004 62.26 26.5304 62.26C27.6604 62.26 28.6804 62.72 29.4204 63.46C30.1604 64.2 30.6204 65.22 30.6204 66.35C30.6204 67.48 30.1604 68.51 29.4204 69.24Z" fill="#C8D521"/>
<path d="M43.1597 69.24C42.4197 69.98 41.3997 70.44 40.2697 70.44C39.1397 70.44 38.1197 69.98 37.3797 69.24C36.6397 68.5 36.1797 67.48 36.1797 66.35C36.1797 65.22 36.6397 64.2 37.3797 63.46C38.1197 62.72 39.1397 62.26 40.2697 62.26C41.3997 62.26 42.4197 62.72 43.1597 63.46C43.8997 64.2 44.3597 65.22 44.3597 66.35C44.3597 67.48 43.8997 68.51 43.1597 69.24Z" fill="#F4990A"/>
<path d="M56.8999 69.24C56.1599 69.98 55.1399 70.44 54.0099 70.44C52.8799 70.44 51.8599 69.98 51.1199 69.24C50.3799 68.5 49.9199 67.48 49.9199 66.35C49.9199 65.22 50.3799 64.2 51.1199 63.46C51.8599 62.72 52.8799 62.26 54.0099 62.26C55.1399 62.26 56.1599 62.72 56.8999 63.46C57.6399 64.2 58.0999 65.22 58.0999 66.35C58.0999 67.48 57.6399 68.51 56.8999 69.24Z" fill="#1197D5"/>
<path d="M70.6304 69.24C69.8904 69.98 68.8704 70.44 67.7404 70.44C66.6104 70.44 65.5804 69.98 64.8504 69.24C64.1104 68.5 63.6504 67.48 63.6504 66.35C63.6504 65.23 64.1104 64.2 64.8504 63.46C65.5904 62.72 66.6104 62.26 67.7404 62.26C68.8604 62.26 69.8904 62.72 70.6304 63.46C71.3704 64.2 71.8304 65.22 71.8304 66.35C71.8304 67.48 71.3704 68.51 70.6304 69.24Z" fill="#A72B87"/>
<path d="M70.6301 29.97C69.8901 29.23 68.8701 28.77 67.7401 28.77L58.2901 28.73L58.3101 20.12C58.3101 18.99 57.8601 17.97 57.1201 17.23C56.3801 16.49 55.3601 16.03 54.2301 16.03C53.1001 16.03 52.0801 16.49 51.3401 17.23C50.6001 17.97 50.1401 18.99 50.1401 20.12L50.1101 26.52L50.0901 30.9H50.0801V32.88V32.93V52.59C50.0801 54.85 51.9101 56.68 54.1701 56.68C56.4301 56.68 58.2601 54.85 58.2601 52.59L58.2001 37H60.9601L67.7501 36.96C68.8701 36.96 69.9001 36.5 70.6401 35.76C71.3801 35.02 71.8401 34 71.8401 32.87C71.8401 31.74 71.3801 30.72 70.6401 29.98" fill="#010101"/>
<path d="M50.6805 32.89V52.59C50.6805 54.52 52.2505 56.08 54.1705 56.08C56.0905 56.08 57.6605 54.51 57.6605 52.59L57.6005 36.41L67.7405 36.36C68.6705 36.36 69.5505 36 70.2105 35.34C70.8705 34.68 71.2305 33.81 71.2305 32.87C71.2305 31.93 70.8705 31.06 70.2105 30.4C69.5505 29.74 68.6705 29.38 67.7405 29.38L57.6905 29.33L57.7205 20.12C57.7205 19.19 57.3605 18.31 56.7005 17.65C56.0405 16.99 55.1605 16.62 54.2305 16.62C53.3005 16.62 52.4205 16.98 51.7605 17.64C51.1005 18.3 50.7305 19.18 50.7305 20.11L50.6805 31.95V32.87V32.89ZM54.1705 57.27C51.5905 57.27 49.4805 55.17 49.4805 52.58V32.92V32.87V29.83L49.4905 29.84L49.5305 20.11C49.5305 18.86 50.0205 17.68 50.9105 16.8C51.7905 15.91 52.9705 15.43 54.2205 15.43C55.4705 15.43 56.6505 15.92 57.5405 16.8C58.4305 17.68 58.9105 18.86 58.9105 20.11L58.8905 28.13L67.7405 28.17C68.9805 28.17 70.1605 28.66 71.0505 29.54C71.9405 30.43 72.4205 31.6 72.4205 32.86C72.4205 34.12 71.9305 35.29 71.0505 36.18C70.1605 37.07 68.9805 37.55 67.7405 37.55L58.8005 37.59L58.8605 52.58C58.8605 55.17 56.7605 57.27 54.1705 57.27Z" fill="#010101"/>
<path d="M15.69 69.24C14.95 69.98 13.93 70.44 12.8 70.44C11.67 70.44 10.65 69.98 9.90997 69.24C9.16997 68.5 8.70996 67.48 8.70996 66.35C8.70996 65.22 9.16997 64.2 9.90997 63.46C10.65 62.72 11.67 62.26 12.8 62.26C13.93 62.26 14.95 62.72 15.69 63.46C16.43 64.2 16.89 65.22 16.89 66.35C16.89 67.48 16.43 68.51 15.69 69.24Z" fill="#FFDF0C"/>
<path d="M0.839844 99.75V98.16H2.64984V82.28H0.839844V80.69H6.40984V82.28H4.59984V98.16H10.0498V95.03H11.8098V99.75H0.839844Z" fill="#010101"/>
<path d="M20.5903 94.35H16.9403C15.4003 94.35 15.3503 94.4 15.3503 95.81V96.97C15.3203 98.21 15.4903 98.21 16.8103 98.21H20.5903V94.35ZM23.9103 98.21V99.75H15.3503C13.5903 99.75 13.5903 99 13.5903 97.35V95.22C13.5603 93.17 13.9704 92.98 16.3203 92.98H20.5903V90.41C20.5903 89.03 20.4803 89.01 18.8103 89.01H17.0803C15.6503 89.01 15.5104 89.01 15.5404 90.41V90.98H13.8903V90.2C13.8903 88.82 13.8903 88.39 14.3203 87.96C14.7503 87.5 15.1303 87.5 16.8603 87.47H19.0503C20.5103 87.47 21.2903 87.5 21.8303 88.01C22.3403 88.5 22.3403 89.17 22.3403 90.47V98.22H23.9103V98.21Z" fill="#010101"/>
<path d="M24.5908 99.75V98.21H26.1808V89H24.5908V87.46H31.8308C34.6608 87.43 34.7208 88.13 34.7208 90.24V98.21H36.3108V99.75H31.3408V98.21H32.9108V90.73C32.9108 89.21 32.9108 89 31.2308 89H27.9408V98.21H29.5008V99.75H24.5908Z" fill="#010101"/>
<path d="M36.96 99.75V98.21H38.55V89H36.96V87.46H44.2C47.04 87.43 47.09 88.13 47.09 90.24V98.21H48.68V99.75H43.71V98.21H45.28V90.73C45.28 89.21 45.28 89 43.6 89H40.31V98.21H41.88V99.75H36.96Z" fill="#010101"/>
<path d="M51.6801 83.33C52.3501 83.33 52.9001 83.87 52.9001 84.54C52.9001 85.21 52.3601 85.76 51.6801 85.76C51.0001 85.76 50.4601 85.22 50.4601 84.54C50.4601 83.86 51.0001 83.33 51.6801 83.33ZM49.3301 99.75V98.21H50.9201V89H49.3301V87.46H52.7101V98.21H54.3001V99.75H49.3301Z" fill="#010101"/>
<path d="M63.2606 90.84C63.2606 89.06 63.0706 89.06 61.4806 89H59.4306C57.7606 89 57.6806 89 57.6506 90.84V96.35C57.6506 97.57 57.7006 97.75 57.9206 98C58.0806 98.19 58.1106 98.19 59.3006 98.22H61.5706C63.0006 98.22 63.3206 98.22 63.2706 96.52V90.85L63.2606 90.84ZM64.9906 96.51C64.9406 98.43 64.9406 98.67 64.5306 99.18C64.0206 99.75 63.4006 99.75 62.1006 99.75H58.7006C57.5106 99.75 56.9506 99.72 56.4606 99.26C55.9206 98.7 55.8906 97.88 55.8906 96.53V90.83C55.9206 89.02 55.9206 88.48 56.3806 87.97C56.8906 87.43 57.4606 87.46 59.0506 87.46H61.8806C63.6906 87.51 64.1506 87.51 64.5806 88.03C64.9906 88.49 64.9906 89.14 64.9906 90.68V96.51Z" fill="#010101"/>
<path d="M66.7705 99.75V98.21H68.3605V89H66.7705V87.46H74.0105C76.8405 87.43 76.9005 88.13 76.9005 90.24V98.21H78.4905V99.75H73.5205V98.21H75.0905V90.73C75.0905 89.21 75.0905 89 73.4205 89H70.1205V98.21H71.6805V99.75H66.7705Z" fill="#010101"/>
</svg>
