<svg fill="none" height="96" viewBox="0 0 96 96" width="96" xmlns="http://www.w3.org/2000/svg" style=""><g stroke="#4a3428" stroke-linecap="round" stroke-linejoin="round" stroke-width="1.93103"><path d="m43.5659 16.1635h-11.7793v13.6846h11.7793z" class="dhaJUune_0"></path><path d="m41.5192 6.18698h-7.6855v9.97702h7.6855z" class="dhaJUune_1"></path><path d="m32.8295 33.5586v-3.7076h9.5392v3.7076" class="dhaJUune_2"></path><path d="m32.7265 33.8823s-6.0506 3.0124-7.4023 6.617c-.9526 2.5747-.811 6.4367-.811 10.994l.4763 36.3548" class="dhaJUune_3"></path><path d="m42.6262 33.8823s6.0506 3.0124 7.4023 6.617c.9526 2.5747.811 6.4367.811 10.994" class="dhaJUune_4"></path><path d="m25.0409 87.851c0 2.6777 5.6515 4.8534 12.6289 4.8534 5.0985 0 9.4959-1.1617 11.4945-2.832" class="dhaJUune_5"></path><path d="m37.6829 10.4868c.3697 0 .6694-.2997.6694-.66946 0-.36971-.2997-.66942-.6694-.66942-.3698 0-.6695.29971-.6695.66942 0 .36976.2997.66946.6695.66946z" class="dhaJUune_6"></path><path d="m48.8955 53.4768c-4.229 2.8351-7.192 7.2012-8.2648 12.1783-.9011 4.673 1.017 9.4491 3.1797 13.5172 1.1547 2.2969 2.7851 4.3217 4.7828 5.9398 1.9976 1.6181 4.3168 2.7925 6.8034 3.445 5.359 1.6879 11.1403 1.4419 16.3365-.6952 3.9393-1.7766 6.8358-5.1494 9.4878-8.3807 2.6519-3.2312 3.2055-6.7586 2.9352-11.2386-.1642-4.8527-2.2258-9.4473-5.7416-12.7962-3.0253-2.8836-6.6556-5.4841-10.788-5.8059-10.9554-.8883-16.8643 2.6648-18.731 3.8363z" class="dhaJUune_7"></path><path d="m62.9792 65.5639c-.7595-1.6221-2.2529-4.3256-3.051-5.9991-.3991-.8368-2.5747-3.8621-1.7895-4.8405 1.8108-.7604 3.7412-1.1961 5.703-1.2873 1.1071.4248 0 4.8147 0 5.9347-.0632 2.0891-.3523 4.1653-.8625 6.1922z" class="dhaJUune_8"></path><path d="m65.3093 66.1246c.8147-1.7538 1.5114-3.5601 2.0855-5.4068.4892-1.1586.8883-2.2915 1.2874-3.463.2446-.5922.3733-1.6606 1.1586-1.8022 1.0224.1389 2.0046.4896 2.8837 1.0298.5021.2575 2.1112 1.2874 2.0726 1.8667 0 .8111-3.257 2.6777-3.8621 3.2184-1.6735 1.6736-4.0809 3.0509-5.6257 4.5571z" class="dhaJUune_9"></path><path d="m70.948 65.2427c1.1328-.8882 2.2271-1.7894 3.4372-2.5747.5278-.3475 2.1113-1.6992 2.7936-1.5834.6823.1159 1.3903 1.5962 1.7121 2.1498.6308 1.1071 1.8023 3.5789.5665 4.4286-.6823.4763-2.8837.3089-3.6819.399-1.2873.1416-6.7328.0001-8.8312.0902 1.4077-.8649 2.7463-1.8377 4.0037-2.9095z" class="dhaJUune_10"></path><path d="m73.2136 71.9634c1.5448.4505 2.3558.5921 3.7204.9526.7853.206 1.7894.3477 1.9053 1.2102.1545 1.0942-1.6993 5.1494-2.8965 5.1494-.7596 0-2.2658-1.841-2.858-2.3173-.9398-.7467-1.7507-1.5835-2.6648-2.3431-1.4843-1.2609-2.8346-2.6714-4.0294-4.2095.0901.103 4.7375.9526 6.823 1.5577z" class="dhaJUune_11"></path><path d="m64.228 71.4776c0-.0772 1.5062 2.6905 2.0083 3.6561.6694 1.2873 1.9182 2.9867 2.5747 4.2225.6566 1.2359 2.7807 3.6303 1.1071 5.1494-.811.7081-2.8193.7595-3.862.9398-1.1013.1611-2.2202.1611-3.3214 0-2.6906-.412-.9527-3.4115-.6695-5.1494.4377-2.3044 1.5192-5.9218 2.1628-8.8184z" class="dhaJUune_12"></path><path d="m61.5374 71.8198c-1.0685 2.5747-1.8666 5.9089-3.0252 8.5094-.5407 1.2101-.9013 3.5402-2.4847 3.4115-.9929-.2144-1.9322-.627-2.7618-1.2132-.8295-.5862-1.5322-1.334-2.0658-2.1983-.605-1.0299-.8367-2.0855.0773-2.8193 1.2969-.8864 2.6664-1.6616 4.0938-2.3173.6308-.3733 5.7931-3.3728 6.1664-3.3728z" class="dhaJUune_13"></path><path d="m59.5162 69.4955c-2.2787.5793-12.5903 9.2947-13.5172 4.3513-.2657-1.2719-.425-2.5637-.4764-3.8621-.03-.8273.0966-1.6529.3733-2.4331.9398-1.0685 5.9219.3863 7.1964.5923 2.0855.309 4.2354 1.0942 6.4239 1.3516z" class="dhaJUune_14"></path><path d="m60.3273 66.7706c-.811-.1802-5.4326-1.828-6.8616-2.3558-1.0814-.3991-5.0721-1.0299-5.3425-2.4202-.2317-1.1458 2.7549-4.8147 3.965-4.7761.7596 0 1.738 1.7121 2.1371 2.2785.8754 1.2101 5.3682 5.9862 6.102 7.2736z" class="dhaJUune_15"></path><path d="m40.4506 69.6913c.1802 13.0538 8.0459 21.4344 16.4524 23.1723 20.4431 4.1968 29.9823-14.0965 27.2274-24.6141" class="dhaJUune_16"></path><path d="m15.785 17.5286c-.7118-.5043-1.2973-1.1665-1.7105-1.9348s-.6429-1.6218-.6712-2.4937c.0415-.3315.1717-.6457.377-.9093.2052-.2636.478-.4668.7892-.5882.3113-.1213.6496-.1563.9791-.1012.3296.0551.638.1983.8929.4143 1.1071.9784.7338 3.669.5664 5.0207-.206-.7724 1.2874-2.4975 1.931-2.9738.1976-.1658.4272-.2892.6744-.3625.2473-.0733.5071-.095.7631-.0636s.5027.1151.725.246c.2222.1309.4152.3062.5668.5148.4892.9269-.4635 2.3945-1.1201 3.0253-.6236.4746-1.3076.8642-2.0339 1.1586.5506-.0283 1.1008.0616 1.6137.2637.513.2021.9767.5116 1.3601.9078.2747.4772.357 1.0412.2303 1.577-.1268.5359-.4532 1.0031-.9127 1.3066-1.8666 1.4419-2.9223-1.4289-3.5531-2.5747.1559.6527.1593 1.3326.0097 1.9868s-.4481 1.2652-.8722 1.7852c-.5407.618-1.5062 1.12-2.0726.2961-.8754-1.2874-.0644-3.3214.9269-4.1453-1.1458.7467-2.2658 1.4933-3.6304.6694-.2819-.1224-.5259-.3179-.7068-.5663-.181-.2484-.2924-.5406-.3226-.8464-.0302-.3059.0219-.6142.1508-.8932.1289-.2789.3301-.5184.5825-.6936.917-.5471 2.0072-.7264 3.0511-.502.4616.1882.9346.3473 1.4161.4763z" class="dhaJUune_17"></path><path d="m64.9101 32.3892c-.7149-.5042-1.3025-1.1682-1.7159-1.9391-.4135-.771-.6413-1.6278-.6656-2.5023.0434-.3304.175-.643.3811-.9049.206-.262.479-.4635.7899-.5834.311-.1199.6484-.1537.977-.098.3286.0558.6361.1991.8901.4148 1.0943.9656.7209 3.6561.5664 5.0078-.2059-.7724 1.2874-2.4975 1.9311-2.9738.1975-.1659.427-.2892.6743-.3625.2473-.0734.507-.095.763-.0636s.5029.1152.7251.2461.4151.3061.5667.5147c.4764.9269-.4763 2.3945-1.1199 3.0253-.6237.4747-1.3077.8642-2.0341 1.1586.5506-.0283 1.1008.0616 1.6138.2637.5129.2021.9767.5116 1.36.9078.2755.4792.3583 1.0452.2316 1.5831-.1268.538-.4535 1.0077-.9139 1.3135-1.8666 1.4289-2.9351-1.4418-3.5531-2.5747.157.6526.1608 1.3328.0111 1.9871-.1496.6544-.4486 1.2652-.8736 1.7848-.5535.6179-1.5062 1.12-2.0855.2961-.8754-1.2874-.0644-3.3214.9398-4.1324-1.1586.7337-2.2786 1.4804-3.6304.6694-.2816-.1244-.5252-.3215-.7057-.5709-.1805-.2495-.2916-.5424-.3217-.8488-.0301-.3065.0217-.6155.1502-.8953.1285-.2799.3291-.5205.5812-.6974.9191-.541 2.0069-.7201 3.051-.502.4892.1416.9268.4119 1.416.4763z" class="dhaJUune_18"></path><path d="m70.5488 7.73292c-.7128-.50628-1.2988-1.17071-1.712-1.94124-.4131-.77053-.6423-1.62625-.6696-2.50014.0434-.33043.175-.64302.3811-.90493s.4791-.46343.79-.58333c.311-.1199.6484-.15373.977-.09798s.6361.19903.8901.41479c1.0942.97838.7338 3.65611.5664 5.0207-.206-.78528 1.2874-2.57471 1.931-2.98667.1976-.16584.4271-.2893.6744-.36261.2472-.07331.507-.09489.763-.06349s.5028.11512.7251.24601c.2222.1309.4151.30615.5667.51482.4763.92689-.4763 2.39444-1.12 3.02524-.6236.47463-1.3077.86428-2.034 1.15865.5515-.02665 1.1024.06528 1.6154.26959s.9762.51622 1.3584.91475c.2747.47722.3571 1.04122.2303 1.57702-.1268.5359-.4531 1.0032-.9126 1.3066-1.8666 1.429-2.9223-1.4418-3.5531-2.5747.1569.6527.1607 1.3328.0111 1.9872-.1496.6543-.4487 1.2652-.8737 1.7848-.5407.6179-1.5062 1.1199-2.0855.296-.8625-1.2873.0001-3.3213.9398-4.1323-1.1457.7466-2.2786 1.4805-3.6303.6694-.2817-.1244-.5253-.3214-.7058-.5709-.1806-.24945-.2915-.54244-.3216-.8489-.0301-.30645.0217-.61535.1502-.89519s.3291-.52054.5811-.69742c.9192-.54107 2.007-.7201 3.0511-.50208.4763.14161.9139.41194 1.416.47631z" class="dhaJUune_19"></path></g><style data-made-with="vivus-instant">.dhaJUune_0{stroke-dasharray:51 53;stroke-dashoffset:52;animation:dhaJUune_draw_0 6400ms ease 0ms infinite,dhaJUune_fade 6400ms linear 0ms infinite;}.dhaJUune_1{stroke-dasharray:36 38;stroke-dashoffset:37;animation:dhaJUune_draw_1 6400ms ease 0ms infinite,dhaJUune_fade 6400ms linear 0ms infinite;}.dhaJUune_2{stroke-dasharray:17 19;stroke-dashoffset:18;animation:dhaJUune_draw_2 6400ms ease 0ms infinite,dhaJUune_fade 6400ms linear 0ms infinite;}.dhaJUune_3{stroke-dasharray:58 60;stroke-dashoffset:59;animation:dhaJUune_draw_3 6400ms ease 0ms infinite,dhaJUune_fade 6400ms linear 0ms infinite;}.dhaJUune_4{stroke-dasharray:22 24;stroke-dashoffset:23;animation:dhaJUune_draw_4 6400ms ease 0ms infinite,dhaJUune_fade 6400ms linear 0ms infinite;}.dhaJUune_5{stroke-dasharray:27 29;stroke-dashoffset:28;animation:dhaJUune_draw_5 6400ms ease 0ms infinite,dhaJUune_fade 6400ms linear 0ms infinite;}.dhaJUune_6{stroke-dasharray:5 7;stroke-dashoffset:6;animation:dhaJUune_draw_6 6400ms ease 0ms infinite,dhaJUune_fade 6400ms linear 0ms infinite;}.dhaJUune_7{stroke-dasharray:133 135;stroke-dashoffset:134;animation:dhaJUune_draw_7 6400ms ease 0ms infinite,dhaJUune_fade 6400ms linear 0ms infinite;}.dhaJUune_8{stroke-dasharray:31 33;stroke-dashoffset:32;animation:dhaJUune_draw_8 6400ms ease 0ms infinite,dhaJUune_fade 6400ms linear 0ms infinite;}.dhaJUune_9{stroke-dasharray:31 33;stroke-dashoffset:32;animation:dhaJUune_draw_9 6400ms ease 0ms infinite,dhaJUune_fade 6400ms linear 0ms infinite;}.dhaJUune_10{stroke-dasharray:33 35;stroke-dashoffset:34;animation:dhaJUune_draw_10 6400ms ease 0ms infinite,dhaJUune_fade 6400ms linear 0ms infinite;}.dhaJUune_11{stroke-dasharray:33 35;stroke-dashoffset:34;animation:dhaJUune_draw_11 6400ms ease 0ms infinite,dhaJUune_fade 6400ms linear 0ms infinite;}.dhaJUune_12{stroke-dasharray:38 40;stroke-dashoffset:39;animation:dhaJUune_draw_12 6400ms ease 0ms infinite,dhaJUune_fade 6400ms linear 0ms infinite;}.dhaJUune_13{stroke-dasharray:35 37;stroke-dashoffset:36;animation:dhaJUune_draw_13 6400ms ease 0ms infinite,dhaJUune_fade 6400ms linear 0ms infinite;}.dhaJUune_14{stroke-dasharray:37 39;stroke-dashoffset:38;animation:dhaJUune_draw_14 6400ms ease 0ms infinite,dhaJUune_fade 6400ms linear 0ms infinite;}.dhaJUune_15{stroke-dasharray:33 35;stroke-dashoffset:34;animation:dhaJUune_draw_15 6400ms ease 0ms infinite,dhaJUune_fade 6400ms linear 0ms infinite;}.dhaJUune_16{stroke-dasharray:75 77;stroke-dashoffset:76;animation:dhaJUune_draw_16 6400ms ease 0ms infinite,dhaJUune_fade 6400ms linear 0ms infinite;}.dhaJUune_17{stroke-dasharray:62 64;stroke-dashoffset:63;animation:dhaJUune_draw_17 6400ms ease 0ms infinite,dhaJUune_fade 6400ms linear 0ms infinite;}.dhaJUune_18{stroke-dasharray:62 64;stroke-dashoffset:63;animation:dhaJUune_draw_18 6400ms ease 0ms infinite,dhaJUune_fade 6400ms linear 0ms infinite;}.dhaJUune_19{stroke-dasharray:62 64;stroke-dashoffset:63;animation:dhaJUune_draw_19 6400ms ease 0ms infinite,dhaJUune_fade 6400ms linear 0ms infinite;}@keyframes dhaJUune_draw{100%{stroke-dashoffset:0;}}@keyframes dhaJUune_fade{0%{stroke-opacity:1;}98.4375%{stroke-opacity:1;}100%{stroke-opacity:0;}}@keyframes dhaJUune_draw_0{4.6875%{stroke-dashoffset: 52}7.392827413984461%{ stroke-dashoffset: 0;}100%{ stroke-dashoffset: 0;}}@keyframes dhaJUune_draw_1{7.392827413984461%{stroke-dashoffset: 37}9.31777192008879%{ stroke-dashoffset: 0;}100%{ stroke-dashoffset: 0;}}@keyframes dhaJUune_draw_2{9.317771920088791%{stroke-dashoffset: 18}10.254231409544952%{ stroke-dashoffset: 0;}100%{ stroke-dashoffset: 0;}}@keyframes dhaJUune_draw_3{10.25423140954495%{stroke-dashoffset: 59}13.323737513873473%{ stroke-dashoffset: 0;}100%{ stroke-dashoffset: 0;}}@keyframes dhaJUune_draw_4{13.323737513873473%{stroke-dashoffset: 23}14.520324639289678%{ stroke-dashoffset: 0;}100%{ stroke-dashoffset: 0;}}@keyframes dhaJUune_draw_5{14.520324639289678%{stroke-dashoffset: 28}15.977039400665927%{ stroke-dashoffset: 0;}100%{ stroke-dashoffset: 0;}}@keyframes dhaJUune_draw_6{15.977039400665927%{stroke-dashoffset: 6}16.28919256381798%{ stroke-dashoffset: 0;}100%{ stroke-dashoffset: 0;}}@keyframes dhaJUune_draw_7{16.28919256381798%{stroke-dashoffset: 134}23.26061320754717%{ stroke-dashoffset: 0;}100%{ stroke-dashoffset: 0;}}@keyframes dhaJUune_draw_8{23.26061320754717%{stroke-dashoffset: 32}24.925430077691455%{ stroke-dashoffset: 0;}100%{ stroke-dashoffset: 0;}}@keyframes dhaJUune_draw_9{24.925430077691452%{stroke-dashoffset: 32}26.590246947835738%{ stroke-dashoffset: 0;}100%{ stroke-dashoffset: 0;}}@keyframes dhaJUune_draw_10{26.590246947835738%{stroke-dashoffset: 34}28.35911487236404%{ stroke-dashoffset: 0;}100%{ stroke-dashoffset: 0;}}@keyframes dhaJUune_draw_11{28.35911487236404%{stroke-dashoffset: 34}30.12798279689234%{ stroke-dashoffset: 0;}100%{ stroke-dashoffset: 0;}}@keyframes dhaJUune_draw_12{30.127982796892343%{stroke-dashoffset: 39}32.15697835738069%{ stroke-dashoffset: 0;}100%{ stroke-dashoffset: 0;}}@keyframes dhaJUune_draw_13{32.15697835738069%{stroke-dashoffset: 36}34.029897336293004%{ stroke-dashoffset: 0;}100%{ stroke-dashoffset: 0;}}@keyframes dhaJUune_draw_14{34.029897336293004%{stroke-dashoffset: 38}36.006867369589344%{ stroke-dashoffset: 0;}100%{ stroke-dashoffset: 0;}}@keyframes dhaJUune_draw_15{36.006867369589344%{stroke-dashoffset: 34}37.775735294117645%{ stroke-dashoffset: 0;}100%{ stroke-dashoffset: 0;}}@keyframes dhaJUune_draw_16{37.77573529411765%{stroke-dashoffset: 76}41.729675360710324%{ stroke-dashoffset: 0;}100%{ stroke-dashoffset: 0;}}@keyframes dhaJUune_draw_17{41.729675360710324%{stroke-dashoffset: 63}45.00728357380688%{ stroke-dashoffset: 0;}100%{ stroke-dashoffset: 0;}}@keyframes dhaJUune_draw_18{45.00728357380688%{stroke-dashoffset: 63}48.28489178690344%{ stroke-dashoffset: 0;}100%{ stroke-dashoffset: 0;}}@keyframes dhaJUune_draw_19{48.28489178690344%{stroke-dashoffset: 63}51.562499999999986%{ stroke-dashoffset: 0;}100%{ stroke-dashoffset: 0;}}</style></svg>