<?xml version="1.0" encoding="UTF-8"?>
<svg id="Calque_2" data-name="Calque 2" xmlns="http://www.w3.org/2000/svg" viewBox="0 0 396.85 357.22">
  <defs>
    <style>
      .cls-1 {
        fill: #028495;
      }

      .cls-2 {
        fill: #013b4a;
      }

      .cls-3 {
        fill: #ff8e9f;
      }
    </style>
  </defs>
  <g id="Calque_1-2" data-name="Calque 1">
    <g>
      <path class="cls-2" d="M0,157.2c0-17.97,11.52-25.13,22.41-25.13,6.53,0,13.16,2.09,17.79,9.44l-9.26,7.8c-2.18-2.99-4.54-5.26-7.89-5.26-4.99,0-7.89,4.36-7.89,12.52s3.08,12.98,9.16,12.98c3.18,0,5.81-1.09,9.53-3.72l5.35,10.25c-4.17,3.18-9.89,5.26-17.06,5.26-13.61,0-22.14-8.35-22.14-24.14"/>
      <path class="cls-2" d="M65.15,132.07c14.61,0,21.96,8.26,21.96,24.32s-7.71,24.95-20.24,24.95c-2.36,0-5.08-.63-6.8-1.45v19.06h-15.15v-63.43c7.35-2.54,15.52-3.45,20.23-3.45m6.71,25.04c0-8.08-1.36-13.61-7.26-13.61-1.82,0-3.45,.36-4.54,.73v24.77c1.18,.82,3.27,1.27,4.99,1.27,5.26,0,6.81-5.35,6.81-13.16"/>
      <path class="cls-2" d="M94.37,164.01v-47.18h15.24v16.7h11.34v11.7h-11.34v18.15c0,4.99,2.36,6.53,5.44,6.53,1.72,0,3.45-.73,4.9-1.54l3.36,9.62c-2.81,1.9-7.9,3.36-12.98,3.36-14.88,0-15.97-8.8-15.97-17.33"/>
      <polygon class="cls-2" points="71.07 217.98 71.07 205.79 114.42 205.79 114.42 217.98 99.45 217.98 99.45 259.87 85.55 259.87 85.55 217.98 71.07 217.98"/>
      <path class="cls-2" d="M115.31,218.31h10.9l1.14,5.69c2.11-5.12,6.18-6.99,9.51-6.99,2.28,0,4.88,.49,6.67,1.55l-1.87,11.38c-1.79-.81-3.82-1.46-5.86-1.46-3.5,0-5.85,2.11-5.94,5.94v25.45h-13.58v-33.75l-.98-7.81Z"/>
      <path class="cls-2" d="M124.4,176.26l3.9-10.62c3.36,2.09,9.44,4.63,13.7,4.63,2.45,0,4.17-1.09,4.17-3.45,0-2.72-2.54-3.63-5.81-4.72-6.71-2.09-14.43-4.45-14.43-14.25s8.44-15.79,18.15-15.79c7.26,0,13.7,2.72,18.15,6.81l-6.81,8.71c-3.99-3.09-7.71-4.72-10.53-4.72-2.54,0-4.17,1.36-4.17,3.54,0,2.63,2.63,3.72,6.26,4.99,6.62,2.27,14.25,4.9,14.25,14.43,0,10.16-7.44,15.52-18.6,15.52-8.35,0-15.43-2.99-18.24-5.08"/>
      <path class="cls-2" d="M144.35,240.19c0-11.79,7.07-23.18,20.9-23.18,8.54,0,14.23,4.15,14.23,12.77,0,11.71-12.69,14.23-21.31,14.72,.57,3.5,3.09,6.59,8.05,6.59,3.9,0,7.48-1.79,10-3.5l3.66,8.95c-.41,.41-6.59,4.63-15.61,4.63-14.23,0-19.92-8.62-19.92-20.98m22.12-46.19c2.77,.73,7.4,2.6,7.4,6.26,0,1.38-.81,2.77-2.68,4.72-3.17,3.09-8.29,6.99-10.98,9.03l-3.82-3.25,10.08-16.75Zm1.3,35.86c0-2.03-1.3-3.33-3.34-3.33-4.07,0-6.59,3.82-6.83,9.43,4.39-.24,10.17-2.11,10.17-6.1"/>
      <path class="cls-2" d="M187.28,270.03c0-5.86,3.33-10.57,8.7-14.47-6.67-.98-12.69-6.59-12.69-17.24,0-13.99,8.86-21.31,21.39-21.31,4.88,0,11.96,1.06,16.67,3.01v33.26c0,2.03-.16,7.24-.41,9.27-1.14,11.79-7.32,18.87-19.03,18.87-9.76,0-14.64-4.47-14.64-11.38m20.49-26.84v-16.1c-.97-.33-2.03-.49-3.25-.49-5.04,.08-7.64,4.88-7.64,11.47,0,5.29,.65,10.82,5.86,10.82,2.77,0,5.04-1.87,5.04-5.69m.24,19.92v-7.32c-4.88,2.77-9.03,6.75-9.03,11.79,0,2.93,1.55,4.15,3.99,4.15,3.9,0,5.04-3.09,5.04-8.62"/>
      <path class="cls-2" d="M227.3,239.37c0-17.08,11.14-22.36,20.01-22.36,6.42,0,18.95,1.95,18.95,21.06,0,15.29-8.94,23.09-20.17,23.09s-18.78-6.99-18.78-21.79m24.97-.08c0-8.3-1.38-12.52-5.53-12.52-3.82,0-5.53,4.39-5.53,11.06,0,7.07,.65,13.42,5.53,13.42,3.99,0,5.53-3.98,5.53-11.95"/>
      <path class="cls-2" d="M271.62,218.31h10.9l1.14,5.69c2.11-5.12,6.18-6.99,9.51-6.99,2.28,0,4.88,.49,6.67,1.55l-1.87,11.38c-1.79-.81-3.82-1.46-5.86-1.46-3.5,0-5.85,2.11-5.94,5.94v25.45h-13.58v-33.75l-.98-7.81Z"/>
      <g>
        <path class="cls-1" d="M29.3,237.38c0,2.73,.53,4.96,2.52,4.96,1.35,0,2.23-1.03,2.23-1.95v-8.58c-.36-.14-.81-.28-1.38-.28-2.73,0-3.37,3.01-3.37,5.85Z"/>
        <path class="cls-1" d="M54.62,246.03l-.28-1.74h-.14c-1.1,1.49-2.77,2.2-4.64,2.2-4.04,0-6.03-2.13-6.03-6.42v-12.16h5.92v11.38c0,1.63,.21,2.73,1.74,2.73,1.21,0,2.13-1.17,2.13-2.41v-11.7h4.58c-2.87-10.91-12.78-18.97-24.59-18.97-14.06,0-25.46,11.4-25.46,25.46s11.4,25.46,25.46,25.46c9.87,0,18.41-5.63,22.63-13.84h-1.31Zm-19.29,0l-.32-1.7h-.21c-.67,1.24-2.27,2.27-4.33,2.27-5.92,0-7.05-4.64-7.05-8.72,0-6.17,3.08-10.53,8.9-10.53,.78,0,1.31,.11,1.74,.21v-6.17h5.85v20.78l.39,3.87h-4.96Z"/>
      </g>
      <g>
        <path class="cls-1" d="M9.89,301.77c0-7.11,4.3-9.46,8.32-9.46,2.67,0,5.05,1.11,6.62,3.73l-3.24,2.32c-1.08-1.46-2.19-2.19-3.49-2.19-2.05,0-3.46,1.78-3.46,5.32s1.16,5.65,3.78,5.65c1.38,0,2.62-.73,3.78-1.78l2.35,3c-1.94,1.78-3.89,2.57-6.38,2.57-5.08,0-8.3-3.13-8.3-9.16"/>
        <path class="cls-1" d="M24.99,303.79c0-5.67,3.7-7.43,6.65-7.43,2.13,0,6.3,.65,6.3,7,0,5.08-2.97,7.67-6.7,7.67s-6.24-2.32-6.24-7.24m8.3-.03c0-2.76-.46-4.16-1.84-4.16-1.27,0-1.84,1.46-1.84,3.67,0,2.35,.22,4.46,1.84,4.46,1.32,0,1.84-1.32,1.84-3.97"/>
        <path class="cls-1" d="M39.72,296.79h3.7l.3,1.43c.84-1.13,1.95-1.86,3.73-1.86,1.59,0,2.84,.57,3.57,1.78,.81-1.08,1.97-1.78,3.7-1.78,2.67,0,4.27,1.51,4.27,4.81v9.43h-4.51v-8.67c0-1.22-.14-2.11-1.24-2.11-1.03,0-1.49,.84-1.49,2v8.78h-4.51v-8.67c0-1.19-.11-2.11-1.22-2.11s-1.51,.84-1.51,2.03v8.75h-4.48v-11.05l-.3-2.76Z"/>
        <path class="cls-1" d="M61.36,296.79h3.7l.3,1.43c.84-1.13,1.95-1.86,3.73-1.86,1.59,0,2.84,.57,3.57,1.78,.81-1.08,1.97-1.78,3.7-1.78,2.67,0,4.27,1.51,4.27,4.81v9.43h-4.51v-8.67c0-1.22-.14-2.11-1.24-2.11-1.03,0-1.49,.84-1.49,2v8.78h-4.51v-8.67c0-1.19-.11-2.11-1.22-2.11s-1.51,.84-1.51,2.03v8.75h-4.48v-11.05l-.3-2.76Z"/>
        <path class="cls-1" d="M83.21,306.06v-9.27h4.51v8.67c0,1.24,.16,2.08,1.32,2.08,.92,0,1.62-.89,1.62-1.84v-8.92h4.51v11.19l.3,2.62h-3.81l-.22-1.32h-.11c-.84,1.13-2.11,1.67-3.54,1.67-3.08,0-4.59-1.62-4.59-4.89"/>
        <path class="cls-1" d="M97.75,296.79h3.73l.27,1.46c.86-1.16,2.13-1.89,3.94-1.89,2.65,0,4.32,1.49,4.32,4.78v9.46h-4.51v-8.67c0-1.27-.16-2.11-1.24-2.11s-1.73,.86-1.73,2v8.78h-4.48v-11.05l-.3-2.76Z"/>
        <path class="cls-1" d="M112.01,304.31c0-4.75,2.49-7.94,7.32-7.94,.95,0,3.05,.24,5.21,1.08v10.24l.3,2.92h-3.81l-.21-1.27-.14-.02c-.73,1.05-1.84,1.73-3.38,1.73-4.16,0-5.3-3.24-5.3-6.73m8.08,1.95v-6.51c-.32-.14-.76-.22-1.24-.22-1.78,0-2.38,2.13-2.38,4.46,0,2.08,.38,3.81,1.95,3.81,1.05,0,1.67-.76,1.67-1.54"/>
        <path class="cls-1" d="M127.28,306.06v-9.27h4.51v8.67c0,1.24,.16,2.08,1.32,2.08,.92,0,1.62-.89,1.62-1.84v-8.92h4.51v11.19l.3,2.62h-3.81l-.22-1.32h-.11c-.84,1.13-2.11,1.67-3.54,1.67-3.08,0-4.59-1.62-4.59-4.89"/>
        <path class="cls-1" d="M142.08,305.87v-14.05h4.54v4.97h3.38v3.49h-3.38v5.4c0,1.48,.7,1.94,1.62,1.94,.51,0,1.03-.22,1.46-.46l1,2.86c-.84,.57-2.35,1-3.86,1-4.43,0-4.76-2.62-4.76-5.16"/>
        <path class="cls-1" d="M151.18,304.06c0-3.92,2.35-7.7,6.94-7.7,2.84,0,4.73,1.38,4.73,4.24,0,3.89-4.22,4.73-7.08,4.89,.19,1.16,1.03,2.19,2.67,2.19,1.3,0,2.49-.59,3.33-1.16l1.22,2.97c-.14,.14-2.19,1.54-5.19,1.54-4.73,0-6.62-2.86-6.62-6.97m7.35-15.35c.92,.24,2.46,.87,2.46,2.08,0,.46-.27,.92-.89,1.57-1.05,1.03-2.76,2.32-3.65,3l-1.27-1.08,3.35-5.57Zm.43,11.92c0-.68-.43-1.11-1.11-1.11-1.35,0-2.19,1.27-2.27,3.14,1.46-.08,3.38-.7,3.38-2.03"/>
        <path class="cls-1" d="M174.42,296.93c3.34,0,5.37,1.55,5.37,4.49,0,3.3-2.41,4.98-5.81,4.98h-1.09v4.69h-3.66v-14.16h5.19Zm1.62,4.73c0-1.45-.77-1.85-2.13-1.85h-1.02v3.75h.83c1.41,0,2.32-.42,2.32-1.89"/>
        <path class="cls-1" d="M180.85,300.21h2.85l.3,1.49c.55-1.34,1.62-1.83,2.49-1.83,.6,0,1.28,.13,1.75,.4l-.49,2.98c-.47-.21-1-.38-1.53-.38-.92,0-1.53,.55-1.55,1.55v6.67h-3.56v-8.84l-.25-2.04Z"/>
        <path class="cls-1" d="M188.45,305.73c0-4.47,2.92-5.86,5.24-5.86,1.68,0,4.96,.51,4.96,5.52,0,4-2.34,6.05-5.28,6.05s-4.92-1.83-4.92-5.71m6.54-.02c0-2.17-.36-3.28-1.45-3.28-1,0-1.45,1.15-1.45,2.9,0,1.85,.17,3.51,1.45,3.51,1.04,0,1.45-1.04,1.45-3.13"/>
        <path class="cls-1" d="M204.29,295.53c1.02,0,2.41,.36,3.3,.87l-.79,2.26c-.7-.36-1.45-.53-1.89-.53-.68,0-1.09,.32-1.09,1.26v.83h2.94v2.77h-2.94v12.58h-3.53v-15.82c0-1.96,.4-4.22,4-4.22"/>
        <path class="cls-1" d="M207.23,305.94c0-3.09,1.85-6.07,5.47-6.07,2.24,0,3.73,1.09,3.73,3.34,0,3.07-3.32,3.73-5.58,3.85,.15,.92,.81,1.72,2.11,1.72,1.02,0,1.96-.47,2.62-.92l.96,2.34c-.11,.11-1.72,1.21-4.09,1.21-3.73,0-5.22-2.26-5.22-5.49m6.13-2.7c0-.53-.34-.87-.87-.87-1.07,0-1.73,1-1.79,2.47,1.15-.06,2.66-.56,2.66-1.6"/>
        <path class="cls-1" d="M217.05,310.24l.92-2.49c.79,.49,2.22,1.09,3.22,1.09,.57,0,.98-.25,.98-.81,0-.64-.6-.85-1.36-1.11-1.58-.49-3.39-1.04-3.39-3.34s1.98-3.71,4.26-3.71c1.7,0,3.22,.64,4.26,1.6l-1.6,2.04c-.94-.73-1.81-1.11-2.47-1.11-.6,0-.98,.32-.98,.83,0,.62,.62,.87,1.47,1.17,1.55,.53,3.34,1.15,3.34,3.39,0,2.38-1.75,3.64-4.37,3.64-1.96,0-3.62-.7-4.28-1.19"/>
        <path class="cls-1" d="M226.33,310.24l.92-2.49c.79,.49,2.22,1.09,3.22,1.09,.57,0,.98-.25,.98-.81,0-.64-.6-.85-1.36-1.11-1.58-.49-3.39-1.04-3.39-3.34s1.98-3.71,4.26-3.71c1.7,0,3.22,.64,4.26,1.6l-1.6,2.04c-.94-.73-1.81-1.11-2.47-1.11-.6,0-.98,.32-.98,.83,0,.62,.62,.87,1.47,1.17,1.55,.53,3.34,1.15,3.34,3.39,0,2.38-1.75,3.64-4.37,3.64-1.96,0-3.62-.7-4.28-1.19"/>
        <path class="cls-1" d="M236.27,297.08c0-.96,.72-1.77,1.87-1.77s1.89,.81,1.89,1.77-.77,1.77-1.89,1.77-1.87-.74-1.87-1.77m3.69,14.01h-3.58v-10.88h3.58v10.88Z"/>
        <path class="cls-1" d="M241.51,305.73c0-4.47,2.92-5.86,5.24-5.86,1.68,0,4.96,.51,4.96,5.52,0,4-2.34,6.05-5.28,6.05s-4.92-1.83-4.92-5.71m6.54-.02c0-2.17-.36-3.28-1.45-3.28-1,0-1.45,1.15-1.45,2.9,0,1.85,.17,3.51,1.45,3.51,1.04,0,1.45-1.04,1.45-3.13"/>
        <path class="cls-1" d="M253.11,300.21h2.94l.21,1.15c.68-.92,1.68-1.49,3.11-1.49,2.09,0,3.41,1.17,3.41,3.77v7.45h-3.55v-6.84c0-1-.13-1.66-.98-1.66s-1.36,.68-1.36,1.58v6.92h-3.53v-8.71l-.23-2.17Z"/>
        <path class="cls-1" d="M264.65,300.21h2.94l.21,1.15c.68-.92,1.68-1.49,3.11-1.49,2.09,0,3.41,1.17,3.41,3.77v7.45h-3.55v-6.84c0-1-.13-1.66-.98-1.66s-1.36,.68-1.36,1.58v6.92h-3.53v-8.71l-.23-2.17Z"/>
        <path class="cls-1" d="M275.89,305.94c0-3.09,1.85-6.07,5.47-6.07,2.24,0,3.73,1.09,3.73,3.34,0,3.07-3.32,3.73-5.58,3.85,.15,.92,.81,1.72,2.11,1.72,1.02,0,1.96-.47,2.62-.92l.96,2.34c-.11,.11-1.72,1.21-4.09,1.21-3.73,0-5.22-2.26-5.22-5.49m6.13-2.7c0-.53-.34-.87-.87-.87-1.07,0-1.73,1-1.79,2.47,1.15-.06,2.66-.56,2.66-1.6"/>
        <path class="cls-1" d="M286.56,307.24v-10.94h3.56v10.94c0,.96,.25,1.41,.94,1.41,.32,0,.75-.13,1.24-.34l.77,2.34c-.77,.55-2.02,.79-2.98,.79-3.3,0-3.51-2.15-3.51-4.2"/>
        <path class="cls-1" d="M293.73,307.24v-10.94h3.56v10.94c0,.96,.25,1.41,.94,1.41,.32,0,.75-.13,1.24-.34l.77,2.34c-.77,.55-2.02,.79-2.98,.79-3.3,0-3.51-2.15-3.51-4.2"/>
        <path class="cls-1" d="M300.42,305.94c0-3.09,1.85-6.07,5.47-6.07,2.24,0,3.73,1.09,3.73,3.34,0,3.07-3.32,3.73-5.58,3.85,.15,.92,.81,1.72,2.11,1.72,1.02,0,1.96-.47,2.62-.92l.96,2.34c-.11,.11-1.72,1.21-4.09,1.21-3.73,0-5.22-2.26-5.22-5.49m6.13-2.7c0-.53-.34-.87-.87-.87-1.07,0-1.73,1-1.79,2.47,1.15-.06,2.66-.56,2.66-1.6"/>
        <polygon class="cls-1" points="37.97 326.02 37.97 322.94 48.92 322.94 48.92 326.02 45.14 326.02 45.14 336.6 41.63 336.6 41.63 326.02 37.97 326.02"/>
        <path class="cls-1" d="M47.97,331.63c0-2.98,1.79-5.85,5.28-5.85,2.16,0,3.59,1.05,3.59,3.22,0,2.96-3.21,3.6-5.38,3.72,.14,.88,.78,1.67,2.04,1.67,.98,0,1.89-.45,2.53-.88l.93,2.26c-.1,.1-1.67,1.17-3.94,1.17-3.59,0-5.03-2.18-5.03-5.3m5.92-2.61c0-.51-.33-.84-.84-.84-1.03,0-1.66,.97-1.73,2.38,1.11-.06,2.57-.53,2.57-1.54"/>
        <path class="cls-1" d="M58.1,326.1h2.75l.29,1.44c.53-1.3,1.56-1.77,2.4-1.77,.57,0,1.23,.12,1.68,.39l-.47,2.88c-.45-.2-.96-.37-1.48-.37-.88,0-1.48,.53-1.5,1.5v6.43h-3.43v-8.53l-.25-1.97Z"/>
        <path class="cls-1" d="M66.13,326.1h2.75l.29,1.44c.53-1.3,1.56-1.77,2.4-1.77,.57,0,1.23,.12,1.68,.39l-.47,2.88c-.45-.2-.96-.37-1.48-.37-.88,0-1.48,.53-1.5,1.5v6.43h-3.43v-8.53l-.25-1.97Z"/>
        <path class="cls-1" d="M74.14,323.08c0-.93,.7-1.71,1.81-1.71s1.83,.78,1.83,1.71-.74,1.7-1.83,1.7-1.81-.72-1.81-1.7m3.55,13.52h-3.45v-10.5h3.45v10.5Z"/>
        <path class="cls-1" d="M79.69,333.01v-10.68h3.45v3.78h2.57v2.65h-2.57v4.11c0,1.13,.54,1.48,1.23,1.48,.39,0,.78-.16,1.11-.35l.76,2.18c-.64,.43-1.79,.76-2.94,.76-3.37,0-3.62-1.99-3.62-3.92"/>
        <path class="cls-1" d="M86.61,331.42c0-4.31,2.81-5.65,5.05-5.65,1.62,0,4.79,.49,4.79,5.32,0,3.86-2.26,5.83-5.09,5.83s-4.75-1.77-4.75-5.51m6.31-.02c0-2.09-.35-3.16-1.4-3.16-.96,0-1.4,1.11-1.4,2.79,0,1.79,.16,3.39,1.4,3.39,1.01,0,1.4-1.01,1.4-3.02"/>
        <path class="cls-1" d="M97.8,326.1h2.75l.29,1.44c.53-1.3,1.56-1.77,2.4-1.77,.57,0,1.23,.12,1.68,.39l-.47,2.88c-.45-.2-.96-.37-1.48-.37-.88,0-1.48,.53-1.5,1.5v6.43h-3.43v-8.53l-.25-1.97Z"/>
        <path class="cls-1" d="M105.81,323.08c0-.93,.7-1.71,1.81-1.71s1.83,.78,1.83,1.71-.74,1.7-1.83,1.7-1.81-.72-1.81-1.7m3.55,13.52h-3.45v-10.5h3.45v10.5Z"/>
        <path class="cls-1" d="M110.87,331.82c0-3.62,1.89-6.04,5.57-6.04,.72,0,2.32,.19,3.96,.82v7.79l.23,2.22h-2.9l-.16-.96-.1-.02c-.55,.8-1.4,1.31-2.57,1.31-3.16,0-4.03-2.46-4.03-5.11m6.14,1.48v-4.95c-.25-.1-.57-.17-.94-.17-1.36,0-1.81,1.62-1.81,3.39,0,1.58,.29,2.9,1.48,2.9,.8,0,1.27-.57,1.27-1.17"/>
        <path class="cls-1" d="M122.47,332.88v-10.56h3.43v10.56c0,.93,.25,1.36,.9,1.36,.31,0,.72-.12,1.19-.33l.74,2.26c-.74,.53-1.95,.76-2.88,.76-3.18,0-3.39-2.07-3.39-4.05"/>
        <path class="cls-1" d="M128.92,331.63c0-2.98,1.79-5.85,5.28-5.85,2.16,0,3.59,1.05,3.59,3.22,0,2.96-3.2,3.6-5.38,3.72,.14,.88,.78,1.67,2.04,1.67,.99,0,1.89-.45,2.53-.88l.93,2.26c-.1,.1-1.66,1.17-3.94,1.17-3.59,0-5.03-2.18-5.03-5.3m5.92-2.61c0-.51-.33-.84-.84-.84-1.03,0-1.66,.97-1.73,2.38,1.11-.06,2.57-.53,2.57-1.54"/>
        <path class="cls-1" d="M142.81,331.88c0-3.57,1.79-6.1,5.16-6.1,.45,0,.76,.06,1.01,.12v-3.57h3.39v12.04l.22,2.24h-2.88l-.18-.99h-.12c-.39,.72-1.31,1.31-2.51,1.31-3.43,0-4.09-2.69-4.09-5.05m6.16,1.46v-4.97c-.21-.08-.47-.17-.8-.17-1.58,0-1.95,1.75-1.95,3.39s.31,2.88,1.46,2.88c.78,0,1.29-.6,1.29-1.13"/>
        <path class="cls-1" d="M154,331.63c0-2.98,1.79-5.85,5.28-5.85,2.16,0,3.59,1.05,3.59,3.22,0,2.96-3.2,3.6-5.38,3.72,.14,.88,.78,1.67,2.04,1.67,.99,0,1.89-.45,2.53-.88l.93,2.26c-.1,.1-1.66,1.17-3.94,1.17-3.59,0-5.03-2.18-5.03-5.3m5.92-2.61c0-.51-.33-.84-.84-.84-1.03,0-1.66,.97-1.73,2.38,1.11-.06,2.57-.53,2.57-1.54"/>
        <path class="cls-1" d="M169.23,342.33l2-4.75c1.52,.95,4.47,2.07,6.4,2.07,1.29,0,2.34-.44,2.34-1.97,0-1.42-1.42-1.9-3.39-2.51-2.88-.85-6.51-2.24-6.51-6.78s3.49-7.08,8.17-7.08c3.22,0,6.3,1.32,8.3,3.35l-3.02,3.83c-1.8-1.32-3.7-2.3-5.22-2.3-1.15,0-2.17,.47-2.17,1.73,0,1.46,1.56,1.97,3.66,2.64,3.08,1.02,6.4,2.34,6.4,6.88s-3.56,7.22-8.61,7.22c-3.39,0-6.95-1.36-8.37-2.34"/>
        <path class="cls-1" d="M188.14,336.37c0-5.96,3.12-9.96,9.19-9.96,1.19,0,3.83,.3,6.54,1.35v12.84l.37,3.66h-4.78l-.27-1.59-.17-.03c-.92,1.32-2.31,2.17-4.24,2.17-5.22,0-6.64-4.07-6.64-8.44m10.13,2.44v-8.17c-.41-.17-.95-.27-1.56-.27-2.24,0-2.98,2.68-2.98,5.59,0,2.61,.47,4.78,2.44,4.78,1.32,0,2.1-.95,2.1-1.93"/>
        <path class="cls-1" d="M207.01,326.95h4.68l.34,1.83c1.08-1.46,2.68-2.37,4.95-2.37,3.32,0,5.42,1.86,5.42,6v11.86h-5.66v-10.88c0-1.59-.2-2.64-1.56-2.64s-2.17,1.09-2.17,2.51v11.02h-5.63v-13.86l-.37-3.46Z"/>
        <path class="cls-1" d="M225.72,338.34v-17.62h5.69v6.24h4.24v4.37h-4.24v6.78c0,1.86,.88,2.44,2.03,2.44,.64,0,1.29-.27,1.83-.58l1.25,3.59c-1.05,.71-2.95,1.26-4.85,1.26-5.56,0-5.96-3.29-5.96-6.47"/>
        <path class="cls-1" d="M237.14,336.07c0-4.91,2.95-9.66,8.71-9.66,3.56,0,5.93,1.73,5.93,5.32,0,4.88-5.29,5.93-8.88,6.13,.24,1.46,1.29,2.75,3.35,2.75,1.63,0,3.12-.74,4.17-1.46l1.52,3.73c-.17,.17-2.75,1.93-6.51,1.93-5.93,0-8.3-3.59-8.3-8.74m9.22-19.25c1.15,.31,3.08,1.08,3.08,2.61,0,.58-.34,1.15-1.12,1.97-1.32,1.29-3.46,2.91-4.58,3.76l-1.59-1.36,4.2-6.98Zm.54,14.95c0-.85-.54-1.39-1.39-1.39-1.69,0-2.75,1.59-2.85,3.93,1.83-.1,4.24-.88,4.24-2.54"/>
      </g>
      <g>
        <path class="cls-3" d="M203.05,92.96c-.44-.7-.85-1.46-1.51-1.97-.65-.52-1.64-.73-2.31-.24-.45,.32-.67,.89-.69,1.45-.02,.55,.15,1.1,.35,1.61,.14,.37,.31,.73,.58,1.01,.26,.27,.61,.45,.95,.63,1.81,.93,3.71,1.88,5.74,1.89,.19,0,.27-.22,.18-.37-.15-.28-.51-.53-.74-.75-.32-.33-.63-.67-.93-1.02-.6-.7-1.14-1.44-1.63-2.22"/>
        <path class="cls-3" d="M198.38,98.01c-1.32-.13-2.7-.25-3.93,.25-.95,.38-1.75,1.14-2.18,2.07-.42,.91-.49,2.01,0,2.89,.59,1.06,1.88,1.57,3.09,1.53,1.21-.04,2.35-.55,3.42-1.12,.94-.5,1.84-1.06,2.74-1.61,.81-.5,1.61-.99,2.42-1.49,.4-.25,.81-.5,1.21-.75,.23-.14,.89-.4,.8-.76-.11-.43-1.04-.37-1.36-.4-.69-.07-1.38-.14-2.07-.2-1.38-.14-2.76-.27-4.14-.41"/>
        <g>
          <path class="cls-1" d="M267.99,129.62c-2.15,2.29-6.52,4.15-8.01,4.14s-2.22-.27-2.51-1.5c-1.4-5.93,8.19-13.72,13.86-15.11,.08-.02,.15,.08,.08,.15-2.7,2.65-5.82,6.77-6.7,9.12,3.52-2.75,7.01-5.78,8.23-11.07,.02-.09,.15-.07,.15,.02,.06,8.31-3.01,12.03-5.11,14.26Z"/>
          <path class="cls-1" d="M301.95,83.76c-3.74-1.67-6.8,2.92-8.5,5.69-.85,1.4-1.56,2.94-1.93,4.54,.05-1.65-.24-3.31-.71-4.88-.88-2.91-2.77-8.96-7.06-7.84-2.45,.64-2.04,4.08-1.6,5.93,.31,1.26,.77,2.21,1.62,3.17,.6,.68,1.05,1.47,1.66,2.14,.37,.41,1.41,1.79,1.97,1.84-2.88-.27-5.4-.15-8.17,.83-2.1,.74-4.15,1.63-4.06,4.1,.03,.86,.31,1.74,.9,2.37,2.19,2.38,6.63,.47,9.02-.52,1.11-.46,2.21-1.02,3.2-1.72-.75,.96-1.38,2.02-1.9,3.1-1.12,2.33-3.36,6.66-.73,8.73,1.04,.81,2.6,.58,3.68-.18,2.83-2,3.77-5.14,4.01-8.42,.01-.15,0-.31,0-.47,.12,.1,.24,.2,.37,.29,1.72,1.16,3.58,2.14,5.58,2.7,2.42,.67,5.66,.73,6.17-2.44,.63-3.93-4.73-5.18-7.55-5.81-1.21-.27-2.47-.43-3.73-.42,1.14-.18,2.23-.6,3.13-1.28,2.16-1.63,4.1-3.6,5.29-6.06,.83-1.71,2.01-3.76-.04-5.05-.22-.14-.43-.25-.65-.35m-7.06,9.56c-.98,1.23-2.11,2.36-3.14,3.48,2.45,1.66,5.35,2.51,7.85,4.19-1.69-.18-3.34-.62-4.9-1.29-.44-.19-3.35-1.67-3.28-2.03-.31,1.57-.53,3.19-1.02,4.7-.24,.72-.5,1.44-.82,2.13-.22,.48-.96,1.35-1,1.85,.24-3.2,1.02-6.37,2.29-9.32-3.02,1.1-6.22,1.7-9.44,1.76,1.49-.82,3.1-1.41,4.76-1.76,.82-.17,1.64-.24,2.46-.34,.28-.04,.54-.07,.81-.07,.09,0,1.14-.2,1.08-.26,.09,0-.43-.93-.48-1-.17-.22-.31-.44-.46-.67-.44-.71-.91-1.39-1.29-2.13-.78-1.5-1.34-3.13-1.65-4.8,1.98,2.53,3.54,5.39,4.59,8.43,1.59-2.38,3.75-3.86,5.56-6.01-.46,1.14-1.14,2.17-1.92,3.15"/>
          <path class="cls-1" d="M377.65,118.05c2.63,1.11,5.59,4.23,6.06,5.5s.47,1.97-.48,2.61c-4.6,3.07-14.27-2.63-17.24-7.01-.04-.07,.03-.15,.1-.12,3.11,1.46,7.6,2.81,9.88,2.81-3.45-2.13-7.13-4.13-12.03-3.5-.08,.01-.11-.1-.03-.13,7.05-2.68,11.19-1.24,13.75-.16Z"/>
          <path class="cls-1" d="M311.32,7.18c.77-2.74,3.5-6.08,4.7-6.7s1.9-.72,2.64,.15c3.62,4.18-.82,14.48-4.79,17.99-.06,.05-.15,0-.13-.08,1.06-3.27,1.84-7.9,1.56-10.16-1.68,3.69-3.21,7.6-1.97,12.37,.02,.08-.09,.12-.12,.05-3.54-6.66-2.63-10.94-1.88-13.62Z"/>
          <path class="cls-1" d="M201.88,75.52c-2.65-1.04-5.7-4.08-6.2-5.34-.5-1.26-.52-1.96,.41-2.62,4.52-3.19,14.33,2.25,17.42,6.55,.05,.06-.02,.15-.09,.12-3.15-1.38-7.68-2.61-9.95-2.55,3.51,2.03,7.24,3.94,12.11,3.18,.08-.01,.11,.1,.03,.13-6.98,2.87-11.15,1.54-13.74,.53Z"/>
          <path class="cls-3" d="M345.82,138.45c-.24-.02-.54-.14-.75-.22-.36-.13-.72-.26-1.07-.44-.58-.3-1.12-.75-1.34-1.36-.22-.61-.01-1.4,.57-1.69,.31-.16,.67-.15,1.02-.15,.22,0,.45,0,.65,.09,.53,.22,.72,.86,.85,1.41,.14,.61,.27,1.22,.41,1.83,.1,.43-.08,.54-.34,.52"/>
          <path class="cls-3" d="M346.67,137.97c-.03-.91-.06-1.82,.08-2.72,.1-.66,.31-1.32,.73-1.84,.41-.52,1.06-.89,1.72-.85,.39,.02,.76,.19,1.11,.37,.65,.35,1.3,.89,1.39,1.62,.05,.45-.13,.9-.4,1.27-.27,.37-.63,.65-.99,.93-.52,.4-1.06,.8-1.67,1.06-.61,.26-1.3,.37-1.94,.18"/>
          <path class="cls-3" d="M351.94,137.93c.63-.15,1.26-.34,1.91-.27,.64,.07,1.3,.49,1.41,1.12,.07,.42-.11,.86-.4,1.18-.29,.31-.68,.53-1.07,.7-.28,.12-.57,.23-.87,.24-.3,0-.58-.08-.86-.17-1.51-.47-3.08-.97-4.21-2.08-.11-.1-.03-.27,.1-.31,.24-.07,.57-.01,.82-.02,.36,0,.71-.03,1.07-.06,.71-.06,1.42-.18,2.11-.35"/>
          <path class="cls-3" d="M351.79,143.26c.8,.65,1.63,1.33,2.05,2.27,.32,.73,.35,1.58,.08,2.33-.26,.73-.82,1.38-1.57,1.6-.9,.26-1.9-.15-2.55-.83-.65-.68-1.01-1.58-1.29-2.48-.25-.79-.44-1.59-.64-2.39l-.53-2.14c-.09-.36-.18-.71-.26-1.07-.05-.2-.28-.71-.03-.85,.29-.18,.78,.36,.97,.52,.42,.34,.84,.67,1.26,1.01,.84,.67,1.68,1.35,2.52,2.03"/>
          <path class="cls-3" d="M346.86,142.63c.11,.53,.22,1.08,.22,1.62,.03,1.66-.86,3.3-2.26,4.18-.6,.38-1.48,.57-1.93,.03-.15-.19-.22-.43-.27-.67-.25-1.42,.33-2.85,1.05-4.1,.39-.67,.81-1.31,1.2-1.98,.19-.33,.37-.67,.53-1.02,.08-.17,.24-.91,.51-.82,.08,.03,.13,.11,.18,.18,.42,.77,.58,1.7,.77,2.56"/>
          <path class="cls-3" d="M341.13,143.28c-.07,0-.14,0-.21,0-.75,0-1.92-.5-2.19-1.29-.26-.74,.44-1.98,1.02-2.4,.25-.19,.54-.31,.83-.43,1.02-.43,2.09-.87,3.19-.74,.48,.05,.93,.21,1.37,.39,.25,.1,.77,.28,.55,.64-.14,.23-.39,.45-.57,.66-.22,.26-.44,.52-.67,.77-.54,.58-1.14,1.07-1.69,1.62-.44,.44-1.02,.73-1.63,.78"/>
          <path class="cls-3" d="M368.84,96.21c-.23-.2-.63-.36-.89-.47-.45-.2-.9-.41-1.38-.56-.8-.25-1.7-.33-2.46,.04-.75,.37-1.28,1.28-1.01,2.07,.15,.42,.48,.75,.81,1.06,.21,.19,.42,.39,.68,.5,.68,.28,1.43-.14,2.05-.54,.68-.44,1.35-.88,2.03-1.32,.47-.31,.41-.57,.16-.78"/>
          <path class="cls-3" d="M369.2,97.42c-.85,.8-1.7,1.62-2.38,2.57-.5,.7-.9,1.49-.99,2.34-.09,.85,.17,1.77,.82,2.33,.38,.33,.87,.52,1.36,.66,.92,.27,2,.36,2.74-.24,.45-.37,.7-.95,.78-1.52,.08-.58,.01-1.17-.07-1.75-.12-.84-.25-1.69-.58-2.48-.33-.79-.86-1.51-1.62-1.91"/>
          <path class="cls-3" d="M374.01,102.21c.44,.7,.85,1.46,1.51,1.97,.65,.52,1.64,.73,2.31,.24,.45-.32,.67-.89,.69-1.45,.02-.55-.15-1.1-.35-1.61-.14-.37-.31-.73-.58-1.01-.26-.27-.61-.45-.95-.63-1.81-.93-3.71-1.88-5.74-1.89-.19,0-.27,.22-.18,.37,.15,.28,.51,.53,.74,.75,.32,.33,.63,.67,.93,1.02,.6,.7,1.14,1.44,1.63,2.22"/>
          <path class="cls-3" d="M378.68,97.16c1.32,.13,2.7,.25,3.93-.25,.95-.38,1.75-1.14,2.18-2.07,.42-.91,.49-2.01,0-2.89-.59-1.06-1.88-1.57-3.09-1.53-1.21,.04-2.35,.55-3.42,1.12-.94,.5-1.84,1.06-2.74,1.61-.81,.5-1.61,.99-2.42,1.49-.4,.25-.81,.5-1.21,.75-.23,.14-.89,.4-.8,.76,.11,.43,1.04,.37,1.36,.4,.69,.07,1.38,.14,2.07,.2,1.38,.14,2.76,.27,4.14,.41"/>
          <path class="cls-3" d="M373.57,93.3c.59-.39,1.17-.79,1.67-1.29,1.52-1.5,2.18-3.81,1.69-5.89-.21-.88-.84-1.86-1.75-1.77-.31,.03-.59,.19-.85,.37-1.51,1.08-2.27,2.92-2.73,4.71-.25,.96-.43,1.94-.68,2.9-.12,.48-.26,.95-.43,1.42-.08,.22-.6,1.06-.26,1.21,.1,.05,.22,.02,.33-.01,1.09-.33,2.07-1.04,3.01-1.66"/>
          <path class="cls-3" d="M368.89,87.53c-.06-.07-.12-.13-.19-.2-.7-.67-2.22-1.27-3.17-.79-.91,.45-1.38,2.22-1.23,3.12,.06,.4,.22,.77,.38,1.15,.55,1.31,1.15,2.69,2.27,3.57,.49,.38,1.05,.65,1.61,.88,.33,.13,.96,.44,1.08-.09,.08-.34,.04-.76,.07-1.12,.04-.44,.06-.87,.07-1.31,.03-1.02-.08-2.01-.1-3.01-.02-.8-.28-1.58-.8-2.19"/>
          <path class="cls-3" d="M290.9,166.85c.12-.21,.17-.54,.22-.77,.08-.38,.17-.77,.21-1.16,.06-.66-.03-1.37-.44-1.9-.41-.52-1.2-.78-1.77-.44-.3,.18-.5,.5-.68,.8-.12,.19-.24,.39-.28,.61-.1,.57,.34,1.09,.75,1.5,.45,.45,.9,.9,1.35,1.36,.32,.32,.51,.22,.63,0"/>
          <path class="cls-3" d="M290.02,167.33c-.76-.52-1.53-1.05-2.38-1.42-.62-.27-1.3-.45-1.98-.38-.67,.07-1.35,.42-1.67,1.02-.19,.35-.26,.76-.29,1.16-.05,.75,.05,1.6,.64,2.08,.36,.29,.85,.39,1.31,.35,.46-.03,.9-.18,1.34-.34,.63-.23,1.27-.47,1.83-.85,.56-.38,1.03-.92,1.22-1.57"/>
          <path class="cls-3" d="M287.1,171.84c-.47,.46-.99,.9-1.28,1.49-.29,.59-.29,1.38,.19,1.83,.33,.29,.8,.37,1.23,.3s.82-.3,1.19-.54c.26-.17,.51-.36,.68-.62,.17-.25,.25-.55,.33-.84,.42-1.55,.85-3.18,.52-4.75-.03-.15-.21-.17-.32-.08-.19,.17-.32,.48-.46,.7-.2,.3-.41,.6-.64,.89-.44,.58-.93,1.12-1.45,1.63"/>
          <path class="cls-3" d="M291.77,174.63c.12,1.04,.25,2.13,.84,3,.45,.67,1.17,1.16,1.96,1.35,.77,.18,1.64,.05,2.23-.47,.72-.63,.91-1.72,.68-2.64-.23-.93-.81-1.73-1.43-2.46-.54-.64-1.12-1.25-1.7-1.86l-1.55-1.63c-.26-.27-.52-.54-.78-.82-.15-.15-.45-.62-.72-.49-.32,.15-.11,.87-.08,1.11l.18,1.64c.12,1.09,.24,2.18,.36,3.27"/>
          <path class="cls-3" d="M293.93,170.04c.4,.39,.81,.77,1.27,1.08,1.41,.93,3.31,1.06,4.83,.34,.65-.31,1.3-.96,1.08-1.64-.08-.24-.25-.43-.43-.6-1.08-.99-2.63-1.28-4.1-1.34-.79-.03-1.57-.02-2.36-.05-.39-.02-.78-.04-1.17-.1-.19-.02-.92-.29-.98,0-.02,.09,.02,.17,.06,.25,.43,.79,1.15,1.43,1.78,2.06"/>
          <path class="cls-3" d="M297.62,165.46c.04-.06,.08-.12,.12-.18,.41-.65,.61-1.92,.09-2.59-.49-.63-1.94-.7-2.62-.44-.3,.12-.56,.3-.82,.48-.93,.64-1.89,1.33-2.39,2.34-.21,.44-.33,.91-.42,1.39-.05,.28-.18,.82,.25,.82,.27,0,.6-.09,.88-.13,.34-.04,.69-.1,1.03-.16,.79-.14,1.54-.39,2.32-.57,.62-.14,1.18-.47,1.56-.98"/>
          <path class="cls-3" d="M244.25,164.61c-.04-.3,.03-.72,.08-1,.07-.49,.14-.98,.27-1.46,.22-.81,.64-1.61,1.35-2.05,.72-.44,1.77-.39,2.29,.26,.28,.35,.37,.81,.46,1.24,.05,.28,.11,.57,.06,.85-.13,.73-.89,1.14-1.56,1.44-.73,.34-1.47,.67-2.2,1.01-.51,.24-.7,.04-.74-.29"/>
          <path class="cls-3" d="M245.08,165.56c1.13-.28,2.28-.57,3.44-.63,.86-.04,1.74,.04,2.51,.42,.77,.38,1.41,1.09,1.53,1.94,.07,.5-.03,1.01-.17,1.5-.27,.92-.77,1.88-1.68,2.18-.55,.19-1.17,.08-1.71-.16-.53-.24-.99-.62-1.44-1-.65-.55-1.3-1.12-1.79-1.82-.49-.7-.81-1.54-.75-2.39"/>
          <path class="cls-3" d="M246.54,172.19c.36,.75,.77,1.5,.85,2.33,.08,.83-.27,1.77-1.04,2.08-.51,.21-1.12,.09-1.59-.19-.48-.28-.84-.71-1.17-1.16-.23-.32-.45-.65-.54-1.03-.09-.37-.05-.76-.02-1.13,.19-2.03,.4-4.14,1.49-5.86,.1-.16,.33-.11,.41,.05,.16,.28,.17,.72,.24,1.03,.1,.45,.22,.89,.36,1.33,.27,.88,.6,1.74,1,2.57"/>
          <path class="cls-3" d="M239.78,173.42c-.6,1.18-1.24,2.42-2.32,3.19-.84,.6-1.9,.86-2.92,.73-.99-.13-1.96-.67-2.43-1.55-.57-1.06-.32-2.43,.37-3.43,.68-1,1.72-1.69,2.78-2.29,.93-.52,1.88-.98,2.83-1.45,.85-.41,1.7-.83,2.56-1.24,.43-.21,.85-.41,1.28-.62,.24-.12,.81-.54,1.07-.27,.31,.32-.25,1.07-.39,1.36-.31,.62-.63,1.24-.94,1.86-.62,1.24-1.25,2.48-1.88,3.71"/>
          <path class="cls-3" d="M239.25,167.03c-.64,.29-1.3,.56-1.98,.72-2.08,.48-4.39-.21-5.87-1.73-.63-.65-1.12-1.71-.56-2.42,.19-.25,.48-.4,.77-.51,1.72-.69,3.68-.35,5.44,.22,.94,.31,1.87,.67,2.81,.98,.47,.15,.94,.29,1.43,.4,.23,.05,1.22,.06,1.16,.43-.01,.11-.1,.2-.18,.27-.86,.74-1.99,1.19-3.02,1.65"/>
          <path class="cls-3" d="M236.9,159.99c-.03-.09-.05-.17-.07-.26-.19-.95,.12-2.55,1.04-3.1,.86-.52,2.61,.03,3.3,.64,.3,.27,.53,.6,.77,.93,.81,1.17,1.65,2.41,1.79,3.83,.06,.61-.02,1.23-.12,1.83-.06,.35-.15,1.05-.66,.87-.33-.11-.67-.38-.98-.54-.39-.2-.77-.42-1.15-.64-.88-.52-1.65-1.15-2.49-1.7-.67-.44-1.19-1.08-1.42-1.85"/>
          <path class="cls-3" d="M285.19,17.4c-.15,.27-.22,.69-.28,.97-.1,.48-.21,.97-.26,1.46-.08,.84,.03,1.73,.55,2.39,.52,.66,1.52,.99,2.24,.56,.38-.23,.63-.63,.86-1.01,.15-.24,.3-.49,.35-.77,.13-.73-.43-1.37-.95-1.9-.57-.57-1.14-1.14-1.71-1.71-.4-.4-.64-.28-.8,.01"/>
          <path class="cls-3" d="M286.3,16.8c.96,.66,1.93,1.33,3.01,1.79,.79,.34,1.65,.57,2.5,.48,.85-.09,1.7-.53,2.12-1.28,.24-.44,.33-.96,.36-1.46,.07-.95-.06-2.03-.81-2.63-.45-.37-1.07-.49-1.65-.45-.58,.04-1.14,.23-1.7,.43-.8,.29-1.61,.6-2.31,1.08-.7,.48-1.3,1.16-1.54,1.98"/>
          <path class="cls-3" d="M289.99,11.1c.6-.58,1.25-1.14,1.62-1.88,.37-.75,.37-1.75-.24-2.31-.41-.37-1.01-.47-1.56-.38-.55,.1-1.04,.37-1.5,.68-.33,.22-.65,.46-.87,.78-.21,.32-.32,.69-.42,1.06-.53,1.96-1.07,4.02-.65,6.01,.04,.19,.27,.22,.4,.1,.24-.21,.41-.61,.59-.88,.25-.38,.52-.76,.8-1.12,.56-.73,1.17-1.42,1.83-2.06"/>
          <path class="cls-3" d="M284.09,7.58c-.15-1.32-.31-2.7-1.06-3.79-.57-.85-1.48-1.47-2.48-1.7-.97-.23-2.07-.06-2.82,.6-.91,.8-1.14,2.17-.86,3.34,.29,1.17,1.02,2.19,1.8,3.11,.68,.81,1.42,1.58,2.15,2.35,.65,.69,1.31,1.37,1.96,2.06,.33,.34,.65,.69,.98,1.03,.18,.19,.57,.79,.91,.62,.4-.19,.14-1.09,.1-1.41-.08-.69-.15-1.38-.23-2.07-.15-1.38-.31-2.76-.46-4.14"/>
          <path class="cls-3" d="M281.36,13.38c-.5-.49-1.02-.98-1.61-1.36-1.78-1.17-4.18-1.34-6.11-.43-.82,.39-1.65,1.21-1.37,2.08,.1,.3,.31,.54,.54,.75,1.37,1.25,3.32,1.61,5.18,1.69,.99,.04,1.99,.02,2.98,.06,.49,.02,.99,.06,1.48,.13,.23,.03,1.16,.37,1.24,0,.02-.11-.03-.22-.08-.32-.55-.99-1.45-1.81-2.25-2.6"/>
          <path class="cls-3" d="M276.69,19.15c-.05,.07-.1,.15-.15,.22-.51,.82-.78,2.43-.12,3.27,.63,.79,2.46,.89,3.31,.56,.38-.15,.71-.38,1.04-.61,1.17-.81,2.39-1.68,3.02-2.96,.27-.55,.42-1.16,.53-1.76,.06-.35,.23-1.03-.32-1.04-.34,0-.76,.12-1.11,.16-.44,.05-.87,.12-1.3,.2-1,.18-1.95,.49-2.93,.72-.78,.18-1.49,.6-1.98,1.24"/>
          <path class="cls-3" d="M332.81,30.57c.04,.3-.03,.72-.08,1-.07,.49-.14,.98-.27,1.46-.22,.81-.64,1.61-1.35,2.05-.72,.44-1.77,.39-2.29-.26-.28-.35-.37-.81-.46-1.25-.05-.28-.11-.57-.06-.85,.13-.73,.89-1.14,1.56-1.44,.73-.34,1.47-.67,2.2-1.01,.51-.24,.7-.04,.74,.29"/>
          <path class="cls-3" d="M331.98,29.62c-1.13,.28-2.28,.57-3.44,.63-.86,.04-1.74-.04-2.51-.42-.77-.38-1.41-1.1-1.53-1.94-.07-.5,.03-1.01,.17-1.5,.27-.92,.77-1.88,1.68-2.18,.55-.19,1.17-.08,1.71,.16,.53,.24,.99,.62,1.44,1,.65,.55,1.3,1.12,1.79,1.82,.49,.7,.81,1.54,.75,2.39"/>
          <path class="cls-3" d="M330.52,22.99c-.36-.75-.77-1.5-.85-2.33-.08-.83,.27-1.77,1.04-2.08,.51-.21,1.12-.09,1.59,.19,.48,.28,.84,.71,1.17,1.16,.23,.32,.45,.65,.54,1.03,.09,.37,.05,.76,.02,1.13-.19,2.03-.4,4.14-1.49,5.86-.1,.16-.33,.11-.41-.04-.15-.28-.17-.72-.24-1.03-.1-.45-.22-.89-.36-1.33-.27-.88-.6-1.74-1-2.57"/>
          <path class="cls-3" d="M337.28,21.75c.6-1.18,1.24-2.42,2.32-3.19,.84-.6,1.9-.86,2.92-.73,.99,.13,1.96,.67,2.43,1.55,.57,1.06,.32,2.43-.37,3.43s-1.72,1.69-2.78,2.29c-.93,.52-1.88,.98-2.83,1.45-.85,.41-1.7,.83-2.56,1.24-.43,.21-.85,.41-1.28,.62-.24,.12-.81,.54-1.07,.27-.31-.32,.25-1.07,.39-1.36,.31-.62,.63-1.24,.94-1.86,.62-1.24,1.25-2.48,1.88-3.71"/>
          <path class="cls-3" d="M337.8,28.14c.64-.29,1.3-.56,1.98-.72,2.08-.48,4.39,.21,5.87,1.73,.63,.65,1.12,1.71,.56,2.42-.19,.25-.48,.4-.77,.51-1.72,.69-3.68,.35-5.44-.22-.94-.31-1.87-.67-2.81-.98-.47-.15-.94-.29-1.43-.4-.23-.05-1.22-.06-1.16-.43,.01-.11,.1-.2,.18-.27,.86-.74,1.99-1.19,3.02-1.65"/>
          <path class="cls-3" d="M340.16,35.19c.02,.09,.05,.17,.07,.26,.19,.95-.12,2.55-1.04,3.1-.86,.52-2.61-.03-3.3-.64-.3-.27-.53-.6-.77-.93-.81-1.17-1.65-2.41-1.79-3.83-.06-.61,.02-1.23,.12-1.83,.06-.35,.15-1.05,.66-.87,.33,.11,.67,.38,.98,.54,.39,.2,.77,.42,1.15,.64,.88,.52,1.65,1.15,2.49,1.7,.67,.44,1.19,1.08,1.42,1.85"/>
          <path class="cls-3" d="M274.37,88.29c.06,.15,.21,.31,.31,.42,.16,.2,.33,.4,.52,.58,.32,.3,.73,.54,1.16,.54,.44,0,.89-.31,.94-.74,.03-.23-.06-.46-.14-.68-.05-.14-.11-.28-.2-.39-.26-.29-.71-.26-1.09-.21-.42,.05-.84,.11-1.25,.16-.29,.04-.32,.18-.25,.33"/>
          <path class="cls-3" d="M274.48,87.64c.58-.19,1.17-.37,1.7-.67,.39-.21,.76-.5,1-.88,.24-.38,.32-.87,.15-1.28-.1-.24-.29-.44-.49-.62-.37-.33-.86-.62-1.34-.51-.3,.07-.54,.28-.71,.54-.17,.25-.27,.55-.36,.84-.14,.42-.27,.85-.29,1.3-.03,.44,.06,.91,.32,1.27"/>
          <path class="cls-3" d="M273.31,84.3c-.05-.43-.07-.88-.26-1.27s-.6-.71-1.03-.64c-.28,.05-.52,.27-.65,.52-.13,.26-.18,.55-.2,.84-.02,.2-.02,.41,.05,.61,.06,.19,.18,.35,.3,.51,.64,.85,1.31,1.73,2.27,2.19,.09,.04,.18-.04,.17-.13,0-.17-.12-.36-.18-.52-.08-.23-.15-.46-.2-.69-.12-.47-.21-.94-.26-1.42"/>
          <path class="cls-3" d="M269.97,85.61c-.59-.36-1.21-.73-1.9-.78-.53-.03-1.08,.14-1.49,.48-.4,.33-.69,.83-.66,1.35,.04,.63,.53,1.17,1.11,1.42s1.23,.28,1.86,.25c.55-.02,1.1-.08,1.65-.14l1.47-.15c.24-.02,.49-.05,.74-.07,.14-.01,.51,.01,.55-.17,.05-.23-.41-.41-.55-.49-.31-.19-.62-.38-.93-.57l-1.85-1.13Z"/>
          <path class="cls-3" d="M271.49,88.58c-.36,.05-.73,.11-1.08,.23-1.05,.36-1.89,1.29-2.13,2.38-.1,.46-.03,1.07,.42,1.23,.15,.06,.32,.04,.48,.02,.95-.17,1.73-.86,2.35-1.59,.34-.4,.65-.81,.98-1.21,.17-.2,.34-.39,.52-.57,.09-.08,.52-.36,.4-.51-.04-.04-.1-.06-.16-.07-.59-.09-1.21,.02-1.79,.1"/>
          <path class="cls-3" d="M272.38,92.36s.03,.09,.04,.13c.18,.47,.75,1.1,1.31,1.09,.53,0,1.15-.73,1.29-1.19,.06-.2,.07-.41,.08-.62,.04-.74,.07-1.52-.25-2.19-.14-.29-.34-.54-.56-.78-.12-.14-.35-.42-.53-.2-.11,.14-.2,.35-.29,.51-.12,.2-.23,.4-.33,.6-.25,.47-.42,.96-.64,1.44-.18,.38-.23,.81-.12,1.21"/>
          <path class="cls-3" d="M284.38,120.18c.16,.03,.38,0,.52-.03,.26-.03,.51-.06,.77-.12,.43-.1,.85-.31,1.09-.68,.24-.37,.23-.92-.11-1.2-.18-.15-.42-.2-.64-.25-.15-.03-.29-.06-.44-.04-.38,.06-.6,.45-.77,.79-.18,.38-.37,.76-.55,1.14-.13,.27-.03,.36,.14,.39"/>
          <path class="cls-3" d="M283.9,119.73c.16-.59,.32-1.18,.37-1.79,.03-.45,0-.91-.19-1.31-.19-.41-.55-.75-.99-.82-.26-.04-.53,0-.78,.07-.48,.13-.99,.38-1.16,.85-.1,.29-.06,.61,.06,.89,.12,.28,.31,.52,.5,.76,.28,.35,.57,.69,.93,.95,.36,.26,.79,.44,1.24,.42"/>
          <path class="cls-3" d="M280.46,118.89c-.39-.2-.77-.42-1.2-.47-.43-.05-.93,.12-1.1,.52-.11,.26-.06,.58,.08,.83,.14,.25,.36,.45,.59,.62,.16,.12,.34,.24,.53,.29,.19,.05,.39,.04,.59,.02,1.06-.08,2.16-.16,3.07-.71,.08-.05,.06-.17-.02-.21-.15-.08-.37-.1-.53-.14-.23-.06-.46-.13-.69-.2-.45-.15-.9-.34-1.33-.55"/>
          <path class="cls-3" d="M279.73,122.4c-.63,.3-1.28,.62-1.69,1.17-.32,.43-.47,.98-.42,1.51,.06,.52,.33,1.03,.78,1.29,.55,.31,1.26,.19,1.79-.15,.53-.34,.9-.88,1.23-1.42,.28-.48,.54-.97,.79-1.46,.23-.44,.45-.88,.68-1.32,.11-.22,.23-.44,.34-.66,.06-.12,.29-.42,.15-.55-.16-.16-.56,.12-.71,.19l-.98,.47-1.96,.94Z"/>
          <path class="cls-3" d="M283.06,122.75c-.16,.33-.31,.67-.4,1.03-.27,1.08,.06,2.29,.83,3.08,.33,.34,.88,.6,1.26,.32,.13-.1,.21-.25,.28-.39,.38-.89,.23-1.92-.05-2.84-.15-.5-.33-.98-.48-1.48-.07-.25-.14-.5-.19-.75-.02-.12-.01-.64-.21-.61-.06,0-.1,.05-.14,.09-.4,.44-.64,1.02-.9,1.56"/>
          <path class="cls-3" d="M286.7,124.06s.09,.03,.14,.04c.49,.11,1.33-.03,1.63-.5,.28-.44,.01-1.36-.3-1.73-.14-.16-.31-.29-.48-.41-.6-.44-1.24-.89-1.97-.98-.32-.04-.64,0-.96,.04-.18,.03-.55,.06-.46,.33,.06,.17,.19,.35,.27,.52,.1,.2,.21,.41,.32,.61,.26,.46,.58,.87,.86,1.32,.22,.35,.55,.63,.95,.76"/>
          <path class="cls-3" d="M292.42,78.39c.09,.13,.15,.35,.19,.49,.08,.24,.16,.49,.21,.75,.08,.43,.07,.9-.17,1.27-.24,.37-.74,.59-1.13,.4-.21-.1-.36-.3-.5-.48-.09-.12-.18-.24-.22-.38-.1-.37,.16-.74,.4-1.03,.27-.32,.54-.65,.8-.97,.19-.23,.32-.18,.41-.03"/>
          <path class="cls-3" d="M291.81,78.13c-.47,.39-.94,.78-1.48,1.08-.39,.22-.83,.38-1.28,.37-.45,0-.91-.2-1.16-.56-.15-.22-.22-.48-.26-.74-.08-.49-.07-1.06,.29-1.4,.22-.21,.53-.31,.84-.31,.31,0,.61,.07,.9,.14,.43,.11,.86,.23,1.25,.45,.39,.22,.73,.54,.9,.95"/>
          <path class="cls-3" d="M289.62,75.35c-.34-.27-.7-.53-.93-.9-.23-.37-.28-.89,.02-1.21,.2-.21,.5-.29,.79-.27,.29,.02,.56,.14,.81,.28,.18,.1,.36,.2,.49,.36,.13,.15,.2,.34,.27,.53,.37,.99,.75,2.03,.63,3.09-.01,.1-.13,.13-.2,.07-.14-.1-.24-.3-.35-.43-.15-.19-.31-.37-.47-.55-.33-.35-.68-.68-1.05-.98"/>
          <path class="cls-3" d="M292.51,73.23c.01-.69,.03-1.42,.36-2.02,.26-.47,.7-.84,1.21-1,.49-.17,1.07-.13,1.5,.17,.51,.37,.7,1.07,.6,1.69-.09,.62-.42,1.19-.78,1.7-.32,.45-.66,.89-1,1.32-.31,.39-.61,.78-.92,1.16-.15,.19-.31,.39-.46,.58-.09,.11-.26,.44-.44,.37-.22-.08-.12-.56-.12-.72,0-.36,.01-.73,.02-1.09,.01-.72,.03-1.45,.04-2.17"/>
          <path class="cls-3" d="M294.21,76.11c.24-.28,.48-.56,.77-.79,.87-.7,2.11-.9,3.15-.52,.44,.16,.91,.55,.81,1.01-.04,.16-.13,.3-.24,.42-.65,.72-1.65,1-2.61,1.13-.51,.07-1.03,.11-1.55,.18-.25,.03-.51,.08-.76,.14-.12,.03-.58,.25-.64,.06-.02-.05,0-.11,.02-.17,.24-.54,.66-1.01,1.04-1.46"/>
          <path class="cls-3" d="M296.91,78.89s.06,.07,.09,.11c.31,.4,.52,1.22,.22,1.69-.28,.44-1.23,.58-1.69,.45-.2-.06-.39-.16-.57-.26-.65-.37-1.32-.76-1.71-1.39-.17-.27-.27-.58-.36-.89-.05-.18-.17-.52,.11-.56,.18-.02,.4,.02,.58,.03,.23,0,.46,.02,.68,.04,.53,.04,1.04,.16,1.56,.23,.41,.05,.8,.24,1.09,.55"/>
          <path class="cls-3" d="M310.3,107.15c-.06,.15-.21,.31-.3,.43-.16,.2-.33,.4-.52,.58-.32,.3-.72,.55-1.16,.55-.44,0-.89-.3-.95-.73-.03-.23,.05-.46,.13-.68,.05-.14,.1-.28,.2-.39,.26-.29,.7-.27,1.09-.22,.42,.05,.83,.1,1.25,.14,.29,.03,.32,.17,.25,.33"/>
          <path class="cls-3" d="M310.19,106.5c-.58-.18-1.17-.36-1.71-.65-.39-.21-.77-.49-1.01-.87-.24-.38-.33-.87-.16-1.28,.1-.24,.29-.45,.48-.62,.37-.34,.85-.63,1.34-.52,.3,.07,.54,.28,.72,.53,.17,.25,.28,.54,.37,.83,.14,.42,.28,.85,.3,1.29,.03,.44-.05,.91-.31,1.27"/>
          <path class="cls-3" d="M311.33,103.14c.04-.43,.06-.88,.25-1.27,.19-.39,.6-.72,1.02-.65,.28,.05,.52,.26,.66,.51,.14,.26,.18,.55,.21,.83,.02,.2,.02,.41-.04,.61-.06,.19-.18,.35-.3,.51-.63,.85-1.3,1.74-2.25,2.21-.09,.04-.17-.04-.17-.13,0-.17,.12-.36,.17-.52,.07-.23,.14-.46,.2-.69,.12-.47,.2-.94,.25-1.42"/>
          <path class="cls-3" d="M314.68,104.42c.59-.37,1.2-.74,1.9-.8,.53-.04,1.08,.13,1.5,.46,.41,.32,.7,.83,.67,1.35-.03,.63-.52,1.17-1.09,1.43-.57,.26-1.23,.29-1.86,.27-.55-.02-1.1-.07-1.66-.12-.49-.05-.98-.09-1.48-.14-.25-.02-.49-.05-.74-.07-.14-.01-.51,.02-.55-.17-.05-.23,.4-.41,.54-.5l.92-.57c.62-.38,1.23-.77,1.84-1.15"/>
          <path class="cls-3" d="M313.19,107.41c.36,.05,.73,.1,1.08,.22,1.06,.35,1.9,1.28,2.16,2.36,.11,.46,.04,1.07-.41,1.23-.15,.06-.32,.05-.48,.02-.96-.15-1.74-.84-2.37-1.57-.34-.39-.65-.8-.99-1.2-.17-.2-.34-.39-.53-.56-.09-.08-.53-.35-.4-.51,.04-.04,.1-.06,.15-.07,.58-.1,1.21,0,1.79,.08"/>
          <path class="cls-3" d="M312.34,111.19s-.03,.09-.04,.13c-.17,.48-.74,1.11-1.3,1.11-.53,0-1.16-.72-1.3-1.18-.06-.2-.08-.41-.09-.62-.05-.74-.09-1.52,.23-2.19,.14-.29,.34-.54,.55-.79,.12-.14,.35-.43,.53-.21,.11,.14,.2,.35,.29,.51,.12,.19,.23,.39,.34,.59,.25,.47,.43,.96,.65,1.43,.18,.38,.24,.81,.13,1.21"/>
          <path class="cls-3" d="M222.67,51.72c.31,.02,.7,.18,.97,.28,.46,.17,.93,.34,1.37,.57,.75,.38,1.44,.96,1.72,1.75,.28,.79,.02,1.81-.73,2.18-.4,.2-.87,.2-1.31,.19-.29,0-.58,0-.84-.12-.68-.28-.93-1.1-1.09-1.82-.18-.79-.35-1.57-.53-2.36-.12-.55,.11-.69,.44-.67"/>
          <path class="cls-3" d="M221.57,52.34c.04,1.17,.08,2.34-.1,3.5-.14,.85-.4,1.69-.94,2.37-.53,.67-1.36,1.15-2.22,1.09-.51-.03-.98-.24-1.43-.48-.84-.45-1.68-1.14-1.78-2.09-.07-.58,.16-1.17,.51-1.63,.35-.47,.81-.84,1.27-1.2,.67-.52,1.37-1.04,2.15-1.37,.78-.33,1.68-.48,2.49-.24"/>
          <path class="cls-3" d="M214.78,52.39c-.81,.19-1.63,.44-2.45,.35-.83-.09-1.68-.63-1.82-1.45-.1-.54,.14-1.11,.52-1.52,.37-.41,.87-.68,1.38-.9,.36-.16,.73-.3,1.12-.31,.38-.01,.75,.1,1.12,.22,1.94,.6,3.96,1.25,5.42,2.67,.13,.13,.04,.34-.13,.39-.31,.09-.73,.02-1.05,.02-.46,0-.92,.03-1.38,.07-.92,.08-1.83,.23-2.72,.44"/>
          <path class="cls-3" d="M214.98,45.52c-1.03-.83-2.11-1.71-2.63-2.93-.41-.94-.45-2.04-.11-3.01,.33-.94,1.06-1.78,2.02-2.06,1.16-.34,2.44,.2,3.28,1.07,.83,.87,1.3,2.04,1.66,3.19,.32,1.01,.57,2.04,.83,3.07,.23,.92,.46,1.84,.68,2.76,.12,.46,.23,.92,.34,1.38,.06,.26,.36,.91,.04,1.1-.38,.23-1-.47-1.25-.67-.54-.44-1.08-.87-1.62-1.31-1.08-.87-2.16-1.74-3.24-2.61"/>
          <path class="cls-3" d="M221.33,46.33c-.15-.69-.28-1.38-.29-2.09-.03-2.13,1.11-4.25,2.92-5.39,.77-.49,1.91-.74,2.49-.04,.2,.24,.29,.55,.34,.86,.32,1.83-.42,3.67-1.35,5.28-.5,.86-1.05,1.69-1.55,2.55-.25,.43-.48,.86-.69,1.31-.1,.22-.31,1.18-.66,1.05-.1-.04-.17-.14-.23-.24-.55-.99-.75-2.19-.99-3.3"/>
          <path class="cls-3" d="M228.71,45.49c.09,0,.18-.01,.27,0,.97,0,2.47,.65,2.82,1.66,.33,.95-.57,2.55-1.31,3.09-.32,.24-.7,.4-1.07,.56-1.31,.55-2.7,1.11-4.12,.96-.61-.07-1.2-.27-1.77-.5-.33-.13-.99-.36-.71-.82,.18-.29,.5-.58,.73-.85,.28-.34,.57-.67,.86-.99,.69-.75,1.46-1.38,2.18-2.08,.57-.56,1.31-.94,2.1-1"/>
          <path class="cls-3" d="M208.21,98.97c.23,.2,.63,.36,.89,.48,.45,.2,.9,.41,1.38,.56,.8,.25,1.7,.33,2.46-.04,.75-.37,1.28-1.28,1.01-2.07-.15-.42-.48-.75-.81-1.06-.21-.19-.42-.39-.68-.5-.68-.28-1.43,.14-2.05,.54-.68,.44-1.35,.88-2.03,1.31-.47,.31-.41,.57-.16,.78"/>
          <path class="cls-3" d="M207.86,97.75c.85-.8,1.7-1.62,2.38-2.57,.5-.7,.9-1.49,.99-2.34,.09-.85-.17-1.77-.82-2.33-.38-.33-.87-.52-1.36-.66-.92-.27-2-.36-2.74,.24-.45,.37-.7,.95-.78,1.52-.08,.58-.01,1.17,.07,1.75,.12,.84,.25,1.69,.58,2.48,.33,.79,.86,1.51,1.62,1.91"/>
          <path class="cls-3" d="M203.48,101.88c-.59,.39-1.17,.79-1.67,1.29-1.52,1.5-2.18,3.81-1.69,5.89,.21,.88,.84,1.86,1.75,1.77,.31-.03,.59-.19,.85-.37,1.51-1.08,2.27-2.92,2.73-4.71,.25-.96,.43-1.94,.68-2.9,.12-.48,.26-.95,.43-1.42,.08-.22,.6-1.06,.26-1.21-.1-.05-.22-.02-.33,.01-1.09,.33-2.07,1.04-3.01,1.66"/>
          <path class="cls-3" d="M208.17,107.65c.06,.07,.12,.13,.19,.2,.7,.67,2.22,1.27,3.17,.79,.91-.45,1.38-2.22,1.23-3.12-.06-.4-.22-.77-.38-1.15-.55-1.31-1.15-2.69-2.27-3.57-.48-.38-1.04-.65-1.61-.88-.33-.13-.96-.44-1.08,.09-.08,.34-.04,.76-.07,1.12-.04,.44-.06,.87-.07,1.31-.03,1.02,.08,2.01,.1,3.01,.02,.8,.28,1.58,.8,2.19"/>
          <path class="cls-1" d="M308.42,37.01c-.38-.14-.82-.26-1.33-.37-2.78-.57-4.41-3.33-5.69-5.69-.31-.56-.59-1.14-1.04-1.59-.45-.45-1.09-.76-1.71-.63-1.15,.25-1.5,1.72-1.4,2.89,.17,2.03,1.05,3.75,2.13,5.43,.87,1.36,2.66,2.62,2.68,4.39,.04,5.73-11.25,4.23-10.24,8.7,1.52,6.67,12.98-1.07,15.07-3.32,2.03-2.19,6.19-8.04,1.55-9.81"/>
          <path class="cls-1" d="M308.16,31c.15,1.4,.46,2.85,1.32,3.97,.86,1.12,2.38,1.83,3.72,1.37,.67-.23,1.22-.72,1.63-1.29,.73-1.01,1.04-2.35,.7-3.56-.34-1.2-1.38-2.21-2.62-2.39-1.33-.19-2.61,.53-3.76,1.23"/>
          <path class="cls-1" d="M318,36.39c.12-.12,.24-.24,.36-.37,1.12-1.18,3.21-1.79,3.27,.73,.02,.93-.47,1.78-.99,2.55-.95,1.38-2.15,2.54-3.32,3.71-1.46,1.46-3.27,3.16-5.3,3.72-.68,.19-1.45,.14-2.01-.29-1.32-1.03,.44-3.09,.86-4.25,.27-.76,.56-1.55,1.13-2.12,.74-.74,2.02-.78,2.94-1.28,1.12-.62,2.16-1.48,3.06-2.38"/>
          <path class="cls-1" d="M309.07,49c1.51,1.08,2.87,2.37,4.03,3.82,.57,.71,1.12,1.61,.87,2.49-.12,.42-.42,.77-.71,1.1-.68,.76-1.63,1.55-2.59,1.22-.37-.13-.67-.41-.95-.69-1.27-1.25-2.54-2.49-3.81-3.74-.7-.68-1.43-1.58-1.2-2.63,.22-.96,1.25-1.8,2.14-2.12,.8-.28,1.55,.07,2.21,.54"/>
          <path class="cls-1" d="M225.27,82.65c.08-.39,.21-.83,.4-1.32,1.02-2.66-.45-5.51-1.74-7.86-.31-.56-.64-1.11-.78-1.73-.14-.62-.06-1.33,.39-1.78,.82-.83,2.26-.34,3.19,.37,1.62,1.24,2.6,2.9,3.44,4.71,.68,1.46,.78,3.65,2.26,4.61,4.81,3.11,9.61-7.22,12.83-3.97,4.81,4.86-7.87,10.37-10.89,10.93-2.94,.54-10.11,.9-9.11-3.96"/>
          <path class="cls-1" d="M220.34,79.21c1.1,.88,2.15,1.92,2.64,3.24,.49,1.32,.26,2.99-.84,3.87-.55,.44-1.26,.65-1.96,.69-1.25,.07-2.55-.39-3.38-1.32-.83-.94-1.12-2.36-.61-3.5,.55-1.23,1.85-1.92,3.05-2.52"/>
          <path class="cls-1" d="M219.61,90.4c-.16,.04-.33,.07-.5,.11-1.6,.31-3.23,1.75-1.14,3.15,.77,.51,1.75,.56,2.68,.53,1.67-.06,3.3-.45,4.91-.81,2.01-.45,4.43-1.07,5.98-2.48,.52-.47,.9-1.15,.83-1.85-.17-1.67-2.84-1.29-4.05-1.56-.79-.18-1.61-.36-2.4-.19-1.02,.22-1.74,1.29-2.66,1.79-1.12,.62-2.4,1.03-3.65,1.3"/>
          <path class="cls-1" d="M235.03,89.64c.1,1.86,.46,3.7,1.06,5.46,.3,.87,.76,1.81,1.64,2.07,.42,.12,.88,.06,1.31,0,1-.16,2.19-.54,2.41-1.53,.09-.38,0-.78-.07-1.17-.37-1.74-.74-3.48-1.12-5.22-.2-.95-.56-2.06-1.58-2.42-.93-.33-2.19,.09-2.93,.67-.67,.53-.77,1.35-.73,2.15"/>
          <path class="cls-1" d="M266.3,157.39c.38,.14,.82,.27,1.33,.37,2.78,.57,4.41,3.33,5.7,5.69,.3,.56,.59,1.14,1.04,1.59,.45,.45,1.09,.76,1.71,.63,1.15-.25,1.5-1.72,1.4-2.89-.17-2.03-1.05-3.75-2.13-5.43-.87-1.36-2.66-2.62-2.68-4.39-.04-5.73,11.25-4.23,10.24-8.7-1.52-6.67-12.98,1.07-15.07,3.32-2.03,2.19-6.19,8.04-1.55,9.81"/>
          <path class="cls-1" d="M266.55,163.39c-.15-1.4-.46-2.85-1.32-3.97-.86-1.12-2.38-1.83-3.72-1.37-.67,.23-1.22,.72-1.63,1.29-.73,1.01-1.04,2.35-.7,3.56,.34,1.2,1.38,2.21,2.62,2.39,1.33,.19,2.61-.53,3.76-1.23"/>
          <path class="cls-1" d="M256.72,158.01c-.12,.12-.24,.24-.36,.37-1.12,1.18-3.21,1.79-3.27-.73-.02-.93,.47-1.78,.99-2.55,.95-1.38,2.15-2.54,3.32-3.71,1.46-1.46,3.27-3.16,5.3-3.72,.68-.19,1.45-.14,2.01,.29,1.32,1.04-.44,3.09-.86,4.25-.27,.76-.56,1.55-1.13,2.12-.74,.74-2.02,.78-2.94,1.28-1.12,.62-2.16,1.48-3.06,2.38"/>
          <path class="cls-1" d="M265.64,145.4c-1.51-1.08-2.87-2.37-4.04-3.82-.57-.71-1.12-1.61-.87-2.49,.12-.42,.42-.77,.71-1.1,.68-.76,1.63-1.55,2.59-1.22,.37,.13,.67,.41,.95,.69l3.81,3.74c.7,.68,1.43,1.58,1.2,2.63-.22,.96-1.25,1.8-2.14,2.12-.8,.28-1.55-.07-2.21-.54"/>
          <path class="cls-1" d="M349.45,111.74c-.08,.39-.21,.83-.4,1.32-1.02,2.66,.45,5.51,1.74,7.86,.31,.56,.64,1.11,.78,1.73,.14,.62,.06,1.33-.39,1.78-.82,.83-2.26,.34-3.19-.37-1.62-1.24-2.6-2.9-3.44-4.71-.68-1.46-.78-3.65-2.26-4.61-4.81-3.11-9.61,7.22-12.83,3.97-4.81-4.86,7.87-10.37,10.89-10.93,2.94-.54,10.11-.9,9.11,3.96"/>
          <path class="cls-1" d="M354.37,115.18c-1.1-.88-2.15-1.92-2.64-3.24-.49-1.32-.26-2.99,.84-3.87,.55-.44,1.26-.64,1.96-.68,1.25-.07,2.55,.38,3.38,1.32,.83,.94,1.12,2.36,.61,3.5-.55,1.23-1.85,1.92-3.05,2.52"/>
          <path class="cls-1" d="M355.11,103.99c.16-.04,.33-.07,.5-.11,1.6-.31,3.23-1.75,1.14-3.15-.77-.51-1.75-.56-2.68-.53-1.67,.06-3.3,.45-4.91,.81-2.01,.45-4.43,1.07-5.98,2.48-.52,.47-.9,1.15-.83,1.85,.17,1.67,2.84,1.29,4.05,1.56,.79,.18,1.61,.36,2.4,.19,1.02-.22,1.74-1.29,2.66-1.79,1.12-.62,2.4-1.03,3.65-1.31"/>
          <path class="cls-1" d="M339.68,104.75c-.1-1.86-.46-3.7-1.06-5.46-.3-.87-.76-1.81-1.64-2.07-.42-.12-.88-.06-1.31,0-1,.16-2.19,.54-2.41,1.53-.09,.38,0,.78,.07,1.17,.37,1.74,.74,3.48,1.12,5.22,.2,.95,.56,2.06,1.58,2.42,.93,.33,2.19-.09,2.93-.67,.67-.53,.77-1.35,.73-2.15"/>
          <path class="cls-1" d="M258.53,8.6c-.89,0-1.69,.63-2.16,1.38-.47,.76-.69,1.64-.94,2.5-.83,2.87-1.96,5.66-3.39,8.28-1.18,2.17-1.93,4.47-4.36,5.37-4.73,1.75-10.35,.2-14.99-1.16-.86-.25-1.72-.54-2.61-.54-.89,0-1.84,.33-2.33,1.08-.89,1.38,.22,3.19,1.48,4.26,3,2.53,6.74,3.15,10.46,3.66,3.64,.51,6.7,3.31,8.45,6.41,2.49,4.42,3.31,9.85,4.62,14.71,.54,2.01,1.5,4.09,3.93,3.78,1.37-.17,2.9-1.1,3.39-2.43,.57-1.56-.21-3.36-.68-4.83-.72-2.26-1.45-4.52-2.18-6.77-.14-.45-.61-1.08-.28-1.54,.59-.84,1.28,.38,1.63,.8,1.52,1.83,3.03,3.65,4.55,5.47,.99,1.19,2.09,2.81,3.71,3.17,1.38,.3,2.99-.49,3.87-1.55,1.57-1.89,.33-3.81-1.08-5.35-3.4-3.72-7.54-7.32-9.93-11.79-1.68-3.14-2.41-7.22-.88-10.57,1.56-3.41,3.05-6.9,2.53-10.79-.22-1.63-1.15-3.55-2.8-3.54"/>
          <path class="cls-1" d="M241.27,13.08c-1.04,1.69-1.93,3.56-1.94,5.54,0,1.98,1.08,4.08,2.96,4.72,.94,.32,1.97,.25,2.92-.03,1.68-.5,3.18-1.73,3.83-3.36,.65-1.63,.36-3.65-.87-4.91-1.32-1.36-3.36-1.65-5.24-1.87"/>
          <path class="cls-1" d="M314.85,173.35c.66,0,1.25-.46,1.6-1.02,.35-.56,.51-1.21,.7-1.85,.61-2.12,1.45-4.19,2.51-6.13,.87-1.61,1.42-3.3,3.23-3.97,3.5-1.29,7.66-.15,11.09,.86,.63,.19,1.27,.4,1.93,.4,.66,0,1.36-.24,1.72-.8,.66-1.02-.17-2.36-1.1-3.15-2.22-1.87-4.99-2.33-7.74-2.71-2.7-.37-4.96-2.45-6.25-4.74-1.85-3.27-2.45-7.29-3.42-10.89-.4-1.49-1.11-3.03-2.91-2.8-1.01,.13-2.14,.81-2.5,1.8-.42,1.15,.15,2.49,.5,3.58,.54,1.67,1.07,3.34,1.61,5.01,.11,.33,.45,.8,.21,1.14-.44,.62-.95-.28-1.2-.59-1.12-1.35-2.24-2.7-3.36-4.05-.73-.88-1.55-2.08-2.75-2.35-1.02-.22-2.21,.36-2.86,1.15-1.16,1.4-.24,2.82,.8,3.96,2.52,2.75,5.58,5.42,7.35,8.73,1.24,2.33,1.78,5.35,.65,7.82-1.15,2.53-2.26,5.11-1.87,7.99,.16,1.21,.85,2.62,2.07,2.62"/>
          <path class="cls-1" d="M327.62,170.03c.77-1.25,1.43-2.63,1.43-4.1,0-1.47-.8-3.02-2.19-3.49-.69-.24-1.46-.19-2.16,.02-1.24,.37-2.35,1.28-2.83,2.48-.48,1.21-.26,2.7,.64,3.63,.98,1.01,2.48,1.22,3.87,1.38"/>
          <path class="cls-1" d="M377.24,68.12c0-.89-.63-1.69-1.38-2.16-.76-.47-1.64-.69-2.5-.94-2.87-.83-5.66-1.96-8.28-3.39-2.17-1.18-4.47-1.93-5.37-4.36-1.75-4.73-.2-10.35,1.16-14.99,.25-.86,.54-1.72,.54-2.61,0-.89-.33-1.84-1.08-2.33-1.38-.89-3.19,.22-4.26,1.48-2.53,3-3.15,6.74-3.66,10.46-.51,3.64-3.31,6.7-6.41,8.45-4.42,2.49-9.85,3.31-14.71,4.62-2.01,.54-4.09,1.5-3.78,3.93,.17,1.37,1.1,2.9,2.43,3.39,1.56,.57,3.36-.21,4.83-.68,2.26-.72,4.52-1.45,6.77-2.18,.45-.14,1.08-.61,1.54-.28,.84,.6-.38,1.28-.8,1.63-1.83,1.52-3.65,3.03-5.48,4.55-1.19,.99-2.81,2.09-3.17,3.71-.3,1.38,.49,2.99,1.55,3.87,1.89,1.57,3.81,.33,5.35-1.08,3.72-3.4,7.32-7.54,11.79-9.93,3.14-1.68,7.22-2.4,10.57-.88,3.41,1.56,6.9,3.05,10.79,2.53,1.63-.22,3.55-1.15,3.54-2.8"/>
          <path class="cls-1" d="M372.77,50.86c-1.69-1.04-3.56-1.93-5.54-1.94s-4.08,1.08-4.72,2.96c-.32,.94-.25,1.97,.03,2.92,.5,1.68,1.73,3.18,3.36,3.83,1.63,.65,3.65,.36,4.91-.87,1.36-1.32,1.65-3.36,1.87-5.24"/>
          <path class="cls-1" d="M199.01,127.32c0,.89,.63,1.69,1.38,2.16,.76,.47,1.64,.69,2.5,.94,2.87,.83,5.66,1.96,8.28,3.39,2.17,1.18,4.47,1.93,5.37,4.36,1.75,4.73,.2,10.35-1.16,14.99-.25,.86-.54,1.72-.54,2.61,0,.89,.33,1.84,1.08,2.33,1.38,.89,3.19-.22,4.26-1.48,2.53-3,3.15-6.74,3.66-10.46,.51-3.64,3.31-6.7,6.41-8.45,4.42-2.49,9.85-3.31,14.71-4.62,2.01-.54,4.09-1.5,3.78-3.93-.17-1.37-1.1-2.9-2.43-3.39-1.56-.57-3.36,.21-4.83,.68-2.26,.72-4.52,1.45-6.77,2.18-.45,.14-1.08,.61-1.54,.28-.84-.59,.38-1.28,.8-1.63,1.83-1.52,3.65-3.03,5.48-4.55,1.19-.99,2.81-2.09,3.17-3.71,.3-1.38-.49-2.99-1.55-3.87-1.89-1.57-3.81-.33-5.35,1.08-3.72,3.4-7.32,7.54-11.79,9.93-3.14,1.68-7.22,2.4-10.57,.88-3.41-1.56-6.9-3.05-10.79-2.53-1.63,.22-3.55,1.15-3.54,2.8"/>
          <path class="cls-1" d="M203.49,144.58c1.69,1.04,3.56,1.93,5.54,1.94,1.98,0,4.08-1.08,4.72-2.96,.32-.94,.25-1.97-.03-2.92-.5-1.68-1.73-3.18-3.36-3.83-1.63-.65-3.65-.36-4.91,.87-1.36,1.32-1.65,3.36-1.87,5.24"/>
          <path class="cls-1" d="M308.77,65.59c2.15-2.29,6.52-4.15,8.01-4.14s2.22,.27,2.51,1.5c1.4,5.93-8.19,13.72-13.86,15.11-.08,.02-.15-.08-.08-.15,2.7-2.65,5.82-6.77,6.7-9.12-3.52,2.75-7.01,5.78-8.23,11.07-.02,.09-.15,.07-.15-.02-.06-8.31,3.01-12.03,5.11-14.26Z"/>
          <path class="cls-1" d="M255.26,75.49c-2.29-2.15-4.15-6.52-4.14-8.01s.27-2.22,1.5-2.51c5.93-1.4,13.72,8.19,15.11,13.86,.02,.08-.08,.15-.15,.08-2.65-2.7-6.77-5.82-9.12-6.7,2.75,3.52,5.78,7.01,11.07,8.23,.09,.02,.07,.15-.02,.15-8.31,.06-12.03-3.01-14.26-5.11Z"/>
          <path class="cls-3" d="M287.76,58.2c-.17-3.14-2.3-7.38-3.45-8.33s-1.87-1.22-2.88-.47c-4.9,3.63-2.59,15.77,.84,20.49,.05,.07,.17,.03,.16-.06-.36-3.77-.08-8.93,.76-11.29,.92,4.37,1.63,8.94-.85,13.77-.04,.08,.07,.15,.12,.08,5.41-6.31,5.46-11.13,5.29-14.19Z"/>
          <path class="cls-1" d="M322.02,120.51c2.29,2.15,4.15,6.52,4.14,8.01,0,1.49-.27,2.22-1.5,2.51-5.93,1.4-13.72-8.19-15.11-13.86-.02-.08,.08-.15,.15-.08,2.65,2.7,6.77,5.82,9.12,6.7-2.75-3.52-5.78-7.01-11.07-8.23-.09-.02-.07-.15,.02-.15,8.31-.06,12.03,3.01,14.26,5.11Z"/>
          <path class="cls-3" d="M325.61,98.37c3.14-.17,7.38-2.3,8.33-3.45s1.22-1.87,.47-2.88c-3.63-4.9-15.77-2.59-20.49,.84-.07,.05-.03,.17,.06,.16,3.77-.36,8.93-.08,11.29,.76-4.37,.92-8.94,1.63-13.77-.85-.08-.04-.15,.07-.08,.12,6.31,5.41,11.13,5.46,14.19,5.29Z"/>
          <path class="cls-3" d="M289.56,136.75c.17,3.14,2.3,7.38,3.45,8.33s1.87,1.22,2.88,.47c4.9-3.63,2.59-15.77-.84-20.49-.05-.07-.17-.03-.16,.06,.36,3.77,.08,8.93-.76,11.29-.92-4.37-1.63-8.94,.85-13.77,.04-.08-.07-.15-.12-.08-5.41,6.31-5.46,11.13-5.29,14.19Z"/>
          <path class="cls-3" d="M251.47,96.66c-3.14,.17-7.38,2.3-8.33,3.45s-1.22,1.87-.47,2.88c3.63,4.9,15.77,2.59,20.49-.84,.07-.05,.03-.17-.06-.16-3.77,.36-8.93,.08-11.29-.76,4.37-.92,8.94-1.63,13.77,.85,.08,.04,.15-.07,.08-.12-6.31-5.41-11.13-5.46-14.19-5.29Z"/>
          <path class="cls-1" d="M267.86,183.52c-1.1,2.63-4.22,5.6-5.49,6.07s-1.97,.48-2.61-.47c-3.08-4.6,2.6-14.27,6.97-17.26,.07-.04,.15,.03,.12,.1-1.46,3.11-2.79,7.61-2.79,9.89,2.12-3.46,4.12-7.14,3.47-12.03-.01-.08,.1-.11,.13-.03,2.7,7.05,1.27,11.18,.19,13.75Z"/>
        </g>
      </g>
      <path class="cls-1" d="M361.72,172.65c7.37,5.62,12.85,15.23,31.39,17.24-6.67-14.88-17.99-29-40.21-22.32l-5.1,.97,.06,.74c-12.78,9.89,29.19,117.15-34.85,181.98,27.73-18.5,41.37-42.42,45.55-68.88,3.64-23.03,7.64-57.83,2.77-109.51,.13-.07,.26-.15,.39-.22Z"/>
      <path class="cls-2" d="M320.6,190.77c3.45,13.74,6.56,27.56,9.05,41.47,2.47,13.91,4.24,27.93,4.73,41.96,.46,14.01-.38,28.11-3.82,41.56-3.39,13.42-9.66,26.1-19.07,36.14-2.04,2.2-.83,3.46,1.3,1.22,9.72-10.08,16.64-22.82,20.78-36.48,4.18-13.68,5.84-28.15,6.05-42.55,.19-14.43-1.03-28.86-3.22-43.06-2.21-14.2-5.34-28.19-9.26-41.87-3.22-11.11-9.49-9.99-6.54,1.62Z"/>
      <path class="cls-2" d="M326.01,341.76c5.74-7.08,10.92-14.72,14.53-23.08,14.39-33.38,11.4-76.36,10.84-94.34-.27-9-.97-17.97-1.77-26.87-.39-4.45-.81-8.89-1.08-13.29-.14-2.2-.23-4.39-.21-6.52,.02-1.06,.06-2.12,.17-3.11,.09-1.01,.3-1.94,.56-2.66,.07-.16,.13-.37,.21-.46,.07-.11,.14-.27,.2-.3,.03-.03,.05-.07,.08-.11,.03-.01,.05-.01,.07-.03,.02-.06,.08-.02,.11-.06,.03-.04,.15,0,.22-.04,.18,0,.48,.01,.71,.02,.5,0,.99,.05,1.48,.11,1.96,.21,3.79,.8,5.52,1.73,3.46,1.86,6.46,5.11,9.88,8.17,3.4,3.09,7.35,5.92,11.72,7.79,2.18,.95,4.44,1.68,6.72,2.25,2.28,.56,4.59,.92,6.9,1.19l3.99,.47-1.67-3.66c-2.23-4.9-4.91-9.69-8.45-13.98-3.55-4.24-8.19-7.86-13.6-9.79-5.45-1.85-11.31-1.86-16.72-.74-1.35,.3-2.72,.54-4.01,1l-1.96,.63-.98,.31-.25,.08s-.2,.07-.3,.13c.22-.13-1.71,.49-.94,3.06,1.19,1.43,1.1,.81,1.31,1.06,.15,.05,.23,.06,.28,.07,.43,.08,.54,.07,.75,.09,1.4,.09,2.61,.15,3.86,.3,1.22,.14,2.43,.33,3.47,.65,.51,.16,.97,.35,1.26,.54,.14,.09,.23,.17,.25,.2,.02,.03-.02-.03-.03-.09l.12,1.71c.04,.68,.1,1.34,.17,2,.24,2.65,.53,5.26,.8,7.88,.56,5.22,1.08,10.42,1.47,15.63,.81,10.41,1.09,20.85,.63,31.24-.52,10.39-1.75,52.74-10.72,75.05-3.86,9.59-10.21,18.01-16.98,25.8-1.74,1.9-3.38,3.91-5.28,5.66-1.86,1.79-3.63,3.68-5.64,5.3-1.98,1.67-3.87,3.44-5.98,4.93l-5.74,4.31c-.52,.47-.83,1.02-1.19,1.61-.35,.58-.75,1.14-1.12,1.57-.74,.88-1.3,1.32-1.42,1.41-.13,.09,.16-.18,.86-.78,.72-.6,1.72-1.55,3.22-2.62,.47-.33,.95-.66,1.45-.98,.51-.35,1.04-.77,1.56-1.15l3.13-2.34c2.13-1.5,4.04-3.26,6.04-4.93,2.03-1.63,3.84-3.51,5.72-5.31,1.92-1.76,3.6-3.76,5.37-5.67,6.89-7.81,12.59-16.63,17.41-25.92,9.4-18.12,10.96-65.11,11.62-75.61,.29-5.25,.44-10.52,.37-15.79-.04-5.27-.24-10.54-.58-15.79-.33-5.26-.78-10.51-1.27-15.76-.24-2.62-.5-5.24-.7-7.85-.12-1.33-.17-2.56-.26-3.95-.04-.48-.24-.96-.5-1.33-.27-.37-.59-.67-.92-.9-.66-.46-1.34-.74-2.02-.97-2.69-.86-5.41-1.01-8.01-1.21l-.43-.04h-.06c.04-.16-.1,.42-.12,.5-.07,.2-.1,.35-.16,.42-.07,.04,.02,.02,.07,.15,.13,.26,.03,0,.32,.79l.12-.03,.93-.28,1.85-.56c1.22-.43,2.48-.65,3.74-.9,5.01-.98,10.22-.89,14.95,.77,4.7,1.73,8.74,4.94,11.96,8.85,3.19,3.96,5.67,8.5,7.76,13.22l1.66-2.29c-2.15-.28-4.29-.64-6.38-1.18-2.08-.55-4.11-1.24-6.05-2.11-3.9-1.73-7.35-4.25-10.55-7.22-1.61-1.48-3.19-3.06-4.9-4.61-1.71-1.54-3.57-3.08-5.76-4.26-2.17-1.2-4.62-1.99-7.08-2.26-.62-.08-1.23-.13-1.84-.15l-.46-.02c-.16,0-.27-.02-.53,0-.46,.06-.9,.04-1.37,.23-.23,.08-.47,.17-.69,.26-.22,.1-.42,.25-.62,.39-.43,.27-.73,.6-1.03,.94-.57,.68-.91,1.39-1.17,2.05-.49,1.33-.71,2.59-.85,3.79-.14,1.21-.19,2.39-.22,3.55-.04,2.33,.04,4.61,.17,6.86,.25,4.52,.64,8.98,1,13.44,.73,8.9,1.36,17.77,1.58,26.63,.46,17.69,2.66,62.9-10.43,92.01-3.58,7.96-8.34,15.36-13.77,22.18-4.77,6.06-8.76,10.4-11.4,13.43-.32,.38-.63,.75-.91,1.09-.28,.34-.7,.78-.98,1.15-.61,.77-.97,1.45-1.21,1.87-.46,.84-.63,.95-.44,.83,.19-.12,.8-.64,1.9-1,.54-.18,1.15-.21,1.65-.29,.25-.04,.48-.12,.73-.25,.05-.02,.13-.07,.23-.15l.28-.21c.19-.14,.39-.29,.59-.44,3.28-2.41,7.97-6.53,13.23-13.08"/>
    </g>
  </g>
</svg>