<svg width="122" height="118" viewBox="0 0 122 118" fill="none" xmlns="http://www.w3.org/2000/svg">
<path d="M79.7452 50.2871L79.9806 53.1323L78.0094 55.0988L76.2237 54.528L74.7512 52.1527L74.8875 50.3144L77.21 49.2087L77.3367 50.8788L79.7452 50.2871Z" fill="#D98B9D" stroke="white" stroke-width="0.448976"/>
<path d="M75.0899 30.2072L72.4017 31.273L70.515 30.9135L69.9477 28.0379L69.3909 27.3915L70.1824 25.9085L71.1246 25.9453L72.8392 23.8569L73.877 25.4166L76.6542 26.1576L78.2972 25.218L81.1579 25.446L81.1275 29.8635L82.2131 31.0102L80.5283 33.8186L78.6601 33.3404L75.0899 30.2072Z" fill="#D98B9D" stroke="white" stroke-width="0.448976"/>
<path d="M66.3035 47.7478L67.9681 47.3305L68.2314 46.516L70.4071 47.3884L71.3608 48.6664L71.2892 50.4668L69.1876 52.2915L62.7316 52.8348L61.6605 48.926L62.9558 47.772L66.3035 47.7478Z" fill="#D98B9D" stroke="white" stroke-width="0.448976"/>
<path d="M71.8338 64.4458L68.426 64.3249L67.0239 62.2376L65.2074 59.1317L64.7693 56.4054L62.7242 54.6133L62.7317 52.835L69.1877 52.2916L71.2893 50.467L71.3609 48.6665L74.9025 47.5546L74.8876 50.3135L74.7513 52.1518L72.0906 52.9811L72.1369 54.8845L73.5281 57.3019L72.4337 59.7413L71.8338 64.4458Z" fill="#D98B9D" stroke="white" stroke-width="0.448976"/>
<path d="M82.9936 61.6656L81.4608 59.3533L83.6727 57.6558L89.018 55.8333L90.4734 56.7425L90.9618 58.3748L90.9908 61.9767L89.6597 64.3215L87.806 64.1281L85.695 62.3309L82.9936 61.6656Z" fill="#D98B9D" stroke="white" stroke-width="0.448976"/>
<path d="M75.0899 30.2078L78.6601 33.341L80.5283 33.8192L79.9493 35.0657L77.8074 36.8021L73.1948 37.8205L71.1142 37.8625L70.5632 36.1094L69.1942 35.0773L68.8959 33.4293L70.657 31.7434L70.515 30.9141L72.4017 31.2736L75.0899 30.2078Z" fill="#D98B9D" stroke="white" stroke-width="0.448976"/>
<path d="M97.7784 34.8164L98.304 33.1925L99.9456 32.832L100.557 33.4059L99.1247 35.7802L99.5878 39.216L97.4604 42.798L95.6805 42.8463L94.1278 42.1705L93.9742 38.0262L94.6503 35.5016L95.4871 35.1947L96.2504 35.5994L97.7784 34.8164Z" fill="#D98B9D" stroke="white" stroke-width="0.448976"/>
<path d="M97.4437 17.306L99.153 13.8891L101.181 12.2148L102.113 12.5375L103.346 17.017L102.938 19.8306L102.822 21.403L101.566 22.3657L98.8538 21.6184L97.883 19.0066L97.4437 17.306Z" fill="#D98B9D" stroke="white" stroke-width="0.448976"/>
<path d="M68.0727 28.17L69.9477 28.0387L70.515 30.9143L70.657 31.7436L68.8959 33.4294L69.1942 35.0775L66.8136 34.3491L64.5998 35.3381L63.1907 34.3733L60.048 34.7138L61.1765 31.2864L64.2316 28.1091L64.7529 26.3812L68.0727 28.17Z" fill="#D98B9D" stroke="white" stroke-width="0.448976"/>
<path d="M85.6304 46.3559L85.3035 48.0722L84.4805 47.635L78.9906 47.2514L77.2099 49.2084L74.8875 50.3141L74.9024 47.5551L76.6309 45.4162L76.2995 42.6909L73.785 41.952L71.9696 39.9246L73.1948 37.8204L77.8074 36.8019L79.9493 35.0656L84.8869 38.2261L85.9559 39.521L85.1023 40.9556L83.438 43.0766L83.7049 44.8876L84.6361 44.8655L85.6304 46.3559Z" fill="#D98B9D" stroke="white" stroke-width="0.448976"/>
<path d="M71.1142 37.8627L73.1948 37.8207L71.9696 39.9249L68.1311 43.7065L67.2453 43.8894L65.2548 42.2645L66.3371 38.9968L71.1142 37.8627Z" fill="#D98B9D" stroke="white" stroke-width="0.448976"/>
<path d="M117.556 8.28726L118.514 10.8707L115.665 15.5689L115.286 15.7065L115.036 15.6761L113.315 12.3495L113.344 10.4787L115.77 9.3446L116.68 7.80378L117.556 8.28726Z" fill="#D98B9D" stroke="white" stroke-width="0.448976"/>
<path d="M49.2463 45.756L47.4387 46.4633L44.6177 45.9262L42.8572 42.6491L41.9086 42.4336L35.2143 42.4441L34.5871 43.182L32.5995 43.5856L33.3781 39.0398L35.8803 36.3271L38.6496 36.7549L42.4652 37.251L44.9797 35.811L45.6524 34.1325L44.6658 32.4982L44.8578 30.6515L48.6816 27.7779L50.5944 31.8686L50.7384 34.5897L52.5605 32.5791L53.4845 32.5801L55.3093 32.4225L57.7951 33.6007L60.215 36.2388L60.5222 39.1176L58.695 41.2817L58.2568 43.1578L62.956 47.7719L61.6607 48.9259L57.5813 50.4919L55.8654 47.3493L50.864 44.8279L49.2463 45.756Z" fill="#D98B9D" stroke="white" stroke-width="0.448976"/>
<path d="M41.2436 86.0181L38.6488 85.9886L37.2184 82.8103L33.6094 80.8858L32.9517 78.0386L33.5579 74.1634L30.7679 69.1058L32.7601 67.8424L33.5929 69.378L35.8616 70.7223L37.055 69.4064L38.7876 68.9755L39.6413 70.5604L40.2994 77.9692L41.8647 79.0486L41.8224 80.9479L43.6356 85.2487L41.2436 86.0181Z" fill="#D98B9D" stroke="white" stroke-width="0.448976"/>
<path d="M115.286 15.7069L115.665 15.5692L120.803 15.2434L115.804 22.2359L115.369 28.1428L112.589 30.7809L111.681 30.5349L110.491 28.1512L108.718 28.5022L109.352 26.7459L108.702 24.0174L113.02 20.7088L115.02 17.5599L115.286 15.7069Z" fill="#D98B9D" stroke="white" stroke-width="0.448976"/>
<path d="M51.2211 110.333L47.6969 109.758L46.3828 110.965L46.1377 112.788L42.5519 112.094L36.7112 114.587L34.3136 113.401L36.3271 105.058L35.2926 102.471L37.4043 99.2513L36.0144 96.6983L35.9972 94.7518L38.951 92.5573L43.3287 93.3256L48.0707 96.4461L50.5607 100.473L57.005 102.062L56.8594 106.346L52.811 108.211L51.2211 110.333Z" fill="#D98B9D" stroke="white" stroke-width="0.448976"/>
<path d="M53.0839 24.7822L53.2865 24.5416L62.7151 23.1037L63.0806 24.6456L64.753 26.3809L64.2317 28.1088L61.1767 31.2861L60.0481 34.7135L60.215 36.2396L57.7952 33.6015L55.3093 32.4233L53.4846 32.581L52.8667 30.0133L54.5809 26.9201L53.0839 24.7822Z" fill="#D98B9D" stroke="white" stroke-width="0.448976"/>
<path d="M77.3366 50.8784L77.2099 49.2083L78.9905 47.2513L84.4805 47.6349L84.1566 48.9508L79.7451 50.2867L77.3366 50.8784Z" fill="#D98B9D" stroke="white" stroke-width="0.448976"/>
<path d="M93.1301 31.3444L89.7935 35.6284L88.1844 35.9195L87.7319 37.2586L85.2309 37.4414L84.8868 38.2266L79.9493 35.0661L80.5283 33.8196L82.2131 31.0112L88.5421 27.5596L89.2247 28.1671L89.9353 29.6595L93.4971 29.3915L93.1301 31.3444Z" fill="#D98B9D" stroke="white" stroke-width="0.448976"/>
<path d="M76.6545 26.1584L73.8773 25.4175L72.8395 23.8577L71.7544 22.3631L74.3346 21.5181L72.5214 16.2408L75.3095 13.8382L79.8399 14.9985L82.6815 12.6852L84.5629 14.7337L83.5973 18.4396L84.1057 20.2958L85.503 21.5843L81.3189 24.584L81.1583 25.4469L78.2975 25.2188L76.6545 26.1584Z" fill="#D98B9D" stroke="white" stroke-width="0.448976"/>
<path d="M51.2844 25.2614L50.4049 26.9599L48.6815 27.7787L43.7673 25.1133L44.2742 17.0203L44.3922 14.853L46.2124 13.7368L50.223 19.7141L55.4726 18.5117L53.0723 23.6092L53.2863 24.5415L53.0837 24.7822L51.2844 25.2614Z" fill="#D98B9D" stroke="white" stroke-width="0.448976"/>
<path d="M27.2277 70.8858L26.0821 72.3447L25.1766 72.0893L23.0628 73.9349L21.1909 73.855L19.5682 74.8125L16.9576 73.7678L14.2132 74.4152L12.5022 64.3568L13.3055 62.8664L14.6658 61.1826L17.5558 59.4242L17.2478 56.516L21.3654 55.8791L22.4053 60.1789L27.7984 59.6944L28.7018 62.1202L28.2951 66.4641L27.2277 70.8858Z" fill="#D98B9D" stroke="white" stroke-width="0.448976"/>
<path d="M102.937 19.8302L103.346 17.0166L102.113 12.537L103.085 9.82956L105.947 9.53948L110.846 6.26023L115.703 5.30379L120.558 0.999783L115.964 5.73682L118.348 5.55288L120.063 8.41907L118.284 6.90978L116.68 7.80421L115.77 9.34503L113.344 10.4791L113.315 12.35L115.036 15.6765L102.937 19.8302Z" fill="#D98B9D" stroke="white" stroke-width="0.448976"/>
<path d="M108.718 28.5022L110.491 28.1512L111.681 30.535L112.589 30.7809L110.94 31.731L111.745 35.2993L110.072 37.455L107.389 38.4041L106.946 41.1031L100.856 40.4967L99.588 39.2155L99.1249 35.7796L100.558 33.4053L104.264 29.5501L108.718 28.5022Z" fill="#D98B9D" stroke="white" stroke-width="0.448976"/>
<path d="M48.6816 27.7788L44.8578 30.6534L44.6658 32.499L45.6516 34.125L44.9785 35.8056L42.464 37.2382L38.6483 36.7421L36.0932 32.7082L35.7292 30.8352L32.3955 26.4177L36.5325 22.696L33.7609 20.9597L35.1985 17.4366L36.1332 17.4082L37.2636 19.833L41.4016 21.2382L41.4117 24.8233L43.0597 25.7041L43.7657 25.0987L48.6816 27.7788ZM27.0721 25.7125L26.699 24.8317L26.8259 22.9304L28.6762 22.7044L29.5084 22.2083L30.4449 22.3124L30.807 23.1942L30.4101 24.0749L29.2066 24.9021L27.8037 24.5437L27.0721 25.7125Z" fill="#D98B9D" stroke="white" stroke-width="0.448976"/>
<path d="M100.558 33.4062L99.9458 32.8324L98.3042 33.1929L98.9704 31.5123L98.5362 29.7444L100.772 26.8446L101.566 22.3661L102.821 21.4034L102.937 19.831L115.036 15.6773L115.286 15.7078L115.02 17.5608L113.019 20.7097L108.702 24.0184L109.352 26.7469L108.718 28.5032L104.264 29.551L100.558 33.4062Z" fill="#D98B9D" stroke="white" stroke-width="0.448976"/>
<path d="M51.2855 73.5826L49.6236 75.9643L48.154 81.5884L48.931 84.2917L46.0712 86.0637L43.6357 85.2492L41.8225 80.9483L41.8648 79.0491L40.2995 77.9697L39.6414 70.5609L38.7877 68.9759L40.5282 66.5911L43.2918 66.7214L45.4971 63.8595L46.3358 63.5147L49.5514 65.1386L52.2711 65.312L50.8784 68.8624L51.536 70.686L51.2855 73.5826Z" fill="#D98B9D" stroke="white" stroke-width="0.448976"/>
<path d="M56.2986 52.9211L58.1511 58.2656L56.0594 62.5886L56.2803 65.3528L52.271 65.3118L49.5512 65.1384L46.3357 63.5145L45.497 63.8593L49.5399 58.9351L49.251 58.0291L46.5561 57.4195L44.7283 54.1802L45.37 51.4717L48.0736 48.8735L49.4458 47.6049L49.2463 45.7562L50.8639 44.8281L55.8653 47.3495L57.5812 50.4921L56.2986 52.9211Z" fill="#D98B9D" stroke="white" stroke-width="0.448976"/>
<path d="M35.2926 102.47L36.3271 105.058L34.3136 113.401L32.5118 113.503L31.4215 115.89L28.0206 117L25.5567 116.512L25.0477 114.879L24.1976 114.778L24.4763 113.925L23.2262 112.725L23.7943 111.027L23.3609 108.372L24.5481 107.12L26.9113 105.46L31.5457 99.2826L35.2292 96.1936L35.9972 94.7516L36.0144 96.6981L37.4043 99.2511L35.2926 102.47Z" fill="#D98B9D" stroke="white" stroke-width="0.448976"/>
<path d="M92.921 16.3395L91.0469 16.3753L85.5027 21.5842L84.1054 20.2957L83.597 18.4395L84.5626 14.7336L85.5215 14.6285L89.1843 8.14774L91.7675 5.57059L93.5753 5.84807L95.4107 10.2908L93.8564 14.742L92.921 16.3395Z" fill="#D98B9D" stroke="white" stroke-width="0.448976"/>
<path d="M92.9212 16.3386L93.8566 14.741L96.0046 13.5859L96.9466 16.8977L95.5899 21.0325L90.6162 26.8826L89.2249 28.1659L88.5423 27.5584L82.2132 31.01L81.1276 29.8633L81.1581 25.4458L81.3187 24.5829L85.5028 21.5832L91.0471 16.3743L92.9212 16.3386Z" fill="#D98B9D" stroke="white" stroke-width="0.448976"/>
<path d="M42.8571 42.65L44.6176 45.9271L47.4385 46.4642L49.2462 45.7568L49.4457 47.6056L48.0735 48.8742L45.2842 49.2862L42.0371 51.0677L40.2178 50.8123L38.5135 45.6339L34.5869 43.1829L35.2142 42.445L41.9085 42.4345L42.8571 42.65Z" fill="#D98B9D" stroke="white" stroke-width="0.448976"/>
<path d="M32.2374 44.0615L32.5994 43.5865L34.587 43.1829L38.5136 45.6339L40.2179 50.8123L42.0372 51.0677L45.2843 49.2862L48.0736 48.8742L45.37 51.4724L44.7283 54.1809L46.5561 57.4202L49.251 58.0298L49.5399 58.9358L45.497 63.8599L43.2917 66.7219L40.5281 66.5916L35.2027 61.5392L34.0564 57.1102L31.5365 56.0707L31.4574 54.4363L34.707 52.4383L34.9723 51.5207L33.1915 47.1831L33.5139 45.4846L32.2374 44.0615Z" fill="#D98B9D" stroke="white" stroke-width="0.448976"/>
<path d="M35.2294 96.1937L32.5694 95.3581L29.1179 91.092L27.4663 91.8634L24.2278 90.5822L26.7357 86.5452L25.1142 83.1062L25.6741 81.0251L28.2889 82.175L30.1838 84.0963L33.6095 80.8864L37.2185 82.8108L38.6489 85.9892L41.2437 86.0186L43.329 93.3254L38.9513 92.5571L35.9975 94.7517L35.2294 96.1937Z" fill="#D98B9D" stroke="white" stroke-width="0.448976"/>
<path d="M57.0049 102.062L50.5606 100.473L48.0706 96.4462L43.3287 93.3257L41.2434 86.0188L43.6354 85.2495L46.071 86.064L48.9307 84.292L49.4468 85.0634L54.8448 83.7759L56.6566 86.7714L59.7522 88.2849L61.4034 90.4563L61.2225 95.1807L61.8695 96.9665L60.4568 101.425L58.6074 101.173L57.0049 102.062Z" fill="#D98B9D" stroke="white" stroke-width="0.448976"/>
<path d="M33.5926 69.3785L32.7598 67.8429L32.3285 63.5946L31.6859 63.0313L32.7303 61.748L35.2025 61.5388L40.5279 66.5911L38.7874 68.976L37.0548 69.4069L35.8613 70.7228L33.5926 69.3785Z" fill="#D98B9D" stroke="white" stroke-width="0.448976"/>
<path d="M33.5578 74.1647L32.9517 78.0399L33.6094 80.8872L30.1836 84.097L28.2887 82.1757L25.6739 81.0259L24.1149 80.0947L23.6774 78.2911L26.0822 72.3454L27.2278 70.8865L28.2952 66.4648L30.7679 69.1071L33.5578 74.1647Z" fill="#D98B9D" stroke="white" stroke-width="0.448976"/>
<path d="M56.7176 67.8731L56.2802 65.3527L56.7317 66.1841L61.4167 65.5944L67.0238 62.2374L68.4259 64.3248L71.8337 64.4456L73.7173 64.3269L72.8942 71.5212L71.6401 72.7983L71.6571 74.647L65.0915 75.8021L61.2135 71.887L59.026 73.4289L58.4118 69.9258L56.7176 67.8731Z" fill="#D98B9D" stroke="white" stroke-width="0.448976"/>
<path d="M87.7321 37.2574L88.1845 35.9183L89.7936 35.6272L90.0141 37.333L92.5388 37.1344L93.9745 38.0257L94.128 42.1699L95.6808 42.8457L91.7601 49.8982L93.3613 52.1085L90.9743 53.7587L88.2271 53.0976L84.1568 48.9502L84.4806 47.6343L85.3036 48.0715L85.6305 46.3551L84.6362 44.8648L83.705 44.8868L83.438 43.0759L85.1024 40.9549L87.8327 40.8088L88.4559 39.0147L87.7321 37.2574Z" fill="#D98B9D" stroke="white" stroke-width="0.448976"/>
<path d="M98.3041 33.1929L97.7784 34.8167L96.2504 35.5997L95.4871 35.1951L95.1404 32.8965L98.3041 33.1929Z" fill="#D98B9D" stroke="white" stroke-width="0.448976"/>
<path d="M77.4927 63.4105L73.7174 64.327L71.8337 64.4458L72.4337 59.7413L73.528 57.3019L72.1368 54.8845L72.0905 52.9811L74.7512 52.1518L76.2237 54.5271L78.0094 55.0979L79.9806 53.1314L79.7452 50.2862L84.1567 48.9503L88.2271 53.0977L87.916 54.6711L89.0177 55.8325L83.6725 57.655L81.4606 59.3525L77.4927 63.4105Z" fill="#D98B9D" stroke="white" stroke-width="0.448976"/>
<path d="M76.2995 42.6902L76.6309 45.4155L74.9024 47.5544L71.3609 48.6664L70.4072 47.3883L68.2315 46.516L68.1311 43.7055L71.9697 39.9238L73.785 41.9513L76.2995 42.6902Z" fill="#D98B9D" stroke="white" stroke-width="0.448976"/>
<path d="M85.9559 39.5205L84.8868 38.2257L85.2309 37.4405L87.7319 37.2576L88.4558 39.015L87.8326 40.8091L85.1023 40.9552L85.9559 39.5205Z" fill="#D98B9D" stroke="white" stroke-width="0.448976"/>
<path d="M66.3035 47.7483L62.9558 47.7725L58.2566 43.1584L58.6948 41.2823L60.522 39.1182L60.2148 36.2394L60.0479 34.7133L63.1906 34.3728L64.5997 35.3376L66.7446 38.1754L66.337 38.9963L65.2547 42.264L67.2452 43.8889L68.131 43.706L68.2314 46.5165L67.9681 47.331L66.3035 47.7483Z" fill="#D98B9D" stroke="white" stroke-width="0.448976"/>
<path d="M31.6861 63.0312L30.8138 60.6118L29.0197 58.5896L30.0626 56.4538L29.3338 55.1621L30.6282 54.0617L31.4573 54.4359L31.5364 56.0702L34.0563 57.1097L35.2026 61.5388L32.7304 61.7479L31.6861 63.0312Z" fill="#D98B9D" stroke="white" stroke-width="0.448976"/>
<path d="M50.5942 31.8697L48.6814 27.779L50.4048 26.9603L51.2843 25.2618L53.0836 24.7825L54.5807 26.9203L52.8664 30.0135L53.4843 32.5812L52.5603 32.5802L50.7382 34.5908L50.5942 31.8697Z" fill="#D98B9D" stroke="white" stroke-width="0.448976"/>
<path d="M61.6607 48.926L62.7318 52.8348L62.7243 54.6132L64.7693 56.4052L65.2074 59.1316L67.024 62.2374L61.4168 65.5944L56.7318 66.1841L56.2803 65.3527L56.0594 62.5885L58.1512 58.2656L56.2986 52.921L57.5813 50.4921L61.6607 48.926Z" fill="#D98B9D" stroke="white" stroke-width="0.448976"/>
<path d="M33.3778 39.0403L30.474 35.2702L27.6108 35.575L26.8069 31.9468L28.024 27.3422L29.9351 25.2843L32.3968 26.4278L35.7304 30.8443L36.0941 32.7214L38.6493 36.7553L35.88 36.3276L33.3778 39.0403Z" fill="#D98B9D" stroke="white" stroke-width="0.448976"/>
<path d="M98.5362 29.7445L98.9703 31.5124L98.3041 33.193L95.1405 32.8966L93.1301 31.3442L93.4971 29.3914L93.4916 28.4717L93.1974 24.8257L97.8828 19.0071L98.8536 21.6189L101.566 22.3662L100.772 26.8447L98.5362 29.7445Z" fill="#D98B9D" stroke="white" stroke-width="0.448976"/>
<path d="M31.4572 54.4367L30.628 54.0625L29.3337 55.163L28.3756 55.0358L27.3268 53.5591L27.3829 45.8949L30.4297 43.6919L32.2372 44.0619L33.5137 45.485L33.1913 47.1835L34.9721 51.5211L34.7068 52.4387L31.4572 54.4367Z" fill="#D98B9D" stroke="white" stroke-width="0.448976"/>
<path d="M31.686 63.0314L32.3286 63.5948L32.7599 67.8431L30.7678 69.1064L28.2951 66.4641L28.7018 62.1202L27.7983 59.6944L29.0196 58.5897L30.8137 60.6119L31.686 63.0314Z" fill="#D98B9D" stroke="white" stroke-width="0.448976"/>
<path d="M38.5479 18.8642L37.8348 15.7626L41.7245 13.3788L42.2678 13.6899L40.6602 15.0153L40.9084 17.2204L43.307 15.668L44.274 17.0207L43.7672 25.1137L43.0609 25.7264L41.4136 24.8415L41.4035 21.2574L37.2655 19.8522L36.1351 17.4169L38.5479 18.8642Z" fill="#D98B9D" stroke="white" stroke-width="0.448976"/>
<path d="M59.7525 88.285L56.6568 86.7715L54.8451 83.7761L55.1087 81.8548L58.1097 78.0994L59.0263 73.4296L61.2138 71.8878L65.0918 75.8029L64.4213 76.4987L63.7909 83.1812L62.3919 86.7284L59.7525 88.285Z" fill="#D98B9D" stroke="white" stroke-width="0.448976"/>
<path d="M89.9355 29.6595L89.2249 28.1671L90.6162 26.8838L92.2426 26.2311L93.4918 28.4719L93.4973 29.3915L89.9355 29.6595Z" fill="#D98B9D" stroke="white" stroke-width="0.448976"/>
<path d="M66.9057 18.9008L70.1823 25.9091L69.3907 27.3922L69.9475 28.0385L68.0725 28.1699L64.7527 26.3811L63.0803 24.6458L62.7148 23.1039L62.8566 20.3975L66.9057 18.9008Z" fill="#D98B9D" stroke="white" stroke-width="0.448976"/>
<path d="M25.6739 81.0251L25.1141 83.1062L24.2023 83.4215L21.6118 82.1487L18.7646 82.3862L17.4024 81.0178L16.6968 80.2663L16.829 76.6686L15.1644 75.9759L14.2133 74.4152L16.9577 73.7677L19.5682 74.8124L21.191 73.855L23.0628 73.9348L25.1767 72.0892L26.0822 72.3446L23.6773 78.2903L24.1149 80.0939L25.6739 81.0251Z" fill="#D98B9D" stroke="white" stroke-width="0.448976"/>
<path d="M66.9059 18.9L67.3414 18.139L69.069 18.4554L71.6187 16.1462L72.5211 16.2398L74.3343 21.517L71.7541 22.3621L72.8392 23.8567L71.1246 25.9451L70.1825 25.9083L66.9059 18.9Z" fill="#D98B9D" stroke="white" stroke-width="0.448976"/>
<path d="M69.1946 35.0765L70.5635 36.1086L71.1146 37.8618L66.3374 38.9958L66.745 38.175L64.6001 35.3372L66.8139 34.3482L69.1946 35.0765Z" fill="#D98B9D" stroke="white" stroke-width="0.448976"/>
<path d="M93.9745 38.0264L92.5388 37.1351L90.0141 37.3337L89.7937 35.6279L93.1303 31.3439L95.1407 32.8962L95.4874 35.1949L94.6506 35.5018L93.9745 38.0264Z" fill="#D98B9D" stroke="white" stroke-width="0.448976"/>
<path d="M49.6235 75.9639L51.2854 73.5822L51.5359 70.6856L50.8783 68.862L52.271 65.3116L56.2803 65.3526L56.7178 67.873L58.412 69.9257L59.0262 73.4288L58.1096 78.0986L55.1085 81.8539L54.845 83.7752L49.447 85.0627L48.9309 84.2913L48.1539 81.588L49.6235 75.9639Z" fill="#D98B9D" stroke="white" stroke-width="0.448976"/>
<rect x="1.14514" y="64.6559" width="22.7144" height="5.00296" fill="white" stroke="black" stroke-width="0.206286"/>
<rect x="41.7771" y="68.8234" width="14.2338" height="4.95087" fill="white" stroke="black" stroke-width="0.206286"/>
<rect x="55.3212" y="54.2374" width="10.108" height="4.95087" fill="white" stroke="black" stroke-width="0.206286"/>
<rect x="41.7461" y="35.4427" width="12.1709" height="4.95087" fill="white" stroke="black" stroke-width="0.206286"/>
<rect x="80.3256" y="28.1913" width="13.2023" height="4.95087" fill="white" stroke="black" stroke-width="0.206286"/>
<rect x="38.589" y="18.6373" width="16.2966" height="4.95087" fill="white" stroke="black" stroke-width="0.206286"/>
<path d="M43.8211 38.3707V36.9989H44.178V38.0592H44.7246V38.3707H43.8211ZM45.1158 38.3707H44.7755L45.221 36.9989H45.6192L46.0936 38.3707H45.7161L45.6233 38.0778H45.2087L45.1158 38.3707ZM45.4108 37.329L45.2685 37.8179H45.5573L45.4191 37.329C45.417 37.329 45.4129 37.329 45.4108 37.329ZM47.0022 36.9989H47.355V38.3707H47.0414L46.5752 37.6095C46.5732 37.6095 46.5711 37.6095 46.569 37.6095V38.3707H46.2184V36.9989H46.5464L46.9981 37.7457C47.0002 37.7457 47.0022 37.7457 47.0022 37.7457V36.9989ZM48.3701 36.9989H48.7229V38.3707H48.4093L47.9431 37.6095C47.941 37.6095 47.939 37.6095 47.9369 37.6095V38.3707H47.5862V36.9989H47.9142L48.366 37.7457C48.368 37.7457 48.3701 37.7457 48.3701 37.7457V36.9989ZM49.3171 38.3707H48.9623V36.9989H49.3171V38.3707ZM50.7426 37.6879C50.7426 38.1562 50.495 38.3955 50.1216 38.3955C49.7379 38.3955 49.511 38.1541 49.511 37.6879C49.511 37.1598 49.8493 36.9742 50.1485 36.9742C50.4661 36.9742 50.7426 37.164 50.7426 37.6879ZM49.8762 37.6735C49.8762 37.8653 49.9174 38.1026 50.1361 38.1026C50.3259 38.1026 50.3816 37.9025 50.3816 37.6941C50.3816 37.5208 50.3362 37.2692 50.1278 37.2692C49.9422 37.2692 49.8762 37.4693 49.8762 37.6735ZM51.7142 36.9989H52.067V38.3707H51.7534L51.2872 37.6095C51.2851 37.6095 51.2831 37.6095 51.281 37.6095V38.3707H50.9303V36.9989H51.2583L51.7101 37.7457C51.7121 37.7457 51.7142 37.7457 51.7142 37.7457V36.9989Z" fill="black"/>
<path d="M58.0258 56.91C58.131 56.91 58.2259 56.8564 58.3146 56.7739L58.4941 57.0049C58.3456 57.1411 58.197 57.2009 58.0073 57.2009C57.6215 57.2009 57.3719 56.9616 57.3719 56.5016C57.3719 55.9591 57.7102 55.7796 58.0176 55.7796C58.2012 55.7796 58.3827 55.86 58.5147 56.0643L58.2631 56.2458C58.1826 56.1344 58.1001 56.0746 58.0011 56.0746C57.8464 56.0746 57.737 56.2107 57.737 56.481C57.737 56.7409 57.8257 56.91 58.0258 56.91ZM58.8732 57.1761H58.5328L58.9784 55.8043H59.3765L59.851 57.1761H59.4735L59.3807 56.8832H58.966L58.8732 57.1761ZM59.1682 56.1344L59.0258 56.6233H59.3146L59.1764 56.1344C59.1744 56.1344 59.1702 56.1344 59.1682 56.1344ZM60.516 57.1761H60.1426L59.7012 55.8043H60.0622L60.3324 56.7429H60.3448L60.6212 55.8043H60.9699L60.516 57.1761ZM61.1798 57.1761H60.8394L61.285 55.8043H61.6832L62.1576 57.1761H61.7801L61.6873 56.8832H61.2726L61.1798 57.1761ZM61.4748 56.1344L61.3325 56.6233H61.6213L61.4831 56.1344C61.481 56.1344 61.4769 56.1344 61.4748 56.1344ZM63.0662 55.8043H63.419V57.1761H63.1054L62.6392 56.415C62.6371 56.415 62.6351 56.415 62.633 56.415V57.1761H62.2823V55.8043H62.6103L63.0621 56.5511C63.0642 56.5511 63.0662 56.5511 63.0662 56.5511V55.8043Z" fill="black"/>
<path d="M44.2073 71.2954V71.7513H43.8525V70.3795H44.3558C44.6797 70.3795 44.8756 70.5301 44.8756 70.8148C44.8756 71.1345 44.6425 71.2954 44.3125 71.2954H44.2073ZM44.2073 71.0211H44.2877C44.4239 71.0211 44.5105 70.9798 44.5105 70.8375C44.5105 70.6972 44.4362 70.658 44.3063 70.658H44.2073V71.0211ZM45.033 71.7513V70.3795H45.3898V71.4399H45.9365V71.7513H45.033ZM47.1982 71.0685C47.1982 71.5368 46.9506 71.7761 46.5772 71.7761C46.1936 71.7761 45.9666 71.5347 45.9666 71.0685C45.9666 70.5404 46.3049 70.3548 46.6041 70.3548C46.9217 70.3548 47.1982 70.5446 47.1982 71.0685ZM46.3318 71.0541C46.3318 71.2459 46.373 71.4832 46.5917 71.4832C46.7815 71.4832 46.8372 71.2831 46.8372 71.0747C46.8372 70.9014 46.7918 70.6498 46.5834 70.6498C46.3978 70.6498 46.3318 70.8499 46.3318 71.0541ZM47.3756 70.3795H47.7304V71.2769C47.7304 71.4337 47.8109 71.4811 47.9243 71.4811C48.0316 71.4811 48.1079 71.4172 48.1079 71.2872V70.3795H48.4627V71.3285C48.4627 71.6069 48.2399 71.7761 47.9161 71.7761C47.5592 71.7761 47.3756 71.6317 47.3756 71.2975V70.3795ZM48.8862 71.7513H48.5458L48.9914 70.3795H49.3895L49.864 71.7513H49.4864L49.3936 71.4584H48.979L48.8862 71.7513ZM49.1811 70.7096L49.0388 71.1985H49.3276L49.1894 70.7096C49.1873 70.7096 49.1832 70.7096 49.1811 70.7096ZM50.3435 71.2377V71.7513H49.9887V70.3795H50.4796C50.7973 70.3795 51.0098 70.4765 51.0098 70.7694C51.0098 70.9427 50.9046 71.0644 50.7973 71.118C50.8344 71.1366 50.8675 71.1758 50.8881 71.2253L51.1191 71.7513H50.7396L50.5498 71.3161C50.5271 71.2645 50.4941 71.2377 50.4404 71.2377H50.3435ZM50.3435 70.9654H50.4776C50.5828 70.9654 50.6467 70.9118 50.6467 70.7983C50.6467 70.6848 50.5787 70.656 50.4508 70.656H50.3435V70.9654ZM51.2437 71.7513V70.3795H52.1411V70.689H51.5985V70.8973H52.0647V71.2067H51.5985V71.4419H52.1555V71.7513H51.2437ZM52.2511 70.3795H53.3485V70.689H52.9689V71.7513H52.6162V70.689H52.2511V70.3795Z" fill="black"/>
<path d="M55.3335 25.9207V24.5488H55.6904V25.6092H56.2371V25.9207H55.3335ZM57.4987 25.2378C57.4987 25.7061 57.2512 25.9454 56.8778 25.9454C56.4941 25.9454 56.2672 25.7041 56.2672 25.2378C56.2672 24.7098 56.6055 24.5241 56.9046 24.5241C57.2223 24.5241 57.4987 24.7139 57.4987 25.2378ZM56.6323 25.2234C56.6323 25.4153 56.6736 25.6525 56.8923 25.6525C57.082 25.6525 57.1377 25.4524 57.1377 25.244C57.1377 25.0708 57.0924 24.8191 56.884 24.8191C56.6983 24.8191 56.6323 25.0192 56.6323 25.2234ZM57.6762 24.5488H58.031V25.4462C58.031 25.603 58.1114 25.6504 58.2249 25.6504C58.3322 25.6504 58.4085 25.5865 58.4085 25.4565V24.5488H58.7633V25.4978C58.7633 25.7763 58.5405 25.9454 58.2166 25.9454C57.8598 25.9454 57.6762 25.801 57.6762 25.4668V24.5488ZM59.1867 25.9207H58.8464L59.2919 24.5488H59.6901L60.1645 25.9207H59.787L59.6942 25.6277H59.2796L59.1867 25.9207ZM59.4817 24.8789L59.3394 25.3678H59.6282L59.49 24.8789C59.4879 24.8789 59.4838 24.8789 59.4817 24.8789ZM61.0731 24.5488H61.4259V25.9207H61.1123L60.6461 25.1595C60.6441 25.1595 60.642 25.1595 60.6399 25.1595V25.9207H60.2892V24.5488H60.6172L61.069 25.2956C61.0711 25.2956 61.0731 25.2956 61.0731 25.2956V24.5488ZM62.441 24.5488H62.7937V25.9207H62.4802L62.014 25.1595C62.0119 25.1595 62.0099 25.1595 62.0078 25.1595V25.9207H61.6571V24.5488H61.9851L62.4369 25.2956C62.4389 25.2956 62.441 25.2956 62.441 25.2956V24.5488ZM63.025 25.9207V24.5488H63.9223V24.8583H63.3798V25.0666H63.846V25.3761H63.3798V25.6112H63.9367V25.9207H63.025ZM64.6831 25.6545C64.7883 25.6545 64.8832 25.6009 64.9719 25.5184L65.1513 25.7494C65.0028 25.8856 64.8543 25.9454 64.6645 25.9454C64.2787 25.9454 64.0291 25.7061 64.0291 25.2461C64.0291 24.7036 64.3674 24.5241 64.6748 24.5241C64.8584 24.5241 65.0399 24.6045 65.172 24.8088L64.9203 24.9903C64.8398 24.8789 64.7573 24.8191 64.6583 24.8191C64.5036 24.8191 64.3943 24.9552 64.3943 25.2255C64.3943 25.4854 64.483 25.6545 64.6831 25.6545Z" fill="black"/>
<path d="M30.6841 27.5441V28H30.3293V26.6282H30.8326C31.1565 26.6282 31.3524 26.7788 31.3524 27.0635C31.3524 27.3832 31.1193 27.5441 30.7893 27.5441H30.6841ZM30.6841 27.2697H30.7645C30.9007 27.2697 30.9873 27.2285 30.9873 27.0862C30.9873 26.9459 30.9131 26.9067 30.7831 26.9067H30.6841V27.2697ZM31.5098 28V26.6282H31.8666V27.6885H32.4133V28H31.5098ZM32.5714 28V26.6282H33.4688V26.9376H32.9262V27.146H33.3924V27.4554H32.9262V27.6906H33.4832V28H32.5714ZM33.651 26.6282H34.0058V27.5255C34.0058 27.6823 34.0862 27.7298 34.1997 27.7298C34.307 27.7298 34.3833 27.6658 34.3833 27.5359V26.6282H34.7381V27.5771C34.7381 27.8556 34.5153 28.0248 34.1914 28.0248C33.8346 28.0248 33.651 27.8804 33.651 27.5462V26.6282ZM35.6621 27.408L35.9405 26.6282H36.3057L36.3779 28H36.0396L36.0004 27.2759H35.9942L35.7735 27.8618H35.5259L35.3072 27.2966H35.299L35.2598 28H34.9236L35.0019 26.6282H35.3712L35.6538 27.408H35.6621ZM36.5743 28V26.6282H37.4716V26.9376H36.9291V27.146H37.3953V27.4554H36.9291V27.6906H37.4861V28H36.5743ZM37.6538 26.6282H38.0086V27.5255C38.0086 27.6823 38.0891 27.7298 38.2025 27.7298C38.3098 27.7298 38.3861 27.6658 38.3861 27.5359V26.6282H38.7409V27.5771C38.7409 27.8556 38.5181 28.0248 38.1943 28.0248C37.8374 28.0248 37.6538 27.8804 37.6538 27.5462V26.6282ZM39.3163 27.4863V28H38.9615V26.6282H39.4524C39.7701 26.6282 39.9826 26.7251 39.9826 27.0181C39.9826 27.1914 39.8774 27.3131 39.7701 27.3667C39.8072 27.3853 39.8402 27.4245 39.8609 27.474L40.0919 28H39.7123L39.5226 27.5647C39.4999 27.5132 39.4669 27.4863 39.4132 27.4863H39.3163ZM39.3163 27.214H39.4504C39.5556 27.214 39.6195 27.1604 39.6195 27.047C39.6195 26.9335 39.5514 26.9046 39.4235 26.9046H39.3163V27.214ZM40.1629 27.542V27.2883H40.7033V27.542H40.1629ZM40.8813 26.6282H41.4073C41.6549 26.6282 41.8694 26.7004 41.8694 26.9809C41.8694 27.1027 41.8034 27.1975 41.7147 27.2615C41.8488 27.3151 41.9375 27.4141 41.9375 27.5771C41.9375 27.8515 41.7395 28 41.3784 28H40.8813V26.6282ZM41.2361 27.4203V27.7298H41.3681C41.5125 27.7298 41.562 27.6679 41.562 27.5689C41.562 27.4678 41.494 27.4203 41.3784 27.4203H41.2361ZM41.2361 26.8861V27.1687H41.3372C41.4568 27.1687 41.5105 27.1047 41.5105 27.0243C41.5105 26.917 41.4403 26.8861 41.3496 26.8861H41.2361ZM43.2903 27.3172C43.2903 27.7855 43.0427 28.0248 42.6693 28.0248C42.2856 28.0248 42.0587 27.7834 42.0587 27.3172C42.0587 26.7891 42.397 26.6034 42.6962 26.6034C43.0138 26.6034 43.2903 26.7932 43.2903 27.3172ZM42.4239 27.3028C42.4239 27.4946 42.4651 27.7318 42.6838 27.7318C42.8736 27.7318 42.9293 27.5317 42.9293 27.3234C42.9293 27.1501 42.8839 26.8984 42.6755 26.8984C42.4899 26.8984 42.4239 27.0985 42.4239 27.3028ZM43.478 28V26.6282H43.9587C44.3692 26.6282 44.625 26.8304 44.625 27.2677C44.625 27.804 44.3114 28 43.9669 28H43.478ZM43.8328 26.9046V27.7256H43.971C44.1546 27.7256 44.2701 27.5854 44.2701 27.3028C44.2701 26.9851 44.1196 26.9046 43.9483 26.9046H43.8328ZM45.9978 27.3172C45.9978 27.7855 45.7502 28.0248 45.3768 28.0248C44.9932 28.0248 44.7662 27.7834 44.7662 27.3172C44.7662 26.7891 45.1045 26.6034 45.4037 26.6034C45.7213 26.6034 45.9978 26.7932 45.9978 27.3172ZM45.1314 27.3028C45.1314 27.4946 45.1726 27.7318 45.3913 27.7318C45.5811 27.7318 45.6368 27.5317 45.6368 27.3234C45.6368 27.1501 45.5914 26.8984 45.383 26.8984C45.1974 26.8984 45.1314 27.0985 45.1314 27.3028ZM46.1752 26.6282H46.53V27.5255C46.53 27.6823 46.6105 27.7298 46.7239 27.7298C46.8312 27.7298 46.9075 27.6658 46.9075 27.5359V26.6282H47.2623V27.5771C47.2623 27.8556 47.0395 28.0248 46.7157 28.0248C46.3588 28.0248 46.1752 27.8804 46.1752 27.5462V26.6282Z" fill="black"/>
<path d="M35.4703 46.5441V47H35.1155V45.6282H35.6189C35.9427 45.6282 36.1387 45.7788 36.1387 46.0635C36.1387 46.3832 35.9056 46.5441 35.5755 46.5441H35.4703ZM35.4703 46.2697H35.5508C35.6869 46.2697 35.7736 46.2285 35.7736 46.0862C35.7736 45.9459 35.6993 45.9067 35.5694 45.9067H35.4703V46.2697ZM36.296 47V45.6282H36.6529V46.6885H37.1996V47H36.296ZM38.4612 46.3172C38.4612 46.7855 38.2137 47.0248 37.8403 47.0248C37.4566 47.0248 37.2297 46.7834 37.2297 46.3172C37.2297 45.7891 37.568 45.6034 37.8671 45.6034C38.1848 45.6034 38.4612 45.7932 38.4612 46.3172ZM37.5948 46.3028C37.5948 46.4946 37.6361 46.7318 37.8547 46.7318C38.0445 46.7318 38.1002 46.5317 38.1002 46.3234C38.1002 46.1501 38.0548 45.8984 37.8465 45.8984C37.6608 45.8984 37.5948 46.0985 37.5948 46.3028ZM38.6387 45.6282H38.9935V46.5255C38.9935 46.6823 39.0739 46.7298 39.1874 46.7298C39.2947 46.7298 39.371 46.6658 39.371 46.5359V45.6282H39.7258V46.5771C39.7258 46.8556 39.503 47.0248 39.1791 47.0248C38.8223 47.0248 38.6387 46.8804 38.6387 46.5462V45.6282ZM39.9463 47V45.6282H40.3032V46.6885H40.8499V47H39.9463ZM41.008 47V45.6282H41.9053V45.9376H41.3628V46.146H41.829V46.4554H41.3628V46.6906H41.9198V47H41.008ZM42.6661 46.7339C42.7713 46.7339 42.8662 46.6803 42.9549 46.5977L43.1344 46.8288C42.9858 46.9649 42.8373 47.0248 42.6475 47.0248C42.2618 47.0248 42.0122 46.7855 42.0122 46.3254C42.0122 45.7829 42.3505 45.6034 42.6578 45.6034C42.8414 45.6034 43.023 45.6839 43.155 45.8881L42.9033 46.0696C42.8229 45.9583 42.7403 45.8984 42.6413 45.8984C42.4866 45.8984 42.3773 46.0346 42.3773 46.3048C42.3773 46.5647 42.466 46.7339 42.6661 46.7339ZM43.3381 45.5024C43.3608 45.4962 43.4206 45.492 43.4598 45.492C43.5485 45.4941 43.6352 45.5209 43.6352 45.6199C43.6352 45.7375 43.499 45.9665 43.4268 46.08L43.2473 46.0243L43.3381 45.5024ZM44.5901 45.6282H44.947V47H44.5901V46.4678H44.1569V47H43.8021V45.6282H44.1569V46.1563H44.5901V45.6282Z" fill="black"/>
<path d="M34.8514 58.7519V59.2078H34.4966V57.836H35C35.3238 57.836 35.5198 57.9865 35.5198 58.2712C35.5198 58.591 35.2867 58.7519 34.9566 58.7519H34.8514ZM34.8514 58.4775H34.9319C35.068 58.4775 35.1547 58.4363 35.1547 58.2939C35.1547 58.1536 35.0804 58.1144 34.9505 58.1144H34.8514V58.4775ZM35.6771 59.2078V57.836H36.034V58.8963H36.5807V59.2078H35.6771ZM37.8423 58.525C37.8423 58.9932 37.5948 59.2325 37.2214 59.2325C36.8377 59.2325 36.6108 58.9912 36.6108 58.525C36.6108 57.9969 36.9491 57.8112 37.2482 57.8112C37.5659 57.8112 37.8423 58.001 37.8423 58.525ZM36.9759 58.5105C36.9759 58.7024 37.0172 58.9396 37.2358 58.9396C37.4256 58.9396 37.4813 58.7395 37.4813 58.5311C37.4813 58.3579 37.4359 58.1062 37.2276 58.1062C37.0419 58.1062 36.9759 58.3063 36.9759 58.5105ZM38.0198 57.836H38.3746V58.7333C38.3746 58.8901 38.455 58.9375 38.5685 58.9375C38.6758 58.9375 38.7521 58.8736 38.7521 58.7436V57.836H39.1069V58.7849C39.1069 59.0634 38.8841 59.2325 38.5602 59.2325C38.2034 59.2325 38.0198 59.0881 38.0198 58.7539V57.836ZM40.0309 58.6157L40.3094 57.836H40.6745L40.7467 59.2078H40.4084L40.3692 58.4837H40.363L40.1423 59.0696H39.8947L39.6761 58.5043H39.6678L39.6286 59.2078H39.2924L39.3708 57.836H39.74L40.0226 58.6157H40.0309ZM41.3061 59.2078H40.9513V57.836H41.3061V59.2078ZM41.5454 59.2078V57.836H41.9023V58.8963H42.4489V59.2078H41.5454ZM42.6071 59.2078V57.836H42.9639V58.8963H43.5106V59.2078H42.6071ZM44.0318 59.2078H43.677V57.836H44.0318V59.2078ZM44.5042 59.2078H44.1638L44.6094 57.836H45.0075L45.482 59.2078H45.1045L45.0116 58.9148H44.597L44.5042 59.2078ZM44.7991 58.166L44.6568 58.6549H44.9456L44.8074 58.166C44.8053 58.166 44.8012 58.166 44.7991 58.166ZM45.5561 57.836H45.9109V58.7333C45.9109 58.8901 45.9913 58.9375 46.1048 58.9375C46.2121 58.9375 46.2884 58.8736 46.2884 58.7436V57.836H46.6432V58.7849C46.6432 59.0634 46.4204 59.2325 46.0965 59.2325C45.7397 59.2325 45.5561 59.0881 45.5561 58.7539V57.836Z" fill="black"/>
<path d="M32.033 15.0368H33.1304V15.3462H32.7509V16.4086H32.3981V15.3462H32.033V15.0368ZM33.6327 15.8949V16.4086H33.2779V15.0368H33.7689C34.0865 15.0368 34.299 15.1337 34.299 15.4266C34.299 15.5999 34.1938 15.7216 34.0865 15.7753C34.1237 15.7938 34.1567 15.833 34.1773 15.8825L34.4083 16.4086H34.0288L33.839 15.9733C33.8163 15.9217 33.7833 15.8949 33.7297 15.8949H33.6327ZM33.6327 15.6226H33.7668C33.872 15.6226 33.9359 15.569 33.9359 15.4555C33.9359 15.3421 33.8679 15.3132 33.74 15.3132H33.6327V15.6226ZM34.5329 16.4086V15.0368H35.4303V15.3462H34.8878V15.5545H35.354V15.864H34.8878V16.0991H35.4447V16.4086H34.5329ZM34.7619 14.8594L35.1209 14.5128C35.1931 14.5541 35.2632 14.618 35.2632 14.682C35.2632 14.7335 35.2364 14.7665 35.1642 14.8098C35.0672 14.8655 34.9166 14.9316 34.8382 14.9625L34.7619 14.8594ZM36.682 15.701V16.293C36.5665 16.3756 36.3788 16.4333 36.1704 16.4333C35.7847 16.4333 35.5371 16.2023 35.5371 15.7258C35.5371 15.1915 35.8713 15.012 36.1684 15.012C36.3458 15.012 36.5314 15.0595 36.6882 15.2843L36.4303 15.4741C36.3375 15.3524 36.2571 15.3091 36.1642 15.3091C36.0033 15.3091 35.9022 15.4431 35.9022 15.7051C35.9022 15.9754 35.9827 16.1486 36.1807 16.1486C36.2261 16.1486 36.2942 16.1383 36.3251 16.1239V15.701H36.682ZM37.1351 16.4086H36.7947L37.2403 15.0368H37.6385L38.1129 16.4086H37.7354L37.6426 16.1156H37.2279L37.1351 16.4086ZM37.4301 15.3668L37.2878 15.8557H37.5766L37.4384 15.3668C37.4363 15.3668 37.4322 15.3668 37.4301 15.3668ZM38.1469 16.291L38.2665 16.0001C38.3614 16.0599 38.5409 16.126 38.6585 16.126C38.7348 16.126 38.8008 16.1012 38.8008 16.0063C38.8008 15.9217 38.7121 15.8929 38.5924 15.8578C38.4171 15.8042 38.1984 15.7196 38.1984 15.4431C38.1984 15.1667 38.413 15.012 38.6977 15.012C38.8936 15.012 39.0793 15.0987 39.201 15.2162L39.0174 15.4493C38.9081 15.3689 38.7925 15.3091 38.6977 15.3091C38.6316 15.3091 38.5677 15.34 38.5677 15.4163C38.5677 15.503 38.6626 15.5339 38.7905 15.5752C38.9782 15.635 39.1804 15.7175 39.1804 15.9939C39.1804 16.2807 38.9617 16.4333 38.6564 16.4333C38.4501 16.4333 38.2356 16.3508 38.1469 16.291ZM39.2571 15.0368H40.3545V15.3462H39.9749V16.4086H39.6222V15.3462H39.2571V15.0368ZM40.5019 16.4086V15.0368H41.3993V15.3462H40.8568V15.5545H41.323V15.864H40.8568V16.0991H41.4137V16.4086H40.5019ZM41.5918 16.4086V15.0368H41.9487V16.0971H42.4953V16.4086H41.5918Z" fill="black"/>
<path d="M21.033 31.6282H22.1304V31.9376H21.7509V33H21.3981V31.9376H21.033V31.6282ZM22.6327 32.4863V33H22.2779V31.6282H22.7689C23.0865 31.6282 23.299 31.7251 23.299 32.0181C23.299 32.1914 23.1938 32.3131 23.0865 32.3667C23.1237 32.3853 23.1567 32.4245 23.1773 32.474L23.4083 33H23.0288L22.839 32.5647C22.8163 32.5132 22.7833 32.4863 22.7297 32.4863H22.6327ZM22.6327 32.214H22.7668C22.872 32.214 22.9359 32.1604 22.9359 32.047C22.9359 31.9335 22.8679 31.9046 22.74 31.9046H22.6327V32.214ZM23.5329 33V31.6282H24.4303V31.9376H23.8878V32.146H24.354V32.4554H23.8878V32.6906H24.4447V33H23.5329ZM23.7619 31.4508L24.1209 31.1042C24.1931 31.1455 24.2632 31.2094 24.2632 31.2734C24.2632 31.325 24.2364 31.358 24.1642 31.4013C24.0672 31.457 23.9166 31.523 23.8382 31.5539L23.7619 31.4508ZM24.6228 31.6282H25.1488C25.3964 31.6282 25.6109 31.7004 25.6109 31.9809C25.6109 32.1027 25.5449 32.1975 25.4562 32.2615C25.5903 32.3151 25.679 32.4141 25.679 32.5771C25.679 32.8515 25.4809 33 25.1199 33H24.6228V31.6282ZM24.9776 32.4203V32.7298H25.1096C25.254 32.7298 25.3035 32.6679 25.3035 32.5689C25.3035 32.4678 25.2355 32.4203 25.1199 32.4203H24.9776ZM24.9776 31.8861V32.1687H25.0787C25.1983 32.1687 25.252 32.1047 25.252 32.0243C25.252 31.917 25.1818 31.8861 25.0911 31.8861H24.9776ZM25.8456 33V31.6282H26.7429V31.9376H26.2004V32.146H26.6666V32.4554H26.2004V32.6906H26.7574V33H25.8456ZM26.9251 31.6282H27.28V32.5255C27.28 32.6823 27.3604 32.7298 27.4739 32.7298C27.5811 32.7298 27.6575 32.6658 27.6575 32.5359V31.6282H28.0123V32.5771C28.0123 32.8556 27.7895 33.0248 27.4656 33.0248C27.1087 33.0248 26.9251 32.8804 26.9251 32.5462V31.6282ZM28.5876 32.4863V33H28.2328V31.6282H28.7238C29.0414 31.6282 29.2539 31.7251 29.2539 32.0181C29.2539 32.1914 29.1487 32.3131 29.0414 32.3667C29.0786 32.3853 29.1116 32.4245 29.1322 32.474L29.3633 33H28.9837L28.7939 32.5647C28.7712 32.5132 28.7382 32.4863 28.6846 32.4863H28.5876ZM28.5876 32.214H28.7217C28.8269 32.214 28.8909 32.1604 28.8909 32.047C28.8909 31.9335 28.8228 31.9046 28.6949 31.9046H28.5876V32.214ZM29.4878 33V31.6282H29.9685C30.379 31.6282 30.6348 31.8304 30.6348 32.2677C30.6348 32.804 30.3212 33 29.9767 33H29.4878ZM29.8427 31.9046V32.7256H29.9809C30.1645 32.7256 30.28 32.5854 30.28 32.3028C30.28 31.9851 30.1294 31.9046 29.9582 31.9046H29.8427ZM30.8215 33V31.6282H31.7188V31.9376H31.1763V32.146H31.6425V32.4554H31.1763V32.6906H31.7332V33H30.8215ZM32.6952 31.6282H33.0479V33H32.7344L32.2682 32.2388C32.2661 32.2388 32.2641 32.2388 32.262 32.2388V33H31.9113V31.6282H32.2393L32.6911 32.375C32.6931 32.375 32.6952 32.375 32.6952 32.375V31.6282Z" fill="black"/>
<path d="M105.697 10.8267V11.2826H105.342V9.91079H105.846C106.17 9.91079 106.366 10.0614 106.366 10.3461C106.366 10.6658 106.132 10.8267 105.802 10.8267H105.697ZM105.697 10.5523H105.778C105.914 10.5523 106 10.5111 106 10.3687C106 10.2285 105.926 10.1893 105.796 10.1893H105.697V10.5523ZM106.523 11.2826V9.91079H106.88V10.9711H107.426V11.2826H106.523ZM107.584 11.2826V9.91079H108.482V10.2202H107.939V10.4286H108.406V10.738H107.939V10.9732H108.496V11.2826H107.584ZM108.664 9.91079H109.019V10.8081C109.019 10.9649 109.099 11.0124 109.213 11.0124C109.32 11.0124 109.396 10.9484 109.396 10.8184V9.91079H109.751V10.8597C109.751 11.1382 109.528 11.3073 109.204 11.3073C108.848 11.3073 108.664 11.1629 108.664 10.8288V9.91079ZM109.972 9.91079H110.498C110.745 9.91079 110.96 9.98299 110.96 10.2635C110.96 10.3852 110.894 10.4801 110.805 10.5441C110.939 10.5977 111.028 10.6967 111.028 10.8597C111.028 11.1341 110.83 11.2826 110.469 11.2826H109.972V9.91079ZM110.326 10.7029V11.0124H110.459C110.603 11.0124 110.652 10.9505 110.652 10.8515C110.652 10.7504 110.584 10.7029 110.469 10.7029H110.326ZM110.326 10.1686V10.4513H110.428C110.547 10.4513 110.601 10.3873 110.601 10.3069C110.601 10.1996 110.531 10.1686 110.44 10.1686H110.326ZM111.558 11.2826H111.203V9.91079H111.558V11.2826ZM112.03 11.2826H111.69L112.135 9.91079H112.533L113.008 11.2826H112.63L112.537 10.9897H112.123L112.03 11.2826ZM112.325 10.2408L112.183 10.7297H112.471L112.333 10.2408C112.331 10.2408 112.327 10.2408 112.325 10.2408ZM113.916 9.91079H114.269V11.2826H113.956L113.489 10.5214C113.487 10.5214 113.485 10.5214 113.483 10.5214V11.2826H113.132V9.91079H113.46L113.912 10.6575C113.914 10.6575 113.916 10.6575 113.916 10.6575V9.91079Z" fill="black"/>
<path d="M82.3181 29.7475H83.4155V30.0569H83.036V31.1193H82.6832V30.0569H82.3181V29.7475ZM83.9178 30.6056V31.1193H83.563V29.7475H84.054C84.3716 29.7475 84.5841 29.8444 84.5841 30.1373C84.5841 30.3106 84.4789 30.4323 84.3716 30.486C84.4088 30.5045 84.4418 30.5437 84.4624 30.5932L84.6934 31.1193H84.3139L84.1241 30.684C84.1014 30.6324 84.0684 30.6056 84.0148 30.6056H83.9178ZM83.9178 30.3333H84.0519C84.1571 30.3333 84.221 30.2797 84.221 30.1662C84.221 30.0528 84.153 30.0239 84.0251 30.0239H83.9178V30.3333ZM84.818 31.1193V29.7475H85.7154V30.0569H85.1728V30.2652H85.6391V30.5747H85.1728V30.8098H85.7298V31.1193H84.818ZM85.047 29.5701L85.406 29.2235C85.4782 29.2647 85.5483 29.3287 85.5483 29.3926C85.5483 29.4442 85.5215 29.4772 85.4493 29.5205C85.3523 29.5762 85.2017 29.6423 85.1233 29.6732L85.047 29.5701ZM86.9671 30.4117V31.0037C86.8516 31.0863 86.6639 31.144 86.4555 31.144C86.0698 31.144 85.8222 30.913 85.8222 30.4365C85.8222 29.9022 86.1564 29.7227 86.4535 29.7227C86.6309 29.7227 86.8165 29.7701 86.9733 29.995L86.7154 30.1848C86.6226 30.0631 86.5422 30.0198 86.4493 30.0198C86.2884 30.0198 86.1873 30.1538 86.1873 30.4158C86.1873 30.6861 86.2678 30.8593 86.4658 30.8593C86.5112 30.8593 86.5793 30.849 86.6102 30.8346V30.4117H86.9671ZM87.1768 29.7475H87.5316V30.6448C87.5316 30.8016 87.6121 30.849 87.7255 30.849C87.8328 30.849 87.9091 30.7851 87.9091 30.6551V29.7475H88.2639V30.6964C88.2639 30.9749 88.0411 31.144 87.7173 31.144C87.3604 31.144 87.1768 30.9996 87.1768 30.6654V29.7475ZM88.8475 31.1193H88.4927V29.7475H88.8475V31.1193ZM89.0868 31.1193V29.7475H89.9841V30.0569H89.4416V30.2652H89.9078V30.5747H89.4416V30.8098H89.9986V31.1193H89.0868ZM90.5315 30.6056V31.1193H90.1766V29.7475H90.6676C90.9853 29.7475 91.1978 29.8444 91.1978 30.1373C91.1978 30.3106 91.0926 30.4323 90.9853 30.486C91.0224 30.5045 91.0554 30.5437 91.0761 30.5932L91.3071 31.1193H90.9275L90.7377 30.684C90.7151 30.6324 90.682 30.6056 90.6284 30.6056H90.5315ZM90.5315 30.3333H90.6655C90.7708 30.3333 90.8347 30.2797 90.8347 30.1662C90.8347 30.0528 90.7666 30.0239 90.6387 30.0239H90.5315V30.3333Z" fill="black"/>
<path d="M39.9877 21.1097V21.5656H39.6329V20.1937H40.1362C40.4601 20.1937 40.656 20.3443 40.656 20.629C40.656 20.9488 40.4229 21.1097 40.0929 21.1097H39.9877ZM39.9877 20.8353H40.0681C40.2043 20.8353 40.2909 20.794 40.2909 20.6517C40.2909 20.5114 40.2166 20.4722 40.0867 20.4722H39.9877V20.8353ZM40.8134 21.5656V20.1937H41.7107V20.5032H41.1682V20.7115H41.6344V21.021H41.1682V21.2561H41.7251V21.5656H40.8134ZM42.258 21.0519V21.5656H41.9032V20.1937H42.3942C42.7119 20.1937 42.9243 20.2907 42.9243 20.5836C42.9243 20.7569 42.8191 20.8786 42.7119 20.9323C42.749 20.9508 42.782 20.99 42.8026 21.0395L43.0337 21.5656H42.6541L42.4643 21.1303C42.4416 21.0787 42.4086 21.0519 42.355 21.0519H42.258ZM42.258 20.7796H42.3921C42.4973 20.7796 42.5613 20.726 42.5613 20.6125C42.5613 20.4991 42.4932 20.4702 42.3653 20.4702H42.258V20.7796ZM43.5131 21.0519V21.5656H43.1583V20.1937H43.6492C43.9669 20.1937 44.1794 20.2907 44.1794 20.5836C44.1794 20.7569 44.0742 20.8786 43.9669 20.9323C44.004 20.9508 44.037 20.99 44.0577 21.0395L44.2887 21.5656H43.9091L43.7194 21.1303C43.6967 21.0787 43.6637 21.0519 43.61 21.0519H43.5131ZM43.5131 20.7796H43.6472C43.7524 20.7796 43.8163 20.726 43.8163 20.6125C43.8163 20.4991 43.7482 20.4702 43.6203 20.4702H43.5131V20.7796ZM45.5471 20.8827C45.5471 21.351 45.2995 21.5903 44.9261 21.5903C44.5425 21.5903 44.3155 21.349 44.3155 20.8827C44.3155 20.3547 44.6538 20.169 44.953 20.169C45.2706 20.169 45.5471 20.3588 45.5471 20.8827ZM44.6807 20.8683C44.6807 21.0602 44.7219 21.2974 44.9406 21.2974C45.1304 21.2974 45.1861 21.0973 45.1861 20.8889C45.1861 20.7157 45.1407 20.464 44.9323 20.464C44.7467 20.464 44.6807 20.6641 44.6807 20.8683ZM45.6239 21.448L45.7436 21.1571C45.8384 21.2169 46.0179 21.2829 46.1355 21.2829C46.2118 21.2829 46.2778 21.2582 46.2778 21.1633C46.2778 21.0787 46.1891 21.0498 46.0695 21.0148C45.8941 20.9611 45.6755 20.8766 45.6755 20.6001C45.6755 20.3237 45.89 20.169 46.1747 20.169C46.3707 20.169 46.5563 20.2556 46.678 20.3732L46.4944 20.6063C46.3851 20.5259 46.2696 20.466 46.1747 20.466C46.1087 20.466 46.0447 20.497 46.0447 20.5733C46.0447 20.66 46.1396 20.6909 46.2675 20.7322C46.4552 20.792 46.6574 20.8745 46.6574 21.1509C46.6574 21.4377 46.4387 21.5903 46.1334 21.5903C45.9272 21.5903 45.7126 21.5078 45.6239 21.448ZM46.7831 21.1076V20.8539H47.3236V21.1076H46.7831ZM48.6011 20.858V21.45C48.4855 21.5325 48.2978 21.5903 48.0895 21.5903C47.7037 21.5903 47.4562 21.3593 47.4562 20.8827C47.4562 20.3485 47.7904 20.169 48.0874 20.169C48.2648 20.169 48.4505 20.2164 48.6072 20.4413L48.3494 20.6311C48.2566 20.5094 48.1761 20.466 48.0833 20.466C47.9224 20.466 47.8213 20.6001 47.8213 20.8621C47.8213 21.1324 47.9017 21.3056 48.0998 21.3056C48.1452 21.3056 48.2132 21.2953 48.2442 21.2809V20.858H48.6011ZM48.8107 20.1937H49.1656V21.0911C49.1656 21.2479 49.246 21.2953 49.3595 21.2953C49.4667 21.2953 49.5431 21.2314 49.5431 21.1014V20.1937H49.8979V21.1427C49.8979 21.4212 49.6751 21.5903 49.3512 21.5903C48.9943 21.5903 48.8107 21.4459 48.8107 21.1117V20.1937ZM50.4815 21.5656H50.1267V20.1937H50.4815V21.5656ZM51.0756 21.0519V21.5656H50.7207V20.1937H51.2117C51.5294 20.1937 51.7419 20.2907 51.7419 20.5836C51.7419 20.7569 51.6367 20.8786 51.5294 20.9323C51.5665 20.9508 51.5995 20.99 51.6202 21.0395L51.8512 21.5656H51.4716L51.2818 21.1303C51.2592 21.0787 51.2262 21.0519 51.1725 21.0519H51.0756ZM51.0756 20.7796H51.2096C51.3149 20.7796 51.3788 20.726 51.3788 20.6125C51.3788 20.4991 51.3107 20.4702 51.1828 20.4702H51.0756V20.7796ZM51.9758 21.5656V20.1937H52.8731V20.5032H52.3306V20.7115H52.7968V21.021H52.3306V21.2561H52.8876V21.5656H51.9758ZM53.6339 21.2994C53.7391 21.2994 53.834 21.2458 53.9227 21.1633L54.1022 21.3943C53.9536 21.5305 53.8051 21.5903 53.6153 21.5903C53.2296 21.5903 52.98 21.351 52.98 20.891C52.98 20.3485 53.3183 20.169 53.6256 20.169C53.8092 20.169 53.9908 20.2494 54.1228 20.4537L53.8711 20.6352C53.7907 20.5238 53.7082 20.464 53.6091 20.464C53.4544 20.464 53.3451 20.6001 53.3451 20.8704C53.3451 21.1303 53.4338 21.2994 53.6339 21.2994Z" fill="black"/>
<path d="M3.56457 67.5242V67.9801H3.20976V66.6083H3.7131C4.03697 66.6083 4.23294 66.7589 4.23294 67.0436C4.23294 67.3633 3.99984 67.5242 3.66978 67.5242H3.56457ZM3.56457 67.2498H3.64502C3.78117 67.2498 3.86781 67.2086 3.86781 67.0663C3.86781 66.926 3.79355 66.8868 3.66359 66.8868H3.56457V67.2498ZM4.39026 67.9801V66.6083H4.74714V67.6686H5.2938V67.9801H4.39026ZM5.45191 67.9801V66.6083H6.34926V66.9177H5.80673V67.1261H6.27293V67.4355H5.80673V67.6707H6.3637V67.9801H5.45191ZM6.451 67.8625L6.57065 67.5717C6.66554 67.6315 6.84501 67.6975 6.96259 67.6975C7.03892 67.6975 7.10493 67.6727 7.10493 67.5778C7.10493 67.4933 7.01623 67.4644 6.89658 67.4293C6.72124 67.3757 6.50257 67.2911 6.50257 67.0147C6.50257 66.7383 6.71711 66.5835 7.00179 66.5835C7.19776 66.5835 7.38342 66.6702 7.50513 66.7878L7.32153 67.0209C7.2122 66.9404 7.09668 66.8806 7.00179 66.8806C6.93577 66.8806 6.87183 66.9115 6.87183 66.9879C6.87183 67.0745 6.96672 67.1054 7.09462 67.1467C7.28234 67.2065 7.4845 67.289 7.4845 67.5655C7.4845 67.8522 7.26583 68.0049 6.96053 68.0049C6.75424 68.0049 6.5397 67.9223 6.451 67.8625ZM7.56119 66.6083H8.65864V66.9177H8.27907V67.9801H7.92632V66.9177H7.56119V66.6083ZM9.16915 67.9801H8.81433V66.6083H9.16915V67.9801ZM10.1923 66.6083H10.5451V67.9801H10.2315L9.7653 67.2189C9.76324 67.2189 9.76117 67.2189 9.75911 67.2189V67.9801H9.40842V66.6083H9.73642L10.1882 67.3551C10.1902 67.3551 10.1923 67.3551 10.1923 67.3551V66.6083ZM10.7226 67.5221V67.2684H11.2631V67.5221H10.7226ZM11.4411 67.9801V66.6083H11.7979V67.6686H12.3446V67.9801H11.4411ZM12.5027 67.9801V66.6083H13.4001V66.9177H12.8575V67.1261H13.3237V67.4355H12.8575V67.6707H13.4145V67.9801H12.5027ZM13.5018 67.8625L13.6215 67.5717C13.7163 67.6315 13.8958 67.6975 14.0134 67.6975C14.0897 67.6975 14.1557 67.6727 14.1557 67.5778C14.1557 67.4933 14.067 67.4644 13.9474 67.4293C13.772 67.3757 13.5534 67.2911 13.5534 67.0147C13.5534 66.7383 13.7679 66.5835 14.0526 66.5835C14.2486 66.5835 14.4342 66.6702 14.5559 66.7878L14.3723 67.0209C14.263 66.9404 14.1475 66.8806 14.0526 66.8806C13.9866 66.8806 13.9226 66.9115 13.9226 66.9879C13.9226 67.0745 14.0175 67.1054 14.1454 67.1467C14.3331 67.2065 14.5353 67.289 14.5353 67.5655C14.5353 67.8522 14.3166 68.0049 14.0113 68.0049C13.805 68.0049 13.5905 67.9223 13.5018 67.8625ZM14.661 67.5221V67.2684H15.2015V67.5221H14.661ZM16.479 67.2725V67.8646C16.3634 67.9471 16.1757 68.0049 15.9674 68.0049C15.5816 68.0049 15.3341 67.7738 15.3341 67.2973C15.3341 66.763 15.6682 66.5835 15.9653 66.5835C16.1427 66.5835 16.3284 66.631 16.4851 66.8558L16.2273 67.0456C16.1345 66.9239 16.054 66.8806 15.9612 66.8806C15.8003 66.8806 15.6992 67.0147 15.6992 67.2767C15.6992 67.5469 15.7796 67.7202 15.9777 67.7202C16.0231 67.7202 16.0911 67.7099 16.1221 67.6954V67.2725H16.479ZM17.0538 67.4664V67.9801H16.699V66.6083H17.1899C17.5076 66.6083 17.7201 66.7053 17.7201 66.9982C17.7201 67.1715 17.6149 67.2932 17.5076 67.3468C17.5447 67.3654 17.5777 67.4046 17.5984 67.4541L17.8294 67.9801H17.4498L17.2601 67.5448C17.2374 67.4933 17.2044 67.4664 17.1507 67.4664H17.0538ZM17.0538 67.1942H17.1879C17.2931 67.1942 17.357 67.1405 17.357 67.0271C17.357 66.9136 17.2889 66.8847 17.161 66.8847H17.0538V67.1942ZM17.954 67.9801V66.6083H18.8513V66.9177H18.3088V67.1261H18.775V67.4355H18.3088V67.6707H18.8658V67.9801H17.954ZM18.2572 66.0885L18.6162 66.4309L18.5399 66.5361C18.4635 66.5031 18.3109 66.4391 18.2139 66.3814C18.1397 66.3381 18.1149 66.3051 18.1149 66.2555C18.1149 66.1916 18.185 66.1297 18.2572 66.0885ZM19.7494 67.9801H19.376L18.9345 66.6083H19.2955L19.5658 67.5469H19.5781L19.8546 66.6083H20.2032L19.7494 67.9801ZM20.3251 67.9801V66.6083H21.2224V66.9177H20.6799V67.1261H21.1461V67.4355H20.6799V67.6707H21.2369V67.9801H20.3251ZM21.3242 67.8625L21.4438 67.5717C21.5387 67.6315 21.7182 67.6975 21.8358 67.6975C21.9121 67.6975 21.9781 67.6727 21.9781 67.5778C21.9781 67.4933 21.8894 67.4644 21.7697 67.4293C21.5944 67.3757 21.3757 67.2911 21.3757 67.0147C21.3757 66.7383 21.5903 66.5835 21.875 66.5835C22.0709 66.5835 22.2566 66.6702 22.3783 66.7878L22.1947 67.0209C22.0854 66.9404 21.9698 66.8806 21.875 66.8806C21.8089 66.8806 21.745 66.9115 21.745 66.9879C21.745 67.0745 21.8399 67.1054 21.9678 67.1467C22.1555 67.2065 22.3577 67.289 22.3577 67.5655C22.3577 67.8522 22.139 68.0049 21.8337 68.0049C21.6274 68.0049 21.4129 67.9223 21.3242 67.8625Z" fill="black"/>
<g clip-path="url(#clip0_23_781)">
<path d="M47.0943 31.7736C46.1918 32.7019 45.2893 33.5331 45.2893 34.5585C45.2893 35.5838 46.0974 36.415 47.0943 36.415C48.0912 36.415 48.8993 35.5838 48.8993 34.5585C48.8993 33.5331 47.9968 32.7019 47.0943 31.7736Z" fill="#38587E"/>
</g>
<path d="M47.4358 33.6224H47.8033V34.2412H48.1243V34.7518H47.8033V35.2894H47.1535V34.7441H46.202V34.3263L46.9485 32.7212L47.4629 32.9764L46.8634 34.2412H47.2076L47.4358 33.6224Z" fill="white"/>
<g clip-path="url(#clip1_23_781)">
<path d="M37.4754 52.8241C36.5729 53.7524 35.6704 54.5837 35.6704 55.609C35.6704 56.6344 36.4785 57.4656 37.4754 57.4656C38.4723 57.4656 39.2804 56.6344 39.2804 55.609C39.2804 54.5837 38.3779 53.7524 37.4754 52.8241Z" fill="#38587E"/>
</g>
<g clip-path="url(#clip2_23_781)">
<path d="M20.0944 60.7735C19.1919 61.7018 18.2894 62.533 18.2894 63.5583C18.2894 64.5837 19.0975 65.4149 20.0944 65.4149C21.0913 65.4149 21.8994 64.5837 21.8994 63.5583C21.8994 62.533 20.9969 61.7018 20.0944 60.7735Z" fill="#38587E"/>
</g>
<path d="M36.5987 55.6977C36.5987 55.3844 36.8308 55.1562 37.0009 55.0285C36.8385 54.9125 36.6722 54.7307 36.6722 54.4793C36.6722 54.0848 36.9893 53.7985 37.5192 53.7985C38.0839 53.7985 38.2967 54.0886 38.2967 54.4019C38.2967 54.6301 38.1613 54.8196 37.9872 54.9821C38.2503 55.1639 38.4011 55.3689 38.4011 55.6396C38.4011 56.0342 38.1226 56.3745 37.4728 56.3745C36.7805 56.3745 36.5987 56.011 36.5987 55.6977ZM37.7165 55.6512C37.7165 55.4965 37.5502 55.3766 37.4264 55.2993C37.322 55.3844 37.2137 55.4965 37.2137 55.6628C37.2137 55.7866 37.291 55.8988 37.4612 55.8988C37.6237 55.8988 37.7165 55.7982 37.7165 55.6512ZM37.4999 54.2395C37.3916 54.2395 37.2833 54.3091 37.2833 54.4367C37.2833 54.5798 37.3955 54.6688 37.5231 54.7539C37.6198 54.6688 37.7204 54.545 37.7204 54.429C37.7204 54.2781 37.6043 54.2395 37.4999 54.2395Z" fill="white"/>
<path d="M19.6354 64.3393L19.5078 63.8559C19.9371 63.7901 20.235 63.6431 20.3123 63.2757C20.204 63.3414 20.0532 63.3917 19.8791 63.3917C19.4459 63.3917 19.2138 63.1094 19.2138 62.6413C19.2138 62.1076 19.5194 61.7479 20.1073 61.7479C20.7339 61.7479 20.9737 62.1965 20.9737 62.8618C20.9737 63.531 20.7184 64.2272 19.6354 64.3393ZM19.8404 62.6104C19.8404 62.8309 19.9255 62.9546 20.0648 62.9546C20.1421 62.9546 20.2775 62.9121 20.3433 62.8657C20.3471 62.4673 20.2814 62.2391 20.0918 62.2391C19.9487 62.2391 19.8404 62.3513 19.8404 62.6104Z" fill="white"/>
<g clip-path="url(#clip3_23_781)">
<path d="M55.0944 35.7736C54.1919 36.7019 53.2894 37.5331 53.2894 38.5585C53.2894 39.5838 54.0975 40.415 55.0944 40.415C56.0913 40.415 56.8994 39.5838 56.8994 38.5585C56.8994 37.5331 55.9969 36.7019 55.0944 35.7736Z" fill="#38587E"/>
</g>
<path d="M54.4614 37.5372L54.1519 37.1194C54.2835 36.9995 54.6277 36.7481 55.1267 36.7481C55.5869 36.7481 55.8461 37.0111 55.8461 37.3554C55.8461 37.572 55.7455 37.7654 55.5444 37.9046C55.7571 38.0787 55.8809 38.3146 55.8809 38.5505C55.8809 38.9528 55.614 39.3241 54.9758 39.3241C54.6625 39.3241 54.3376 39.2274 54.1481 39.123L54.3221 38.6124C54.5078 38.7091 54.7901 38.7826 54.941 38.7826C55.1073 38.7826 55.2272 38.7207 55.2272 38.5815C55.2272 38.4655 55.1692 38.3649 55.0725 38.245C54.9565 38.2837 54.8211 38.3185 54.6548 38.3494L54.5039 37.8814C54.8752 37.804 55.1885 37.7151 55.1885 37.4985C55.1885 37.3554 55.0957 37.3051 54.9835 37.3051C54.8404 37.3051 54.6238 37.4173 54.4614 37.5372Z" fill="white"/>
<path d="M44.6745 13.1191C43.772 14.0473 42.8695 14.8786 42.8695 15.9039C42.8695 16.9293 43.6776 17.7605 44.6745 17.7605C45.6714 17.7605 46.4795 16.9293 46.4795 15.9039C46.4795 14.8786 45.577 14.0473 44.6745 13.1191Z" fill="#38587E"/>
<g clip-path="url(#clip4_23_781)">
<path d="M43.6432 21.7736C42.7407 22.7019 41.8382 23.5331 41.8382 24.5585C41.8382 25.5838 42.6464 26.415 43.6432 26.415C44.6401 26.415 45.4482 25.5838 45.4482 24.5585C45.4482 23.5331 44.5457 22.7019 43.6432 21.7736Z" fill="#38587E"/>
</g>
<g clip-path="url(#clip5_23_781)">
<path d="M52.0944 22.4021C51.1919 23.3304 50.2894 24.1617 50.2894 25.187C50.2894 26.2124 51.0975 27.0436 52.0944 27.0436C53.0913 27.0436 53.8994 26.2124 53.8994 25.187C53.8994 24.1617 52.9969 23.3304 52.0944 22.4021Z" fill="#38587E"/>
</g>
<path d="M43.5895 16.6639H43.8786V15.7754L43.6001 15.9159L43.4357 15.6242L43.982 15.29H44.3507L44.3242 15.6162V16.6639H44.6V16.998H43.5895V16.6639ZM44.8923 16.6639H45.1814V15.7754L44.9029 15.9159L44.7385 15.6242L45.2848 15.29H45.6535L45.627 15.6162V16.6639H45.9028V16.998H44.8923V16.6639Z" fill="white"/>
<path d="M42.5584 25.3182H42.8475V24.4297L42.569 24.5702L42.4045 24.2785L42.9509 23.9443H43.3196L43.293 24.2705V25.3182H43.5689V25.6523H42.5584V25.3182ZM43.9195 24.496L43.6755 24.2016C43.8479 24.0292 44.0813 23.9098 44.3227 23.9098C44.686 23.9098 44.8717 24.1087 44.8717 24.4058C44.8717 24.6021 44.7948 24.7506 44.6383 24.9256L44.3094 25.2943H44.9247V25.6523H43.6888V25.3845L44.2378 24.7638C44.3439 24.6418 44.4022 24.5729 44.4022 24.4562C44.4022 24.3554 44.3333 24.3103 44.2537 24.3103C44.1582 24.3103 44.0309 24.3899 43.9195 24.496Z" fill="white"/>
<path d="M51.0095 25.9467H51.2986V25.0582L51.0202 25.1988L50.8557 24.907L51.4021 24.5728H51.7707L51.7442 24.8991V25.9467H52.0201V26.2809H51.0095V25.9467ZM52.7898 24.5384C53.1876 24.5384 53.4263 24.7983 53.4263 25.4109C53.4263 26.0475 53.1903 26.3048 52.7739 26.3048C52.3442 26.3048 52.1347 26.0316 52.1347 25.4189C52.1347 24.8036 52.3999 24.5384 52.7898 24.5384ZM52.7792 25.9547C52.8985 25.9547 52.9834 25.8433 52.9834 25.4162C52.9834 25.0131 52.9038 24.8991 52.7845 24.8991C52.6572 24.8991 52.5802 25.0211 52.5802 25.4454C52.5802 25.8273 52.6598 25.9547 52.7792 25.9547Z" fill="white"/>
<g clip-path="url(#clip6_23_781)">
<path d="M36.0944 28.7737C35.1919 29.702 34.2894 30.5332 34.2894 31.5586C34.2894 32.5839 35.0975 33.4152 36.0944 33.4152C37.0913 33.4152 37.8994 32.5839 37.8994 31.5586C37.8994 30.5332 36.9969 29.702 36.0944 28.7737Z" fill="#38587E"/>
</g>
<g clip-path="url(#clip7_23_781)">
<path d="M40.0944 28.7737C39.1919 29.702 38.2894 30.5332 38.2894 31.5586C38.2894 32.5839 39.0975 33.4152 40.0944 33.4152C41.0913 33.4152 41.8994 32.5839 41.8994 31.5586C41.8994 30.5332 40.9969 29.702 40.0944 28.7737Z" fill="#38587E"/>
</g>
<path d="M40.805 47C39.9025 47.9283 39 48.7596 39 49.7849C39 50.8103 39.8081 51.6415 40.805 51.6415C41.8019 51.6415 42.61 50.8103 42.61 49.7849C42.61 48.7596 41.7075 47.9283 40.805 47Z" fill="#38587E"/>
<path d="M48.8941 74.6508C47.9916 75.5791 47.0891 76.4103 47.0891 77.4357C47.0891 78.461 47.8972 79.2922 48.8941 79.2922C49.891 79.2922 50.6991 78.461 50.6991 77.4357C50.6991 76.4103 49.7966 75.5791 48.8941 74.6508Z" fill="#38587E"/>
<path d="M47.8091 78.1955H48.0982V77.307L47.8197 77.4475L47.6553 77.1558L48.2016 76.8216H48.5703L48.5438 77.1478V78.1955H48.8196V78.5297H47.8091V78.1955ZM48.9508 78.0894C48.9508 77.8746 49.1099 77.7181 49.2266 77.6305C49.1152 77.551 49.0011 77.4263 49.0011 77.2539C49.0011 76.9834 49.2186 76.7871 49.582 76.7871C49.9692 76.7871 50.1151 76.9861 50.1151 77.2009C50.1151 77.3574 50.0223 77.4873 49.9029 77.5987C50.0833 77.7234 50.1867 77.8639 50.1867 78.0496C50.1867 78.3201 49.9957 78.5535 49.5502 78.5535C49.0754 78.5535 48.9508 78.3042 48.9508 78.0894ZM49.7173 78.0576C49.7173 77.9515 49.6032 77.8693 49.5183 77.8162C49.4467 77.8746 49.3725 77.9515 49.3725 78.0655C49.3725 78.1504 49.4255 78.2273 49.5422 78.2273C49.6536 78.2273 49.7173 78.1583 49.7173 78.0576ZM49.5687 77.0895C49.4945 77.0895 49.4202 77.1372 49.4202 77.2248C49.4202 77.3229 49.4971 77.3839 49.5846 77.4422C49.6509 77.3839 49.7199 77.299 49.7199 77.2194C49.7199 77.116 49.6403 77.0895 49.5687 77.0895Z" fill="white"/>
<path d="M35.0095 32.318H35.2986V31.4295L35.0202 31.5701L34.8557 31.2784L35.4021 30.9442H35.7707L35.7442 31.2704V32.318H36.0201V32.6522H35.0095V32.318ZM36.3442 31.4508L36.132 31.1643C36.2222 31.0821 36.4582 30.9097 36.8004 30.9097C37.116 30.9097 37.2937 31.09 37.2937 31.3261C37.2937 31.4746 37.2247 31.6072 37.0868 31.7027C37.2327 31.8221 37.3176 31.9839 37.3176 32.1456C37.3176 32.4215 37.1346 32.6761 36.6969 32.6761C36.4821 32.6761 36.2593 32.6098 36.1294 32.5382L36.2487 32.1881C36.376 32.2544 36.5696 32.3048 36.6731 32.3048C36.7871 32.3048 36.8693 32.2623 36.8693 32.1669C36.8693 32.0873 36.8295 32.0183 36.7632 31.9361C36.6837 31.9626 36.5908 31.9865 36.4768 32.0077L36.3734 31.6868C36.628 31.6338 36.8428 31.5728 36.8428 31.4242C36.8428 31.3261 36.7792 31.2916 36.7022 31.2916C36.6041 31.2916 36.4556 31.3685 36.3442 31.4508Z" fill="white"/>
<path d="M39.0095 32.318H39.2986V31.4295L39.0202 31.5701L38.8557 31.2784L39.4021 30.9442H39.7707L39.7442 31.2704V32.318H40.0201V32.6522H39.0095V32.318ZM40.9608 31.5091H41.2127V31.9335H41.4329V32.2836H41.2127V32.6522H40.7671V32.2783H40.1147V31.9918L40.6266 30.8911L40.9793 31.0662L40.5682 31.9335H40.8043L40.9608 31.5091Z" fill="white"/>
<path d="M39.7201 50.5444H40.0092V49.6559L39.7307 49.7964L39.5663 49.5047L40.1126 49.1705H40.4813L40.4548 49.4967V50.5444H40.7306V50.8785H39.7201V50.5444ZM41.1223 50.913L41.0348 50.5815C41.3292 50.5364 41.5334 50.4356 41.5865 50.1836C41.5122 50.2287 41.4088 50.2632 41.2894 50.2632C40.9923 50.2632 40.8332 50.0696 40.8332 49.7487C40.8332 49.3827 41.0427 49.136 41.4459 49.136C41.8755 49.136 42.04 49.4437 42.04 49.8999C42.04 50.3587 41.8649 50.8361 41.1223 50.913ZM41.2629 49.7275C41.2629 49.8786 41.3212 49.9635 41.4167 49.9635C41.4698 49.9635 41.5626 49.9343 41.6077 49.9025C41.6103 49.6293 41.5652 49.4728 41.4353 49.4728C41.3371 49.4728 41.2629 49.5498 41.2629 49.7275Z" fill="white"/>
<path d="M27.0568 25.7361C26.1543 26.6644 25.2518 27.4956 25.2518 28.521C25.2518 29.5463 26.0599 30.3776 27.0568 30.3776C28.0537 30.3776 28.8618 29.5463 28.8618 28.521C28.8618 27.4956 27.9593 26.6644 27.0568 25.7361Z" fill="#38587E"/>
<path d="M25.9719 29.2804H26.261V28.3919L25.9826 28.5325L25.8181 28.2408L26.3645 27.9066H26.7331L26.7066 28.2328V29.2804H26.9825V29.6146H25.9719V29.2804ZM27.2323 28.8455L27.349 27.9066H28.272V28.2699H27.6912L27.6593 28.5458C28.0121 28.5882 28.2826 28.742 28.2826 29.0948C28.2826 29.3547 28.1049 29.6385 27.6487 29.6385C27.4206 29.6385 27.2138 29.5748 27.0785 29.5059L27.2111 29.1611C27.3225 29.2168 27.4684 29.2751 27.6196 29.2751C27.7522 29.2751 27.8238 29.2088 27.8238 29.0921C27.8238 28.8693 27.4551 28.8455 27.2323 28.8455Z" fill="white"/>
<path d="M36.4233 17.2449C35.5208 18.1732 34.6183 19.0044 34.6183 20.0298C34.6183 21.0551 35.4264 21.8864 36.4233 21.8864C37.4201 21.8864 38.2283 21.0551 38.2283 20.0298C38.2283 19.0044 37.3258 18.1732 36.4233 17.2449Z" fill="#38587E"/>
<path d="M35.3383 20.7894H35.6274V19.9008L35.3489 20.0414L35.1844 19.7497L35.7308 19.4155H36.0995L36.073 19.7417V20.7894H36.3488V21.1235H35.3383V20.7894ZM37.4235 19.3333L37.511 19.6621C37.2193 19.7046 37.0177 19.8425 36.9647 20.0945C37.0336 20.052 37.1662 20.0202 37.2564 20.0202C37.5535 20.0202 37.7126 20.2138 37.7126 20.5374C37.7126 20.9034 37.5137 21.1501 37.1105 21.1501C36.6729 21.1501 36.5058 20.8397 36.5058 20.3836C36.5058 19.9274 36.6888 19.4022 37.4235 19.3333ZM37.2803 20.5586C37.2803 20.4074 37.2246 20.3279 37.1291 20.3279C37.0628 20.3279 36.9806 20.3544 36.9381 20.3809C36.9355 20.6567 36.9806 20.8106 37.1105 20.8106C37.2087 20.8106 37.2803 20.7363 37.2803 20.5586Z" fill="white"/>
<path d="M61.4065 60.065C60.504 60.9933 59.6015 61.8245 59.6015 62.8498C59.6015 63.8752 60.4097 64.7064 61.4065 64.7064C62.4034 64.7064 63.2115 63.8752 63.2115 62.8498C63.2115 61.8245 62.309 60.9933 61.4065 60.065Z" fill="#38587E"/>
<path d="M60.6652 62.4589L60.8354 61.0897H62.1814V61.6196H61.3344L61.2879 62.0218C61.8024 62.0837 62.1969 62.308 62.1969 62.8225C62.1969 63.2015 61.9377 63.6154 61.2725 63.6154C60.9398 63.6154 60.6381 63.5225 60.4409 63.422L60.6343 62.9192C60.7967 63.0004 61.0095 63.0855 61.2299 63.0855C61.4233 63.0855 61.5277 62.9888 61.5277 62.8186C61.5277 62.4937 60.9901 62.4589 60.6652 62.4589Z" fill="white"/>
<path d="M54.0201 41.2703C53.1176 42.1986 52.2151 43.0298 52.2151 44.0552C52.2151 45.0805 53.0232 45.9117 54.0201 45.9117C55.0169 45.9117 55.8251 45.0805 55.8251 44.0552C55.8251 43.0298 54.9226 42.1986 54.0201 41.2703Z" fill="#38587E"/>
<path d="M53.4258 43.0995L53.07 42.6702C53.3214 42.4188 53.6618 42.2447 54.0138 42.2447C54.5437 42.2447 54.8144 42.5348 54.8144 42.968C54.8144 43.2542 54.7022 43.4708 54.474 43.7261L53.9944 44.2637H54.8918V44.7859H53.0893V44.3952L53.89 43.4902C54.0447 43.3122 54.1298 43.2117 54.1298 43.0415C54.1298 42.8945 54.0292 42.8287 53.9132 42.8287C53.7739 42.8287 53.5883 42.9448 53.4258 43.0995Z" fill="white"/>
<path d="M41.6429 34.05C40.7404 34.9783 39.8379 35.8095 39.8379 36.8348C39.8379 37.8602 40.646 38.6914 41.6429 38.6914C42.6397 38.6914 43.4479 37.8602 43.4479 36.8348C43.4479 35.8095 42.5454 34.9783 41.6429 34.05Z" fill="#38587E"/>
<path d="M40.9633 37.0784H41.3849V35.7827L40.9788 35.9877L40.739 35.5622L41.5357 35.0749H42.0734L42.0347 35.5506V37.0784H42.437V37.5658H40.9633V37.0784Z" fill="white"/>
<path d="M59.203 27.0033C58.3415 27.8894 57.48 28.6828 57.48 29.6616C57.48 30.6403 58.2514 31.4337 59.203 31.4337C60.1545 31.4337 60.9259 30.6403 60.9259 29.6616C60.9259 28.6828 60.0644 27.8894 59.203 27.0033Z" fill="#38587E"/>
<path d="M58.3365 28.6238V28.118H60.0201V28.5241C59.2854 29.1222 59.2743 29.9418 59.2743 30.263V30.4956H58.6245V30.2335C58.6245 29.8126 58.6799 29.196 59.2226 28.6238H58.3365Z" fill="white"/>
<g clip-path="url(#clip8_23_781)">
<path d="M110.384 4.89921C109.482 5.82749 108.579 6.65873 108.579 7.68407C108.579 8.70943 109.387 9.54065 110.384 9.54065C111.381 9.54065 112.189 8.70943 112.189 7.68407C112.189 6.65873 111.287 5.82749 110.384 4.89921Z" fill="#38587E"/>
</g>
<path d="M109.299 8.44353H109.588V7.55502L109.31 7.69559L109.145 7.40384L109.692 7.06966H110.06L110.034 7.39589V8.44353H110.31V8.77771H109.299V8.44353ZM110.446 7.43302V7.06966H111.655V7.36141C111.127 7.79107 111.119 8.37987 111.119 8.61062V8.77771H110.652V8.5894C110.652 8.28704 110.692 7.84412 111.082 7.43302H110.446Z" fill="white"/>
<rect x="78.099" y="8.05896" width="16.632" height="4.752" fill="white" stroke="black" stroke-width="0.198"/>
<path d="M80.0909 10.95V9.63325H80.4334V10.651H80.9581V10.95H80.0909ZM81.1099 10.95V9.63325H81.9712V9.93025H81.4504V10.1302H81.8979V10.4272H81.4504V10.653H81.985V10.95H81.1099ZM81.3296 9.46297L81.6742 9.13033C81.7435 9.16993 81.8108 9.23131 81.8108 9.29269C81.8108 9.34219 81.785 9.37387 81.7157 9.41545C81.6227 9.46891 81.4781 9.53227 81.4029 9.56197L81.3296 9.46297ZM83.0291 9.83125L82.4846 10.6886H83.0489V10.95H82.0886V10.7401L82.6212 9.89263H82.0985V9.63325H83.0291V9.83125ZM83.42 10.95H83.0933L83.5209 9.63325H83.9031L84.3585 10.95H83.9961L83.907 10.6688H83.5091L83.42 10.95ZM83.7031 9.95005L83.5665 10.4193H83.8437L83.711 9.95005C83.709 9.95005 83.7051 9.95005 83.7031 9.95005ZM84.8187 10.4569V10.95H84.4782V9.63325H84.9494C85.2543 9.63325 85.4583 9.72631 85.4583 10.0075C85.4583 10.1738 85.3573 10.2906 85.2543 10.3421C85.29 10.3599 85.3217 10.3975 85.3415 10.4451L85.5632 10.95H85.1989L85.0167 10.5322C84.995 10.4827 84.9633 10.4569 84.9118 10.4569H84.8187ZM84.8187 10.1956H84.9474C85.0484 10.1956 85.1098 10.1441 85.1098 10.0352C85.1098 9.92629 85.0445 9.89857 84.9217 9.89857H84.8187V10.1956ZM85.6828 10.95V9.63325H86.1442C86.5382 9.63325 86.7837 9.82729 86.7837 10.2471C86.7837 10.7619 86.4827 10.95 86.1521 10.95H85.6828ZM86.0234 9.89857V10.6866H86.156C86.3323 10.6866 86.4431 10.552 86.4431 10.2807C86.4431 9.97579 86.2986 9.89857 86.1343 9.89857H86.0234ZM87.3034 10.4569V10.95H86.9629V9.63325H87.4341C87.739 9.63325 87.943 9.72631 87.943 10.0075C87.943 10.1738 87.842 10.2906 87.739 10.3421C87.7747 10.3599 87.8063 10.3975 87.8261 10.4451L88.0479 10.95H87.6836L87.5014 10.5322C87.4796 10.4827 87.448 10.4569 87.3965 10.4569H87.3034ZM87.3034 10.1956H87.4321C87.5331 10.1956 87.5945 10.1441 87.5945 10.0352C87.5945 9.92629 87.5291 9.89857 87.4064 9.89857H87.3034V10.1956ZM88.516 10.95H88.1754V9.63325H88.516V10.95ZM88.7456 10.95V9.63325H89.6069V9.93025H89.0862V10.1302H89.5337V10.4272H89.0862V10.653H89.6208V10.95H88.7456ZM89.7818 9.63325H90.1224V10.4946C90.1224 10.645 90.1996 10.6906 90.3085 10.6906C90.4114 10.6906 90.4847 10.6292 90.4847 10.5045V9.63325H90.8253V10.5441C90.8253 10.8114 90.6114 10.9737 90.3006 10.9737C89.958 10.9737 89.7818 10.8351 89.7818 10.5144V9.63325ZM91.7997 9.63325H92.1819L91.7601 10.257L92.2096 10.95H91.8175L91.5562 10.5342L91.2889 10.95H90.8909L91.3542 10.2589L90.9443 9.63325H91.3364L91.5641 10.0075L91.7997 9.63325Z" fill="black"/>
<g clip-path="url(#clip9_23_781)">
<path d="M87.8999 4.74251C87.0336 5.63351 86.1674 6.43135 86.1674 7.41551C86.1674 8.39968 86.943 9.19751 87.8999 9.19751C88.8567 9.19751 89.6324 8.39968 89.6324 7.41551C89.6324 6.43135 88.7661 5.63351 87.8999 4.74251Z" fill="#38587E"/>
</g>
<path d="M88.3429 5.73149L88.4655 6.19184C88.0571 6.25124 87.7749 6.44429 87.7007 6.79698C87.7972 6.73758 87.9828 6.69303 88.1091 6.69303C88.5249 6.69303 88.7476 6.96404 88.7476 7.41696C88.7476 7.92929 88.4692 8.27455 87.9049 8.27455C87.2923 8.27455 87.0584 7.84019 87.0584 7.20164C87.0584 6.56309 87.3146 5.82801 88.3429 5.73149ZM88.1425 7.44666C88.1425 7.23505 88.0645 7.12368 87.9309 7.12368C87.838 7.12368 87.723 7.1608 87.6636 7.19793C87.6598 7.58403 87.723 7.79935 87.9049 7.79935C88.0422 7.79935 88.1425 7.6954 88.1425 7.44666Z" fill="white"/>
<defs>
<clipPath id="clip0_23_781">
<rect width="6.18859" height="6.18859" fill="white" transform="matrix(-1 0 0 -1 50.1886 37.1886)"/>
</clipPath>
<clipPath id="clip1_23_781">
<rect width="6.18859" height="6.18859" fill="white" transform="matrix(-1 0 0 -1 40.5696 58.2393)"/>
</clipPath>
<clipPath id="clip2_23_781">
<rect width="6.18859" height="6.18859" fill="white" transform="matrix(-1 0 0 -1 23.1886 66.1886)"/>
</clipPath>
<clipPath id="clip3_23_781">
<rect width="6.18859" height="6.18859" fill="white" transform="matrix(-1 0 0 -1 58.1886 41.1886)"/>
</clipPath>
<clipPath id="clip4_23_781">
<rect width="6.18859" height="6.18859" fill="white" transform="matrix(-1 0 0 -1 46.7374 27.1886)"/>
</clipPath>
<clipPath id="clip5_23_781">
<rect width="6.18859" height="6.18859" fill="white" transform="matrix(-1 0 0 -1 55.1886 27.8171)"/>
</clipPath>
<clipPath id="clip6_23_781">
<rect width="6.18859" height="6.18859" fill="white" transform="matrix(-1 0 0 -1 39.1886 34.1886)"/>
</clipPath>
<clipPath id="clip7_23_781">
<rect width="6.18859" height="6.18859" fill="white" transform="matrix(-1 0 0 -1 43.1886 34.1886)"/>
</clipPath>
<clipPath id="clip8_23_781">
<rect width="6.18859" height="6.18859" fill="white" transform="matrix(-1 0 0 -1 113.478 10.3142)"/>
</clipPath>
<clipPath id="clip9_23_781">
<rect width="5.94001" height="5.94001" fill="white" transform="matrix(-1 0 0 -1 90.8701 9.94006)"/>
</clipPath>
</defs>
</svg>
