<?xml version="1.0" encoding="utf-8"?>
<!-- Generator: Adobe Illustrator 24.0.2, SVG Export Plug-In . SVG Version: 6.00 Build 0)  -->
<svg version="1.1" id="Calque_1" xmlns="http://www.w3.org/2000/svg" xmlns:xlink="http://www.w3.org/1999/xlink" x="0px" y="0px"
	 viewBox="0 0 319.2 103.9" style="enable-background:new 0 0 319.2 103.9;" xml:space="preserve">
<style type="text/css">
	.st0{fill:#878787;}
	.st1{fill:#E74124;}
</style>
<g>
	<path class="st0" d="M72.6,86.9h1.7l4.9,11.9l4.9-11.9h1.7l-6,13.9h-1.4L72.6,86.9z"/>
	<path class="st0" d="M87,86.6h1.7v1.7H87V86.6z M87.1,90.5h1.5v10.2h-1.5V90.5z"/>
	<path class="st0" d="M91.3,86.3h1.5v14.4h-1.5V86.3z"/>
	<path class="st0" d="M95.5,86.3H97v14.4h-1.5V86.3z"/>
	<path class="st0" d="M98.8,97.8L98.8,97.8c0-2.2,1.8-3.3,4.4-3.3c1.3,0,2.2,0.2,3.1,0.4v-0.4c0-1.8-1.1-2.8-3-2.8
		c-1.2,0-2.2,0.3-3.1,0.8l-0.5-1.2c1.1-0.5,2.2-0.9,3.7-0.9c1.4,0,2.6,0.4,3.3,1.1c0.7,0.7,1,1.7,1,3v6.2h-1.5v-1.5
		c-0.7,0.9-1.9,1.8-3.7,1.8C100.7,100.9,98.8,99.8,98.8,97.8z M106.3,97v-1c-0.8-0.2-1.8-0.4-3-0.4c-1.9,0-3,0.8-3,2.1l0,0
		c0,1.3,1.2,2,2.6,2C104.8,99.7,106.3,98.6,106.3,97z"/>
	<path class="st0" d="M109.9,102.5l0.7-1.2c1.2,0.9,2.5,1.3,3.9,1.3c2.3,0,3.7-1.2,3.7-3.6v-1.2c-0.9,1.2-2.1,2.2-4,2.2
		c-2.5,0-4.8-1.8-4.8-4.8l0,0c0-3,2.4-4.8,4.8-4.8c1.9,0,3.2,0.9,4,2.1v-2h1.5v8.4c0,1.6-0.5,2.8-1.3,3.6c-0.9,0.9-2.3,1.4-3.9,1.4
		S111.3,103.4,109.9,102.5z M118.3,95.1L118.3,95.1c0-2.1-1.8-3.5-3.8-3.5c-1.9,0-3.5,1.3-3.5,3.4l0,0c0,2.1,1.6,3.5,3.5,3.5
		C116.5,98.6,118.3,97.2,118.3,95.1z"/>
	<path class="st0" d="M121.5,95.6L121.5,95.6c0-3,2.1-5.4,4.9-5.4c3,0,4.8,2.4,4.8,5.4c0,0.2,0,0.3,0,0.5h-8.1
		c0.2,2.2,1.8,3.5,3.6,3.5c1.4,0,2.4-0.6,3.2-1.4l0.9,0.9c-1,1.1-2.3,1.9-4.2,1.9C123.8,101,121.5,98.8,121.5,95.6z M129.7,95
		c-0.2-1.9-1.2-3.5-3.3-3.5c-1.8,0-3.1,1.5-3.3,3.5H129.7z"/>
	<path class="st0" d="M132,99.4l0.8-1.1c1.1,0.8,2.3,1.3,3.5,1.3s2.1-0.6,2.1-1.6l0,0c0-1-1.2-1.4-2.6-1.8c-1.6-0.5-3.4-1-3.4-2.9
		l0,0c0-1.8,1.5-2.9,3.5-2.9c1.2,0,2.6,0.4,3.7,1.1l-0.7,1.1c-0.9-0.6-2-1-3-1c-1.2,0-2,0.6-2,1.5l0,0c0,1,1.3,1.3,2.6,1.8
		c1.6,0.5,3.3,1.1,3.3,2.9l0,0c0,1.9-1.6,3.1-3.6,3.1C134.8,100.9,133.2,100.3,132,99.4z"/>
	<path class="st0" d="M146.3,93.8L146.3,93.8c0-4,2.9-7.2,7-7.2c2.5,0,4,0.9,5.4,2.2l-1.1,1.1c-1.2-1.1-2.5-1.9-4.4-1.9
		c-3.1,0-5.4,2.5-5.4,5.7l0,0c0,3.2,2.3,5.7,5.4,5.7c1.9,0,3.1-0.7,4.5-2l1,1c-1.4,1.5-3,2.4-5.5,2.4
		C149.3,101,146.3,97.8,146.3,93.8z"/>
	<path class="st0" d="M160.4,86.3h1.5v14.4h-1.5V86.3z"/>
	<path class="st0" d="M164.3,96.8v-6.3h1.5v6c0,1.9,1,3.1,2.8,3.1c1.7,0,3.1-1.3,3.1-3.2v-5.9h1.5v10.2h-1.5v-1.8
		c-0.7,1.1-1.7,2-3.5,2C165.8,100.9,164.3,99.3,164.3,96.8z"/>
	<path class="st0" d="M177.2,98.8v2h-1.5V86.4h1.5v6.3c0.8-1.2,2-2.3,3.9-2.3c2.5,0,4.9,1.9,4.9,5.3l0,0c0,3.3-2.4,5.3-4.9,5.3
		C179.2,100.9,178,99.9,177.2,98.8z M184.5,95.6L184.5,95.6c0-2.5-1.7-4-3.6-4c-1.9,0-3.7,1.6-3.7,3.9l0,0c0,2.4,1.8,4,3.7,4
		C182.8,99.6,184.5,98.1,184.5,95.6z"/>
	<path class="st0" d="M187,99.4l0.8-1.1c1.1,0.8,2.3,1.3,3.5,1.3s2.1-0.6,2.1-1.6l0,0c0-1-1.2-1.4-2.6-1.8c-1.6-0.5-3.4-1-3.4-2.9
		l0,0c0-1.8,1.5-2.9,3.5-2.9c1.2,0,2.6,0.4,3.7,1.1l-0.7,1.1c-0.9-0.6-2-1-3-1c-1.2,0-2,0.6-2,1.5l0,0c0,1,1.3,1.3,2.6,1.8
		c1.6,0.5,3.3,1.1,3.3,2.9l0,0c0,1.9-1.6,3.1-3.6,3.1C189.8,100.9,188.1,100.3,187,99.4z"/>
	<path class="st0" d="M209.7,98.8c-1.3,1.4-2.7,2.2-4.5,2.2c-2.5,0-4.4-1.6-4.4-3.9l0,0c0-1.8,1.2-3.2,3.3-4c-0.9-1.1-1.4-2-1.4-3
		l0,0c0-1.8,1.5-3.3,3.7-3.3c1.9,0,3.4,1.4,3.4,3.1l0,0c0,1.8-1.2,2.9-3.3,3.6l3.2,3.2c0.6-0.9,1.2-1.9,1.7-3.1l1.3,0.6
		c-0.6,1.3-1.2,2.5-2,3.5l2.4,2.5l-1.2,0.9L209.7,98.8z M208.8,97.8l-3.7-3.8c-1.8,0.7-2.6,1.8-2.6,3l0,0c0,1.5,1.2,2.6,2.9,2.6
		C206.6,99.6,207.7,98.9,208.8,97.8z M208.3,89.9L208.3,89.9c0-1.1-0.8-2-2-2s-2.1,0.9-2.1,2l0,0c0,0.8,0.3,1.4,1.4,2.6
		C207.4,91.9,208.3,91.1,208.3,89.9z"/>
	<path class="st0" d="M219.6,86.9h1.6v6.2h8v-6.2h1.6v13.8h-1.6v-6.2h-8v6.2h-1.6V86.9z"/>
	<path class="st0" d="M232.8,95.7L232.8,95.7c0-2.9,2.3-5.4,5.3-5.4c3.1,0,5.3,2.4,5.3,5.3l0,0c0,2.9-2.3,5.3-5.4,5.3
		C235,101,232.8,98.5,232.8,95.7z M241.9,95.7L241.9,95.7c0-2.2-1.6-4-3.8-4c-2.2,0-3.7,1.8-3.7,4l0,0c0,2.2,1.6,4,3.8,4
		C240.3,99.6,241.9,97.8,241.9,95.7z M237.4,86.4h1.3l2.1,2.6h-1.3l-1.5-1.3l-1.5,1.3h-1.3L237.4,86.4z"/>
	<path class="st0" d="M245.7,98v-6.2h-1.4v-1.3h1.4v-3.1h1.5v3.1h3.2v1.3h-3.2v6c0,1.2,0.7,1.7,1.7,1.7c0.5,0,0.9-0.1,1.5-0.4v1.3
		c-0.5,0.3-1.1,0.4-1.8,0.4C247,100.9,245.7,100.1,245.7,98z"/>
	<path class="st0" d="M251.2,95.6L251.2,95.6c0-3,2.1-5.4,4.9-5.4c3,0,4.8,2.4,4.8,5.4c0,0.2,0,0.3,0,0.5h-8.1
		c0.2,2.2,1.8,3.5,3.6,3.5c1.4,0,2.4-0.6,3.2-1.4l0.9,0.9c-1,1.1-2.3,1.9-4.2,1.9C253.5,101,251.2,98.8,251.2,95.6z M259.4,95
		c-0.2-1.9-1.2-3.5-3.3-3.5c-1.8,0-3.1,1.5-3.3,3.5H259.4z"/>
	<path class="st0" d="M262.7,86.3h1.5v14.4h-1.5V86.3z"/>
	<path class="st0" d="M266,99.4l0.8-1.1c1.1,0.8,2.3,1.3,3.5,1.3s2.1-0.6,2.1-1.6l0,0c0-1-1.2-1.4-2.6-1.8c-1.6-0.5-3.4-1-3.4-2.9
		l0,0c0-1.8,1.5-2.9,3.5-2.9c1.2,0,2.6,0.4,3.7,1.1l-0.7,1.1c-0.9-0.6-2-1-3-1c-1.2,0-2,0.6-2,1.5l0,0c0,1,1.3,1.3,2.6,1.8
		c1.6,0.5,3.3,1.1,3.3,2.9l0,0c0,1.9-1.6,3.1-3.6,3.1C268.7,100.9,267.1,100.3,266,99.4z"/>
</g>
<g>
	<g>
		<rect x="98.5" y="25" class="st1" width="7" height="46.9"/>
		<rect x="98" y="7" class="st1" width="8" height="7.7"/>
	</g>
	<rect x="113.1" y="5.6" class="st1" width="7" height="66.2"/>
	<g>
		<path class="st1" d="M146.5,24c-13,0-22.5,10.9-22.5,24.4v0.1c0,14.5,10.5,24.4,23.4,24.4c8.9,0,14.6-3.5,19.3-8.8l-4.4-3.9
			c-3.8,4-8.3,6.6-14.8,6.6c-8.3,0-15.5-5.7-16.5-15.9h37.2c0.1-0.8,0.1-1.4,0.1-2.3C168.3,35,160.4,24,146.5,24z M131.1,45.8
			c0.9-9.2,7.1-16,15.2-16c9.3,0,14.2,7.4,15,16H131.1z"/>
		<polygon class="st1" points="159.4,8.1 152.1,4.7 143.6,17.9 149,17.9 		"/>
	</g>
	<path class="st1" d="M213.3,31.1c-4.3-4.4-10.4-7.1-17.4-7.1c-14.2,0-24.5,11.2-24.5,24.5v0.2c0,13.2,10.3,24.3,24.3,24.3
		c7.1,0,13.2-2.8,17.6-7.3v6.2h7V48.4v-0.2V25h-7L213.3,31.1L213.3,31.1z M213.1,48.6c0,9.9-7.1,18.1-17.2,18.1
		c-9.9,0-17.3-8.2-17.3-18.2v-0.2c0-9.9,7-18.1,17.1-18.1C205.6,30.2,213.1,38.5,213.1,48.6L213.1,48.6z"/>
	<path class="st1" d="M263.9,32.5c-3.6-5.3-10.2-8.6-18-8.6c-11.2,0-22.4,9.1-22.4,24.4v0.2c0,15.4,11.2,24.3,22.4,24.3
		c7.7,0,14.2-3.3,18-9v8h7V5.6h-7V32.5z M264.2,48.4c0,10.8-8.3,18.1-17,18.1c-8.8,0-16.5-7.1-16.5-18.1v-0.2
		c0-11.3,7.4-18.1,16.5-18.1c8.7,0,17,7.3,17,18.1V48.4z"/>
	<g>
		<path class="st1" d="M319.2,48.7c0-13.7-8-24.8-21.9-24.8c-13,0-22.5,10.9-22.5,24.4v0.2c0,14.5,10.5,24.4,23.4,24.4
			c8.9,0,14.6-3.5,19.3-8.8l-4.4-3.9c-3.8,4-8.3,6.6-14.8,6.6c-8.3,0-15.5-5.7-16.5-15.9H319C319.2,50.2,319.2,49.6,319.2,48.7z
			 M281.9,45.8c0.9-9.2,7.1-16,15.2-16c9.3,0,14.2,7.4,15,16H281.9z"/>
	</g>
	<path class="st1" d="M19,59.7C6.4,44.6,2.9,25.8,11.5,18.6c6.4-5.4,18.1-3.2,29.1,5c-0.8,1.5-1.5,3-2.1,4.7
		c-3.2,8.9-2.6,17.9,1.7,22.9c2.2,2.6,5.1,3.9,8.4,3.9c0.7,0,1.5-0.1,2.2-0.2c3.8-0.7,6.8-3.3,8.2-7.1c2.3-6.4,0-15-5.8-22
		c-1.2-1.4-2.5-2.7-3.8-3.9C56.9,10.5,67.2,4.5,75,7.3c10.5,3.8,13.8,22.7,7,41.2c-3.2,8.7-8.2,16.3-13.8,21.3l4.6,4.8
		c6.4-5.7,11.9-14.1,15.4-23.8c8.2-22.6,3.4-44.5-11-49.7C66.4-2.8,53.4,3.9,44,17.8C30.6,8,16,6.1,7.2,13.5
		c-11.8,9.9-8.8,32,6.6,50.5c7.8,9.3,17.4,15.8,26.6,18.5l2.7-6.2C35,74.2,26.1,68.2,19,59.7z M44.8,30.5c0.3-0.9,0.7-1.8,1.1-2.6
		c0.7,0.7,1.5,1.5,2.1,2.3l0,0c4.9,5.9,5.9,12.1,4.7,15.4c-0.6,1.6-1.6,2.5-3.1,2.8c-1.8,0.3-3.2-0.2-4.3-1.5
		C43.1,44.3,42.1,38.1,44.8,30.5z"/>
</g>
</svg>
