<?xml version="1.0" encoding="UTF-8"?>
<svg id="Calque_1" data-name="Calque 1" xmlns="http://www.w3.org/2000/svg" viewBox="0 0 40.75 40.75">
  <defs>
    <style>
      .cls-1 {
        fill-rule: evenodd;
        stroke: #fff;
        stroke-miterlimit: 10;
        stroke-width: .75px;
      }
    </style>
  </defs>
  <path class="cls-1" d="M18.26,1.25c1.17-1.17,3.06-1.17,4.22,0l5.71,5.71c1.17,1.17,1.17,3.06,0,4.22l-5.71,5.71c-1.17,1.17-3.06,1.17-4.22,0l-5.71-5.71c-1.17-1.17-1.17-3.06,0-4.22L18.26,1.25Zm2.11,3.54l-4.28,4.28,4.28,4.28,4.28-4.28-4.28-4.28ZM6.96,12.55c1.17-1.17,3.06-1.17,4.22,0l5.71,5.71c1.17,1.17,1.17,3.06,0,4.22l-5.71,5.71c-1.17,1.17-3.06,1.17-4.22,0L1.25,22.49c-1.17-1.17-1.17-3.06,0-4.22l5.71-5.71Zm2.11,3.54l-4.28,4.28,4.28,4.28,4.28-4.28-4.28-4.28Zm20.49-3.54c1.17-1.17,3.06-1.17,4.23,0l5.71,5.71c1.17,1.17,1.17,3.06,0,4.22l-5.71,5.71c-1.17,1.17-3.06,1.17-4.23,0l-5.71-5.71c-1.17-1.17-1.17-3.06,0-4.22l5.71-5.71Zm2.11,3.54l-4.28,4.28,4.28,4.28,4.28-4.28-4.28-4.28Zm-13.41,7.75c1.17-1.17,3.06-1.17,4.22,0l5.71,5.71c1.17,1.17,1.17,3.06,0,4.23l-5.71,5.71c-1.17,1.17-3.06,1.17-4.22,0l-5.71-5.71c-1.17-1.17-1.17-3.06,0-4.23l5.71-5.71Zm2.11,3.54l-4.28,4.28,4.28,4.28,4.28-4.28-4.28-4.28Z"/>
</svg>